<svg
  aria-hidden="true"
  class="avatar avatar-blog"
  viewBox="0 0 200 278"
  fill="none"
  xmlns="http://www.w3.org/2000/svg"
>
  <g id="lene">
    <g id="body/Coffee">
      <path
        fill-rule="evenodd"
        clip-rule="evenodd"
        d="M103.792 100.286C97.7857 95.7127 82.707 93.656 76.2967 98.0598C69.9653 102.482 69.275 109.633 66.3246 116.212C63.5409 114.9 58.9439 116.779 58.1368 119.363C57.1358 120.581 57.0909 124.004 56.4006 125.641C26.3658 130.422 21.8059 153.839 18.1908 180.423C13.4083 207.399 2.5515 234.316 7.26468 262.075C6.65056 262.964 6.16638 263.828 5.71869 264.853C4.64592 266.679 6.02768 269.262 8.19145 269.162C10.9922 268.916 13.7652 268.581 16.5791 268.476C24.3796 268.205 32.1872 268.237 39.9907 268.336L41.0548 268.35C80.3819 268.84 119.707 269.805 159.036 270.06C160.462 270.062 161.161 268.783 160.971 267.521C160.587 264.979 160.231 262.436 159.859 259.894C169.162 262.351 179.051 262.969 188.327 260.152C188.976 259.491 186.815 259.85 186.472 259.749C195.009 253.916 192.459 241.626 191.703 232.775C187.001 202.446 185.343 168.888 167.175 143.007C159.316 132.445 147.793 124.083 134.552 122.202L134.185 122.151C130.313 121.635 125.998 121.469 122.613 119.363C118.806 116.323 117.184 110.707 113.178 110.655C111.856 110.637 110.057 112.311 108.121 113.447C107.976 110.948 106.629 108.839 106.332 106.901L106.308 106.735C105.998 104.476 106.423 102.444 103.792 100.286ZM39.2442 181.224C47.6848 175.36 69.4887 178.307 69.9878 178.635C71.0869 179.358 71.5601 179.422 72.1545 180.36C72.7414 180.438 73.3278 180.519 73.9137 180.602C75.0891 180.986 74.2181 182.432 72.8604 181.916C73.677 185.438 71.2738 187.943 70.317 191.424C70.0064 192.555 70.3058 194.588 70.317 195.743C70.2243 197.216 68.596 198.956 68.8674 200.433C69.8322 205.686 75.0677 210.81 72.8604 215.905C71.3981 218.782 67 220.249 64.0759 221.227C58.0177 223.552 47.4618 221.14 43.9418 215.905C42.0643 213.112 39.8891 206.069 38.7697 203.884L38.5215 200.419C37.9096 191.803 37.3653 182.529 39.2442 181.224Z"
        fill="var(--color-light)"
      />
      <path
        id="ink-blog"
        fill-rule="evenodd"
        clip-rule="evenodd"
        d="M114.649 110.147C114.067 109.631 113.204 110.279 113.575 110.976C114.407 112.543 115.26 114.027 116.377 115.412C117.054 116.252 117.78 117.046 118.515 117.832C116.628 119.464 115.01 121.49 113.483 123.389C111.529 125.817 109.682 128.349 107.489 130.571C105.327 132.762 102.935 134.294 100.044 135.316L99.4597 135.519C96.555 136.538 93.4505 137.916 91.8132 140.666C91.4903 141.208 92.1404 141.878 92.6869 141.54C95.532 139.778 98.8748 139.424 101.972 138.26C104.963 137.136 107.571 135.405 109.875 133.197C112.175 130.992 114.107 128.483 116.121 126.028C118.114 123.599 120.259 121.526 122.615 119.471C126.252 121.918 130.402 122.982 134.623 124.028L135.084 124.142C139.31 125.188 143.513 126.403 147.477 128.225C150.973 129.831 154.411 131.749 157.258 134.363C160.28 137.137 162.633 140.68 164.786 144.144C169.602 151.895 172.988 160.387 175.969 168.982C179.069 177.922 181.662 187.041 183.756 196.268C184.82 200.961 185.685 205.688 186.396 210.448C186.738 212.741 187.042 215.038 187.309 217.341C187.594 219.799 187.659 222.329 188.413 224.693C188.737 225.706 189.5 226.127 190.264 226.091L190.42 228.032C190.626 230.621 190.817 233.21 190.882 235.814C190.99 240.145 190.941 244.463 190.63 248.784L190.585 249.373C190.341 252.527 189.794 256.071 187.422 258.38C184.966 260.772 181.189 261.524 177.879 261.567C170.169 261.668 162.748 258.025 155.925 254.829C148.899 251.538 142.065 247.884 135.394 243.922C131.997 241.904 128.636 239.819 125.319 237.673C123.691 236.62 122.074 235.549 120.47 234.461C119.551 233.837 118.68 233.154 117.745 232.601C118.203 232.174 118.408 231.503 118.024 230.917C120.728 228.569 121.854 224.38 121.985 220.991C122.092 218.255 121.689 215.526 121.371 212.816C121.211 211.449 121.013 210.085 120.807 208.724C120.726 208.187 120.664 207.612 120.569 207.045C127.871 211.058 135.379 214.631 143.084 217.806C147.034 219.434 151.035 220.897 155.091 222.238L155.913 222.509C159.756 223.767 163.69 224.955 167.663 225.674C167.875 225.712 168.048 225.399 167.821 225.299C163.95 223.591 159.944 222.15 156.014 220.576L155.369 220.313C155.443 220.309 155.52 220.299 155.6 220.28C157.905 219.724 160.191 218.866 162.452 218.145C164.549 217.475 166.906 217.054 168.867 216.043C169.018 215.965 168.934 215.755 168.787 215.745C166.583 215.592 164.19 216.235 162.029 216.613L161.218 216.755C159.858 216.995 158.468 217.252 157.115 217.589C157.066 217.135 156.812 216.68 156.452 216.413C152.487 213.477 152.889 207.546 152.465 203.172L152.151 199.925C151.598 194.242 151.013 188.56 150.123 182.92C150.076 182.619 149.61 182.705 149.608 182.99C149.562 189.981 150.09 196.941 150.355 203.921L150.396 205.066C150.542 209.374 150.656 213.847 153.369 217.161C152.99 216.939 152.477 216.939 152.17 217.305C151.792 217.754 151.574 218.259 151.581 218.754C149.13 217.726 146.689 216.672 144.26 215.596C136.452 212.136 128.807 208.265 121.364 204.076C120.563 203.625 119.802 203.979 119.406 204.574L119.348 204.565C119.339 204.564 119.329 204.563 119.319 204.563L119.263 204.561C119.26 204.561 119.258 204.561 119.256 204.561C118.209 203.985 116.781 204.395 115.882 205.235C115.856 205.26 115.833 205.287 115.81 205.314C114.671 204.803 113.609 204.113 112.644 203.239C110.67 201.45 108.999 199.238 107.541 197.02C104.857 192.935 102.577 188.392 98.9517 185.029C96.0059 182.297 92.3538 180.596 88.5224 179.528C88.5385 179.416 88.4956 179.297 88.4183 179.218C88.2214 179.016 88.081 178.946 87.8268 179.068C87.8066 179.078 87.7944 179.092 87.7861 179.107L87.4123 178.468C87.2082 178.121 86.9986 177.772 86.926 177.68C86.491 177.133 86.0433 176.589 85.5888 176.057C84.8182 175.156 83.9401 174.267 82.9233 173.642C80.697 172.274 78.3566 173.048 76.0678 173.796C74.6848 174.248 73.3064 174.714 71.9259 175.173L71.7835 175.219C70.7541 175.55 69.5495 175.839 69.0891 176.93C68.9069 177.362 68.8787 177.809 68.9636 178.244C59.1864 175.758 48.3269 176.9 38.7859 179.819C38.4198 179.931 38.054 180.232 37.9769 180.628C36.8837 186.234 36.3969 191.983 36.8915 197.685C37.3183 202.607 38.4088 207.43 40.4638 211.936L40.5806 212.19C42.5119 216.366 45.5729 221.514 50.2476 222.823C53.0703 223.613 56.1922 223.147 59.071 223.002C61.8689 222.862 64.7287 222.841 67.5001 222.401C69.9682 222.009 72.1308 220.903 73.6561 218.896C74.9719 217.165 75.6649 215.072 76.2325 212.991C76.4924 213.073 76.7505 213.161 77.0045 213.261C78.0768 213.68 78.9853 214.355 79.8067 215.151C81.5413 216.831 82.8868 218.871 84.7017 220.474C86.3445 221.925 88.2166 223.054 90.2246 223.921C94.3855 225.719 98.8493 226.438 103.251 227.39L103.558 227.457C106.871 228.184 110.253 229.077 113.178 230.802C113.235 231.31 113.466 231.788 113.837 232.101C113.321 232.585 113.103 233.352 113.556 234.072C114.822 236.081 117.003 237.225 118.961 238.51L119.088 238.594C121.014 239.871 122.957 241.122 124.916 242.348C128.898 244.841 132.963 247.197 137.085 249.449C143.716 253.072 150.488 256.488 157.384 259.588C156.97 261.624 157.121 263.724 156.81 265.773L156.762 266.066C156.63 266.827 156.809 267.463 157.333 267.96L157.389 268.011L157.388 268.004L157.437 268.049L157.453 268.063L157.448 268.059C157.508 268.114 157.57 268.165 157.634 268.21L157.715 268.262C158.219 268.568 158.869 268.565 159.386 268.294L159.445 268.262L159.544 268.205C160.227 267.812 160.698 266.839 160.415 266.066C159.718 264.166 159.455 262.139 158.813 260.226L159.323 260.454L159.995 260.747C167.264 263.891 175.339 266.538 183.26 264.395C186.76 263.448 190.031 261.444 191.782 258.179C193.505 254.965 193.749 251.234 193.84 247.66C193.953 243.248 193.717 238.77 193.135 234.396C192.745 231.46 192.272 228.469 191.544 225.563C191.919 225.233 192.194 224.758 192.267 224.171C192.61 221.396 192.009 218.511 191.64 215.75C191.281 213.055 190.883 210.365 190.433 207.683C189.526 202.267 188.471 196.863 187.243 191.51C185.057 181.984 182.171 172.627 178.697 163.494L178.393 162.699C175.182 154.351 171.465 146.181 166.288 138.847C163.812 135.339 161.195 132.158 157.696 129.629C154.418 127.26 150.721 125.555 146.905 124.251C143.085 122.946 139.159 122.072 135.164 121.528C131.106 120.976 126.823 120.637 123.038 118.973C123.517 118.115 123.106 116.956 122.3 116.423C119.588 114.632 117.08 112.301 114.649 110.147ZM27.8344 188.062C27.7207 187.889 27.4509 187.998 27.5008 188.202C28.8198 193.606 30.058 199.021 30.8665 204.528C32.3261 214.467 32.0576 224.536 31.9383 234.549L31.9322 235.067C31.8709 240.46 31.7858 245.854 31.6074 251.245C31.5174 253.97 31.3393 256.721 31.4361 259.448C31.4889 260.926 31.8831 262.325 32.0228 263.786C32.1451 265.064 32.0361 266.361 31.9751 267.641C31.9342 268.491 33.1897 268.455 33.2751 267.641L33.3843 266.587C33.5262 265.254 33.7015 263.929 34.1384 262.653C34.6637 261.119 34.9157 259.612 35.098 258.001C35.3771 255.532 35.5013 253.038 35.609 250.551L35.6827 248.832C36.1326 238.441 36.1168 228.002 35.3885 217.622L35.3352 216.881C34.614 207.069 33.3627 196.468 27.8344 188.062ZM55.9504 126.224C56.2949 126.082 56.1743 125.561 55.7927 125.652L55.0989 125.818C50.015 127.035 45.0234 128.355 40.2782 130.621C35.53 132.888 31.51 136.273 28.3158 140.435C22.1065 148.525 19.5262 158.358 17.4892 168.181C15.2254 179.096 13.1643 190.051 10.8809 200.963L10.4568 202.996C8.3439 213.159 6.349 223.328 4.87909 233.612L4.7735 234.357C3.2912 244.932 2.39961 255.873 4.01704 266.476C4.33701 268.573 7.82755 268.051 7.69104 265.979C7.29688 259.988 7.01465 254.028 7.28738 248.023C7.56039 242.017 8.12366 236.038 8.96332 230.085C9.66994 225.075 10.7233 220.127 11.6554 215.157L11.8015 214.372C12.5821 210.145 13.3868 205.922 14.1897 201.699L15.3895 195.375C17.1879 185.907 19.0214 176.431 21.0931 167.022L21.2161 166.468C23.2435 157.417 26.2326 147.935 32.3142 140.747C38.4857 133.452 47.3206 129.778 55.9504 126.224ZM78.3755 222.236C78.2271 221.905 77.7078 221.941 77.5482 222.236C76.9228 223.39 76.8533 224.862 76.7351 226.165L76.7227 226.299C76.5723 227.889 76.4392 229.484 76.3577 231.078C76.2032 234.105 76.1292 237.128 76.1387 240.158C76.1485 243.264 76.211 246.366 76.3784 249.467L76.4238 250.298C76.5766 252.993 76.833 255.999 78.1134 258.355C78.5789 259.211 79.8448 258.959 80.1144 258.093C80.9976 255.257 80.5441 251.895 80.3176 248.99L80.1417 246.723C79.9675 244.457 79.8014 242.189 79.6696 239.92C79.4891 236.815 79.3402 233.707 79.1969 230.601C79.1503 229.592 79.1 228.582 79.0468 227.573L78.965 226.06C78.8952 224.795 78.901 223.406 78.3755 222.236ZM177.683 226.255L177.292 225.877C176.091 224.703 174.575 222.894 172.8 223.006C172.093 223.051 171.642 223.638 171.789 224.334C172.102 225.822 173.62 226.595 174.713 227.503C175.91 228.498 177.038 229.562 178.164 230.635C179.163 231.587 180.124 232.567 181.062 233.576L181.412 233.956C181.748 234.323 184.142 236.488 183.883 237.05L183.869 237.075C183.797 237.182 183.917 237.33 184.036 237.293C185.07 236.966 185.005 236.08 184.615 235.183C183.864 233.458 182.549 231.863 181.401 230.39C180.256 228.921 179.016 227.552 177.683 226.255ZM74.6303 183.005C75.4296 181.116 78.3739 181.155 80.0455 181.268C84.2548 181.553 88.8091 182.618 92.5544 184.585C96.4373 186.625 99.0528 189.893 101.393 193.507L101.503 193.677C103.784 197.223 105.981 201.42 109.552 203.858C111.372 205.1 113.496 206.234 115.703 206.726C115.855 206.992 116.1 207.203 116.422 207.28L116.572 207.314C117.201 207.453 118.177 207.606 119.021 207.514C119.015 207.927 119.02 208.337 119.009 208.728C118.979 209.848 118.967 210.973 118.967 212.095C118.966 214.444 119.093 216.798 118.995 219.147C118.908 221.224 118.614 223.395 117.617 225.252C116.885 226.615 115.919 227.517 114.754 228.377C111.886 226.63 108.643 225.564 105.352 224.763C101.372 223.795 97.297 223.148 93.4074 221.835C91.5354 221.203 89.7356 220.375 88.1049 219.251C86.3742 218.058 85.0523 216.443 83.6922 214.864L83.4796 214.618C82.0916 213.026 80.577 211.503 78.6153 210.64C76.926 209.896 74.6994 209.764 73.2223 208.614C72.45 208.012 72.3853 207.138 72.304 206.244C73.25 206.379 74.2515 206.162 75.1943 206.052L75.6828 205.994C76.5744 205.889 77.4454 205.772 78.3231 205.545C78.4861 205.503 78.4861 205.257 78.3231 205.215C77.2858 204.947 76.2578 204.833 75.1943 204.709L74.9445 204.678C73.9824 204.551 72.9711 204.361 72.0274 204.573C71.858 203.928 71.6135 203.313 71.2704 202.697C70.7889 201.832 69.8777 200.85 69.7546 199.839C69.7179 199.537 69.7882 199.182 69.9305 198.915L69.9796 198.824C70.0394 198.716 70.1103 198.608 70.214 198.541C70.2254 198.554 70.2498 198.57 70.3026 198.586C71.0288 198.815 71.6624 198.46 71.9987 197.912C73.4262 198.089 74.9841 198.029 76.3228 198.088L77.6763 198.154C79.1226 198.22 80.6346 198.249 81.9937 197.957C82.1834 197.916 82.2409 197.6 82.0508 197.519C80.38 196.805 78.3532 196.577 76.5644 196.302C75.5654 196.149 74.559 196.032 73.5571 195.897C72.8899 195.807 72.1819 195.658 71.4906 195.622C69.7575 193.465 70.6914 190.061 73.1033 189.132C73.9819 189.518 74.7719 189.294 75.7318 189.211C76.69 189.129 77.6506 189.073 78.6126 189.078C80.5404 189.086 82.5832 189.593 84.4922 189.375C84.8027 189.339 85.0913 188.926 84.7825 188.674C83.3212 187.481 81.2269 187.093 79.372 186.838L78.9875 186.787C78.3656 186.706 77.6094 186.587 76.825 186.516C76.6476 186.17 76.3294 185.908 75.8513 185.843C75.7092 185.824 75.5663 185.812 75.4238 185.8L75.426 185.786C74.26 185.73 74.3106 183.761 74.6303 183.005ZM154.453 219.849C154.474 219.881 154.496 219.911 154.52 219.94L154.557 219.983L154.366 219.905L154.453 219.849ZM95.097 192.33L95.0609 192.332C94.0504 192.447 93.3562 193.266 93.109 194.236C92.7499 195.647 92.9261 196.923 92.0621 198.196C91.1733 199.506 90.6268 200.554 90.4976 202.172C90.4445 202.837 90.4689 203.502 90.3207 204.153L90.2132 204.61C90.0992 205.096 90.0058 205.565 90.0625 206.088C90.1144 206.565 90.3465 206.936 90.8246 207.089C92.3825 207.587 93.5854 206.439 93.9879 204.987C94.3356 203.733 93.8713 202.239 94.3619 201.061C94.6336 200.408 95.1349 199.862 95.4181 199.205C95.6986 198.554 95.8395 197.873 95.8845 197.165C95.9699 195.826 94.7855 194.217 95.4463 193.003C95.587 192.745 95.4276 192.322 95.097 192.33ZM115.791 178.51C114.736 178.295 113.539 177.804 112.499 178.212C111.964 178.423 111.7 179.075 112.152 179.528C112.936 180.314 114.076 180.358 115.133 180.544L115.226 180.56C116.475 180.791 117.727 181.011 118.98 181.218C121.338 181.609 123.702 181.954 126.073 182.248C128.509 182.549 130.952 182.818 133.399 183.02L134.346 183.097C136.412 183.262 138.562 183.387 140.59 183.071C140.884 183.025 140.837 182.596 140.59 182.52C138.368 181.848 135.932 181.668 133.636 181.383C131.194 181.081 128.757 180.761 126.326 180.381C123.899 180.002 121.475 179.595 119.06 179.145C117.969 178.943 116.879 178.731 115.791 178.51ZM77.724 176.351C78.6498 176.023 79.6683 175.538 80.6715 175.7C82.4014 175.98 83.9411 177.666 85.3104 178.776L84.6229 178.642C81.1047 177.966 76.4458 177.238 73.4926 179.474C73.485 179.462 73.4792 179.449 73.4707 179.436C73.2322 179.074 72.9561 178.791 72.6546 178.481C72.6258 178.454 72.5979 178.426 72.5705 178.398L72.4079 178.225L72.7799 178.096C73.5767 177.814 74.5206 177.45 74.6698 177.397L74.6802 177.394C75.696 177.05 76.713 176.709 77.724 176.351ZM106.63 102.608C106.775 100.746 103.876 100.762 103.733 102.608C103.42 106.64 104.327 110.634 106.28 114.168C106.294 114.194 106.31 114.217 106.325 114.241C105.104 114.877 103.868 115.487 102.606 116.032C100.99 116.729 99.3445 117.364 97.6693 117.903C96.154 118.39 94.287 118.583 93.0131 119.597C90.3267 121.737 91.3359 126.176 91.8527 129.054L91.9333 129.508C92.1907 130.989 92.3768 132.508 91.7525 133.929C91.0858 135.447 89.7376 136.573 88.5349 137.66L88.292 137.88C87.2265 138.851 86.0091 140.03 85.2276 141.346C84.5142 139.871 83.5417 138.665 82.5135 137.309C81.7799 136.34 82.302 136.021 82.829 135.075C83.3363 134.164 83.584 133.194 83.4254 132.155C83.1327 130.237 81.5996 128.851 80.0735 127.81C78.2713 126.581 76.2599 125.67 74.3968 124.527C70.5686 122.178 66.8403 119.492 63.4814 116.51C63.3887 116.427 63.2281 116.535 63.3023 116.648C65.9556 120.684 69.0668 124.171 72.8905 127.131C74.4409 128.332 76.0696 129.327 77.7092 130.374L78.1806 130.676C78.8389 131.103 79.66 131.673 79.9577 132.399C80.2572 133.129 79.6185 133.68 79.2747 134.285C78.183 136.206 78.7097 137.998 80.004 139.627L80.0643 139.702C81.3504 141.287 82.3251 142.761 82.7913 144.786C83.793 149.136 82.3978 153.667 80.9373 157.75L80.8796 157.911C80.0896 160.112 79.2499 162.297 78.5635 164.534L78.3747 165.152C77.7528 167.209 77.2435 169.239 77.9411 171.354C78.1784 172.074 79.1596 172.244 79.5672 171.567C81.0049 169.179 81.3633 166.305 82.2645 163.68C83.1429 161.121 84.1514 158.609 84.9998 156.039C86.0923 152.732 86.8235 149.171 86.4266 145.701C86.4383 145.681 86.4512 145.662 86.4609 145.641L86.739 145.032C87.4974 143.385 88.2298 141.947 89.6089 140.634C91.0473 139.264 92.6087 138.052 93.7406 136.394C96.1991 132.792 94.6786 128.786 94.3817 124.848L94.3477 124.365C94.2937 123.548 94.2642 122.437 94.7982 121.871C95.399 121.234 96.8077 121.071 97.6048 120.789C99.6647 120.06 101.695 119.211 103.628 118.191C105.468 117.22 107.251 116.148 108.911 114.891L109.752 114.258C111.08 113.257 112.456 112.163 113.346 110.8C113.449 110.643 113.274 110.389 113.088 110.464C111.603 111.067 110.246 112.026 108.857 112.86C108.835 112.809 108.81 112.758 108.781 112.706C107.062 109.595 106.355 106.147 106.63 102.608ZM59.1881 123.926C58.5963 122.304 55.8995 122.429 56.007 124.357C56.0895 125.838 56.7184 127.175 57.2934 128.52L57.3547 128.664C57.9484 130.066 58.6341 131.381 59.4545 132.665C61.0222 135.12 62.8584 137.399 64.8198 139.549C66.5979 141.498 68.9317 142.69 71.6211 142.492C72.7542 142.409 73.898 142.121 74.8909 141.555C76.0702 140.882 77.351 138.863 78.8557 139.352C79.0012 139.399 79.1369 139.186 79.0112 139.085C77.2741 137.686 75.3026 139.855 73.6396 140.378C71.1337 141.165 68.5621 140.295 66.9492 138.269C65.2653 136.154 63.7154 133.785 62.3 131.482C61.5813 130.313 60.9256 129.099 60.3591 127.848C59.7876 126.586 59.6577 125.214 59.1881 123.926ZM63.2274 113.94C63.3004 113.716 63.022 113.503 62.8252 113.631C61.6838 114.374 60.6948 115.356 59.642 116.216C58.4738 117.171 57.2972 118.107 56.1023 119.028C54.3604 120.37 56.3806 122.842 57.914 121.376C60.0123 119.369 62.3104 116.745 63.2274 113.94ZM54.2841 179.784C59.1917 179.256 64.1063 179.368 69.0285 179.509C69.4222 180.797 70.7925 181.894 72.1203 181.935C71.0804 183.518 70.9731 185.66 71.7023 187.339C70.1541 187.955 68.8202 189.062 68.0105 190.639C66.8876 192.825 67.0346 195.257 68.1443 197.277C67.1971 198.134 66.6382 199.527 66.6942 200.839C66.7567 202.303 67.629 203.553 68.3538 204.765C69.137 206.075 69.1633 207.229 69.4039 208.697C69.756 210.845 71.2047 212.148 73.0687 212.961L72.9696 213.351C72.489 215.222 71.8911 217.195 70.5176 218.563C68.7507 220.323 66.0096 220.307 63.6751 220.418L63.5625 220.424C61.4249 220.531 59.2882 220.656 57.1513 220.777L55.5485 220.866C53.0882 221.002 50.7254 221.018 48.7168 219.392C45.4377 216.736 43.1898 212.342 41.7669 208.453C38.7805 200.288 38.7447 191.328 40.1155 182.824C44.7129 181.343 49.483 180.299 54.2841 179.784ZM69.4939 106.086C69.0302 104.298 66.2877 105.035 66.6873 106.803L66.7004 106.856C67.4574 109.775 66.3793 112.747 64.0779 114.639L63.9931 114.708C62.5371 115.873 64.5999 117.91 66.0415 116.756C69.1888 114.238 70.498 109.959 69.4939 106.086Z"
        fill="var(--color-dark)"
      />
    </g>
    <g id="lenes haare">
      <path
        id="Background_4"
        fill-rule="evenodd"
        clip-rule="evenodd"
        d="M100.884 8.20649C58.0549 6.36668 55.0636 17.2404 49.1823 24.1727C46.2636 27.613 38.728 32.708 37.4779 44.4734C36.6101 52.6405 42.1341 62.0539 42.1341 69.3518C42.1341 73.077 36.9127 81.0744 39.3435 86.5038C44.7538 98.5884 56.2092 112 70.8069 112C85.4046 112 112.351 104.972 128.481 84.7983C133.764 78.1904 143.713 10.0463 100.884 8.20649Z"
        fill="var(--color-light)"
      />
      <path
        id="ink-blog-2"
        fill-rule="evenodd"
        clip-rule="evenodd"
        d="M117.261 8.68437C115.048 7.3225 100.023 -0.242005 89.7074 0.0060321C84.365 0.134731 78.3812 -0.266042 73.3359 1.47724C70.812 2.35239 59.8606 3.47701 57.5238 4.76868C56.6818 5.23307 64.4126 5.79451 63.6653 6.3724L63.4791 6.51755H63.4767C61.4722 7.23826 61.5641 7.1704 59.9408 8.68437C56.6872 8.42463 51.5265 10.079 48.3805 11.0828C44.0017 12.4822 38.9743 14.8226 36.1276 18.4613C32.8118 22.6974 26.8044 35.1842 27.1977 40.4885L33.1493 34.263C31.9603 45.2511 34.235 44.9757 38.0792 48.0545C38.3716 48.2885 38.6944 48.4663 39.0289 48.574C36.5518 52.8187 34.5192 57.5314 33.3029 62.2909C28.6598 80.4702 32.2292 99.4287 37.8126 116.95C38.271 118.394 40.4534 119.354 41.5644 117.943C43.548 115.42 46.4297 113.497 49.6716 113.136C51.6715 112.914 53.6621 113.316 55.552 112.409C56.2935 112.05 57.0092 111.465 57.5238 110.754C60.7143 111.964 64.1504 112.535 67.5584 112.394C73.1511 112.165 79.1297 110.228 82.9775 105.978C83.595 105.296 83.7515 104.53 83.6093 103.84C83.1267 103.668 82.6313 103.54 82.1209 103.459C77.2416 106.336 71.8632 108.258 66.0829 108.379C62.743 108.449 59.4851 107.982 56.777 105.895C56.191 105.444 55.6521 104.944 55.1539 104.406C49.4917 100.762 45.4997 94.5734 43.6018 87.9441C41.8334 81.7618 42.051 75.3246 42.6591 68.9832L42.98 65.6369C43.4476 60.7255 43.8815 55.7994 44.0031 50.8671L43.9664 50.8653C42.7707 50.788 42.762 48.9154 43.9664 48.9933C47.0818 49.195 45.9722 50.6425 49.078 50.8653C45.4702 50.8528 53.4111 45.9754 53.8426 44.5588C54.0889 43.7494 55.4977 43.5898 55.647 44.5588C55.8467 45.8551 55.9197 47.1442 55.9415 48.4464C66.031 38.6656 59.0167 48.8325 63.6653 48.9933C64.5228 48.0783 71.012 45.6169 71.4132 44.4884C71.4717 44.3222 71.5301 44.1584 71.591 43.9923C71.9434 45.605 72.4431 47.1824 73.1003 48.7265L79.5124 50.8653C85.9811 50.8956 80.9057 42.6278 87.2222 43.9717C87.6612 43.6345 96.8087 55.7406 94.3968 48.8384C91.9848 41.9361 95.5089 41.9784 96.6678 38.6656L96.8336 38.1982C96.8472 38.1595 96.8615 38.1183 96.8764 38.0749C97.7304 39.4539 98.7493 40.7392 99.8606 41.9361C100.516 42.6416 101.202 43.3163 101.907 43.9717C102.592 44.7322 103.299 45.4812 103.985 46.244C103.958 46.3828 103.935 46.5237 103.916 46.6671C103.706 48.2501 103.684 49.8556 103.838 51.4446C104.116 54.3174 104.927 57.0856 106.229 59.6465L106.27 59.9029C106.468 61.103 106.749 62.3433 107.406 63.247C106.586 64.1662 105.955 65.2641 105.588 66.4839C105.262 67.5699 106.764 68.511 107.543 67.6223C108.162 66.9163 108.849 66.332 109.604 65.8659C109.652 65.9307 109.738 65.9625 109.835 65.9085C111.937 64.7409 115.509 65.0942 117.61 66.194C120.222 67.5605 121.242 70.3661 120.952 73.2092C120.674 75.9259 119.486 79.1013 117.182 80.4936C116.124 81.1324 115.301 81.1862 114.178 80.8797C113.819 80.7821 113.374 80.483 113.183 80.3344L112.995 80.1836C112.259 79.6016 111.574 79.2031 110.705 79.1879C109.816 78.9106 108.923 79.2952 108.583 80.2274L108.562 80.2877C108.403 80.7627 108.113 81.3594 108.176 82.0848C108.242 82.8616 108.597 83.5683 109.128 84.1369C109.219 84.2352 109.318 84.3335 109.418 84.4247C100.273 94.3298 99.0983 109.764 103.788 122.138C103.992 122.681 104.209 123.217 104.436 123.748C105.22 125.569 108.237 125.005 108.621 123.2C108.735 122.66 108.862 122.122 109 121.588C109.253 120.602 109.544 119.626 109.871 118.663L109.996 118.303C110.274 117.507 110.534 116.705 110.815 115.909L110.843 115.818C110.853 115.782 110.865 115.741 110.878 115.694L111.353 116.73L112.796 119.859C113.471 121.319 115.617 120.525 115.697 119.119L115.699 119.07C115.706 118.811 115.715 118.553 115.731 118.298C115.834 116.386 116.164 114.529 116.688 112.71L116.877 112.945C119.692 116.427 122.995 119.69 127.527 120.493C128.664 120.694 129.951 119.506 129.169 118.357C128.846 117.882 128.535 117.395 128.241 116.901C128.496 116.782 128.737 116.658 128.959 116.532C130.678 115.565 132.109 114.189 133.293 112.628C135.803 109.32 136.701 105.155 136.921 101.078C137.155 96.7704 136.776 92.2286 135.599 88.0728C135.089 86.2757 134.399 84.5511 133.602 82.878C133.658 82.7282 133.712 82.5785 133.766 82.4287C134.626 80.0279 135.333 77.5733 135.92 75.0906C137.103 70.0783 137.74 64.907 137.817 59.7567C137.957 50.5302 139.272 40.758 135.92 32.1539C132.458 23.2807 119.474 10.0462 117.261 8.68437ZM116.785 84.0126C117.421 83.0113 119.012 83.9136 118.421 84.9219L118.399 84.9579C117.391 86.5468 116.919 88.3532 116.339 90.1246C115.967 91.2642 114.159 90.7775 114.535 89.6262L114.66 89.2418C115.237 87.4455 115.764 85.62 116.785 84.0126ZM115.249 70.8998L114.827 70.6954C113.495 70.0594 112.328 69.6262 110.754 70.1814C108.646 70.9232 106.389 73.2843 107.813 75.5751C108.337 76.4198 109.268 76.7568 110.227 76.5579C111.844 76.2225 112.261 74.766 113.082 73.5704L113.223 73.3679C113.723 72.6445 114.356 71.6444 115.189 71.3608C115.378 71.2953 115.458 71.0004 115.249 70.8998ZM114.061 22.2614L113.925 22.1394C113.02 21.3392 114.348 20.0194 115.249 20.815C119.37 24.4584 120.802 30.1609 122.94 35.021C123.419 36.1138 121.808 37.0685 121.323 35.9664C119.284 31.3286 117.93 25.7809 114.061 22.2614ZM64.5335 20.6676C65.6103 20.1821 66.5525 21.7499 65.5172 22.2661L65.4784 22.2845C61.8389 23.9295 60.2904 27.6548 58.8074 31.1133C58.335 32.2177 56.7233 31.2654 57.1912 30.1703L57.4588 29.5497C59.0061 25.9856 60.8109 22.3527 64.5335 20.6676ZM58.8292 18.4165C59.9706 18.0211 60.4595 19.8275 59.3274 20.223C56.2422 21.297 54.1253 23.6136 52.3406 26.2625C51.6716 27.2546 50.0507 26.3186 50.7266 25.3171C52.7991 22.2424 55.2598 19.6614 58.8292 18.4165Z"
        fill="var(--color-dark)"
      />
      <path
        id="Vector 1"
        d="M137.936 72.4603C149.843 76.6276 146.271 70.6743 135.555 61.149L118.886 68.293C121.267 68.293 128.411 69.1264 137.936 72.4603Z"
        fill="var(--color-dark)"
      />
    </g>
    <path
      id="lenes gesicht"
      fill-rule="evenodd"
      clip-rule="evenodd"
      d="M60.8245 75.7221C59.308 76.6122 57.1722 79.8654 58.8035 82.0721C60.7238 84.0178 61.835 81.0952 63.856 81.5836C65.877 82.0721 66.0385 82.1359 64.8665 83.049C55.0216 90.0873 53.1137 75.536 60.8245 74.2567C61.6735 74.1157 61.2218 75.4467 60.8245 75.7221ZM83.6993 65.857C83.5019 63.4093 79.7697 62.8535 79.3984 65.2756C79.0659 67.4452 79.4573 69.4384 80.4358 71.3918C81.3707 73.258 83.7205 72.3873 83.8982 70.688C84.1364 68.4101 83.8221 67.3796 83.6993 65.857ZM55.2892 64.7733C54.7689 64.0927 54.0176 63.628 53.1175 63.8906C50.3052 64.7114 51.1341 68.6993 52.1217 70.6404C52.6584 71.6945 54.3931 71.9619 55.177 71.0337C56.4548 69.5201 57.0667 66.4975 55.4423 65.0066C55.3983 64.9296 55.3493 64.8518 55.2892 64.7733Z"
      fill="var(--color-dark)"
    />
    <g id="face/Loving Grin 1">
      <g id="blog-grin">
        <path
          id="ink-blog-3"
          fill-rule="evenodd"
          clip-rule="evenodd"
          d="M77.3852 92.1353C77.3669 90.1553 75.7 89.8138 74.1166 90.0778C71.4358 90.5242 68.7452 90.8384 66.0282 90.895L65.5599 90.9034C65.4845 90.7902 65.3585 90.7043 65.1874 90.6854C63.6812 90.5179 62.1426 90.5451 60.6283 90.4991C59.3073 90.4592 57.9497 90.3231 56.6288 90.4299L56.5237 90.4394C54.9093 90.6003 53.2057 91.4484 53.4006 93.3987C53.5799 95.2045 55.2569 96.8032 56.5962 97.8067C56.8669 98.0078 57.1438 98.1963 57.4288 98.3681C57.5181 98.4855 57.6486 98.5672 57.7992 98.5839C59.118 99.3172 60.5732 99.751 62.0795 99.8955C65.2729 100.201 68.9854 99.8703 72.0526 98.4458C73.0499 97.9826 73.98 97.4043 74.8023 96.6941C76.0703 95.5985 77.3994 93.9371 77.3852 92.1353ZM65.2138 96.0055C66.4987 95.964 67.7816 96.1566 69.0054 96.5813C69.8347 96.868 70.5907 97.4194 71.3853 97.8025C68.7071 98.8969 65.5958 99.1355 62.8482 98.9363C61.6428 98.8488 60.4742 98.5511 59.3853 98.0389C59.5549 97.9077 59.7267 97.7742 59.9064 97.658C60.4497 97.3056 61.0177 97.0058 61.6102 96.7672C62.7642 96.3033 63.9819 96.0472 65.2138 96.0055Z"
          fill="var(--color-dark)"
        />
      </g>
      <g id="blog-brauen">
        <path
          id="Path"
          fill-rule="evenodd"
          clip-rule="evenodd"
          d="M78.094 55.1466L77.6497 55.0689C76.2755 54.8315 74.5667 54.6034 73.5945 55.7069C73.0789 56.2921 72.9015 57.3798 73.5945 57.94C74.8136 58.9255 76.1614 58.5436 77.6224 58.627C78.8263 58.696 79.9834 58.895 81.1431 59.2262C83.6873 59.9525 85.7604 61.2784 87.9333 62.7343C88.2184 62.9252 88.5095 62.561 88.3734 62.2947C87.1191 59.8407 84.6882 57.8249 82.2534 56.5961C80.9538 55.9402 79.5317 55.3961 78.094 55.1466Z"
          fill="var(--color-dark)"
        />
        <path
          id="Path_2"
          fill-rule="evenodd"
          clip-rule="evenodd"
          d="M55.4714 54.0474L55.1314 54.1169C51.4312 54.8894 46.6238 56.4326 44.8716 60.0628C44.8049 60.5761 44.8754 60.6861 44.9328 60.758L44.9519 60.7819C44.9992 60.8433 45.0369 60.9279 45.2596 60.9977C45.3214 60.983 45.3839 60.9675 45.447 60.9509C46.2501 60.7407 46.8856 60.4511 47.5008 60.1505L48.1679 59.8223C48.9417 59.4433 49.7225 59.0781 50.5499 58.8085C52.3156 58.2332 54.1318 57.828 55.9761 57.6116C56.3759 57.5647 56.7608 57.43 57.0645 57.199C57.3528 56.9798 57.573 56.6763 57.6734 56.2729C57.8035 55.7507 57.7661 55.3555 57.4856 54.8844C57.2747 54.5307 56.973 54.2855 56.6265 54.1448C56.2733 54.0012 55.8711 53.9674 55.4714 54.0474Z"
          fill="var(--color-dark)"
        />
      </g>
    </g>
  </g>
</svg>
