<svg
  role="img"
  class="transform translate-y-8 sm:translate-y-5 md:translate-y-5 xl:translate-y-1 -translate-x-3 sm:translate-x-0 scale-90 sm:scale-100 lg:scale-125"
  width="278"
  height="337"
  viewBox="0 0 278 337"
  fill="none"
  xmlns="http://www.w3.org/2000/svg"
>
  <title>Dibujo representando a Lene te anima a ponerte en contacto</title>
  <g id="lene cta">
    <g id="body/Polka Dot Jacket">
      <path
        id="&#240;&#159;&#142;&#168; Background"
        fill-rule="evenodd"
        clip-rule="evenodd"
        d="M147.296 115.705C138.962 116.117 125.986 119.691 125.338 121.975C124.325 125.542 126.502 138.914 122.861 146.117C121.309 149.187 115.415 148.912 113.132 149.912C105.491 153.258 82.8715 159.603 78.2077 167.593C76.3393 170.794 64.8568 210.512 58.7555 230.775C58.0676 233.06 57.2907 235.173 56.4461 237.13L56.1357 235.609C53.648 223.362 52.4041 215.948 52.4041 213.367C52.4041 209.334 55.62 192.318 52.4041 187.991C49.2205 183.707 41.548 180.204 38.096 180.135L37.9927 180.133C35.7262 180.133 33.7596 179.425 32.0928 178.007L29.6491 176.778C17.2171 170.537 9.9538 167.114 7.85916 166.508C4.51669 165.541 -1.17188 167.601 1.67242 170.693C3.5686 172.754 8.33348 176.4 15.9671 181.632L18.8453 183.92L18.4976 184.101C14.7777 186.06 12.5905 187.709 11.9359 189.048C11.2612 190.428 11.5849 192.06 12.9072 193.945L12.7066 194.141C11.0345 195.782 10.1985 196.884 10.1985 197.444V200.183C8.53497 202.62 8.11909 204.653 8.95084 206.281C9.78258 207.908 11.1014 209.319 12.9072 210.512C14.2378 214.014 15.8224 216.506 17.6611 217.989C19.4997 219.472 22.6773 220.706 27.194 221.692L31.2811 231.468L34.593 245.203L36.2617 260.529L35.7772 260.88C33.5314 262.516 32.0928 263.729 32.0928 264.983C32.0928 266.935 41.1544 312.86 55.2526 314.916C58.3017 315.36 74.1143 313.18 79.3062 308.955L79.2296 309.411C78.008 316.793 78.2664 320.626 80.0049 320.911C101.37 324.415 162.049 325.498 262.042 324.159C262.637 271.067 259.946 235.709 253.971 218.084C238.69 173.008 221.841 157.612 215.947 156.293C210.784 155.138 192.879 148.009 187.874 146.117C184.607 144.882 183.907 141.179 180.184 141.179L179.883 141.18C176.283 141.217 173.09 141.861 171.296 140.008C166.589 135.147 167.905 128.418 165.952 121.975C164.876 118.425 157.522 115.201 147.296 115.705Z"
        fill="white"
      />
      <path
        id="&#240;&#159;&#150;&#141; Ink"
        fill-rule="evenodd"
        clip-rule="evenodd"
        d="M170.191 128.434C169.702 127.465 168.403 127.59 167.547 128.03C164.977 129.91 167.666 133.552 168.376 135.846C170.205 140.294 173.381 144.641 177.765 146.72C177.402 151.142 176.99 155.555 176.838 159.99C171.233 166.946 161.782 169.484 153.393 171.437C140.216 175.082 125.346 167.613 120.898 154.584C125.96 151.707 127.598 144.175 126.088 138.919C125.956 138.55 125.384 138.387 125.181 138.799C123.795 141.651 123.98 145.13 122.404 147.947C107.28 149.396 87.7623 155.104 77.8545 167.339C73.4637 173.461 71.7244 181.422 69.5618 188.516C64.9476 203.142 61.2711 218.064 56.7458 232.705L56.2122 229.934C54.7503 222.303 53.4219 214.569 54.4093 206.808L54.4269 206.437C54.7495 200.262 56.6813 188.787 51.8942 184.618C47.564 181.308 41.2912 178.648 35.8575 180.174C26.1877 175.869 17.8415 168.62 7.54288 165.797C4.37329 165.144 -0.186554 165.917 0.562653 170.219C2.63889 177.742 11.3338 180.662 17.2776 184.541C13.4676 185.574 8.82274 190.209 11.7995 194.251C11.8253 194.323 11.8481 194.377 11.871 194.42C9.45694 195.49 9.1188 198.18 9.71126 200.487C9.77132 201.097 9.93152 200.573 9.57365 201.125C6.84976 203.695 8.0538 210.859 12.1571 211.101C11.8885 214.495 14.068 217.792 16.8285 219.644C19.8039 221.638 24.106 221.724 26.5693 224.454C32.3526 234.656 34.3476 246.699 34.9781 258.381C31.1657 259.809 27.7453 264.078 31.2089 267.699C31.2773 267.707 31.3457 267.715 31.4149 267.721C33.4228 273.081 34.198 278.796 35.2599 284.394C36.8936 293.946 41.1511 302.716 46.5877 310.674C52.8748 321.207 69.7809 319.537 78.2979 312.739C78.2638 314.523 77.97 316.296 78.541 318.019C79.3838 319.879 81.4386 319.075 81.642 317.244C86.1443 319.777 87.2047 311.416 82.1998 312.742C82.5848 306.698 82.808 300.645 82.989 294.59C88.6554 296.425 88.8997 287.02 83.1037 288.901L83.1106 286.301C83.1532 266.366 82.933 246.362 80.3032 226.583C80.06 225.104 79.6481 223.673 79.4078 222.202C79.382 222.05 79.1446 222.093 79.1438 222.239C78.7367 249.929 80.5457 277.679 78.6583 305.379C77.0869 305.858 76.4605 307.662 75.297 308.713C72.7142 311.098 69.1967 312.26 65.7571 312.664C56.1254 314.015 51.9668 311.073 47.6776 302.697C49.6122 303.991 52.2263 301.707 51.0471 299.66L51.0103 299.598C49.7856 297.429 46.3274 298.729 46.7654 301.158C42.453 294.25 40.1959 286.46 38.529 278.556L38.3035 277.611C37.4932 274.256 36.4417 270.411 34.4958 267.375C46.3623 264.349 57.9702 255.131 59.827 242.484C62.8398 251.954 66.9214 261.21 70.8116 270.42C72.013 273.622 72.5137 277.064 74.2358 280.035C74.6363 280.722 75.6518 280.545 75.8783 279.82C77.4271 272.893 72.7339 266.304 70.2972 260.068C68.3074 256.544 62.5958 240.451 59.0546 240.412C63.0338 222.964 68.3411 205.647 73.3956 188.417C78.283 165.151 88.2429 160.665 109.342 153.34C105.537 172.741 88.1611 191.521 97.4069 211.871L97.6318 212.399C98.5775 214.643 99.363 216.903 98.7028 219.366C98.062 221.756 96.6031 223.83 95.4357 225.98C88.9111 238.119 93.4023 252.297 95.9251 264.939C99.1119 279.765 102.26 294.605 105.554 309.408C106.203 312.361 106.624 315.404 107.605 318.265C108.111 319.742 110.637 319.602 110.474 317.879C110.163 314.537 109.224 311.277 108.537 307.995C104.435 286.743 98.8856 265.742 95.3567 244.398C93.0868 228.597 102.023 226.17 101.69 215.961C100.475 210.739 97.2599 206.08 97.4444 200.516C96.7298 183.484 109.131 169.432 110.662 152.867L113.366 151.902C114.717 151.419 116.066 150.931 117.412 150.431C110.33 199.976 112.48 250.602 116.021 300.391C116.744 302.688 116.056 318.737 119.088 317.312C119.241 318.209 119.717 319.091 120.753 319.086C130.155 319.173 139.561 319.321 148.964 319.434C153.487 319.017 159.704 320.744 163.551 318.133C167.993 316.865 168.503 304.832 169.691 300.543L170.154 297.423C177.701 246.453 184.455 194.431 179.03 142.955C186.578 143.246 188.136 151.395 188.696 157.329C190.096 170.425 198.554 181.703 198.96 194.95C198.994 198.163 198.387 201.277 197.103 204.227C193.696 211.457 187.804 219.814 192.208 227.889C197.416 234.174 196.965 235.829 195.054 243.596C189.677 269.275 180.747 293.962 172.253 318.721C174.098 328.344 185.2 292.619 186.244 289.925C191.159 292.397 193.843 284.194 188.206 283.61C191.827 271.487 195.159 259.273 197.933 246.925L198.006 246.577C199.231 240.871 201.642 234.191 197.572 229.13C187.077 218.513 204.505 206.646 202.306 193.785C204.205 195.193 207.078 193.712 207.035 191.347C207.121 188.684 203.546 187.32 201.826 189.352C200.057 178.917 193.903 169.807 192.041 159.403L191.956 158.914C191.325 155.237 191.147 151.368 189.342 148.017C191.8 149.614 194.417 150.904 197.109 152.043C192.296 156.065 201.616 159.735 200.845 153.523C227.239 161.162 233.205 171.815 242.896 196.28C241.086 194.521 237.985 196.798 239.068 199.042C239.933 201.405 243.704 200.714 243.703 198.195L244.144 199.248C250.021 213.305 255.37 227.703 258.057 242.747C252.785 242.002 254.127 250.432 258.904 248.055C260.822 261.434 260.852 275.002 260.618 288.489C256.17 286.156 256.036 294.083 260.575 291.823C260.409 302.875 260.166 313.927 259.983 324.979C259.945 327.331 263.573 327.32 263.63 324.979C264.054 307.997 264.826 290.984 264.459 273.997C264.804 244.514 256.331 216.096 243.707 189.685C232.537 159.275 217.108 155.816 188.721 146.975C186.101 143.084 180.503 139.403 175.935 141.847C173.38 137.72 172.082 132.831 170.191 128.434ZM218.827 234.422C218.721 234.047 218.186 234.141 218.169 234.51C217.931 239.281 218.143 244.083 218.469 248.874C218.667 251.798 218.91 254.72 219.116 257.625C219.662 265.289 220.103 272.961 220.437 280.639C220.32 280.59 220.2 280.547 220.074 280.513C219.496 280.355 218.918 280.355 218.341 280.513C217.825 280.657 217.375 280.909 216.987 281.272L216.904 281.352C216.587 281.646 216.361 281.995 216.229 282.399C216.042 282.758 215.947 283.142 215.947 283.552L215.949 283.655C215.952 284.245 216.098 284.791 216.395 285.301C216.684 285.79 217.073 286.179 217.562 286.471C218.072 286.766 218.618 286.912 219.207 286.915C219.27 286.921 219.333 286.926 219.396 286.929C219.834 286.946 220.243 286.855 220.621 286.657L220.678 286.64C220.821 290.535 220.938 294.433 221.024 298.33C221.101 301.727 221.204 305.124 221.273 308.521L221.305 310.22L221.367 313.975C221.387 315.52 221.377 316.999 221.902 318.455L221.965 318.623C222.343 319.596 222.637 320.95 223.647 321.491C224.454 321.922 225.541 321.762 226.004 320.921C226.393 320.217 226.056 319.204 225.481 318.729C225.492 318.697 225.509 318.669 225.524 318.637C225.612 318.38 225.747 318.137 225.827 317.876C226.079 317.052 226.01 316.173 226.013 315.317C226.013 313.807 225.962 312.296 225.921 310.787C225.833 307.576 225.73 304.369 225.604 301.161C225.179 290.399 224.378 279.637 223.461 268.906L223.15 265.284C222.735 260.467 222.306 255.646 221.699 250.854C221.671 250.625 221.642 250.396 221.61 250.167C221.936 250.004 222.24 249.778 222.48 249.526C223.444 248.514 224.028 247 224.577 245.696L224.703 245.399C225.298 244.009 225.847 242.601 226.13 241.107L226.157 240.969C226.286 240.333 226.541 239.206 225.867 238.897C225.515 238.737 225.292 238.852 225.177 239.204C225.163 239.249 225.175 239.301 225.2 239.341C224.923 239.767 224.488 240.165 224.213 240.56L223.273 241.905L222.809 242.58C222.22 243.448 221.59 244.278 220.941 245.096C220.429 241.502 219.802 237.922 218.827 234.422ZM180.282 314.519C179.107 313.598 177.193 314.098 177.193 315.799C177.193 317.507 179.109 317.999 180.282 317.078L180.341 317.034L180.397 316.989C181.035 316.49 181.057 315.19 180.445 314.648L180.397 314.608C180.36 314.576 180.322 314.548 180.282 314.519ZM231.5 311.197L231.399 311.2C230.867 311.2 230.372 311.334 229.911 311.603C229.711 311.755 229.514 311.909 229.314 312.064C228.947 312.43 228.696 312.865 228.556 313.366L228.449 314.15C228.435 314.556 228.518 314.934 228.704 315.286C228.824 315.652 229.028 315.97 229.314 316.237C229.583 316.526 229.897 316.729 230.263 316.846C230.586 317.016 230.93 317.103 231.298 317.103L231.399 317.101C231.934 317.101 232.429 316.966 232.889 316.697C233.09 316.546 233.287 316.391 233.487 316.237C233.851 315.87 234.105 315.435 234.245 314.934C234.28 314.674 234.314 314.41 234.351 314.15C234.365 313.744 234.28 313.366 234.097 313.014C233.976 312.648 233.773 312.33 233.487 312.064C233.218 311.775 232.904 311.572 232.538 311.454C232.215 311.284 231.868 311.198 231.5 311.197ZM97.5896 305.756L96.8398 305.857C96.1218 306.02 95.5443 306.549 95.1581 307.153C94.9518 307.477 94.8405 307.826 94.8234 308.201C94.7401 308.573 94.7576 308.948 94.8749 309.322C94.9607 309.688 95.1292 310.009 95.3784 310.281C95.4639 310.416 95.5643 310.539 95.6784 310.647C95.9133 311.039 96.2677 311.297 96.6342 311.56C96.9428 311.758 97.2778 311.864 97.6383 311.881C97.8757 311.944 98.116 311.944 98.3563 311.881C98.7139 311.864 99.0486 311.758 99.3575 311.56C99.5403 311.42 99.7234 311.277 99.9039 311.137C100.064 310.951 100.213 310.759 100.353 310.559C100.447 310.338 100.539 310.121 100.63 309.903C100.799 309.379 100.716 308.916 100.624 308.392C100.61 308.304 100.587 308.223 100.556 308.137L100.494 307.971C100.329 307.536 100.241 307.389 99.9496 307.01L99.8384 306.861C99.7827 306.787 99.7257 306.715 99.6604 306.65C99.4776 306.461 99.217 306.303 99.0114 306.14C98.5708 305.885 98.096 305.76 97.5896 305.756ZM194.713 303.924L194.617 303.925C194.202 303.928 193.813 304.031 193.453 304.24L192.984 304.603C192.698 304.892 192.5 305.23 192.389 305.622C192.363 305.828 192.334 306.034 192.306 306.237C192.294 306.555 192.36 306.852 192.506 307.13C192.597 307.416 192.758 307.662 192.984 307.874C193.192 308.098 193.442 308.258 193.728 308.352C193.977 308.482 194.246 308.551 194.531 308.552L194.617 308.55C195.035 308.55 195.424 308.444 195.784 308.235L196.254 307.874C196.54 307.585 196.737 307.245 196.849 306.852C196.874 306.647 196.903 306.443 196.932 306.237C196.943 305.92 196.877 305.622 196.731 305.347C196.637 305.061 196.48 304.812 196.254 304.603C196.045 304.377 195.796 304.217 195.51 304.125C195.26 303.994 194.996 303.928 194.713 303.924ZM213.592 302.978C212.994 302.972 212.387 303.141 211.898 303.487C211.423 303.825 211.063 304.188 210.831 304.735C210.768 304.884 210.705 305.03 210.651 305.179C210.405 305.834 210.359 306.492 210.699 307.133C211.028 307.754 211.738 308.026 212.373 308.212C212.911 308.372 213.52 308.398 214.055 308.206C214.321 308.112 214.581 308.012 214.822 307.866C215.271 307.588 215.514 307.259 215.814 306.852C216.049 306.452 216.166 306.017 216.166 305.553C216.166 305.087 216.049 304.655 215.814 304.251C215.354 303.464 214.501 302.984 213.592 302.978ZM243.914 303.53C243.159 303.53 242.496 303.879 242.04 304.469C241.58 305.067 241.411 305.811 241.615 306.553C241.829 307.336 242.478 308.023 243.282 308.221C243.877 308.367 244.364 308.361 244.956 308.26C245.456 308.175 245.839 307.877 246.223 307.568C246.661 307.21 246.795 306.558 246.724 306.031C246.655 305.505 246.412 305.161 246.042 304.849L246.04 304.841L246.177 304.947C246.125 304.901 246.074 304.852 246.022 304.804C246.006 304.775 245.991 304.744 245.977 304.712C245.765 304.352 245.479 304.068 245.122 303.856C244.747 303.639 244.346 303.53 243.914 303.53ZM67.8168 294.862C67.402 294.75 66.9844 294.75 66.5696 294.862C66.2632 294.934 65.9975 295.074 65.7712 295.282C65.5421 295.432 65.3549 295.623 65.2134 295.86L65.1679 295.941C64.8415 296.496 64.7903 297.131 64.9305 297.749C65.1047 298.513 65.8084 299.209 66.5696 299.389L66.5952 299.394L66.6208 299.401C66.9297 299.498 67.2418 299.512 67.5505 299.441C67.8626 299.427 68.1515 299.335 68.4173 299.163C68.7548 298.946 69.038 298.665 69.2554 298.328C69.4274 298.059 69.5186 297.77 69.5332 297.457C69.5873 297.252 69.5873 297.046 69.5332 296.84C69.5186 296.527 69.4274 296.238 69.2554 295.97L68.8896 295.497L68.8521 295.466C68.5603 295.174 68.2144 294.973 67.8168 294.862ZM96.6177 279.718C92.8674 279.718 92.8731 285.538 96.6177 285.538C100.368 285.538 100.362 279.718 96.6177 279.718ZM233.922 278.982C233.527 278.893 233.133 278.911 232.741 279.034C232.503 279.134 232.269 279.234 232.034 279.331L231.433 279.795C231.322 279.889 231.268 279.992 231.165 280.127L231.036 280.295C230.85 280.544 230.845 280.597 230.641 281.128C230.504 281.638 230.504 282.147 230.641 282.657C230.707 282.903 230.807 283.134 230.936 283.349C231.053 283.555 231.194 283.736 231.353 283.902L231.433 283.984C231.702 284.273 232.02 284.477 232.386 284.597C232.618 284.732 232.867 284.797 233.133 284.797C233.527 284.886 233.922 284.869 234.314 284.745C234.552 284.645 234.786 284.545 235.021 284.448L235.621 283.984L236.085 283.383L236.233 283.031L236.382 282.677L236.488 281.89C236.502 281.48 236.42 281.103 236.234 280.748C236.162 280.499 236.036 280.278 235.853 280.095C235.722 279.872 235.544 279.695 235.321 279.563C235.138 279.38 234.918 279.254 234.669 279.182C234.437 279.048 234.188 278.982 233.922 278.982ZM48.4334 274.824C48.1213 274.813 47.8295 274.878 47.5607 275.021C47.4662 275.053 47.3744 275.093 47.286 275.139C46.9399 275.342 46.6653 275.616 46.4622 275.96C46.2962 276.223 46.2047 276.507 46.1904 276.813C46.1283 277.089 46.1339 277.367 46.2088 277.643L46.2333 277.726C46.2962 277.952 46.3907 278.161 46.5162 278.352C46.5282 278.375 46.5423 278.398 46.5594 278.418C46.7511 278.722 47.0057 278.97 47.3204 279.157C47.6694 279.357 48.0441 279.46 48.4503 279.463C49.2599 279.463 49.9579 279.025 50.3841 278.352C50.4442 278.258 50.4785 278.138 50.5211 278.04C50.5586 277.949 50.6187 277.832 50.6504 277.726C50.7588 277.32 50.7588 276.913 50.6504 276.507C50.5789 276.209 50.4442 275.949 50.2411 275.728C50.0783 275.479 49.8638 275.282 49.5974 275.139C49.2673 274.946 48.9127 274.843 48.5363 274.826L48.4334 274.824ZM206.775 271.977C206.379 271.868 205.985 271.86 205.592 271.952L205.493 271.977C205.179 272.051 204.907 272.194 204.672 272.406C204.412 272.577 204.203 272.804 204.052 273.084C203.834 273.459 203.725 273.865 203.723 274.3C203.725 274.735 203.834 275.142 204.052 275.516C204.266 275.88 204.555 276.166 204.918 276.381L205.233 276.532C205.496 276.698 205.776 276.787 206.08 276.801C206.283 276.856 206.486 276.856 206.686 276.801C206.892 276.801 207.084 276.75 207.261 276.647C207.456 276.593 207.622 276.495 207.765 276.352C208.014 276.192 208.208 275.98 208.351 275.714L208.583 275.167L208.663 274.56L208.583 273.957L208.457 273.659C208.343 273.25 208.136 272.895 207.836 272.595C207.536 272.297 207.181 272.091 206.775 271.977ZM64.9103 267.149C64.493 267.017 64.0779 267 63.6631 267.092C63.3831 267.092 63.1199 267.163 62.8764 267.306C62.6104 267.38 62.3819 267.512 62.187 267.707C61.8469 267.927 61.5806 268.219 61.3832 268.582L61.0688 269.329C60.88 269.813 60.9487 270.526 61.0628 271.012C61.1572 271.413 61.3403 271.762 61.6121 272.059C61.7494 272.291 61.9324 272.475 62.1644 272.612C62.4293 272.853 62.7348 273.025 63.0813 273.126L63.1768 273.153L63.2111 273.161C63.2171 273.164 63.2226 273.164 63.2283 273.164C63.2312 273.167 63.2372 273.167 63.24 273.167C63.377 273.201 63.5172 273.221 63.6631 273.227C64.0779 273.319 64.493 273.302 64.9103 273.17C65.1564 273.067 65.4052 272.961 65.6541 272.855C65.8658 272.695 66.0749 272.532 66.2863 272.368C66.4493 272.157 66.6124 271.945 66.7755 271.736C67.0046 271.378 67.1273 270.989 67.1445 270.574C67.2191 270.297 67.2191 270.022 67.1445 269.744C67.1445 269.461 67.073 269.201 66.9331 268.957C66.8069 268.568 66.5924 268.233 66.2863 267.95C66.0749 267.787 65.8658 267.624 65.6541 267.463C65.4052 267.357 65.1564 267.252 64.9103 267.149ZM247.361 256.904C246.93 256.786 246.497 256.786 246.065 256.904L245.485 257.147C245.199 257.301 244.973 257.51 244.801 257.776C244.584 258.011 244.438 258.289 244.364 258.606C244.195 259.041 244.215 259.731 244.349 260.175C244.501 260.678 244.735 261.079 245.099 261.457C245.702 262.081 246.629 262.261 247.45 262.072C247.676 262.02 247.891 261.92 248.085 261.797C248.706 261.414 249.123 260.744 249.121 260.003C249.121 259.923 249.115 259.843 249.103 259.763C249.144 259.599 249.158 259.431 249.152 259.253L249.066 258.606L249.061 258.589C248.946 258.18 248.74 257.825 248.44 257.525C248.163 257.25 247.839 257.051 247.469 256.932L247.376 256.904H247.361ZM31.5007 192.643C32.2822 186.234 35.2204 179.338 44.1819 183.102L44.8475 183.351C47.0649 184.191 49.6489 185.294 50.9985 187.234C51.9282 188.571 51.6138 191.161 51.7422 192.72C52.3267 197.791 52.0131 202.855 51.4044 207.905C50.6186 219.741 53.1062 232.004 58.0588 242.761C53.1022 250.784 46.4687 258.267 37.4196 261.611C37.0368 252.489 35.2515 243.535 33.3515 234.633L33.2767 234.245C32.5169 230.232 32.1366 226.112 29.5014 222.774C24.1411 216.952 16.7687 220.247 13.2412 210.895C13.9821 210.52 13.5731 209.238 12.6803 209.485C9.58649 210.034 9.08388 204.296 11.2013 202.914C13.4077 201.568 11.1864 199.085 12.1256 197.293C12.6491 196.521 13.779 196.495 14.2914 195.605C15.649 192.328 8.85445 190.228 16.8448 186.535C18.4802 185.953 20.3082 186.314 21.9576 186.307C24.384 186.534 26.3123 188.244 28.5313 188.782C26.1152 195.041 32.2115 201.067 37.714 196.068C40.7082 198.9 44.0566 205.353 36.7783 202.345C33.2159 199.966 30.149 196.892 26.0137 195.427L25.9263 195.4C24.3912 194.897 17.6737 191.632 18.0068 194.458C20.523 196.887 24.6729 196.858 27.587 198.83C31.6271 200.699 34.2106 205.228 39.047 205.166C40.1621 211.939 32.4793 207.818 29.6184 205.95L28.8251 205.519C24.7897 203.339 20.6935 201.318 15.9874 201.291C14.6887 201.283 14.6944 203.286 15.9874 203.303C22.1207 203.341 27.1125 207.176 32.2502 210.028C32.7559 213.981 26.9686 212.251 24.7725 211.667C22.4699 211.344 18.772 208.852 16.7567 210.168C15.9686 212.194 19.4371 212.043 20.6446 212.658C15.1315 215.307 19.9617 216.975 21.4398 212.904L21.8728 213.052C25.5644 214.293 34.516 216.847 33.4513 210.592C34.8024 211.19 36.4499 211.548 37.9428 211.216C41.6659 216.725 47.6049 214.593 38.9727 210.838C40.9179 209.933 41.5675 206.438 39.699 205.137C46.4938 204.722 41.4491 197.591 38.6368 195.214C38.9023 194.946 39.1595 194.672 39.3992 194.394C41.0209 195.167 42.7255 195.636 44.5483 195.802C46.293 195.959 46.6818 192.989 44.96 192.746C43.1149 192.486 41.4153 191.993 39.7908 191.066C37.3284 190.002 36.4879 194.573 34.0235 194.735C32.6792 195.001 31.7699 193.822 31.5007 192.643ZM88.7074 251.621C88.1124 251.621 87.5834 251.87 87.1515 252.265C86.7195 252.66 86.5336 253.252 86.5078 253.819C86.4964 254.122 86.5593 254.405 86.6966 254.668C86.7853 254.94 86.9369 255.175 87.1515 255.376C87.552 255.773 88.1441 256.02 88.7074 256.02C89.3024 256.02 89.8316 255.77 90.2639 255.376C90.6955 254.978 90.8818 254.388 90.9075 253.819C90.919 253.518 90.8557 253.235 90.7187 252.971C90.6389 252.727 90.5081 252.51 90.3263 252.325L90.2639 252.265C89.8631 251.864 89.2712 251.621 88.7074 251.621ZM70.6781 238.049L70.5828 238.05C70.0793 238.053 69.6128 238.179 69.1782 238.431C68.9894 238.577 68.8006 238.72 68.6144 238.866C68.2685 239.215 68.0311 239.624 67.8992 240.097C67.7648 240.589 67.7648 241.084 67.8992 241.576C67.945 241.859 68.0509 242.134 68.2168 242.372C68.4631 242.781 68.7889 243.11 69.2011 243.353C69.6273 243.602 70.0879 243.725 70.5828 243.728C71.0774 243.725 71.5383 243.602 71.9645 243.353C72.3764 243.11 72.7025 242.781 72.9457 242.372C73.1145 242.134 73.2203 241.859 73.2661 241.576C73.4005 241.084 73.4005 240.589 73.2661 240.097C73.1439 239.658 72.9305 239.274 72.6234 238.942L72.5509 238.866C72.2992 238.594 72.0017 238.402 71.6555 238.291C71.3514 238.131 71.0256 238.05 70.6781 238.049ZM208.274 238.202C208.062 238.145 207.853 238.145 207.642 238.202C207.327 238.216 207.033 238.311 206.761 238.483C206.6 238.608 206.44 238.732 206.28 238.855L206.14 239.022C205.842 239.386 205.834 239.448 205.605 240.002C205.511 240.311 205.496 240.62 205.565 240.929C205.565 241.138 205.619 241.333 205.723 241.513C205.779 241.711 205.877 241.882 206.023 242.025C206.126 242.2 206.263 242.34 206.438 242.443C206.661 242.646 206.924 242.787 207.227 242.858L207.842 242.941C207.922 242.93 208.005 242.918 208.085 242.91C208.182 242.907 208.276 242.896 208.367 242.878L208.46 242.858L208.545 242.835C208.657 242.803 208.766 242.759 208.872 242.704C209.072 242.646 209.247 242.546 209.396 242.397C209.653 242.231 209.859 242.008 210.007 241.731L210.048 241.639C210.102 241.541 210.148 241.442 210.182 241.333C210.279 241.161 210.328 240.978 210.331 240.781C210.388 240.518 210.384 240.257 210.316 239.997L210.291 239.91L210.07 239.387C209.956 239.209 209.836 239.029 209.682 238.883C209.589 238.801 209.362 238.623 209.234 238.534L209.155 238.483C208.883 238.311 208.589 238.216 208.274 238.202ZM242.762 234.11C242.35 232.487 240.221 231.975 239.063 233.134C237.905 234.293 238.416 236.422 240.038 236.834L240.224 236.88C241.792 237.278 243.205 235.861 242.807 234.293L242.762 234.11ZM46.4161 220.874C46.4275 220.714 46.2215 220.657 46.1186 220.751C44.7397 221.987 43.8615 223.47 42.188 224.428C40.5057 225.39 38.7724 225.313 37.0189 225.934C36.4239 226.145 36.421 226.941 37.0189 227.15C40.3372 228.309 46.1643 224.38 46.4161 220.874ZM202.335 220.622C201.966 220.508 201.594 220.491 201.225 220.574C200.973 220.574 200.739 220.637 200.524 220.762C200.287 220.828 200.083 220.949 199.909 221.12C199.7 221.243 199.534 221.412 199.409 221.621C199.162 221.89 198.996 222.205 198.911 222.565L198.814 223.307L198.911 224.048C199.005 224.268 199.1 224.491 199.191 224.712L199.447 225.058C199.654 225.335 199.687 225.338 200.19 225.711C200.51 225.913 200.856 226.025 201.225 226.04C201.471 226.108 201.717 226.108 201.966 226.04C202.215 226.04 202.45 225.977 202.667 225.851C202.901 225.785 203.107 225.665 203.282 225.493C203.585 225.296 203.822 225.035 203.997 224.712C204.092 224.491 204.186 224.268 204.277 224.048L204.378 223.307L204.277 222.565L204.272 222.543C204.14 222.079 203.905 221.675 203.568 221.335L203.013 220.905C202.796 220.765 202.57 220.694 202.335 220.622ZM68.7974 221.178C68.0053 220.96 67.1354 221.189 66.5549 221.77C65.9739 222.351 65.7451 223.218 65.9625 224.011C66.177 224.783 66.7978 225.41 67.573 225.619C67.8047 225.682 68.0393 225.716 68.2767 225.705C68.6747 225.702 69.0463 225.602 69.3924 225.401L69.8387 225.055C70.0564 224.855 70.2077 224.617 70.2966 224.343C70.4368 224.079 70.4998 223.796 70.4883 223.49L70.4909 223.435C70.4998 223.327 70.4855 223.218 70.4508 223.112C70.4508 223 70.4337 222.891 70.4051 222.786C70.1962 222.013 69.5669 221.389 68.7974 221.178ZM239.623 213.428C239.369 213.419 239.131 213.471 238.911 213.588C238.679 213.662 238.482 213.788 238.316 213.971C238.133 214.137 238.007 214.338 237.933 214.567C237.816 214.787 237.764 215.025 237.773 215.279C237.773 215.614 237.858 215.926 238.024 216.212C238.122 216.338 238.219 216.464 238.316 216.587C238.545 216.819 238.817 216.976 239.131 217.065L239.315 217.128C239.583 217.225 239.847 217.231 240.127 217.194C240.422 217.154 240.694 217.074 240.934 216.89C241.168 216.753 241.354 216.567 241.491 216.332L241.649 215.96C241.683 215.835 241.697 215.646 241.706 215.514C241.706 215.494 241.706 215.477 241.709 215.457C241.709 215.345 241.675 215.074 241.646 214.962C241.583 214.727 241.455 214.504 241.308 214.315C241.182 214.118 241.011 213.963 240.799 213.848L240.78 213.834L240.759 213.82C240.694 213.774 240.625 213.728 240.556 213.679C240.27 213.514 239.958 213.428 239.623 213.428ZM91.9032 211.396C91.4454 211.396 91.0192 211.513 90.6245 211.742C90.6104 211.748 90.5961 211.754 90.5847 211.76C90.2068 211.983 89.9067 212.283 89.6833 212.661C89.4544 213.053 89.3403 213.477 89.3403 213.929C89.3403 214.384 89.4544 214.804 89.6833 215.196C89.9067 215.574 90.2068 215.875 90.5847 216.098C90.5961 216.106 90.6104 216.112 90.6245 216.118C91.0192 216.347 91.4454 216.461 91.9032 216.464C92.358 216.461 92.7842 216.347 93.1793 216.118C93.9514 215.666 94.4351 214.821 94.4351 213.929C94.4351 213.035 93.9514 212.192 93.1793 211.742C92.7842 211.513 92.358 211.396 91.9032 211.396ZM210.7 208.087L210.622 208.085C210.319 208.073 210.036 208.136 209.776 208.277C209.504 208.365 209.267 208.517 209.066 208.732L208.648 209.081L208.527 209.179C208.507 209.196 208.487 209.213 208.468 209.23C208.188 209.513 207.996 209.845 207.887 210.228C207.853 210.449 207.825 210.666 207.802 210.887C207.739 211.459 208.076 212.046 208.448 212.452C208.648 212.667 208.886 212.818 209.16 212.91C209.424 213.047 209.71 213.11 210.013 213.099C210.634 213.045 211.223 212.913 211.669 212.432C211.721 212.375 211.77 212.315 211.821 212.254L212.178 211.842C212.45 211.568 212.639 211.244 212.742 210.872C212.771 210.675 212.796 210.48 212.822 210.286C212.848 209.699 212.562 209.149 212.178 208.732C211.824 208.345 211.224 208.108 210.7 208.087ZM225.14 202.061C222.165 202.061 222.171 206.677 225.14 206.677C228.112 206.677 228.107 202.061 225.14 202.061ZM75.5624 195.589L75.4686 195.591C74.9763 195.593 74.516 195.716 74.0895 195.965L73.5348 196.392C73.197 196.735 72.9627 197.136 72.8308 197.6C72.7996 197.842 72.7679 198.086 72.7335 198.326C72.7192 198.704 72.7996 199.056 72.971 199.382C73.0797 199.72 73.2685 200.015 73.5348 200.264C73.7834 200.53 74.0755 200.719 74.4156 200.828C74.7417 200.999 75.0935 201.079 75.4686 201.065C75.9632 201.062 76.424 200.939 76.8502 200.69C77.0359 200.547 77.219 200.404 77.4049 200.264C77.7165 199.947 77.9403 199.581 78.0742 199.162L78.1058 199.056L78.2059 198.326C78.2202 197.952 78.1404 197.6 77.9687 197.273C77.8597 196.933 77.6709 196.641 77.4049 196.392C77.156 196.125 76.8614 195.937 76.5238 195.828C76.2252 195.671 75.9044 195.59 75.5624 195.589ZM88.9621 186.948C88.696 186.939 88.45 186.994 88.218 187.114C87.9809 187.191 87.7749 187.326 87.6004 187.512C87.2311 187.807 87.0054 188.396 87.0054 188.874C87.0054 189.352 87.2311 189.941 87.6004 190.236C87.8407 190.473 88.1239 190.639 88.45 190.731L88.9621 190.8C89.4598 190.823 89.9662 190.562 90.3209 190.236C90.3924 190.17 90.461 190.105 90.5326 190.041C90.8555 189.744 90.9957 189.3 91.016 188.874C91.0246 188.648 90.9757 188.436 90.873 188.239C90.8069 188.033 90.6927 187.858 90.5326 187.706C90.461 187.643 90.3924 187.578 90.3209 187.512C89.9344 187.154 89.4827 186.974 88.9621 186.948ZM4.06451 171.555C2.18478 169.264 3.27927 167.634 6.10416 168.2C10.9701 168.859 15.5497 171.935 19.8353 174.141C24.5127 176.613 29.3332 178.651 34.1044 180.974C32.1357 182.182 30.6717 184.075 29.5532 186.235C27.3204 184.539 24.4664 183.728 21.6804 183.623C16.6259 178.78 8.25534 177.671 4.06451 171.555ZM226.141 179.159C225.631 179.161 225.154 179.281 224.706 179.52L224.611 179.573L223.998 180.048C223.701 180.323 223.492 180.649 223.369 181.024C223.18 181.385 223.095 181.777 223.109 182.195C223.095 182.612 223.18 183.002 223.369 183.362C223.492 183.74 223.701 184.063 223.998 184.338C224.167 184.558 224.385 184.73 224.645 184.856C224.888 184.956 225.128 185.059 225.372 185.162C225.643 185.248 225.958 185.26 226.253 185.274C226.788 185.271 227.285 185.137 227.749 184.868L228.35 184.404C228.638 184.135 228.845 183.817 228.965 183.448C229.135 183.123 229.221 182.776 229.221 182.405L229.219 182.303C229.219 182.281 229.219 182.255 229.216 182.229C229.182 181.96 229.144 181.691 229.108 181.422C229.013 181.027 228.833 180.681 228.564 180.389C228.495 180.252 228.404 180.14 228.286 180.048C227.909 179.671 227.463 179.413 226.948 179.267C226.679 179.233 226.41 179.195 226.141 179.159ZM93.4095 171.576L93.3225 171.578C92.9363 171.578 92.5788 171.675 92.2466 171.867C92.101 171.978 91.958 172.09 91.815 172.201C91.5486 172.468 91.3656 172.782 91.2657 173.143L91.1882 173.709C91.1799 174.004 91.24 174.276 91.3744 174.531C91.46 174.794 91.6061 175.023 91.815 175.218C92.0066 175.426 92.2352 175.573 92.5012 175.658C92.7533 175.793 93.0279 175.853 93.3225 175.842C93.7059 175.842 94.0663 175.744 94.3981 175.55C94.5412 175.441 94.6871 175.329 94.8301 175.218C95.0713 174.974 95.2453 174.689 95.3497 174.365L95.3765 174.276L95.4534 173.709C95.4649 173.415 95.4048 173.143 95.2706 172.888C95.1848 172.622 95.0358 172.393 94.8301 172.201C94.6356 171.992 94.4064 171.847 94.1432 171.761C93.9144 171.64 93.669 171.579 93.4095 171.576ZM209.421 168.477L209.321 168.478C208.751 168.481 208.222 168.624 207.73 168.91C207.519 169.074 207.307 169.237 207.095 169.403C206.703 169.795 206.434 170.258 206.282 170.793L206.171 171.629C206.154 172.064 206.246 172.467 206.443 172.842C206.569 173.235 206.786 173.572 207.095 173.858C207.378 174.165 207.716 174.382 208.108 174.508C208.483 174.705 208.886 174.797 209.321 174.78C209.89 174.78 210.419 174.637 210.911 174.35C211.123 174.187 211.334 174.022 211.549 173.858C211.938 173.463 212.207 173 212.359 172.467L212.47 171.629C212.487 171.197 212.396 170.791 212.199 170.416C212.073 170.027 211.855 169.686 211.549 169.403C211.263 169.094 210.926 168.876 210.534 168.75C210.188 168.568 209.817 168.478 209.421 168.477ZM103.497 160.609C103.237 160.54 102.977 160.54 102.717 160.609C102.328 160.625 101.964 160.743 101.626 160.957L101.034 161.416C101.026 161.424 101.017 161.433 101.009 161.444C100.651 161.804 100.402 162.231 100.265 162.721L100.162 163.49C100.147 163.888 100.23 164.26 100.411 164.604C100.518 164.934 100.696 165.221 100.94 165.469L101.034 165.562C101.301 165.848 101.612 166.051 101.976 166.169C102.204 166.303 102.453 166.369 102.717 166.369C103.105 166.458 103.497 166.441 103.887 166.317C104.118 166.217 104.353 166.12 104.587 166.023L104.662 165.98C105.546 165.496 106.092 164.483 106.092 163.49C106.092 162.497 105.546 161.481 104.662 160.997C104.636 160.986 104.613 160.972 104.587 160.957C104.25 160.743 103.887 160.625 103.497 160.609Z"
        fill="#122433"
      />
    </g>
    <g id="lene-cta-kopf">
      <g id="lenes haare">
        <ellipse
          id="Ellipse 5"
          rx="14.1271"
          ry="13.3835"
          transform="matrix(-1 0 0 1 190.127 119.384)"
          fill="white"
        />
        <ellipse
          id="Ellipse 4"
          rx="14.1271"
          ry="13.3835"
          transform="matrix(-1 0 0 1 179.158 93.1125)"
          fill="white"
        />
        <path
          id="&#240;&#159;&#142;&#168; Background_2"
          fill-rule="evenodd"
          clip-rule="evenodd"
          d="M158.759 7.26407C109.684 4.91123 106.256 18.817 99.5173 27.6824C96.1729 32.082 87.5384 38.5977 86.106 53.6439C85.1116 64.0883 91.4413 76.1266 91.4413 85.4596C91.4413 90.2234 85.4584 100.451 88.2436 107.394C94.4429 122.849 107.569 140 124.296 140C141.022 140 171.898 131.013 190.38 105.213C196.434 96.7627 207.834 9.61691 158.759 7.26407Z"
          fill="white"
        />
        <path
          id="&#240;&#159;&#150;&#141; Ink_2"
          fill-rule="evenodd"
          clip-rule="evenodd"
          d="M184.941 11.7609C182.178 10.06 163.411 0.61246 150.528 0.922243C143.856 1.08298 136.383 0.58244 130.081 2.75969C126.929 3.85269 113.252 5.25727 110.333 6.87047C109.282 7.45047 118.937 8.15167 118.004 8.87342L117.771 9.0547H117.768C115.264 9.95483 115.379 9.87007 113.352 11.7609C109.288 11.4365 102.843 13.5027 98.9138 14.7565C93.445 16.5041 87.1661 19.4272 83.6108 23.9716C79.4696 29.2622 71.9666 44.8574 72.4579 51.4822L79.891 43.7069C78.4061 57.4304 81.247 57.0863 86.0482 60.9316C86.4134 61.2238 86.8165 61.4459 87.2343 61.5804C84.1406 66.8818 81.6019 72.7676 80.0829 78.7119C74.284 101.417 78.742 125.095 85.7152 146.978C86.2878 148.781 89.0134 149.979 90.401 148.217C92.8783 145.067 96.4774 142.665 100.526 142.214C103.024 141.937 105.51 142.439 107.871 141.306C108.797 140.858 109.691 140.128 110.333 139.239C114.318 140.75 118.609 141.463 122.866 141.288C129.851 141.002 137.318 138.582 142.123 133.275C142.894 132.423 143.09 131.466 142.912 130.604C142.31 130.389 141.691 130.229 141.053 130.129C134.96 133.721 128.242 136.122 121.023 136.273C116.852 136.36 112.783 135.777 109.4 133.171C108.669 132.607 107.996 131.982 107.373 131.311C100.302 126.76 95.3159 119.031 92.9455 110.751C90.737 103.03 91.0086 94.9901 91.7682 87.0702L92.1689 82.8909C92.753 76.7569 93.2949 70.6045 93.4468 64.4444L93.4009 64.4421C91.9075 64.3456 91.8967 62.0068 93.4009 62.1041C97.2918 62.356 95.906 64.1638 99.785 64.4421C95.2791 64.4265 105.197 58.335 105.736 56.5657C106.043 55.5548 107.803 55.3555 107.989 56.5657C108.239 58.1848 108.33 59.7948 108.357 61.4211C120.958 49.2055 112.198 61.9033 118.004 62.1041C119.075 60.9614 127.179 57.8872 127.68 56.4777C127.753 56.2702 127.826 56.0657 127.902 55.8582C128.342 57.8723 128.966 59.8424 129.787 61.7709L137.796 64.4421C145.874 64.48 139.536 54.154 147.425 55.8325C147.973 55.4113 159.398 70.531 156.385 61.9106C153.373 53.2902 157.774 53.3429 159.222 49.2055L159.429 48.6218C159.445 48.5734 159.463 48.5219 159.482 48.4678C160.549 50.19 161.821 51.7953 163.209 53.2902C164.027 54.1713 164.885 55.0139 165.765 55.8325C166.62 56.7823 167.504 57.7177 168.36 58.6705C168.327 58.8438 168.297 59.0197 168.274 59.1989C168.012 61.1759 167.985 63.181 168.177 65.1657C168.524 68.7536 169.536 72.2109 171.163 75.4092L171.214 75.7295C171.461 77.2283 171.813 78.7774 172.633 79.9061C171.609 81.054 170.82 82.4252 170.363 83.9487C169.955 85.305 171.831 86.4805 172.804 85.3705C173.577 84.4888 174.435 83.759 175.378 83.1769C175.438 83.2578 175.545 83.2976 175.666 83.2301C178.292 81.7718 182.753 82.2131 185.376 83.5866C188.64 85.2934 189.913 88.7974 189.551 92.3482C189.203 95.7412 187.719 99.707 184.842 101.446C183.521 102.244 182.493 102.311 181.091 101.928C180.643 101.806 180.087 101.433 179.848 101.247L179.613 101.059C178.694 100.332 177.838 99.8342 176.753 99.8151C175.643 99.4689 174.527 99.9492 174.103 101.113L174.077 101.189C173.878 101.782 173.516 102.527 173.595 103.433C173.677 104.403 174.121 105.286 174.784 105.996C174.898 106.119 175.02 106.242 175.146 106.356C163.724 118.726 162.257 138.003 168.114 153.457C168.368 154.135 168.64 154.804 168.924 155.468C169.902 157.742 173.671 157.037 174.15 154.784C174.293 154.109 174.451 153.437 174.623 152.77C174.94 151.539 175.303 150.319 175.712 149.117L175.868 148.667C176.215 147.674 176.539 146.671 176.89 145.678L176.925 145.564C176.938 145.519 176.953 145.467 176.969 145.409L177.562 146.703L179.364 150.611C180.208 152.434 182.888 151.443 182.987 149.686L182.99 149.626C182.998 149.301 183.01 148.98 183.031 148.661C183.159 146.274 183.571 143.953 184.225 141.683L184.462 141.976C187.977 146.324 192.103 150.399 197.763 151.403C199.183 151.654 200.789 150.169 199.814 148.734C199.411 148.141 199.022 147.533 198.654 146.917C198.972 146.768 199.273 146.613 199.551 146.455C201.698 145.248 203.486 143.53 204.964 141.58C208.099 137.448 209.22 132.246 209.495 127.155C209.787 121.775 209.314 116.102 207.844 110.912C207.208 108.667 206.346 106.513 205.35 104.424C205.42 104.237 205.487 104.05 205.554 103.863C206.629 100.864 207.511 97.7986 208.245 94.6979C209.723 88.4379 210.517 81.9793 210.614 75.5469C210.789 64.0236 212.431 51.8187 208.245 41.0728C203.921 29.9907 187.705 13.4618 184.941 11.7609ZM189.343 113.335C190.137 112.084 192.123 113.211 191.386 114.47L191.358 114.515C190.099 116.5 189.509 118.756 188.785 120.968C188.32 122.391 186.062 121.783 186.532 120.346L186.688 119.866C187.409 117.622 188.067 115.342 189.343 113.335ZM182.429 89.4644L181.901 89.209C180.237 88.4148 178.78 87.8737 176.814 88.5672C174.182 89.4936 171.363 92.4424 173.142 95.3035C173.796 96.3585 174.959 96.7793 176.157 96.5309C178.176 96.112 178.697 94.2929 179.722 92.7997L179.898 92.5469C180.523 91.6433 181.313 90.3942 182.353 90.0401C182.589 89.9583 182.689 89.59 182.429 89.4644ZM180.944 28.7176L180.774 28.5653C179.644 27.5658 181.303 25.9175 182.428 26.9112C187.575 31.4615 189.363 38.5836 192.033 44.6535C192.632 46.0183 190.619 47.2107 190.015 45.8342C187.468 40.042 185.777 33.1132 180.944 28.7176ZM119.088 26.7271C120.433 26.1208 121.609 28.0788 120.316 28.7235L120.268 28.7465C115.722 30.801 113.789 35.4536 111.936 39.773C111.346 41.1524 109.333 39.963 109.918 38.5953L110.252 37.8202C112.185 33.3689 114.439 28.8317 119.088 26.7271ZM111.963 23.9158C113.389 23.4219 114 25.6781 112.586 26.172C108.732 27.5134 106.089 30.4067 103.86 33.7149C103.024 34.954 101 33.785 101.844 32.5342C104.432 28.6941 107.506 25.4706 111.963 23.9158Z"
          fill="#404040"
        />
        <path
          id="Vector 1"
          d="M210.763 91.4129C225.634 96.6176 221.172 89.1824 207.789 77.2859L186.97 86.2082C189.944 86.2082 198.866 87.2492 210.763 91.4129Z"
          fill="#404040"
        />
      </g>
      <g id="face/Calm">
        <path
          id="&#240;&#159;&#150;&#141; Ink_3"
          fill-rule="evenodd"
          clip-rule="evenodd"
          d="M113.028 122.554C115.478 123.274 118.109 123.339 120.607 122.595C122.872 121.921 125.198 120.437 126.866 118.473C128.347 116.729 129.306 114.609 129.269 112.347C129.265 112.088 129.173 111.873 129.033 111.705C128.882 111.525 128.672 111.401 128.446 111.347C128.214 111.292 127.968 111.312 127.759 111.408C127.57 111.495 127.408 111.643 127.307 111.86C127.05 112.201 126.795 112.537 126.539 112.864C124.478 115.445 122.483 117.373 119.385 118.064C117.704 118.44 116.025 118.273 114.484 117.701C112.835 117.088 111.345 116.01 110.176 114.631C109.649 114.008 109.025 113.753 108.416 113.749C107.725 113.744 107.043 114.069 106.528 114.59C106.023 115.101 105.685 115.796 105.654 116.522C105.627 117.16 105.832 117.827 106.378 118.421C108.176 120.379 110.506 121.814 113.028 122.554ZM115.584 92.5826C113.263 93.8957 109.205 97.1814 111.702 100.437C114.641 103.307 117.741 101.248 119.826 99.7595C121.759 98.6061 123.273 100.444 121.479 101.791C106.411 112.173 102.608 92.926 114.41 91.0388C115.709 90.8309 116.192 92.1764 115.584 92.5826ZM136.602 83.4251C137.409 82.9014 138.359 82.7217 139.411 83.2073C140.234 83.5867 141.677 84.8513 142.681 86.5136C143.367 87.6509 143.854 88.9851 143.753 90.3748C143.73 90.6976 143.847 90.9356 144.033 91.1115C144.179 91.2505 144.391 91.3526 144.639 91.3845C144.85 91.4116 145.086 91.3872 145.278 91.3264C145.644 91.2108 145.837 90.9704 145.91 90.7742C146.613 88.881 146.31 86.7682 145.522 84.8622C144.459 82.2898 142.528 80.1351 141.263 79.4404C139.098 78.2512 136.545 78.1965 134.377 79.408C132.531 80.4391 131.377 82.1038 130.23 83.8007C129.986 84.1614 129.744 84.5194 129.493 84.8712C128.992 85.5761 128.942 86.2752 129.136 86.8747C129.351 87.5388 129.9 88.0992 130.586 88.3926C131.22 88.6637 131.956 88.7018 132.607 88.4233C133.157 88.188 133.662 87.7293 133.982 86.951C134.52 85.6402 135.416 84.1941 136.602 83.4251ZM95.5971 86.3413C96.15 86.6335 96.5826 86.7216 97.196 86.5352C97.5352 86.4319 97.8704 86.2339 98.1329 85.9677C98.393 85.7039 98.5807 85.3759 98.6536 85.012C98.833 84.1138 99.3176 83.2731 100.008 82.725C100.598 82.2566 101.343 82.0083 102.17 82.1484C103.061 82.2993 103.911 82.8793 104.496 83.563C104.691 83.7918 104.845 84.0516 104.999 84.3097C105.287 84.7924 105.567 85.241 105.965 85.5954C106.116 85.7303 106.343 85.8237 106.563 85.8237C106.652 85.8237 106.743 85.809 106.829 85.7816C107.717 84.8783 107.887 84.193 107.859 83.5133C107.829 82.8006 107.552 82.0789 107.104 81.4056C106.053 79.8261 104.059 78.5311 102.713 78.2378C100.87 77.8361 99.0399 78.3183 97.5724 79.3622C96.0624 80.4363 94.9435 82.1041 94.5947 83.9835C94.5108 84.4361 94.5464 84.9247 94.7164 85.3483C94.8825 85.7623 95.172 86.1168 95.5971 86.3413ZM132.537 66.5854C133.643 67.6782 134.952 67.8475 136.276 67.9981C137.012 68.0825 137.6 68.1506 138.178 68.2829C139.767 68.6466 141.337 69.1944 142.77 69.9834C144.268 70.8081 145.9 71.8028 147.075 73.077C147.354 73.3802 147.617 73.6984 147.881 74.0172C148.121 74.308 148.352 74.5879 148.596 74.8578C148.877 75.1678 149.143 75.4927 149.408 75.8168C149.571 76.0902 149.604 76.1575 149.637 76.2275C149.686 76.3327 149.744 76.4504 149.81 76.5767C149.9 76.7497 150.006 76.9391 150.116 77.1107C150.301 77.4245 150.399 77.511 150.485 77.5496C150.627 77.6136 150.761 77.6452 150.891 77.6281C151.014 77.6121 151.129 77.5525 151.243 77.455C151.81 76.9685 151.978 76.17 151.961 75.3224C151.935 74.0361 151.467 72.612 151.036 71.7366C150.033 69.7024 148.642 67.5878 146.97 66.0696C145.062 64.3367 142.974 63.0247 140.577 62.1207C139.087 61.5587 137.361 61.0428 135.738 61.108C134.57 61.1549 133.454 61.5072 132.533 62.3868C131.967 62.9268 131.696 63.6949 131.696 64.4625C131.696 65.2453 131.978 66.0328 132.537 66.5854ZM93.3476 76.5929C93.418 76.7098 93.5153 76.7903 93.6237 76.8387C93.7372 76.8895 93.864 76.9041 93.9857 76.8833C94.1068 76.8626 94.2219 76.8069 94.3132 76.7218C94.4008 76.6402 94.4674 76.5321 94.4972 76.3996C95.2316 73.1287 96.6575 70.6952 99.7009 69.1259C101.198 68.3539 102.919 67.8634 104.549 67.4724C105.023 67.3587 105.523 67.2851 106.027 67.2105C107.606 66.9766 109.197 66.7088 110.227 65.4141C110.847 64.6342 111.108 63.6368 110.96 62.7247C110.822 61.8659 110.327 61.0784 109.427 60.6065C107.188 59.4322 104.405 60.5845 102.143 61.5661C101.975 61.6389 101.811 61.7104 101.649 61.7793C99.4378 62.7261 97.4206 63.9758 95.7625 65.763C94.4468 67.1809 93.2278 69.2769 92.7369 71.4332C92.3285 73.2271 92.4245 75.0584 93.3476 76.5929Z"
          fill="#404040"
        />
      </g>
    </g>
  </g>
</svg>
