<svg
  role="img"
  width="391"
  height="348"
  viewBox="0 0 391 348"
  fill="none"
  xmlns="http://www.w3.org/2000/svg"
>
  <title>Dibujo de 404 - página no encontrada</title>
  <path
    fill-rule="evenodd"
    clip-rule="evenodd"
    d="M311.689 331.585C342.851 297.599 362 251.479 362 200.684C362 96.1952 280.974 11.4905 181.024 11.4905C81.073 11.4905 0.0471191 96.1952 0.0471191 200.684C0.0471191 251.479 19.1956 297.599 50.358 331.585H311.689Z"
    fill="#FF7F5C"
  />
  <path
    fill-rule="evenodd"
    clip-rule="evenodd"
    d="M372.675 214.076C375.717 212.483 378.688 210.753 381.611 208.952C383.67 207.717 381.847 204.606 379.736 205.73C378.656 206.305 377.581 206.886 376.501 207.457C377.351 206.723 378.138 205.925 378.844 205.054L378.795 205.005C381.517 202.56 378.021 197.946 374.926 199.955C372.196 201.939 369.441 203.964 366.308 205.27C359.818 208.03 352.66 208.487 345.694 208.566C343.145 208.374 340.71 208.817 338.237 209.311C339.206 205.41 341.633 202.464 342.92 198.685C343.87 194.87 338.379 192.272 336.433 195.939C335.956 196.839 335.5 197.75 335.055 198.665C330.849 202.502 323.826 202.164 319.584 206.283C317.168 208.434 315.985 211.352 315.518 214.281C315.201 216.27 315.694 218.264 314.495 220.025C308.698 228.248 299.538 241.245 294.886 250.295C291.592 228.791 282.798 202.193 273.712 182.531C270.708 176.242 267.271 170.098 262.759 164.767C263.27 162.99 261.465 159.834 260.317 160.806C256.784 156.477 250.538 155.357 245.516 153.205C238.736 150.297 233.111 144.254 230.346 137.386C226.794 124.307 218.048 122.646 205.919 123.224C194.311 123.209 185.723 128.188 183.19 140.038C178.045 149.033 165.896 147.545 157.155 149.926C150.75 151.394 144.533 153.663 138.625 156.543C132.053 150.291 108.515 176.53 106.375 183.282C107.635 183.527 108.887 183.822 110.127 184.181C111.232 184.501 110.768 186.175 109.654 185.907C108.267 185.573 106.871 185.343 105.469 185.183C105.427 185.318 105.389 185.452 105.361 185.584C105.204 185.573 105.047 185.56 104.889 185.549C105.238 185.731 105.574 185.943 105.901 186.215C106.693 186.874 105.663 188.146 104.822 187.621C104.03 187.026 102.992 187.12 102.042 186.921C101.986 188.88 95.0144 186.688 93.9316 186.039C89.1187 185.435 84.1675 186.083 79.6745 183.755C73.6963 182.493 67.6732 181.096 61.7621 179.488C60.1972 180.1 58.7265 182.289 59.9694 183.896C60.6685 184.627 59.7698 185.821 58.8895 185.301C55.9371 183.558 53.6537 180.838 51.7179 177.907C50.8067 176.985 49.1893 177.183 47.9651 176.801C47.8014 177.096 47.7049 177.424 47.7064 177.761C42.5134 178.619 46.2178 184.307 48.8284 186.079C47.4435 186.983 47.391 188.754 47.5122 190.233C47.2187 190.76 47.1207 191.412 47.3761 192.003C48.3527 194.259 50.4646 196.16 52.0705 197.988C53.8435 200.008 55.4244 202.038 57.5818 203.675C65.8051 209.961 75.7286 213.476 85.9091 214.85C89.5238 215.407 94.7234 216.259 96.9615 219.324C96.4124 222.962 95.4041 226.451 94.4893 229.999C93.2102 234.707 93.2972 239.637 93.2802 244.438C93.1015 244.294 92.7581 244.324 92.707 244.598C92.4095 246.588 92.1882 248.623 90.9821 250.295C89.9248 253.404 89.2212 256.721 88.8259 259.987C87.2423 275.474 86.8642 291.417 90.4347 306.662C91.8125 312.318 94.0533 317.693 97.1065 322.643C98.0168 324.119 99.4804 324.551 100.795 324.261C105.193 326.553 110.734 327.288 115.475 326.705C131.638 322.117 126.006 333.166 148.668 329.783C187.785 324.785 227.316 334.606 266.349 328.84C267.311 336.287 279.896 334.151 284.267 331.003C297.375 321.23 303.883 290.291 310.462 274.596C314.983 262.226 322.555 240.315 332.471 232.014C335.444 229.682 339.038 228.454 342.634 227.463C356.055 223.995 369.527 220.715 382.973 217.343C385.254 216.78 384.844 212.88 382.405 213.13C379.169 213.462 375.922 213.763 372.675 214.076Z"
    fill="white"
  />
  <path
    fill-rule="evenodd"
    clip-rule="evenodd"
    d="M73.9122 211.756C73.0034 211.643 72.1124 211.318 71.2274 211.062C69.876 210.666 68.5514 210.204 67.2476 209.677C64.5568 208.596 61.9462 207.318 59.499 205.755C55.5459 203.226 52.0533 199.985 49.4189 196.083L49.238 195.811C47.7341 193.514 44.9599 188.413 48.0705 186.669C46.0657 184.989 44.1709 181.971 44.2778 179.642C44.4293 176.348 48.4565 176.393 50.5385 177.79C51.9017 178.704 52.9234 179.985 53.948 181.245C55.0825 182.645 56.2943 183.979 57.5535 185.263C57.8877 185.602 58.2251 185.935 58.5684 186.262L58.9138 186.588C58.8603 186.46 58.8128 186.329 58.7712 186.195C58.0763 184.024 58.9049 181.197 61.07 180.202C62.395 179.593 63.771 179.965 65.0549 180.482L65.2517 180.563C66.9802 181.28 68.7295 181.915 70.5293 182.424C77.8652 184.5 85.5217 184.846 93.0387 185.882C95.9344 186.284 98.8836 186.79 101.764 187.535C102.863 182.856 105.557 178.371 108.48 174.68C122.474 157.027 145.554 151.192 166.667 147.416C168.592 147.073 170.187 149.629 171.306 149.024C173.43 147.88 175.298 146.26 176.937 144.5C180.433 140.744 182.913 136.327 185.827 132.142C187.267 130.075 190.581 131.925 189.245 134.144L188.59 135.228C185.894 139.67 182.909 144.248 179.043 147.693C176.988 149.521 174.707 150.966 172.099 151.868C170.124 152.55 167.353 153.125 165.191 152.464L164.932 152.085C165.018 152.211 165.104 152.338 165.191 152.464C170.834 160.664 177.914 167.603 185.375 174.153C192.906 180.76 201.029 186.677 209.202 192.462L209.883 192.944C223.197 183.205 234.445 170.502 242.336 155.988C240.682 155.788 239.045 154.725 237.632 153.932C235.93 152.974 234.329 151.83 233.082 150.305C230.364 146.984 230.718 142.704 230.228 138.674C230.198 138.424 230.528 138.361 230.679 138.486C232.152 139.713 232.669 141.724 233.284 143.46C233.961 145.369 234.727 146.942 236.28 148.285C237.727 149.536 239.491 150.456 241.205 151.276C242.088 151.696 246.475 152.776 246.975 153.67C254.555 151.886 261.938 154.969 267.554 160.169C272.98 165.194 276.963 171.726 280.479 178.174C284.23 185.054 287.304 192.226 289.954 199.598C292.638 207.08 294.697 214.726 295.828 222.601C296.783 229.24 297.369 235.984 297.748 242.697L297.794 243.536C303.402 234.711 309.148 225.978 315.014 217.323C313.681 213.752 315.157 210.106 317.654 207.348C320.422 204.295 324.251 202.877 327.913 201.227L328.394 201.009C330.159 200.201 331.918 199.312 333.443 198.103C334.91 196.935 335.988 195.327 337.532 194.252C339.778 192.685 343.852 193.019 343.956 196.441C344.01 198.321 343.205 200.381 342.468 202.07C341.634 203.98 340.508 205.71 339.172 207.3C339.11 207.374 339.043 207.433 338.974 207.479L338.922 207.512C340.77 207.819 342.632 208.066 344.53 208.152C348.358 208.328 352.228 208.045 355.976 207.235C359.813 206.407 363.532 205.061 366.983 203.184C369.932 201.582 372.664 199.509 376.014 199.02C376.323 198.973 376.635 198.943 376.956 198.925C377.49 198.895 378.025 199.527 377.814 200.056C377.698 200.349 377.576 200.638 377.443 200.929C376.285 203.488 374.508 205.97 372.292 207.854L372.121 207.997C372.902 207.726 373.671 207.422 374.428 207.08C378.88 205.069 382.92 202.031 387.692 200.81C387.918 200.751 388.147 200.697 388.375 200.646C389.851 200.328 390.63 201.936 389.762 203.038C389.623 203.217 389.483 203.393 389.338 203.568C387.208 206.219 384.859 208.679 382.269 210.889C381.381 211.646 380.466 212.378 379.534 213.079C379.141 213.375 378.746 213.666 378.346 213.951L378.15 214.091C378.616 213.761 379.076 213.424 379.534 213.079C382.456 212.191 385.337 211.139 388.156 209.975C389.275 209.513 390.145 210.651 390.264 211.586C390.662 214.72 387.193 216.986 384.936 218.493C382.673 220.007 380.181 221.156 377.63 222.079C372.725 223.857 367.573 224.664 362.429 225.388L359.93 225.737C350.041 227.124 339.713 228.782 332.617 236.498C328.64 240.823 325.95 246.196 323.487 251.483C321.028 256.764 318.869 262.185 316.82 267.635C314.696 273.276 312.846 279.021 310.88 284.719C309.074 289.951 306.917 295.116 304.781 300.228L304.444 301.035C299.909 311.901 294.492 322.135 286.942 331.207C285.698 332.705 283.687 330.579 284.836 329.095C292.733 318.885 298.228 306.838 302.763 294.819C304.827 289.351 306.556 283.751 308.54 278.253L309.72 274.987C311.296 270.633 312.886 266.284 314.545 261.964C316.645 256.498 318.952 251.098 321.593 245.874L321.873 245.324C324.458 240.284 327.529 235.317 331.756 231.503C339.364 224.635 349.488 222.988 359.277 221.683L362.356 221.276C366.494 220.724 370.645 220.115 374.669 219.006C376.991 218.368 379.26 217.552 381.393 216.426C382.242 215.979 383.071 215.488 383.873 214.952C381.586 215.625 379.266 216.176 376.905 216.608C375.75 216.819 374.607 216.978 373.466 217.088C370.529 217.379 367.615 217.367 364.607 217.21C364.351 217.195 364.268 216.793 364.541 216.742C366.637 216.368 368.734 215.901 370.823 215.394L371.45 215.241C371.461 214.893 371.598 214.523 371.883 214.172C372.923 212.903 374.898 212.253 376.267 211.357C377.701 210.419 379.091 209.406 380.416 208.322C381.628 207.33 382.792 206.282 383.911 205.186L384.247 204.855C384.136 204.966 384.024 205.076 383.911 205.186C380.888 206.586 378.022 208.382 374.865 209.49C372.355 210.374 369.724 210.97 367.069 211.181L366.904 211.194L366.739 211.205C363.968 211.405 361.179 211.324 358.45 211.926C358.144 211.994 358.049 211.583 358.322 211.467C360.707 210.472 363.187 210.088 365.694 209.624C365.747 209.427 365.884 209.251 366.121 209.138L366.763 208.831C368.673 207.911 370.453 206.982 372.04 205.489C373.442 204.17 374.61 202.627 375.486 200.917C371.978 201.689 368.898 204.355 365.709 205.853C362.234 207.488 358.557 208.661 354.779 209.329L354.349 209.403C347.289 210.584 338.799 210.433 332.475 206.752C332.273 206.633 332.418 206.362 332.626 206.395C334.42 206.69 336.196 207.038 337.972 207.348C337.624 207.029 337.47 206.457 337.871 205.999C339.466 204.166 340.728 202.07 341.534 199.777L341.688 199.329C342.06 198.265 342.687 196.614 342.047 195.655C341.435 194.74 339.995 194.865 339.133 195.252C337.342 196.063 336.151 198.085 334.643 199.306C332.997 200.64 331.126 201.629 329.211 202.514L328.806 202.698C325.493 204.193 321.953 205.451 319.347 208.09C317.945 209.507 316.74 211.28 316.336 213.266C316.152 214.178 316.152 215.116 316.395 216.018C316.588 216.724 316.992 217.159 316.76 217.877C316.457 218.803 315.385 219.911 314.833 220.736C314.191 221.69 313.553 222.645 312.914 223.601C311.64 225.514 310.372 227.432 309.104 229.347C306.568 233.183 304.058 237.037 301.569 240.903C300.759 242.162 299.952 243.422 299.148 244.684L297.943 246.577L297.306 247.575L296.22 249.287C296.259 249.446 296.256 249.612 296.205 249.758C296.02 250.287 295.674 250.648 295.243 250.91L295.166 250.956C288.828 261.002 282.591 271.114 276.292 281.184C275.956 284.258 275.641 287.334 275.368 290.411C274.747 297.375 274.323 304.356 274.186 311.347C274.121 314.73 274.391 318.134 274.536 321.515C274.608 323.129 274.705 324.74 274.833 326.351L274.926 327.493C275.052 329.062 275.123 330.62 274.56 332.116C274.061 333.429 272.541 333.724 271.641 332.723C259.9 332.25 248.151 331.889 236.402 331.666C215.372 331.261 194.332 331.323 173.299 331.731C162.735 331.937 152.168 332.226 141.607 332.583C136.403 332.756 131.197 333 125.991 333.072C123.186 333.11 118.771 332.086 118.544 328.921L118.539 328.824C118.188 328.92 117.826 328.997 117.455 329.054C117.29 329.079 117.131 329.072 116.984 329.037L116.911 329.018C112.73 330.296 107.441 328.472 103.468 327.41L103.14 327.323C99.347 326.331 96.2998 324.913 93.8139 321.762C89.4629 316.243 87.978 308.833 87.2058 302.003C86.4811 295.576 86.4395 289.029 87.3216 282.614C86.8018 277.387 87.3097 271.993 87.9007 266.795C88.1918 264.224 88.5333 261.657 88.9432 259.102C89.1719 257.675 89.4718 256.263 89.7777 254.854C89.8999 254.291 90.0015 253.685 90.1564 253.099L90.2262 252.85C89.751 252.912 89.2312 252.808 88.7293 252.531C87.5354 251.873 87.1879 250.541 87.1671 249.267C87.1018 245.424 87.5591 241.472 87.963 237.654C88.3699 233.842 88.9283 230.014 89.6589 226.249L89.848 225.279C90.4016 222.462 91.035 219.555 92.1507 216.909C87.9602 216.194 83.7814 215.435 79.7155 214.142C77.7316 213.507 75.7774 212.718 73.9122 211.756ZM292.638 251.742C292.573 251.757 292.511 251.775 292.448 251.793C290.773 252.263 289.08 252.662 287.393 253.091C284.477 253.827 281.626 254.649 278.914 255.927C278.346 263.117 277.504 270.283 276.704 277.454L276.544 278.888C277.774 276.6 279.033 274.33 280.349 272.088C284.355 265.252 288.454 258.47 292.638 251.742ZM91.2477 252.454C91.2566 253.309 91.0784 254.196 90.9834 255.018C90.8289 256.353 90.7042 257.693 90.5468 259.027C90.226 261.708 89.9528 264.391 89.7538 267.084C89.6261 268.803 89.5429 270.527 89.4687 272.252C91.1527 265.94 93.3831 259.766 95.5037 253.583C95.1492 253.545 94.7869 253.458 94.4131 253.359L93.7839 253.189C93.4128 253.093 92.2092 252.796 91.2477 252.454ZM297.943 246.577L297.955 246.86C297.999 247.864 297.399 248.43 296.672 248.576C297.093 247.909 297.518 247.241 297.943 246.577ZM105.251 199.005C107.024 199.163 108.761 199.542 110.419 200.197L110.578 200.259C111.804 200.734 113.596 201.33 113.997 202.642C114.11 203.014 113.807 203.321 113.46 203.351C112.129 203.458 110.561 202.028 109.329 201.546C107.956 201.01 106.519 200.611 105.064 200.399C101.794 199.92 98.3843 200.283 95.3074 201.478C95.1262 201.549 95.0134 201.26 95.1767 201.173C98.2774 199.482 101.725 198.693 105.251 199.005ZM67.6784 207.524C67.4734 207.342 67.2685 207.151 67.0665 206.961C65.4742 205.45 64.0641 203.687 63.0201 201.75L62.7453 201.226C61.895 199.575 60.8508 197.222 62.8492 196.033C64.0431 195.321 65.4805 195.5 66.8111 195.931C66.8972 195.958 66.9834 195.988 67.0695 196.018C67.6635 196.227 68.2367 196.477 68.7475 196.715C70.9661 197.736 72.9233 199.223 74.9726 200.534C77.193 201.954 79.3856 202.863 81.9482 203.394L82.1896 203.443C84.5953 203.92 87.2029 204.226 88.8809 206.21C89.3027 206.711 88.9166 207.649 88.1889 207.402C83.5498 205.832 78.6405 205.486 74.3815 202.91C72.6174 201.844 70.9483 200.62 69.1455 199.61C68.1892 199.073 67.2018 198.604 66.1496 198.283L65.5747 198.113C65.238 198.014 64.8361 197.917 64.5658 198.014C64.0513 198.192 64.2155 198.468 64.3747 198.95L64.3906 198.999C65.6409 202.878 69.2049 206.124 72.5075 208.271C73.2648 208.766 74.04 209.219 74.83 209.639C80.1776 212.497 86.1611 213.827 92.0378 215.407C92.0378 215.407 95.4357 216.358 96.5614 216.715C97.8147 216.611 99.2432 217.055 100.188 217.585C101.105 218.1 101.845 218.791 102.403 219.604C102.403 219.604 102.941 220.054 103.039 220.751C103.321 221.397 103.511 222.094 103.606 222.821C103.66 223.247 103.553 223.574 103.351 223.807C103.958 233.157 101.44 242.454 98.6005 251.341L98.3192 252.217L98.1384 252.772C95.0764 262.193 91.5629 271.546 89.9948 281.368C88.9464 287.93 88.979 294.721 89.7482 301.404040.8025 301.767C90.5604 307.999 92.0186 314.99 95.9703 320.005C97.9859 322.565 100.374 323.702 103.427 324.527L103.594 324.571C106.356 325.301 109.207 326.334 112.056 326.647C114.699 326.936 116.915 325.95 119.293 325.027L119.296 325.024C124.307 320.577 126.582 314.102 128.263 307.567C132.62 290.655 132.079 273.1 129.608 255.942C128.319 246.976 126.567 238.089 124.821 229.204C123.947 224.763 123.006 220.331 122.225 215.875L121.761 213.253C121.505 211.796 121.257 210.338 121.046 208.873C120.761 206.904 120.674 204.968 120.576 202.988C118.177 198.999 114.693 195.714 110.657 193.358C107.767 191.669 104.708 190.499 101.551 189.65C92.5251 187.211 82.6856 187.383 73.6034 185.507C70.5524 184.877 67.6562 183.943 64.7616 182.822L64.3668 182.669C63.0393 182.15 61.685 181.861 61.0256 183.431C60.5564 184.548 60.8355 185.71 61.5394 186.648C63.265 188.947 66.7339 190.013 69.3445 190.841C70.9156 191.342 72.5194 191.738 74.141 192.033C75.7626 192.328 77.3901 192.402 78.9464 192.977C79.5463 193.197 79.6651 194.153 78.9464 194.323C76.9744 194.785 74.9904 194.389 73.0302 194.005C70.877 193.578 68.7565 192.974 66.6953 192.209C66.3151 192.068 65.9217 191.92 65.521 191.762L65.2192 191.643C65.5311 191.869 65.8429 192.093 66.1577 192.316C66.2409 192.375 66.1904 192.533 66.0805 192.494C61.2341 190.681 56.8245 187.41 53.4083 183.539L53.2384 183.345C52.0355 181.963 49.2943 177.781 46.9836 178.945C44.8139 180.038 48.5125 184.248 49.9181 185.97L50.0814 186.171C51.6792 186.213 53.2265 187.211 54.5215 188.015C56.7697 189.412 59.119 190.615 61.5128 191.741C66.2706 193.984 71.3226 195.565 76.03 197.921C76.0923 197.954 76.0448 198.034 75.9854 198.026C72.9887 197.546 70.0247 196.78 67.129 195.83L66.9998 195.79L66.8706 195.747C65.0619 195.151 63.2769 194.478 61.5217 193.76C59.5704 192.962 57.6637 192.066 55.8134 191.05C54.1383 190.133 52.2791 188.48 50.3368 188.235C50.1289 188.209 49.9447 188.205 49.7844 188.221C47.5539 188.408 49.3983 192.113 50.022 193.221C51.0407 195.041 52.2702 196.721 53.681 198.255C56.5411 201.37 60.007 203.839 63.7581 205.76C65.0381 206.416 66.3479 206.994 67.6784 207.524Z"
    fill="#404040"
  />
  <ellipse cx="172.583" cy="92.9216" rx="14.238" ry="13.4886" fill="white" />
  <path
    fill-rule="evenodd"
    clip-rule="evenodd"
    d="M186.304 11.2561C240.732 8.97405 244.534 22.4616 252.008 31.0604C255.717 35.3276 259.376 41.4064 260.965 56C262.068 66.1303 260.965 78.0476 260.965 87.0999C260.965 91.7205 267.601 101.64 264.512 108.375C257.636 123.364 243.078 140 224.527 140C205.976 140 171.731 131.283 151.233 106.259C144.519 98.0631 131.875 13.5382 186.304 11.2561Z"
    fill="white"
  />
  <path
    fill-rule="evenodd"
    clip-rule="evenodd"
    d="M166.754 10.9313C169.54 9.21707 188.453 -0.304709 201.437 0.00750643C208.162 0.169505 215.694 -0.334965 222.045 1.85938C225.222 2.96097 239.007 4.37658 241.948 6.00246C243.008 6.58701 233.277 7.29372 234.218 8.02114L234.452 8.20384H234.455C236.978 9.11103 236.863 9.02561 238.906 10.9313C243.001 10.6044 249.497 12.6868 253.457 13.9504C258.969 15.7117 265.297 18.6578 268.881 23.2379C273.054 28.5701 280.616 44.2877 280.121 50.9646L272.63 43.1282C274.126 56.9595 271.263 56.6127 266.424 60.4882C266.056 60.7827 265.65 61.0066 265.229 61.1421C268.347 66.4851 270.905 72.4172 272.436 78.4082C278.281 101.291 273.788 125.155 266.76 147.211C266.183 149.028 263.436 150.235 262.037 148.459C259.54 145.284 255.913 142.863 251.832 142.409C249.315 142.13 246.809 142.636 244.43 141.493C243.497 141.043 242.596 140.306 241.948 139.411C237.932 140.934 233.607 141.652 229.317 141.476C222.278 141.187 214.752 138.748 209.909 133.399C209.131 132.541 208.934 131.577 209.113 130.708C209.721 130.491 210.344 130.33 210.987 130.229C217.129 133.85 223.899 136.269 231.175 136.421C235.379 136.509 239.479 135.921 242.888 133.295C243.626 132.726 244.304 132.097 244.931 131.421C252.059 126.834 257.084 119.044 259.473 110.699C261.698 102.917 261.425 94.8142 260.659 86.8321L260.255 82.62C259.667 76.4378 259.12 70.2371 258.967 64.0286L259.014 64.0262C260.519 63.929 260.53 61.5718 259.014 61.6699C255.092 61.9238 256.489 63.7458 252.579 64.0262C257.121 64.0106 247.125 57.8712 246.582 56.088C246.272 55.0692 244.499 54.8683 244.311 56.088C244.059 57.7198 243.967 59.3424 243.94 60.9815C231.24 48.67 240.069 61.4675 234.218 61.6699C233.138 60.5182 224.97 57.4199 224.465 55.9993C224.392 55.7902 224.318 55.584 224.241 55.3749C223.798 57.4049 223.169 59.3904 222.341 61.3341L214.27 64.0262C206.128 64.0644 212.517 53.6574 204.566 55.349C204.013 54.9246 192.499 70.163 195.535 61.4749C198.571 52.7868 194.135 52.8399 192.676 48.67L192.467 48.0817C192.45 48.0329 192.432 47.9811 192.413 47.9265C191.338 49.6623 190.056 51.2802 188.657 52.7868C187.833 53.6748 186.968 54.524 186.081 55.349C185.219 56.3063 184.329 57.2491 183.465 58.2093C183.499 58.384 183.529 58.5613 183.553 58.7418C183.817 60.7344 183.844 62.7553 183.651 64.7555C183.301 68.3716 182.28 71.8561 180.641 75.0795L180.589 75.4023C180.34 76.9129 179.986 78.4741 179.159 79.6117C180.191 80.7687 180.986 82.1507 181.447 83.6861C181.858 85.0531 179.967 86.2377 178.987 85.1191C178.208 84.2304 177.343 83.4949 176.392 82.9082C176.332 82.9898 176.224 83.0299 176.102 82.9618C173.456 81.492 168.96 81.9368 166.316 83.3212C163.027 85.0413 161.743 88.5729 162.108 92.1516C162.459 95.5712 163.954 99.5682 166.854 101.321C168.185 102.125 169.222 102.193 170.635 101.807C171.087 101.684 171.647 101.307 171.887 101.12L172.124 100.931C173.051 100.198 173.913 99.6964 175.007 99.6771C176.126 99.3282 177.25 99.8123 177.678 100.986L177.704 101.061C177.904 101.659 178.269 102.41 178.19 103.324C178.107 104.301 177.66 105.191 176.992 105.907C176.877 106.03 176.753 106.154 176.627 106.269C188.139 118.737 189.617 138.165 183.713 153.741C183.457 154.424 183.183 155.098 182.898 155.767C181.911 158.059 178.113 157.349 177.631 155.078C177.486 154.397 177.327 153.72 177.154 153.048C176.834 151.807 176.468 150.578 176.056 149.366L175.899 148.913C175.549 147.912 175.222 146.901 174.869 145.9L174.833 145.785C174.82 145.74 174.805 145.688 174.789 145.629L174.192 146.934L172.375 150.872C171.525 152.709 168.824 151.711 168.724 149.94L168.721 149.879C168.712 149.552 168.701 149.228 168.68 148.907C168.55 146.501 168.135 144.162 167.476 141.873L167.238 142.169C163.695 146.551 159.536 150.659 153.832 151.67C152.401 151.923 150.782 150.427 151.765 148.981C152.171 148.383 152.563 147.77 152.934 147.149C152.613 146.998 152.31 146.842 152.03 146.683C149.866 145.467 148.064 143.735 146.574 141.77C143.415 137.605 142.284 132.363 142.008 127.232C141.713 121.809 142.19 116.092 143.671 110.861C144.313 108.599 145.182 106.428 146.186 104.322C146.115 104.134 146.047 103.945 145.98 103.757C144.896 100.735 144.007 97.6448 143.268 94.5197C141.778 88.2106 140.977 81.7012 140.88 75.2183C140.703 63.6045 139.049 51.3037 143.268 40.4734C147.625 29.3043 163.969 12.6455 166.754 10.9313ZM162.318 108.303C161.518 107.042 159.516 108.178 160.259 109.447L160.287 109.493C161.556 111.492 162.15 113.766 162.881 115.996C163.349 117.431 165.625 116.818 165.151 115.369L164.994 114.885C164.267 112.624 163.604 110.326 162.318 108.303ZM169.287 89.2445L169.818 88.9872C171.495 88.1867 172.964 87.6414 174.946 88.3403C177.598 89.274 180.44 92.2459 178.646 95.1295C177.987 96.1928 176.815 96.617 175.608 96.3666C173.573 95.9444 173.048 94.111 172.015 92.6061L171.837 92.3512C171.208 91.4406 170.411 90.1817 169.363 89.8248C169.125 89.7423 169.025 89.3712 169.287 89.2445ZM170.783 28.0212L170.954 27.8677C172.093 26.8604 170.421 25.1992 169.287 26.2006C164.1 30.7866 162.298 37.9647 159.607 44.0823C159.003 45.4578 161.032 46.6596 161.641 45.2723C164.208 39.4346 165.912 32.4514 170.783 28.0212ZM233.125 26.0151C231.769 25.404 230.583 27.3775 231.887 28.0272L231.935 28.0504C236.517 30.121 238.466 34.8102 240.333 39.1635C240.927 40.5538 242.956 39.355 242.367 37.9765L242.03 37.1954C240.082 32.7091 237.811 28.1362 233.125 26.0151ZM240.305 23.1815C238.868 22.6837 238.253 24.9576 239.678 25.4554C243.562 26.8073 246.226 29.7233 248.473 33.0575C249.315 34.3064 251.355 33.1282 250.504 31.8676C247.896 27.9973 244.798 24.7485 240.305 23.1815Z"
    fill="#404040"
  />
  <path
    d="M140.73 91.2088C125.742 96.4544 130.238 88.9607 143.727 76.9708L164.709 85.9633C161.712 85.9633 152.72 87.0124 140.73 91.2088Z"
    fill="#404040"
  />
  <path
    fill-rule="evenodd"
    clip-rule="evenodd"
    d="M232.072 123.657C234.112 123.374 236.306 122.219 238.255 123.157C239.166 123.596 239.598 125.095 238.982 125.929C238.041 127.202 237.07 127.412 235.544 127.535C234.399 127.626 233.248 127.633 232.106 127.501L231.816 127.466C229.779 127.203 227.662 126.635 226.083 125.267C225.761 124.987 225.926 124.383 226.34 124.296C228.215 123.902 230.175 123.921 232.072 123.657ZM229.671 118.964C229.67 118.948 229.696 118.948 229.696 118.964C229.746 120.129 230.073 121.209 230.679 122.206C230.687 122.22 230.666 122.233 230.657 122.218C230.051 121.221 229.721 120.13 229.671 118.964ZM236.102 94.9249C238.141 96.1625 241.246 99.0483 239.053 102.116C236.473 104.822 232.757 101.72 230.926 100.317C229.228 99.2299 227.32 102.026 228.896 103.296C242.127 113.082 247.496 95.2485 237.133 93.4698C235.992 93.2738 235.568 94.542 236.102 94.9249ZM246.534 81.0751C247.012 81.0751 247.47 81.2374 247.887 81.5376C248.297 81.8332 248.669 82.2645 248.978 82.8025C249.563 83.8205 249.929 85.2261 249.929 86.7803C249.929 88.3345 249.563 89.7402 248.978 90.7582C248.669 91.2962 248.297 91.7275 247.887 92.023C247.47 92.3233 247.012 92.4856 246.534 92.4856C246.055 92.4856 245.597 92.3233 245.181 92.023C244.77 91.7275 244.399 91.2962 244.09 90.7582C243.504 89.7402 243.138 88.3345 243.138 86.7803C243.138 85.2261 243.504 83.8205 244.09 82.8025C244.399 82.2645 244.77 81.8332 245.181 81.5376C245.597 81.2374 246.055 81.0751 246.534 81.0751ZM224.37 82.6604L224.551 82.6263C225.602 82.4353 226.133 82.4996 227.048 83.2153C227.736 83.7532 227.539 84.8126 227.048 85.3782C226.193 86.364 225.358 86.1894 224.186 86.227L224.104 86.23C223.128 86.2696 222.151 86.2974 221.174 86.3122C220.907 86.3165 220.639 86.3154 220.372 86.3171C220.4 88.7871 218.975 90.6677 217.097 92.0975C215.884 93.0221 214.349 91.9554 213.916 90.8047C213.558 89.8524 213.481 88.6814 213.667 87.6388C213.735 87.2544 213.879 86.8373 214.098 86.4815L214.16 86.3861L214.15 86.2497C214.147 86.2159 214.15 86.1833 214.149 86.1496C212.406 86.0438 210.673 85.8692 208.941 85.6498L208.363 85.5751C206.885 85.3796 204.714 85.3168 203.517 84.3561C203.479 84.3253 203.493 84.2582 203.533 84.2369C204.19 83.883 204.858 83.9031 205.593 83.8704L205.699 83.8654C206.499 83.8241 207.297 83.7897 208.097 83.7623L208.897 83.7373C210.943 83.6788 212.991 83.5796 215.036 83.4709C215.391 83.452 215.747 83.4296 216.103 83.4078C216.475 83.252 216.87 83.1587 217.261 83.1414C217.585 83.1269 217.897 83.1716 218.189 83.2646C218.936 83.207 219.682 83.1442 220.428 83.0767L221.174 83.0077C222.226 82.9077 223.332 82.864 224.37 82.6604ZM237.29 64.1479C239.539 63.0438 242.273 63.0168 244.59 63.9306L244.743 63.9927C247.082 64.9625 249.901 67.2026 249.291 69.9928C248.732 72.5467 244.723 72.114 244.519 69.7C243.225 67.9081 240.321 67.515 238.496 68.6544C237.39 69.3457 236.63 70.5097 236.11 71.6837C235.668 72.6834 235.584 73.918 234.905 74.7889C234.882 74.8172 234.838 74.8224 234.806 74.8148C232.779 74.3462 232.732 71.1277 233.077 69.5666C233.58 67.2969 235.192 65.1784 237.29 64.1479Z"
    fill="black"
  />
</svg>
