<svg
  aria-hidden="true"
  class="avatar avatar-cta"
  viewBox="0 0 278 337"
  fill="none"
  xmlns="http://www.w3.org/2000/svg"
>
  <g id="lene-cta">
    <g id="body" fill-rule="evenodd" clip-rule="evenodd">
      <path
        d="M147.296 115.705c-8.334.412-21.31 3.986-21.958 6.27-1.013 3.567 1.164 16.939-2.477 24.142-1.552 3.07-7.446 2.795-9.729 3.795-7.641 3.346-30.26 9.691-34.924 17.681-1.869 3.201-13.351 42.919-19.453 63.182a58.774 58.774 0 0 1-2.309 6.355l-.31-1.521c-2.488-12.247-3.732-19.661-3.732-22.242 0-4.033 3.216-21.049 0-25.376-3.184-4.284-10.856-7.787-14.308-7.856l-.103-.002c-2.267 0-4.233-.708-5.9-2.126l-2.444-1.229c-12.432-6.241-19.695-9.664-21.79-10.27-3.342-.967-9.03 1.093-6.187 4.185 1.897 2.061 6.661 5.707 14.295 10.939l2.878 2.288-.347.181c-3.72 1.959-5.908 3.608-6.562 4.947-.675 1.38-.351 3.012.971 4.897l-.2.196c-1.673 1.641-2.509 2.743-2.509 3.303v2.739c-1.663 2.437-2.079 4.47-1.247 6.098.832 1.627 2.15 3.038 3.956 4.231 1.33 3.502 2.915 5.994 4.754 7.477 1.839 1.483 5.016 2.717 9.533 3.703l4.087 9.776 3.312 13.735 1.669 15.326-.485.351c-2.246 1.636-3.684 2.849-3.684 4.103 0 1.952 9.061 47.877 23.16 49.933 3.049.444 18.861-1.736 24.053-5.961l-.076.456c-1.222 7.382-.964 11.215.775 11.5 21.365 3.504 82.044 4.587 182.037 3.248.595-53.092-2.096-88.45-8.071-106.075-15.281-45.076-32.13-60.472-38.024-61.791-5.163-1.155-23.068-8.284-28.073-10.176-3.267-1.235-3.967-4.938-7.69-4.938l-.301.001c-3.6.037-6.793.681-8.587-1.172-4.707-4.861-3.391-11.59-5.344-18.033-1.076-3.55-8.43-6.774-18.656-6.27Z"
        fill="var(--color-light)"
      />
      <path
        id="ink-cta"
        d="M170.191 128.434c-.489-.969-1.788-.844-2.644-.404-2.57 1.88.119 5.522.829 7.816 1.829 4.448 5.005 8.795 9.389 10.874-.363 4.422-.775 8.835-.927 13.27-5.605 6.956-15.056 9.494-23.445 11.447-13.177 3.645-28.047-3.824-32.495-16.853 5.062-2.877 6.7-10.409 5.19-15.665-.132-.369-.704-.532-.907-.12-1.386 2.852-1.201 6.331-2.777 9.148-15.124 1.449-34.642 7.157-44.55 19.392-4.39 6.122-6.13 14.083-8.292 21.177-4.614 14.626-8.29 29.548-12.816 44.189l-.534-2.771c-1.462-7.631-2.79-15.365-1.803-23.126l.018-.371c.322-6.175 2.254-17.65-2.533-21.819-4.33-3.31-10.603-5.97-16.036-4.444-9.67-4.305-18.016-11.554-28.315-14.377-3.17-.653-7.73.12-6.98 4.422 2.076 7.523 10.77 10.443 16.715 14.322-3.81 1.033-8.455 5.668-5.478 9.71.025.072.048.126.071.169-2.414 1.07-2.752 3.76-2.16 6.067.06.61.22.086-.137.638-2.724 2.57-1.52 9.734 2.583 9.976-.268 3.394 1.911 6.691 4.671 8.543 2.976 1.994 7.278 2.08 9.741 4.81 5.784 10.202 7.779 22.245 8.41 33.927-3.813 1.428-7.234 5.697-3.77 9.318a6.9 6.9 0 0 0 .206.022c2.008 5.36 2.783 11.075 3.845 16.673 1.634 9.552 5.891 18.322 11.328 26.28 6.287 10.533 23.193 8.863 31.71 2.065-.034 1.784-.328 3.557.243 5.28.843 1.86 2.898 1.056 3.101-.775 4.502 2.533 5.563-5.828.558-4.502.385-6.044.608-12.097.789-18.152 5.666 1.835 5.91-7.57.115-5.689l.007-2.6c.042-19.935-.178-39.939-2.808-59.718-.243-1.479-.655-2.91-.895-4.381-.026-.152-.263-.109-.264.037-.407 27.69 1.402 55.44-.486 83.14-1.571.479-2.198 2.283-3.361 3.334-2.583 2.385-6.1 3.547-9.54 3.951-9.632 1.351-13.79-1.591-18.08-9.967 1.935 1.294 4.55-.99 3.37-3.037l-.037-.062c-1.224-2.169-4.683-.869-4.245 1.56-4.312-6.908-6.57-14.698-8.236-22.602l-.226-.945c-.81-3.355-1.861-7.2-3.807-10.236 11.866-3.026 23.474-12.244 25.331-24.891 3.013 9.47 7.094 18.726 10.985 27.936 1.201 3.202 1.702 6.644 3.424 9.615.4.687 1.416.51 1.642-.215 1.55-6.927-3.144-13.516-5.58-19.752-1.99-3.524-7.702-19.617-11.243-19.656 3.979-17.448 9.286-34.765 14.34-51.995 4.888-23.266 14.848-27.752 35.947-35.077-3.805 19.401-21.18 38.181-11.935 58.531l.225.528c.945 2.244 1.731 4.504 1.07 6.967-.64 2.39-2.099 4.464-3.266 6.614-6.525 12.139-2.034 26.317.49 38.959 3.186 14.826 6.334 29.666 9.628 44.469.649 2.953 1.07 5.996 2.051 8.857.506 1.477 3.032 1.337 2.869-.386-.311-3.342-1.25-6.602-1.937-9.884-4.102-21.252-9.651-42.253-13.18-63.597-2.27-15.801 6.666-18.228 6.333-28.437-1.215-5.222-4.43-9.881-4.246-15.445-.714-17.032 11.687-31.084 13.218-47.649l2.704-.965c1.351-.483 2.7-.971 4.046-1.471-7.082 49.545-4.932 100.171-1.391 149.96.723 2.297.035 18.346 3.067 16.921.153.897.629 1.779 1.665 1.774 9.402.087 18.808.235 28.211.348 4.523-.417 10.74 1.31 14.587-1.301 4.442-1.268 4.952-13.301 6.14-17.59l.463-3.12c7.547-50.97 14.301-102.992 8.876-154.468 7.548.291 9.106 8.44 9.666 14.374 1.4 13.096 9.858 24.374 10.264 37.621.034 3.213-.573 6.327-1.857 9.277-3.407 7.23-9.299 15.587-4.895 23.662 5.208 6.285 4.757 7.94 2.846 15.707-5.377 25.679-14.307 50.366-22.801 75.125 1.845 9.623 12.947-26.102 13.991-28.796 4.915 2.472 7.599-5.731 1.962-6.315 3.621-12.123 6.953-24.337 9.727-36.685l.073-.348c1.225-5.706 3.636-12.386-.434-17.447-10.495-10.617 6.933-22.484 4.734-35.345 1.899 1.408 4.772-.073 4.729-2.438.086-2.663-3.489-4.027-5.209-1.995-1.769-10.435-7.923-19.545-9.785-29.949l-.085-.489c-.631-3.677-.809-7.546-2.614-10.897 2.458 1.597 5.075 2.887 7.767 4.026-4.813 4.022 4.507 7.692 3.736 1.48 26.394 7.639 32.36 18.292 42.051 42.757-1.81-1.759-4.911.518-3.828 2.762.865 2.363 4.636 1.672 4.635-.847l.441 1.053c5.877 14.057 11.226 28.455 13.913 43.499-5.272-.745-3.93 7.685.847 5.308 1.918 13.379 1.948 26.947 1.714 40.434-4.448-2.333-4.582 5.594-.043 3.334-.166 11.052-.409 22.104-.592 33.156-.038 2.352 3.59 2.341 3.647 0 .424-16.982 1.196-33.995.829-50.982.345-29.483-8.128-57.901-20.752-84.312-11.17-30.41-26.599-33.869-54.986-42.71-2.62-3.891-8.218-7.572-12.786-5.128-2.555-4.127-3.853-9.016-5.744-13.413Zm48.636 105.988c-.106-.375-.641-.281-.658.088-.238 4.771-.026 9.573.3 14.364.198 2.924.441 5.846.647 8.751.546 7.664.987 15.336 1.321 23.014a3.227 3.227 0 0 0-2.096-.126 3.214 3.214 0 0 0-1.354.759l-.083.08a2.445 2.445 0 0 0-.675 1.047 2.46 2.46 0 0 0-.282 1.153l.002.103c.003.59.149 1.136.446 1.646.289.489.678.878 1.167 1.17.51.295 1.056.441 1.645.444a2.396 2.396 0 0 0 1.414-.258l.057-.017c.143 3.895.26 7.793.346 11.69.077 3.397.18 6.794.249 10.191l.032 1.699.062 3.755c.02 1.545.01 3.024.535 4.48l.063.168c.378.973.672 2.327 1.682 2.868.807.431 1.894.271 2.357-.57.389-.704.052-1.717-.523-2.192.011-.032.028-.06.043-.092.088-.257.223-.5.303-.761.252-.824.183-1.703.186-2.559 0-1.51-.051-3.021-.092-4.53a812.024 812.024 0 0 0-.317-9.626c-.425-10.762-1.226-21.524-2.143-32.255l-.311-3.622c-.415-4.817-.844-9.638-1.451-14.43a40.326 40.326 0 0 0-.089-.687c.326-.163.63-.389.87-.641.964-1.012 1.548-2.526 2.097-3.83l.126-.297c.595-1.39 1.144-2.798 1.427-4.292l.027-.138c.129-.636.384-1.763-.29-2.072-.352-.16-.575-.045-.69.307a.171.171 0 0 0 .023.137c-.277.426-.712.824-.987 1.219l-.94 1.345-.464.675a41.99 41.99 0 0 1-1.868 2.516c-.512-3.594-1.139-7.174-2.114-10.674Zm-38.545 80.097c-1.175-.921-3.089-.421-3.089 1.28 0 1.708 1.916 2.2 3.089 1.279l.059-.044.056-.045c.638-.499.66-1.799.048-2.341l-.048-.04a1.676 1.676 0 0 0-.115-.089Zm51.218-3.322-.101.003a2.9 2.9 0 0 0-1.488.403c-.2.152-.397.306-.597.461a2.914 2.914 0 0 0-.758 1.302l-.107.784c-.014.406.069.784.255 1.136.12.366.324.684.61.951.269.289.583.492.949.609.323.17.667.257 1.035.257l.101-.002c.535 0 1.03-.135 1.49-.404.201-.151.398-.306.598-.46.364-.367.618-.802.758-1.303.035-.26.069-.524.106-.784a2.252 2.252 0 0 0-.254-1.136 2.239 2.239 0 0 0-.61-.95 2.198 2.198 0 0 0-.949-.61 2.213 2.213 0 0 0-1.038-.257Zm-133.91-5.441-.75.101c-.718.163-1.296.692-1.682 1.296a2.098 2.098 0 0 0-.335 1.048c-.083.372-.065.747.052 1.121.086.366.254.687.503.959.086.135.186.258.3.366.235.392.59.65.956.913.309.198.644.304 1.004.321.238.063.478.063.718 0a2.003 2.003 0 0 0 1.002-.321l.546-.423c.16-.186.309-.378.449-.578l.277-.656c.169-.524.086-.987-.006-1.511a1.374 1.374 0 0 0-.068-.255l-.062-.166c-.165-.435-.253-.582-.544-.961l-.112-.149a1.935 1.935 0 0 0-.178-.211c-.182-.189-.443-.347-.649-.51a2.835 2.835 0 0 0-1.421-.384Zm97.123-1.832-.096.001a2.313 2.313 0 0 0-1.164.315l-.469.363a2.324 2.324 0 0 0-.595 1.019c-.026.206-.055.412-.083.615-.012.318.054.615.2.893.091.286.252.532.478.744.208.224.458.384.744.478.249.13.518.199.803.2l.086-.002c.418 0 .807-.106 1.167-.315l.47-.361c.286-.289.483-.629.595-1.022.025-.205.054-.409.083-.615a1.74 1.74 0 0 0-.201-.89 1.734 1.734 0 0 0-.477-.744 1.718 1.718 0 0 0-.744-.478 1.74 1.74 0 0 0-.797-.201Zm18.879-.946a2.9 2.9 0 0 0-1.694.509c-.475.338-.835.701-1.067 1.248-.063.149-.126.295-.18.444-.246.655-.292 1.313.048 1.954.329.621 1.039.893 1.674 1.079.538.16 1.147.186 1.682-.006a4.08 4.08 0 0 0 .767-.34c.449-.278.692-.607.992-1.014.235-.4.352-.835.352-1.299a2.54 2.54 0 0 0-.352-1.302 2.595 2.595 0 0 0-2.222-1.273Zm30.322.552c-.755 0-1.418.349-1.874.939-.46.598-.629 1.342-.425 2.084.214.783.863 1.47 1.667 1.668.595.146 1.082.14 1.674.039.5-.085.883-.383 1.267-.692.438-.358.572-1.01.501-1.537-.069-.526-.312-.87-.682-1.182l-.002-.008.137.106c-.052-.046-.103-.095-.155-.143a1.123 1.123 0 0 1-.045-.092 2.394 2.394 0 0 0-.855-.856 2.368 2.368 0 0 0-1.208-.326Zm-176.097-8.668a2.357 2.357 0 0 0-1.247 0 1.75 1.75 0 0 0-.799.42c-.229.15-.416.341-.558.578l-.045.081c-.327.555-.378 1.19-.238 1.808.175.764.878 1.46 1.64 1.64l.025.005.026.007c.309.097.62.111.93.04.312-.014.6-.106.866-.278a2.78 2.78 0 0 0 .838-.835c.172-.269.264-.558.278-.871a1.193 1.193 0 0 0 0-.617 1.73 1.73 0 0 0-.278-.87l-.365-.473-.038-.031a2.323 2.323 0 0 0-1.035-.604Zm28.8-15.144c-3.75 0-3.744 5.82 0 5.82 3.751 0 3.745-5.82 0-5.82Zm137.305-.736a2.238 2.238 0 0 0-1.181.052c-.238.1-.472.2-.707.297l-.601.464c-.111.094-.165.197-.268.332l-.129.168c-.186.249-.191.302-.395.833a2.895 2.895 0 0 0 0 1.529c.066.246.166.477.295.692.117.206.258.387.417.553l.08.082c.269.289.587.493.953.613.232.135.481.2.747.2.394.089.789.072 1.181-.052.238-.1.472-.2.707-.297l.6-.464.464-.601.148-.352.149-.354.106-.787a2.24 2.24 0 0 0-.254-1.142 1.5 1.5 0 0 0-.381-.653 1.482 1.482 0 0 0-.532-.532 1.496 1.496 0 0 0-.652-.381 1.468 1.468 0 0 0-.747-.2Zm-185.489-4.158a1.7 1.7 0 0 0-.872.197 1.954 1.954 0 0 0-.275.118c-.346.203-.62.477-.824.821a1.725 1.725 0 0 0-.272.853c-.062.276-.056.554.019.83l.024.083c.063.226.158.435.283.626a.352.352 0 0 0 .043.066c.192.304.447.552.761.739.35.2.724.303 1.13.306.81 0 1.508-.438 1.934-1.111.06-.094.094-.214.137-.312.038-.091.098-.208.13-.314a2.325 2.325 0 0 0 0-1.219 1.723 1.723 0 0 0-.41-.779 1.74 1.74 0 0 0-.644-.589 2.277 2.277 0 0 0-1.06-.313l-.104-.002Zm158.342-2.847a2.36 2.36 0 0 0-1.183-.025l-.099.025a1.83 1.83 0 0 0-.821.429c-.26.171-.469.398-.62.678a2.402 2.402 0 0 0-.329 1.216 2.399 2.399 0 0 0 1.195 2.081l.315.151c.263.166.543.255.847.269.203.055.406.055.606 0 .206 0 .398-.051.575-.154.195-.054.361-.152.504-.295.249-.16.443-.372.586-.638l.232-.547.08-.607-.08-.603-.126-.298a2.406 2.406 0 0 0-1.682-1.682ZM64.91 267.149a2.365 2.365 0 0 0-1.247-.057c-.28 0-.543.071-.787.214a1.537 1.537 0 0 0-.689.401 2.37 2.37 0 0 0-.804.875l-.314.747c-.189.484-.12 1.197-.006 1.683.094.401.277.75.55 1.047.136.232.32.416.551.553.265.241.57.413.917.514l.096.027.034.008a.035.035 0 0 0 .017.003c.003.003.01.003.012.003.137.034.277.054.423.06.415.092.83.075 1.247-.057.246-.103.495-.209.744-.315.212-.16.42-.323.632-.487.163-.211.326-.423.49-.632.229-.358.351-.747.368-1.162a1.567 1.567 0 0 0 0-.83c0-.283-.071-.543-.21-.787a2.327 2.327 0 0 0-.648-1.007c-.211-.163-.42-.326-.632-.487a129.73 129.73 0 0 0-.744-.314Zm182.451-10.245a2.417 2.417 0 0 0-1.296 0l-.58.243a1.833 1.833 0 0 0-.684.629 1.811 1.811 0 0 0-.437.83c-.169.435-.149 1.125-.015 1.569.152.503.386.904.75 1.282.603.624 1.53.804 2.351.615.226-.052.441-.152.635-.275.621-.383 1.038-1.053 1.036-1.794 0-.08-.006-.16-.018-.24.041-.164.055-.332.049-.51l-.086-.647-.005-.017a2.396 2.396 0 0 0-.621-1.064 2.41 2.41 0 0 0-.971-.593l-.093-.028h-.015Zm-215.86-64.261c.781-6.409 3.72-13.305 12.68-9.541l.666.249c2.218.84 4.802 1.943 6.151 3.883.93 1.337.616 3.927.744 5.486.585 5.071.271 10.135-.338 15.185-.785 11.836 1.702 24.099 6.655 34.856-4.957 8.023-11.59 15.506-20.64 18.85-.382-9.122-2.167-18.076-4.067-26.978l-.075-.388c-.76-4.013-1.14-8.133-3.776-11.471-5.36-5.822-12.732-2.527-16.26-11.879.741-.375.332-1.657-.56-1.41-3.095.549-3.597-5.189-1.48-6.571 2.207-1.346-.015-3.829.925-5.621.523-.772 1.653-.798 2.165-1.688 1.358-3.277-5.437-5.377 2.554-9.07 1.635-.582 3.463-.221 5.113-.228 2.426.227 4.354 1.937 6.573 2.475-2.416 6.259 3.68 12.285 9.183 7.286 2.994 2.832 6.343 9.285-.936 6.277-3.562-2.379-6.629-5.453-10.764-6.918l-.088-.027c-1.535-.503-8.252-3.768-7.92-.942 2.517 2.429 6.667 2.4 9.581 4.372 4.04 1.869 6.624 6.398 11.46 6.336 1.115 6.773-6.568 2.652-9.429.784l-.793-.431c-4.035-2.18-8.131-4.201-12.838-4.228-1.298-.008-1.293 1.995 0 2.012 6.134.038 11.126 3.873 16.263 6.725.506 3.953-5.281 2.223-7.477 1.639-2.303-.323-6.001-2.815-8.016-1.499-.788 2.026 2.68 1.875 3.888 2.49-5.513 2.649-.683 4.317.795.246l.433.148c3.691 1.241 12.643 3.795 11.578-2.46 1.351.598 2.999.956 4.492.624 3.723 5.509 9.662 3.377 1.03-.378 1.945-.905 2.595-4.4.726-5.701 6.795-.415 1.75-7.546-1.062-9.923.265-.268.523-.542.762-.82a14.995 14.995 0 0 0 5.15 1.408c1.744.157 2.133-2.813.411-3.056-1.845-.26-3.545-.753-5.17-1.68-2.462-1.064-3.302 3.507-5.767 3.669-1.344.266-2.253-.913-2.522-2.092Zm57.206 58.978c-.595 0-1.124.249-1.555.644-.433.395-.618.987-.644 1.554-.012.303.051.586.189.849.088.272.24.507.454.708.401.397.993.644 1.556.644.595 0 1.125-.25 1.557-.644.431-.398.618-.988.644-1.557a1.673 1.673 0 0 0-.19-.848 1.639 1.639 0 0 0-.392-.646l-.062-.06a2.266 2.266 0 0 0-1.557-.644Zm-18.029-13.572-.095.001c-.504.003-.97.129-1.405.381-.189.146-.377.289-.564.435a2.778 2.778 0 0 0-.715 1.231 2.763 2.763 0 0 0 0 1.479c.046.283.152.558.318.796.246.409.572.738.984.981.426.249.887.372 1.382.375a2.724 2.724 0 0 0 1.382-.375c.411-.243.737-.572.98-.981a1.9 1.9 0 0 0 .321-.796 2.763 2.763 0 0 0 0-1.479 2.766 2.766 0 0 0-.643-1.155l-.072-.076a2.058 2.058 0 0 0-.895-.575 2.082 2.082 0 0 0-.978-.242Zm137.596.153a1.19 1.19 0 0 0-.632 0 1.773 1.773 0 0 0-.881.281l-.481.372-.14.167c-.298.364-.306.426-.535.98a1.793 1.793 0 0 0-.04.927c0 .209.054.404.158.584.056.198.154.369.3.512.103.175.24.315.415.418.223.203.486.344.789.415l.615.083c.08-.011.163-.023.243-.031.097-.003.191-.014.282-.032l.093-.02.085-.023c.112-.032.221-.076.327-.131.2-.058.375-.158.524-.307.257-.166.463-.389.611-.666l.041-.092c.054-.098.1-.197.134-.306.097-.172.146-.355.149-.552a1.663 1.663 0 0 0-.015-.784l-.025-.087-.221-.523a2.643 2.643 0 0 0-.388-.504 6.715 6.715 0 0 0-.448-.349l-.079-.051a1.773 1.773 0 0 0-.881-.281Zm34.488-4.092c-.412-1.623-2.541-2.135-3.699-.976-1.158 1.159-.647 3.288.975 3.7l.186.046c1.568.398 2.981-1.019 2.583-2.587l-.045-.183ZM46.416 220.874c.012-.16-.194-.217-.297-.123-1.38 1.236-2.258 2.719-3.931 3.677-1.682.962-3.416.885-5.17 1.506a.637.637 0 0 0 0 1.216c3.32 1.159 9.146-2.77 9.398-6.276Zm155.919-.252a2.127 2.127 0 0 0-1.11-.048c-.252 0-.486.063-.701.188a1.402 1.402 0 0 0-.615.358 1.412 1.412 0 0 0-.5.501 2.08 2.08 0 0 0-.498.944l-.097.742.097.741c.094.22.189.443.28.664l.256.346c.207.277.24.28.743.653.32.202.666.314 1.035.329.246.068.492.068.741 0 .249 0 .484-.063.701-.189.234-.066.44-.186.615-.358.303-.197.54-.458.715-.781a52.5 52.5 0 0 0 .28-.664l.101-.741-.101-.742-.005-.022a2.765 2.765 0 0 0-.704-1.208l-.555-.43c-.217-.14-.443-.211-.678-.283Zm-133.538.556a2.324 2.324 0 0 0-2.242.592 2.323 2.323 0 0 0-.593 2.241 2.322 2.322 0 0 0 1.611 1.608c.232.063.466.097.704.086.398-.003.77-.103 1.115-.304l.447-.346c.217-.2.369-.438.458-.712a1.65 1.65 0 0 0 .191-.853l.003-.055a.82.82 0 0 0-.04-.323c0-.112-.017-.221-.046-.326a2.32 2.32 0 0 0-1.608-1.608Zm170.826-7.75a1.386 1.386 0 0 0-.712.16c-.232.074-.429.2-.595.383a1.354 1.354 0 0 0-.383.596c-.117.22-.169.458-.16.712 0 .335.085.647.251.933l.292.375c.229.232.501.389.815.478l.184.063c.268.097.532.103.812.066.295-.04.567-.12.807-.304.234-.137.42-.323.557-.558l.158-.372c.034-.125.048-.314.057-.446 0-.02 0-.037.003-.057a2.89 2.89 0 0 0-.063-.495 1.873 1.873 0 0 0-.338-.647 1.364 1.364 0 0 0-.509-.467l-.019-.014-.021-.014-.203-.141a1.84 1.84 0 0 0-.933-.251Zm-147.72-2.032c-.458 0-.884.117-1.279.346l-.04.018a2.515 2.515 0 0 0-1.244 2.169 2.518 2.518 0 0 0 1.244 2.169c.012.008.026.014.04.02a2.537 2.537 0 0 0 2.555 0 2.555 2.555 0 0 0 1.256-2.189c0-.894-.484-1.737-1.256-2.187a2.507 2.507 0 0 0-1.276-.346Zm118.797-3.309-.078-.002a1.61 1.61 0 0 0-.846.192 1.66 1.66 0 0 0-.71.455l-.418.349-.121.098-.059.051c-.28.283-.472.615-.581.998-.034.221-.062.438-.085.659-.063.572.274 1.159.646 1.565.2.215.438.366.712.458.264.137.55.2.853.189.621-.054 1.21-.186 1.656-.667.052-.057.101-.117.152-.178l.357-.412c.272-.274.461-.598.564-.97.029-.197.054-.392.08-.586.026-.587-.26-1.137-.644-1.554-.354-.387-.954-.624-1.478-.645Zm14.44-6.026c-2.975 0-2.969 4.616 0 4.616 2.972 0 2.967-4.616 0-4.616Zm-149.578-6.472-.093.002a2.71 2.71 0 0 0-1.38.374l-.554.427a2.773 2.773 0 0 0-.704 1.208c-.031.242-.063.486-.097.726-.015.378.066.73.237 1.056.109.338.297.633.564.882.248.266.54.455.88.564.327.171.678.251 1.054.237a2.723 2.723 0 0 0 1.381-.375c.186-.143.369-.286.555-.426.311-.317.535-.683.67-1.102l.03-.106.1-.73a2.06 2.06 0 0 0-.236-1.053 2.045 2.045 0 0 0-.564-.881 2.05 2.05 0 0 0-.881-.564 2.051 2.051 0 0 0-.962-.239Zm13.4-8.641a1.478 1.478 0 0 0-.744.166 1.457 1.457 0 0 0-.618.398c-.369.295-.595.884-.595 1.362 0 .478.226 1.067.595 1.362.24.237.524.403.85.495l.512.069c.498.023 1.004-.238 1.359-.564.071-.066.14-.131.212-.195.323-.297.463-.741.483-1.167a1.25 1.25 0 0 0-.143-.635 1.251 1.251 0 0 0-.34-.533c-.072-.063-.14-.128-.212-.194a2.082 2.082 0 0 0-1.359-.564ZM4.065 171.555c-1.88-2.291-.786-3.921 2.04-3.355 4.865.659 9.445 3.735 13.73 5.941 4.678 2.472 9.498 4.51 14.27 6.833-1.97 1.208-3.433 3.101-4.552 5.261-2.233-1.696-5.087-2.507-7.873-2.612-5.054-4.843-13.425-5.952-17.615-12.068Zm222.076 7.604c-.51.002-.987.122-1.435.361l-.095.053-.613.475a2.28 2.28 0 0 0-.629.976 2.317 2.317 0 0 0-.26 1.171c-.014.417.071.807.26 1.167.123.378.332.701.629.976.169.22.387.392.647.518.243.1.483.203.727.306.271.086.586.098.881.112a2.96 2.96 0 0 0 1.496-.406l.601-.464c.288-.269.495-.587.615-.956.17-.325.256-.672.256-1.043l-.002-.102c0-.022 0-.048-.003-.074-.034-.269-.072-.538-.108-.807a2.288 2.288 0 0 0-.544-1.033.984.984 0 0 0-.278-.341 3.024 3.024 0 0 0-1.338-.781c-.269-.034-.538-.072-.807-.108Zm-132.732-7.583-.087.002c-.386 0-.743.097-1.075.289-.146.111-.289.223-.432.334a2.11 2.11 0 0 0-.55.942l-.077.566c-.008.295.052.567.186.822.086.263.232.492.441.687.192.208.42.355.686.44.252.135.527.195.822.184a2.1 2.1 0 0 0 1.075-.292c.143-.109.29-.221.432-.332.241-.244.415-.529.52-.853l.026-.089.077-.567a1.593 1.593 0 0 0-.182-.821 1.602 1.602 0 0 0-.44-.687 1.604 1.604 0 0 0-.688-.44 1.588 1.588 0 0 0-.734-.185Zm116.012-3.099-.1.001a3.141 3.141 0 0 0-1.591.432c-.211.164-.423.327-.635.493a3.146 3.146 0 0 0-.813 1.39l-.111.836c-.017.435.075.838.272 1.213.126.393.343.73.652 1.016.283.307.621.524 1.013.65.375.197.778.289 1.213.272a3.1 3.1 0 0 0 1.59-.43c.212-.163.423-.328.638-.492a3.2 3.2 0 0 0 .81-1.391l.111-.838a2.369 2.369 0 0 0-.271-1.213 2.352 2.352 0 0 0-.65-1.013 2.338 2.338 0 0 0-1.015-.653 2.367 2.367 0 0 0-1.113-.273Zm-105.924-7.868a1.495 1.495 0 0 0-.78 0 2.18 2.18 0 0 0-1.091.348l-.592.459c-.008.008-.017.017-.025.028-.358.36-.607.787-.744 1.277l-.103.769c-.015.398.068.77.249 1.114.107.33.285.617.529.865l.094.093c.267.286.578.489.942.607.228.134.477.2.741.2.388.089.78.072 1.17-.052.231-.1.466-.197.7-.294l.075-.043c.884-.484 1.43-1.497 1.43-2.49 0-.993-.546-2.009-1.43-2.493-.026-.011-.049-.025-.075-.04a2.17 2.17 0 0 0-1.09-.348Z"
        fill="var(--color-dark)"
      />
    </g>
    <g id="lene-cta-kopf">
      <g id="lenes haare">
        <ellipse
          id="Ellipse5"
          rx="14.127"
          ry="13.383"
          transform="matrix(-1 0 0 1 190.127 119.384)"
          fill="var(--color-light)"
        />
        <ellipse
          id="Ellipse4"
          rx="14.127"
          ry="13.383"
          transform="matrix(-1 0 0 1 179.158 93.112)"
          fill="var(--color-light)"
        />
        <path
          id="9"
          fill-rule="evenodd"
          clip-rule="evenodd"
          d="M158.759 7.264c-49.075-2.353-52.503 11.553-59.242 20.418-3.344 4.4-11.979 10.916-13.411 25.962-.994 10.444 5.335 22.483 5.335 31.816 0 4.763-5.983 14.991-3.197 21.934C94.443 122.849 107.569 140 124.296 140c16.726 0 47.602-8.987 66.084-34.787 6.054-8.45 17.454-95.596-31.621-97.949Z"
          fill="var(--color-light)"
        />
        <path
          id="ink-cta_2"
          fill-rule="evenodd"
          clip-rule="evenodd"
          d="M184.941 11.76c-2.763-1.7-21.53-11.148-34.413-10.838-6.672.161-14.145-.34-20.447 1.838-3.152 1.093-16.829 2.497-19.748 4.11-1.051.58 8.604 1.282 7.671 2.003l-.233.182h-.003c-2.504.9-2.389.815-4.416 2.706-4.064-.324-10.509 1.742-14.438 2.996-5.469 1.747-11.748 4.67-15.303 9.215-4.141 5.29-11.644 20.885-11.153 27.51l7.433-7.775c-1.485 13.723 1.356 13.38 6.157 17.225.365.292.769.514 1.186.648-3.093 5.302-5.632 11.188-7.151 17.132-5.799 22.705-1.341 46.383 5.632 68.266.573 1.803 3.298 3.001 4.686 1.239 2.477-3.15 6.076-5.552 10.125-6.003 2.498-.277 4.984.225 7.345-.908a6.716 6.716 0 0 0 2.462-2.067 31.798 31.798 0 0 0 12.533 2.049c6.985-.286 14.452-2.706 19.257-8.013.771-.852.967-1.809.789-2.671a10.22 10.22 0 0 0-1.859-.475c-6.093 3.592-12.811 5.993-20.03 6.144-4.171.087-8.24-.496-11.623-3.102a16.641 16.641 0 0 1-2.027-1.86c-7.071-4.551-12.057-12.28-14.428-20.56-2.208-7.721-1.936-15.76-1.177-23.68l.4-4.18c.585-6.134 1.127-12.287 1.279-18.447l-.046-.002c-1.493-.096-1.504-2.435 0-2.338 3.89.252 2.505 2.06 6.384 2.338-4.506-.015 5.412-6.107 5.951-7.876.307-1.011 2.067-1.21 2.253 0 .25 1.619.341 3.229.368 4.855 12.601-12.215 3.841.482 9.647.683 1.071-1.143 9.175-4.217 9.676-5.626.073-.208.146-.412.222-.62a33.074 33.074 0 0 0 1.885 5.913l8.009 2.671c8.078.038 1.74-10.288 9.629-8.61.548-.42 11.973 14.699 8.96 6.079-3.012-8.62 1.389-8.568 2.837-12.706l.207-.583.053-.154c1.067 1.722 2.339 3.327 3.727 4.822a49.226 49.226 0 0 0 2.556 2.543c.855.95 1.739 1.885 2.595 2.837-.033.174-.063.35-.086.529a26.228 26.228 0 0 0-.097 5.967 28.615 28.615 0 0 0 2.986 10.243l.051.32c.247 1.5.599 3.048 1.419 4.177a10.69 10.69 0 0 0-2.27 4.043c-.408 1.356 1.468 2.532 2.441 1.422a11.33 11.33 0 0 1 2.574-2.194c.06.08.167.12.288.053 2.626-1.458 7.087-1.017 9.71.357 3.264 1.706 4.537 5.21 4.175 8.761-.348 3.393-1.832 7.359-4.709 9.098-1.321.798-2.349.865-3.751.482-.448-.122-1.004-.495-1.243-.681l-.235-.188c-.919-.727-1.775-1.225-2.86-1.244-1.11-.346-2.226.134-2.65 1.298l-.026.076c-.199.593-.561 1.338-.482 2.244.082.97.526 1.853 1.189 2.563.114.123.236.246.362.36-11.422 12.37-12.889 31.647-7.032 47.101a47.4 47.4 0 0 0 .81 2.011c.978 2.274 4.747 1.569 5.226-.684a50.235 50.235 0 0 1 1.562-5.667l.156-.45c.347-.993.671-1.996 1.022-2.989l.035-.114.044-.155.593 1.294 1.802 3.908c.844 1.823 3.524.832 3.623-.925l.003-.06a31.141 31.141 0 0 1 1.235-7.943l.237.293c3.515 4.348 7.641 8.423 13.301 9.427 1.42.251 3.026-1.234 2.051-2.669a36.998 36.998 0 0 1-1.16-1.817c.318-.149.619-.304.897-.462 2.147-1.207 3.935-2.925 5.413-4.875 3.135-4.132 4.256-9.334 4.531-14.425.292-5.38-.181-11.053-1.651-16.243-.636-2.245-1.498-4.399-2.494-6.488a85.537 85.537 0 0 0 2.895-9.726 89.449 89.449 0 0 0 2.369-19.151c.175-11.523 1.817-23.728-2.369-34.474-4.324-11.082-20.54-27.611-23.304-29.312Zm4.402 101.575c.794-1.251 2.78-.124 2.043 1.135l-.028.045c-1.259 1.985-1.849 4.241-2.573 6.453-.465 1.423-2.723.815-2.253-.622l.156-.48c.721-2.244 1.379-4.524 2.655-6.531Zm-6.914-23.87-.528-.256c-1.664-.794-3.121-1.335-5.087-.642-2.632.927-5.451 3.875-3.672 6.737.654 1.055 1.817 1.475 3.015 1.227 2.019-.419 2.54-2.238 3.565-3.731l.176-.253c.625-.904 1.415-2.153 2.455-2.507.236-.082.336-.45.076-.576Zm-1.485-60.747-.17-.153c-1.13-1 .529-2.648 1.654-1.654 5.147 4.55 6.935 11.673 9.605 17.742.599 1.365-1.414 2.558-2.018 1.181-2.547-5.792-4.238-12.72-9.071-17.116Zm-61.856-1.99c1.345-.607 2.521 1.35 1.228 1.995l-.048.024c-4.546 2.054-6.479 6.707-8.332 11.026-.59 1.38-2.603.19-2.018-1.178l.334-.775c1.933-4.451 4.187-8.988 8.836-11.093Zm-7.125-2.812c1.426-.494 2.037 1.762.623 2.256-3.854 1.341-6.497 4.235-8.726 7.543-.836 1.239-2.86.07-2.016-1.18 2.588-3.84 5.662-7.064 10.119-8.62Z"
          fill="var(--color-dark)"
        />
      </g>
      <path
        id="Vector1"
        d="M210.763 91.413c14.871 5.205 10.409-2.23-2.974-14.127l-20.819 8.922c2.974 0 11.896 1.041 23.793 5.205Z"
        fill="var(--color-dark)"
      />

      <g id="face/Calm">
        <path
          id="ink-cta_3"
          fill-rule="evenodd"
          clip-rule="evenodd"
          d="M113.028 122.554c2.45.72 5.081.785 7.579.041 2.265-.674 4.591-2.158 6.259-4.122 1.481-1.744 2.44-3.864 2.403-6.126a1.009 1.009 0 0 0-.236-.642 1.102 1.102 0 0 0-1.274-.297.911.911 0 0 0-.452.452c-.257.341-.512.677-.768 1.004-2.061 2.581-4.056 4.509-7.154 5.2-1.681.376-3.36.209-4.901-.363-1.649-.613-3.139-1.691-4.308-3.07-.527-.623-1.151-.878-1.76-.882-.691-.005-1.373.32-1.888.841-.505.511-.843 1.206-.874 1.932-.027.638.178 1.305.724 1.899a14.69 14.69 0 0 0 6.65 4.133Zm2.556-29.971c-2.321 1.313-6.379 4.598-3.882 7.854 2.939 2.87 6.039.811 8.124-.677 1.933-1.154 3.447.684 1.653 2.031-15.068 10.382-18.871-8.865-7.069-10.752 1.299-.208 1.782 1.137 1.174 1.544Zm21.018-9.158c.807-.524 1.757-.703 2.809-.218.823.38 2.266 1.644 3.27 3.307.686 1.137 1.173 2.471 1.072 3.86a.88.88 0 0 0 .28.738c.146.139.358.24.606.273.211.027.447.002.639-.059.366-.115.559-.356.632-.552.703-1.893.4-4.006-.388-5.912-1.063-2.572-2.994-4.727-4.259-5.422-2.165-1.189-4.718-1.243-6.886-.032-1.846 1.031-3 2.696-4.147 4.393-.244.36-.486.718-.737 1.07-.501.705-.551 1.404-.357 2.004.215.664.764 1.224 1.45 1.518.634.27 1.37.309 2.021.03.55-.235 1.055-.694 1.375-1.472.538-1.31 1.434-2.757 2.62-3.526Zm-41.005 2.916c.553.293.986.38 1.599.194.34-.103.674-.301.937-.567a1.9 1.9 0 0 0 .52-.956c.18-.898.665-1.739 1.355-2.287.59-.468 1.335-.717 2.162-.577.891.151 1.741.731 2.326 1.415.195.229.349.489.503.747.288.482.568.931.966 1.285a.935.935 0 0 0 .598.229c.089 0 .18-.015.266-.042.888-.904 1.058-1.589 1.03-2.269-.03-.712-.307-1.434-.755-2.107-1.051-1.58-3.045-2.875-4.391-3.168-1.843-.402-3.673.08-5.14 1.124-1.51 1.074-2.63 2.742-2.978 4.622-.084.452-.049.94.121 1.364.166.414.456.769.881.993Zm36.94-19.756c1.106 1.093 2.415 1.263 3.739 1.413.736.084 1.324.153 1.902.285 1.589.364 3.159.911 4.592 1.7 1.498.825 3.13 1.82 4.305 3.094.279.303.542.621.806.94.24.291.471.57.715.84.281.31.547.636.812.96.163.273.196.34.229.41a8.608 8.608 0 0 0 .479.884c.185.313.283.4.369.439a.75.75 0 0 0 .406.078.678.678 0 0 0 .352-.173c.567-.486.735-1.285.718-2.133-.026-1.286-.494-2.71-.925-3.585-1.003-2.035-2.394-4.15-4.066-5.667-1.908-1.733-3.996-3.045-6.393-3.95-1.49-.561-3.216-1.077-4.839-1.012-1.168.047-2.284.4-3.205 1.279-.566.54-.837 1.308-.837 2.076 0 .782.282 1.57.841 2.122Zm-39.19 10.008a.61.61 0 0 0 .639.29.622.622 0 0 0 .512-.484c.734-3.27 2.16-5.704 5.203-7.273 1.497-.772 3.218-1.263 4.848-1.654.474-.113.974-.187 1.478-.261 1.579-.234 3.17-.502 4.2-1.797.62-.78.881-1.777.733-2.69a2.855 2.855 0 0 0-1.533-2.117c-2.239-1.175-5.022-.023-7.284.96l-.494.212c-2.211.947-4.228 2.197-5.886 3.984-1.316 1.418-2.535 3.514-3.026 5.67-.408 1.794-.313 3.625.61 5.16Z"
          fill="var(--color-dark)"
        />
      </g>
    </g>
  </g>
</svg>
