<svg
  class="avatar avatar-portatil"
  viewbox="0 0 232 266"
  fill="none"
  xmlns="http://www.w3.org/2000/svg"
  aria-hidden="true"
>
  <g id="lene">
    <g id="body/Macbook">
      <path
        id="Background"
        fill-rule="evenodd"
        clip-rule="evenodd"
        d="M226.187 149.029C222.888 149.353 219.59 149.677 216.292 150.001C200.497 151.208 184.708 153.729 169.034 155.242C168.644 154.607 167.88 154.711 167.416 155.153C165.852 155.016 164.099 153.82 162.683 155.064C162.637 155.057 162.591 155.05 162.544 155.045C160.021 150.202 158.278 145.037 156.585 139.864C155.505 136.684 154.052 133.606 151.366 131.47C146.783 128.288 136.282 121.835 130.9 122.106C130.811 121.142 130.362 120.149 129.624 119.507C131.25 116.735 124.75 114.926 124.291 115.247C124.585 105.986 120.23 97.9428 110.627 96.0985C102.023 94.3053 89.7861 94.004 85.1589 102.998C84.6503 102.94 79.451 102.913 78.9479 102.97C78.1658 101.979 69.5764 111.368 73.0968 114.637C41.6229 128.564 23.7267 126.902 15.0152 166.054C13.8375 169.732 13.7517 173.757 12.5081 177.353C8.08372 187.687 4.49509 198.691 3.60198 209.936C1.44491 210.489 1.19684 214.293 3.69538 214.844C4.64976 215.054 5.44785 215.341 6.14375 215.886C5.59975 225.101 7.82779 246.151 9.23161 246.086C12.0941 255.199 24.8621 257.77 33.9014 254.568C32.3431 257.501 33.9014 259.344 33.9014 260.911C66.4273 262.142 101.991 261.433 134.508 263.121C138.667 263.062 143.042 264.143 147.145 263.521C149.647 262.921 149.651 258.986 147.113 258.499L158.202 256.09C157.954 255.997 162.773 252.79 166.415 246.799C169.805 240.097 167.498 232.007 169.034 224.717C181.031 223.735 193.227 223.316 205.093 221.283C206.711 226.125 213.715 220.334 215.941 218.005C215.938 218.001 215.935 217.998 215.932 217.994C217.01 217.699 217.874 216.689 217.903 215.493C218.658 214.414 218.817 212.892 218.092 211.848C221.413 192.68 226.476 173.109 228.306 153.761C228.953 153.618 229.562 153.334 230.078 152.897L230.037 152.855C230.912 151.879 231.082 150.195 229.623 149.366C228.446 148.696 227.464 148.904 226.187 149.029Z"
        fill="var(--color-light)"
      />
      <path
        id="Ink-portatil"
        fill-rule="evenodd"
        clip-rule="evenodd"
        d="M85.7585 100.909C86.7385 98.4454 90.0512 99.403 89.6819 101.991C89.4609 103.541 88.6121 105.178 87.8497 106.537C87.2288 107.643 86.5207 108.722 85.5606 109.551C87.2697 111.146 89.0437 112.683 90.8628 114.142C92.8477 115.734 94.9349 117.202 97.0924 118.551C98.9842 119.734 100.961 120.781 102.745 122.131C104.403 123.386 105.913 124.895 106.682 126.865C107.501 128.963 107.145 131.129 106.542 133.226L106.473 133.463C105.857 135.54 104.79 138.043 106.269 140C107.022 140.996 108.116 141.702 109.061 142.498C109.901 143.206 110.689 143.976 111.412 144.803C112.988 146.605 114.27 148.633 115.079 150.893L115.152 151.099C115.845 153.099 116.352 155.55 115.415 157.514C115.146 158.077 114.279 157.894 114.128 157.346C113.788 156.104 113.806 154.803 113.52 153.544C113.223 152.234 112.729 150.99 112.083 149.814C110.834 147.538 109.143 145.594 107.144 143.951L106.546 143.464C104.987 142.184 103.555 140.826 103.238 138.708C102.9 136.442 103.807 134.283 104.391 132.139C104.798 130.644 104.931 129.211 104.491 127.86C103.954 128.737 103.221 129.569 102.642 130.311C101.488 131.79 100.323 133.26 99.1609 134.733C97.9696 136.243 96.8076 137.776 95.701 139.35C95.2061 140.054 94.7164 140.762 94.2284 141.471C93.8614 142.004 93.3496 142.536 92.9496 143.079C93.0468 143.37 93.0394 143.705 92.8632 143.943C90.7418 146.81 87.7238 140.828 86.9367 139.316C85.3338 136.238 84.1409 132.968 82.5327 129.891C80.8663 126.701 78.9687 123.596 76.8537 120.684C75.5744 118.922 74.1406 117.267 72.9703 115.45C70.2133 117.95 66.5853 119.627 63.253 121.147C59.5917 122.817 55.7879 124.181 52.034 125.63L50.9251 126.061C44.4571 128.586 37.8309 131.36 32.4547 135.845C26.1372 141.115 22.3997 148.461 19.6173 156.068C16.4143 164.825 13.7645 173.818 11.2943 182.806C10.0303 187.405 8.83088 192.024 7.70332 196.658C6.70972 200.741 5.8861 204.865 4.7359 208.905C7.06863 208.823 9.7291 209.726 11.7207 209.987C20.7973 211.175 29.7518 213.07 38.3212 216.35C39.3797 216.755 39.686 217.812 39.4555 218.669C40.0659 218.497 40.6759 218.322 41.2863 218.151C40.6175 217.126 40.9367 215.293 40.9893 214.157L40.9925 214.079C41.0466 212.565 41.2108 211.05 41.3173 209.539C41.52 206.658 41.784 203.798 42.1349 200.934L42.2245 200.218C42.6222 197.102 42.9162 193.967 43.3502 190.857L43.4015 190.501C43.1934 189.705 42.9511 188.919 42.6968 188.136C42.0192 186.051 41.0627 184.088 40.2246 182.069C40.1257 181.831 40.4643 181.694 40.6225 181.837C42.042 183.114 43.1696 184.735 44.0754 186.43C44.0911 186.35 44.105 186.27 44.1214 186.19L44.2247 185.681C44.4796 184.44 44.7897 183.134 45.5508 182.127C45.6319 182.02 45.7922 181.998 45.8689 182.127C46.5973 183.36 46.6788 184.922 46.7909 186.325C46.9177 187.912 46.9336 189.519 46.9112 191.111C46.8675 194.221 46.6484 197.34 46.4737 200.445C46.3025 203.497 45.9661 206.51 45.5325 209.531L45.4501 210.098C45.2382 211.536 45.0647 212.992 44.7852 214.42L44.7062 214.809C44.5567 215.518 44.4648 216.516 44.1673 217.346C51.821 215.211 59.4864 213.124 67.1664 211.074C72.7172 209.592 78.2737 208.132 83.8279 206.664C84.121 206.135 84.4859 205.642 84.9414 205.201C86.4419 203.747 88.4305 203.099 90.2545 204.217C90.4027 204.309 90.4152 204.541 90.2545 204.629C89.905 204.82 89.5549 205.016 89.211 205.22L92.5461 204.317C95.0389 203.641 97.5614 202.797 100.113 202.326C104.812 200.006 109.867 198.327 114.817 196.667L115.401 196.47C117.935 195.605 120.557 194.638 123.176 194.158C125.093 193.808 127.344 194.231 128.115 196.196C129.091 196.839 130.009 197.595 130.895 198.339C131.536 198.876 132.15 199.448 132.775 200.004L132.89 200.105C133.4 200.548 133.805 200.845 133.93 201.55C133.995 201.915 133.763 202.407 133.314 202.359C131.94 202.212 130.822 200.618 129.89 199.666C129.17 198.931 128.444 198.17 127.786 197.362C127.403 197.571 126.878 197.533 126.634 197.071C125.369 194.676 121.905 196.335 119.988 196.904L117.242 197.717C115.869 198.124 114.496 198.533 113.126 198.949C109.36 200.093 105.613 201.373 101.813 202.424C102.153 202.797 102.107 203.462 101.461 203.715C98.4865 204.883 95.2234 205.486 92.1333 206.287C90.1824 206.793 88.2326 207.303 86.2835 207.815C85.9493 208.356 85.7089 208.969 85.6077 209.682C85.2357 212.305 85.9531 215.33 86.6519 217.866L86.7572 218.245C87.3316 220.284 88.1767 222.784 89.9355 224.071C90.3649 224.385 90.9115 224.604 91.4626 224.653C94.9056 222.88 98.3483 221.108 101.793 219.339C102.431 219.011 103.021 219.455 103.164 219.982C104.379 219.783 105.591 219.469 106.694 219.094C108.549 218.464 109.997 217.263 111.736 216.431C115.1 214.824 118.536 216.799 121.548 218.3L122.242 218.641C123.593 219.297 126.403 220.556 127.051 218.763C127.678 217.028 125.696 215.175 124.416 214.394C122.89 213.463 121.114 212.965 119.389 212.55C118.405 212.313 117.408 212.12 116.406 211.979C115.268 211.819 114.094 211.843 112.999 211.474C112.454 211.291 112.371 210.426 112.999 210.283C114.684 209.9 116.696 210.318 118.455 210.746L119.374 210.973C121.146 211.408 122.936 211.953 124.55 212.821C125.724 213.452 126.963 214.411 127.772 215.585C128.475 214.932 129.349 214.954 130.261 215.196L130.755 215.334C131.572 215.56 132.234 215.716 133.028 215.559C133.135 214.981 133.242 214.402 133.358 213.824C134.49 208.137 135.732 202.472 137.102 196.838C139.466 187.119 142.201 177.507 145.284 167.993L145.594 167.042C146.305 164.866 146.877 162.495 148.024 160.496C149.108 158.606 150.845 157.517 152.909 156.94C155.252 156.286 157.713 155.944 160.103 155.502C160.636 155.403 161.17 155.31 161.704 155.213C161.253 154.399 160.916 153.474 160.613 152.765L160.56 152.642C159.909 151.157 159.324 149.645 158.759 148.125L158.336 146.982C157.316 144.23 156.263 141.524 154.829 138.95C153.32 136.241 151.317 134.027 148.821 132.194C143.731 128.457 137.595 126.551 132.659 122.557C132.456 122.394 132.716 122.114 132.921 122.217C136.255 123.893 139.853 125.032 143.32 126.396L144.004 126.666C146.745 127.753 149.528 128.936 151.9 130.695C154.544 132.657 156.627 135.093 158.193 137.991C159.736 140.847 160.723 144.043 161.811 147.094L162.102 147.907C162.541 149.125 162.995 150.341 163.514 151.527C163.927 152.468 164.697 153.543 165.047 154.619C166.004 154.453 166.961 154.286 167.919 154.126C188.675 150.66 209.663 148.623 230.698 148.027C231.521 148.004 231.946 148.79 231.825 149.508C229.806 161.447 228.013 173.428 226.044 185.377C225.185 190.592 224.309 195.803 223.412 201.011C222.958 203.65 222.432 206.279 222.002 208.922C221.655 211.056 221.403 213.207 220.806 215.292C220.271 217.161 219.45 218.963 218.102 220.389C216.649 221.927 214.621 222.671 212.579 223.023C207.396 223.915 202.08 224.279 196.855 224.874L169.036 228.039C169.442 231.735 169.473 235.374 169.286 239.113L169.18 241.154C169.093 242.796 168.989 244.441 168.753 246.066C168.458 248.104 167.526 249.83 166.152 251.352C164.892 252.751 163.36 253.944 161.87 255.087C160.323 256.274 158.725 257.419 156.907 258.153L156.671 258.247C155.076 258.87 152.083 259.835 149.903 259.482C150.188 260.911 150.739 262.447 150.25 263.86C150.024 264.516 149.166 264.844 148.64 264.285C147.598 263.179 147.517 261.717 147.271 260.273C147.014 258.77 146.793 257.262 146.596 255.75C146.216 252.828 145.92 249.878 145.83 246.931C145.737 243.904 145.773 240.873 145.936 237.849C146.02 236.296 146.124 234.744 146.321 233.202C146.405 232.544 146.491 231.885 146.589 231.229C146.625 230.99 146.664 230.751 146.707 230.514L144.21 230.795C140.381 231.223 136.551 231.609 132.695 231.669C132.239 231.676 131.887 231.468 131.658 231.165C131.413 231.564 130.987 231.849 130.377 231.846C124.993 231.826 119.979 230.065 115.081 227.99C112.613 226.943 110.183 225.81 107.71 224.773C105.403 223.804 102.936 223.113 100.684 222.022L94.7668 225.127C94.7234 225.279 94.6677 225.424 94.6086 225.545C94.2233 226.331 93.4637 226.758 92.6879 227.079C91.9433 227.388 91.1721 227.485 90.4208 227.407C85.9331 229.759 81.4444 232.109 76.9527 234.454L72.4599 236.796C63.5087 241.458 54.5928 246.197 45.5852 250.749L44.9221 251.083C41.8108 252.643 38.47 254.225 35.0173 255.406C34.9558 256.28 34.9946 257.13 35.0679 258.055L35.0855 258.257C35.1884 259.35 35.4091 260.72 34.5322 261.499C34.0761 261.903 33.2613 261.905 32.9511 261.295C32.3882 260.188 32.8936 258.443 33.0719 257.24C33.1352 256.813 33.2123 256.373 33.3264 255.947C29.3681 257.125 25.29 257.697 21.262 257.035C17.3403 256.391 14.3029 253.92 11.8542 250.897C9.26994 247.707 7.43355 243.99 6.44826 240.005C5.32694 235.47 5.25372 230.787 5.28005 226.142C5.308 221.196 5.49092 216.226 6.09235 211.313C5.43341 211.158 4.70264 211.024 4.03678 211.07C3.70696 211.598 3.06719 211.82 2.48909 211.752C1.23196 213.138 4.42064 214.556 5.43965 214.911C5.79348 215.034 5.75561 215.609 5.34749 215.591L5.09043 215.579C3.51587 215.495 1.88913 215.227 0.963348 213.763C0.221494 212.59 0.444374 211.2 1.32873 210.243C1.91284 204.719 3.30924 199.339 4.60887 193.95C5.88425 188.661 7.3026 183.405 8.80594 178.177L9.4799 175.836C11.8469 167.637 14.321 159.372 17.586 151.499C19.2164 147.568 21.0946 143.709 23.6405 140.281C26.0136 137.086 28.8154 134.352 32.036 132.017C38.0399 127.663 45.0848 125.032 52.0068 122.526L52.3167 122.413C55.9037 121.116 59.4821 119.802 63.0283 118.396C66.1645 117.152 69.1691 115.575 72.2906 114.313C72.1892 114.129 72.0913 113.943 71.997 113.755L71.9393 113.803C71.9295 113.811 71.9194 113.819 71.9088 113.826C71.5949 114.043 71.1328 113.936 70.8741 113.692C70.1437 113.003 70.391 112.237 70.8785 111.523L70.942 111.432C71.5383 110.596 72.0703 109.712 72.6206 108.847L72.9653 108.305C73.8891 106.858 74.86 105.402 76.0918 104.207C76.6623 103.653 77.2868 103.238 77.9485 102.929C77.8919 102.81 78.388 102.565 78.5287 102.688C80.6251 101.921 83.0371 102.081 85.3227 102.293M167.69 228.192L164.775 228.524C161.568 228.889 158.36 229.242 155.152 229.591L148.183 230.349C148.166 230.746 148.117 231.135 148.108 231.435C148.063 232.982 148.029 234.53 147.997 236.078C147.932 239.18 148.003 242.285 148.207 245.381C148.405 248.381 148.666 251.382 149.071 254.362L149.154 254.958L149.202 255.271C149.532 255.303 149.857 255.46 150.127 255.783C150.716 256.487 152.851 255.802 153.684 255.506C155.055 255.018 156.346 254.193 157.537 253.367C158.7 252.56 159.748 251.618 160.754 250.627L161.578 249.812C162.397 248.998 163.217 248.131 163.719 247.106C164.399 245.717 164.487 244.012 164.687 242.5C164.933 240.639 165.225 238.778 165.535 236.927M83.0751 208.661L82.7727 208.74C71.7902 211.659 60.8241 214.664 49.8078 217.455C44.3561 218.836 38.8786 220.116 33.4203 221.471L32.5365 221.692C28.2305 222.78 23.8727 224.091 20.5752 227.215C20.4535 227.33 20.2768 227.153 20.3914 227.031C23.9452 223.247 28.9996 221.645 33.8526 220.256C34.7497 219.999 35.6479 219.749 36.5452 219.493C29.9452 217.14 23.241 215.092 16.3821 213.632C14.6159 213.256 12.8292 212.98 11.0644 212.602C9.83361 212.339 8.63164 211.958 7.41386 211.642L6.45598 211.401L6.44326 214.429C6.42732 218.718 6.43493 223.004 6.65369 227.292L6.6951 228.087C6.95033 232.859 7.34872 237.731 9.04185 242.231C10.4177 245.887 12.6107 249.332 15.4786 251.996C16.9297 253.343 18.4899 254.393 20.4184 254.91C22.2091 255.391 24.0852 255.448 25.926 255.319C34.7555 254.703 42.6151 249.905 50.285 245.933C62.8302 239.436 75.3768 232.942 87.9348 226.47C87.5952 226.238 87.2756 225.97 86.9848 225.669C85.3008 223.93 84.4126 221.548 83.8291 219.242C83.2081 216.787 82.8367 214.156 82.7935 211.622M99.0541 228.978C99.1649 228.918 99.2934 228.993 99.2984 229.118C99.3372 230.077 98.8072 231.024 98.4112 231.888L98.3693 231.98C97.8882 233.051 97.3614 234.107 96.8165 235.147C95.7275 237.224 94.5958 239.279 93.4146 241.305C91.0394 245.38 88.4 249.284 85.2801 252.833C84.5755 253.635 83.4165 252.607 83.8687 251.744C86.049 247.583 88.5908 243.654 91.2071 239.76C92.5169 237.81 93.8258 235.858 95.1485 233.917C95.7003 233.107 96.2592 232.3 96.8331 231.505L97.1794 231.03M229.307 150.41C218.286 150.743 207.278 151.462 196.309 152.589C186.109 153.637 175.945 155.031 165.839 156.77C163.729 157.133 161.62 157.511 159.515 157.904L158.252 158.142C156.146 158.541 153.573 158.706 151.698 159.831C149.721 161.017 149.187 163.497 148.529 165.541C147.756 167.946 147.002 170.357 146.269 172.775C143.357 182.372 140.697 192.053 138.324 201.798C137.146 206.635 136.101 211.499 135 216.354C134.022 220.667 132.942 224.931 131.814 229.202C131.953 229.093 132.124 229.011 132.33 228.967C137.93 227.776 143.647 227.257 149.331 226.599L149.881 226.535C155.761 225.843 161.641 225.156 167.524 224.495L206.479 220.113C208.776 219.855 211.237 219.82 213.473 219.203C217.274 218.154 218.165 213.903 218.803 210.518L218.822 210.415C220.745 200.187 222.275 189.87 224.068 179.616M132.721 217.311C131.208 217.212 129.139 215.826 127.991 215.925C128.594 216.936 128.865 218.089 128.518 219.321C127.552 222.747 123.183 220.975 121.078 219.928C119.353 219.069 117.687 218.018 115.776 217.616C113.612 217.161 112.146 218.022 110.318 219.014C108.816 219.829 107.181 220.414 105.499 220.717C104.605 220.878 103.755 220.895 102.907 220.832C102.856 220.874 102.799 220.913 102.733 220.947L102.284 221.183C104.313 221.275 106.378 221.901 108.266 222.475C110.222 223.068 112.142 223.784 114.051 224.516L115.93 225.238C120.565 227.014 125.362 228.699 130.377 228.684C130.738 228.684 131.033 228.783 131.266 228.946M124.259 205.575C125.753 205.392 127.133 205.588 128.326 206.561C129.766 207.734 130.733 209.68 132.803 209.807C133.407 209.844 133.547 210.693 132.947 210.871C131.407 211.327 130.159 210.493 129.109 209.411L128.404 208.673C127.366 207.599 126.409 206.768 124.649 206.832C122.764 206.901 120.876 207.337 119.003 207.558C116.881 207.809 114.76 208.023 112.632 208.208C112.533 208.216 112.516 208.06 112.609 208.038L114.992 207.444M122.817 200.465L123.064 200.44C125.233 200.229 127.218 200.221 129.155 201.389L129.527 201.614C131.274 202.676 133.175 203.927 134.268 205.647C134.447 205.928 134.151 206.259 133.852 206.188C131.752 205.684 130.217 204.143 128.452 202.989C126.47 201.695 124.423 201.909 122.164 202.11C119.976 202.304 117.789 202.572 115.623 202.937C113.588 203.279 111.546 203.82 109.49 203.992L109.49 203.988C109.255 203.987 109.121 203.635 109.361 203.515C111.447 202.473 113.864 201.979 116.134 201.503M188.726 179.015C188.516 178.012 189.75 177.546 190.322 178.342L190.444 178.51C191.679 180.203 193.466 182.328 193.375 184.481C194.461 184.505 195.587 185.165 196.01 186.145C196.206 186.599 196.272 187.136 196.229 187.692C197.216 187.769 198.292 188.417 198.896 189.048C199.896 190.095 199.975 191.573 199.258 192.796C197.693 195.461 194.275 196.43 191.389 196.647L191.287 196.654C188.306 196.86 184.012 196.805 181.968 194.247C179.997 191.78 182.176 189.782 184.41 188.698C183.828 188.167 183.527 187.405 183.81 186.602C184.307 185.19 186.063 184.644 187.055 183.663C188.264 182.466 189.063 180.825 188.745 179.109M190.364 181.185C190.035 182.613 189.228 183.92 188.103 184.955C187.673 185.351 187.203 185.704 186.703 186.007L186.643 186.042C186.199 186.291 185.109 186.757 185.193 187.316C185.279 187.891 187.056 188.79 187.54 188.79C187.65 188.79 187.712 188.962 187.6 189.012C186.722 189.4 185.956 189.566 185.098 189.156C184.525 189.742 183.968 190.347 183.416 190.948C182.441 192.01 182.775 193.132 183.927 193.923C185.779 195.194 188.594 195.163 190.755 195.071C192.93 194.978 195.254 194.493 196.953 193.044L197.027 192.98C197.95 192.158 198.793 190.766 197.38 189.975C196.826 189.666 196.228 189.684 195.702 189.533C195.21 190.498 194.412 191.27 193.438 191.419C192.651 191.54 192.11 190.55 192.825 190.077L192.986 189.977C193.885 189.403 194.652 188.519 194.632 187.368C194.618 186.569 193.502 185.56 192.776 186.311L192.742 186.347C192.134 187.032 191.063 186.168 191.463 185.409L191.482 185.374M48.525 141.452C48.5222 141.281 48.7636 141.217 48.8479 141.365C50.2595 143.849 50.9975 146.895 51.7495 149.632C52.5371 152.499 53.1729 155.395 53.7441 158.312C54.901 164.22 55.5174 170.094 55.5593 176.115C55.565 176.974 54.1649 177.203 54.0279 176.322C53.1186 170.465 52.2474 164.602 51.3312 158.747C50.8702 155.802 50.3337 152.869 49.8202 149.933M62.5004 145.78C62.3964 145.437 62.8948 145.322 63.0223 145.636C65.8553 152.592 66.8147 160.475 64.9959 167.813C64.7176 168.936 63.0738 168.45 63.2838 167.341M99.0426 139.599C99.0283 139.342 99.3611 139.302 99.4866 139.478C100.829 141.37 101.386 143.904 103.741 144.882C104.917 145.37 106.24 145.285 107.279 146.109C107.973 146.661 108.506 147.531 107.985 148.366C107.816 148.636 107.346 148.771 107.118 148.478C106.785 148.051 106.608 147.54 106.156 147.219C105.518 146.768 104.657 146.74 103.925 146.527C102.979 146.253 102.145 145.773 101.462 145.059M121.469 108.044C121.607 107.973 121.74 108.018 121.828 108.138C121.955 108.309 121.939 108.474 121.784 108.591C121.991 109.014 122.235 110.073 122.27 110.227C122.412 110.851 122.562 111.472 122.719 112.093C123.036 113.344 123.315 114.606 123.632 115.857C123.969 117.184 124.37 118.497 124.817 119.791C124.845 119.875 124.877 119.961 124.91 120.048L124.961 120.179L124.974 120.159C125.064 120.015 125.253 120.116 125.231 120.267C125.21 120.405 125.182 120.543 125.159 120.681L125.205 120.805C125.497 121.591 125.697 122.419 125.162 123.113C124.961 123.372 124.741 123.526 124.466 123.572C124.025 125.025 123.472 126.451 122.88 127.82L122.707 128.22C121.836 130.219 120.907 132.191 119.521 133.892C118.007 135.75 115.925 137.018 114.606 139.053C113.993 140 113.566 140.996 113.22 142.065L113.089 142.471C112.843 143.227 112.56 143.96 111.85 144.404C111.624 144.545 111.285 144.5 111.103 144.307C109.648 142.768 111.171 139.895 112.048 138.405C113.267 136.333 115.031 135.007 116.798 133.444C118.702 131.759 119.917 129.505 121.092 127.285C121.811 125.925 122.506 124.535 123.237 123.169C122.473 122.493 122.229 121.151 121.97 120.218L121.946 120.135C121.518 118.641 121.178 117.108 120.963 115.569C120.757 114.089 120.67 112.63 120.725 111.142L120.741 110.762M124.31 115.088C124.141 114.857 124.421 114.595 124.652 114.643C126.061 114.934 127.438 115.787 128.702 116.477L128.837 116.55C129.846 117.094 130.861 117.761 131.391 118.818C131.968 119.968 131.92 121.291 131.842 122.54L131.834 122.657C131.738 124.155 131.722 125.711 131.405 127.182C131.243 127.934 130.562 128.147 129.979 127.969C129.286 130.159 127.338 131.772 125.915 133.5C124.101 135.703 124.443 138.678 124.632 141.331C124.709 142.405 123.373 142.711 122.685 142.138L121.099 140.82C120.835 140.6 120.572 140.38 120.309 140.159C120.083 139.969 119.86 139.778 119.639 139.585L119.308 139.293C119.161 139.161 118.514 138.439 118.325 138.409C117.867 138.336 116.779 139.544 116.406 139.922L116.359 139.97C115.658 140.657 115.024 141.397 114.434 142.182C114.325 142.326 114.113 142.207 114.191 142.04C114.72 140.907 115.334 139.824 116.064 138.81L116.212 138.608C116.698 137.953 117.35 136.797 118.207 136.604C119.254 136.368 120.299 137.418 121.061 138.001L121.109 138.038C121.471 138.309 121.83 138.586 122.187 138.865C122.15 136.889 122.399 134.893 123.419 133.191C124.138 131.99 125.215 131.101 126.137 130.069C127.163 128.92 127.699 127.508 128.628 126.312C128.747 126.158 128.912 126.075 129.091 126.049C129.127 125.087 129.268 124.115 129.378 123.164L129.409 122.879C129.52 121.845 129.781 120.582 129.275 119.614C128.797 118.699 127.701 118.054 126.889 117.433L126.225 116.919M78.5992 104.156C78.1752 104.402 77.7788 104.707 77.4192 105.088C76.2873 106.289 75.478 107.784 74.6904 109.222C74.2663 109.997 73.8575 110.779 73.43 111.552C73.2441 111.888 73.0529 112.221 72.8595 112.553C72.7702 112.706 72.5046 113.01 72.3729 113.197C72.5192 113.402 72.6704 113.604 72.8247 113.804C72.8836 113.88 76.9441 118.304 78.3595 120.036C80.5268 122.688 82.4642 125.49 84.1204 128.489C85.7422 131.425 86.9769 134.535 88.4794 137.528C89.2314 139.027 90.0712 140.515 91.1417 141.812C91.183 141.862 91.2267 141.91 91.2689 141.96C91.6775 140.856 92.7244 139.674 93.2386 138.995L93.2866 138.931C94.4528 137.359 95.6843 135.834 96.9425 134.334C98.0918 132.966 99.2703 131.626 100.477 130.309L100.931 129.816C101.772 128.907 102.84 127.548 104.071 126.899C103.94 126.663 103.787 126.431 103.611 126.201C102.458 124.693 100.827 123.599 99.2186 122.612L98.1753 121.977C94.2425 119.58 90.3709 117.071 86.9566 113.957C85.1503 112.308 83.3688 110.582 81.8505 108.66L81.3135 107.98M85.1613 102.97C83.3196 103.124 81.3308 103.087 79.6288 103.688C81.1419 105.118 82.5801 106.663 84.0575 108.118C84.189 107.134 84.4578 106.162 84.6855 105.203"
        fill="var(--color-dark)"
      />
    </g>
    <g id="lenes haare">
      <path
        id="Background_6"
        fill-rule="evenodd"
        clip-rule="evenodd"
        d="M94.4542 11.1906C133.268 9.49232 135.979 19.5296 141.309 25.9287C143.954 29.1043 150.783 33.8074 151.916 44.6678C152.703 52.2066 147.696 60.8959 147.696 67.6325C147.696 71.0711 152.428 78.4533 150.225 83.465C145.322 94.62 134.941 107 121.712 107C108.483 107 84.0623 100.513 69.4446 81.8908C64.6567 75.7911 55.6402 12.8889 94.4542 11.1906Z"
        fill="var(--color-light)"
      />
      <path
        id="Ink_2-portatil"
        fill-rule="evenodd"
        clip-rule="evenodd"
        d="M75.1676 8.40238C77.3086 7.08474 91.8464 -0.234145 101.827 0.00583846C106.996 0.130358 112.785 -0.257401 117.667 1.42928C120.108 2.27601 130.704 3.36411 132.965 4.61384C133.78 5.06315 126.3 5.60636 127.023 6.16549L127.203 6.30593H127.206C129.145 7.00324 129.056 6.93758 130.627 8.40238C133.775 8.15108 138.768 9.75173 141.812 10.723C146.048 12.0768 150.912 14.3413 153.667 17.8618C156.875 21.9604 162.687 34.0417 162.307 39.1738L156.548 33.1505C157.699 43.7818 155.498 43.5153 151.778 46.4941C151.496 46.7205 151.183 46.8926 150.86 46.9967C153.256 51.1036 155.223 55.6633 156.4 60.2683C160.892 77.8573 157.438 96.2002 152.036 113.153C151.593 114.55 149.481 115.478 148.406 114.113C146.487 111.672 143.699 109.811 140.562 109.463C138.627 109.248 136.702 109.637 134.873 108.759C134.156 108.412 133.463 107.846 132.965 107.158C129.878 108.328 126.554 108.881 123.256 108.745C117.845 108.523 112.061 106.648 108.338 102.537C107.741 101.877 107.589 101.136 107.727 100.468C108.194 100.302 108.673 100.178 109.167 100.1C113.888 102.883 119.091 104.743 124.684 104.86C127.916 104.927 131.068 104.475 133.688 102.457C134.255 102.02 134.776 101.536 135.258 101.016C140.736 97.4906 144.599 91.5026 146.435 85.0885C148.146 79.107 147.936 72.8787 147.347 66.7433L147.037 63.5057C146.584 58.7537 146.165 53.9876 146.047 49.2154L146.082 49.2136C147.239 49.1389 147.248 47.327 146.082 47.4024C143.068 47.5976 144.142 48.9981 141.137 49.2136C144.627 49.2016 136.944 44.4826 136.527 43.1119C136.289 42.3288 134.925 42.1744 134.781 43.1119C134.588 44.3662 134.517 45.6134 134.496 46.8733C124.734 37.4101 131.521 47.2469 127.023 47.4024C126.193 46.5172 119.915 44.1357 119.527 43.0438C119.47 42.883 119.414 42.7246 119.355 42.5638C119.014 44.1242 118.53 45.6503 117.894 47.1443L111.691 49.2136C105.432 49.243 110.343 41.2437 104.231 42.5439C103.806 42.2177 94.9559 53.9307 97.2895 47.2526C99.6232 40.5745 96.2135 40.6153 95.0922 37.4101L94.9318 36.9579C94.9187 36.9204 94.9049 36.8806 94.8904 36.8386C94.0641 38.1728 93.0783 39.4164 92.0031 40.5745C91.3695 41.257 90.705 41.9098 90.0231 42.5439C89.3607 43.2797 88.6761 44.0044 88.0126 44.7425C88.0386 44.8767 88.0612 45.013 88.0796 45.1518C88.2826 46.6834 88.3036 48.2367 88.1549 49.7742C87.8861 52.5537 87.1017 55.232 85.8416 57.7097L85.8017 57.9578C85.6104 59.119 85.3381 60.319 84.7023 61.1933C85.4958 62.0826 86.107 63.1449 86.4614 64.3251C86.7769 65.3759 85.3238 66.2864 84.5702 65.4266C83.9716 64.7435 83.3064 64.1782 82.5759 63.7272C82.5297 63.7899 82.4465 63.8207 82.353 63.7684C80.3185 62.6387 76.8627 62.9805 74.8304 64.0446C72.3025 65.3668 71.3158 68.0813 71.5964 70.8321C71.8657 73.4606 73.0154 76.5328 75.2446 77.8799C76.2675 78.498 77.0641 78.55 78.1504 78.2535C78.4977 78.1591 78.9283 77.8696 79.1132 77.7259L79.2951 77.58C80.0072 77.0169 80.6704 76.6314 81.5111 76.6166C82.3709 76.3483 83.235 76.7205 83.5639 77.6224L83.5841 77.6807C83.738 78.1403 84.0186 78.7176 83.9575 79.4194C83.8942 80.1711 83.5502 80.8548 83.0365 81.4049C82.9482 81.5 82.8531 81.5951 82.7558 81.6834C91.6046 91.2669 92.7407 106.2 88.2031 118.172C88.0062 118.697 87.7958 119.216 87.5762 119.73C86.8181 121.491 83.8987 120.946 83.5275 119.2C83.4167 118.677 83.2944 118.156 83.1609 117.64C82.9155 116.686 82.6343 115.741 82.3174 114.81L82.1968 114.462C81.9275 113.692 81.6763 112.915 81.4047 112.145L81.3776 112.057C81.3674 112.023 81.3561 111.982 81.3436 111.937L80.8842 112.94L79.4879 115.967C78.8345 117.38 76.7584 116.612 76.6812 115.251L76.6794 115.204C76.6726 114.953 76.6635 114.704 76.6477 114.457C76.5481 112.607 76.229 110.81 75.7221 109.051L75.5392 109.278C72.8158 112.646 69.6195 115.803 65.2348 116.581C64.135 116.775 62.8902 115.625 63.6461 114.514C63.9584 114.054 64.2594 113.583 64.5446 113.105C64.2979 112.99 64.0648 112.87 63.8498 112.748C62.1864 111.813 60.8014 110.481 59.6563 108.971C57.2279 105.77 56.3589 101.74 56.1462 97.7963C55.9199 93.6283 56.2865 89.2338 57.4248 85.213C57.9182 83.4742 58.5858 81.8057 59.3575 80.1869C59.3032 80.042 59.2512 79.8971 59.1991 79.7522C58.3663 77.4294 57.6828 75.0544 57.1148 72.6523C55.9696 67.8029 55.3541 62.7994 55.2794 57.8164C55.1436 48.8894 53.8718 39.4345 57.1148 31.1098C60.4642 22.5247 73.0267 9.72003 75.1676 8.40238ZM71.7579 87.0898C71.1428 86.121 69.6039 86.994 70.175 87.9696L70.1963 88.0045C71.1717 89.5417 71.6289 91.2895 72.1901 93.0034C72.55 94.1059 74.2993 93.635 73.935 92.5211L73.8144 92.1492C73.2559 90.4113 72.7464 88.645 71.7579 87.0898ZM77.1141 68.5977L77.5227 68.3999C78.8116 67.7845 79.9409 67.3654 81.4638 67.9026C83.5028 68.6203 85.6867 70.9047 84.3085 73.1211C83.8016 73.9384 82.9008 74.2644 81.973 74.072C80.4087 73.7475 80.005 72.3383 79.2112 71.1815L79.0746 70.9856C78.5907 70.2856 77.9786 69.318 77.1729 69.0437C76.9896 68.9803 76.9126 68.695 77.1141 68.5977ZM78.2639 21.5385L78.3955 21.4206C79.2713 20.6463 77.9859 19.3694 77.1146 20.1391C73.127 23.6642 71.742 29.1815 69.6735 33.8839C69.2096 34.9412 70.7688 35.8649 71.2373 34.7985C73.2104 30.3114 74.5201 24.9438 78.2639 21.5385V21.5385ZM126.183 19.9965C125.141 19.5268 124.23 21.0437 125.231 21.5431L125.269 21.5609C128.79 23.1525 130.288 26.7568 131.723 30.103C132.18 31.1716 133.74 30.2502 133.287 29.1906L133.028 28.5902C131.531 25.1418 129.785 21.6269 126.183 19.9965ZM131.702 17.8185C130.598 17.4359 130.125 19.1837 131.22 19.5663C134.205 20.6055 136.253 22.8469 137.98 25.4097C138.627 26.3696 140.196 25.464 139.542 24.495C137.537 21.5202 135.156 19.023 131.702 17.8185Z"
        fill="var(--color-dark)"
      />
      <path
        id="Vector 1"
        d="M55.1639 70.1075C43.6439 74.1395 47.0999 68.3795 57.4679 59.1635L73.5959 66.0755C71.2919 66.0755 64.3799 66.8819 55.1639 70.1075Z"
        fill="var(--color-dark)"
      />
    </g>
    <path
      id="Ink_3-portatil"
      fill-rule="evenodd"
      clip-rule="evenodd"
      d="M145.178 69.1535C142.613 71.8049 138.332 72.5658 134.919 71.1438C126.156 67.4813 130.445 56.0578 137.203 52.9901C138.047 52.7796 139.175 52.2802 140.203 52.1669C140.296 52.1212 140.498 52.2533 140.744 52.1284C148.195 52.9607 149.892 64.5326 145.178 69.1535M116.915 69.8319C114.039 73.6491 108.69 74.8268 104.32 73.0523C95.6875 69.6512 98.7494 59.5214 104.656 55.5501C117.133 50.8601 122.285 62.7938 116.915 69.8319M98.2009 61.3744C98.1929 61.3706 98.1849 61.3687 98.1766 61.3649C98.2223 61.3448 98.2679 61.3247 98.3133 61.3042C98.2985 61.3429 98.2825 61.3811 98.2681 61.4198C98.2457 61.4044 98.2261 61.3864 98.2009 61.3744M151.117 57.2481C150.413 57.2496 149.395 57.3654 148.812 57.8542C147.374 53.0031 142.067 48.5134 137.451 51.7872C133.816 52.9566 131.119 55.5501 129.586 58.9981C126.822 57.3533 122.476 58.0557 120.079 60.2307C118.509 55.0418 114.646 53.2248 110.048 52.9566C105.029 52.1342 100.027 57.0103 98.4658 60.922C97.168 60.7743 95.2288 60.3611 94.0078 61.1623C86.0838 59.0834 72.2299 57.9373 70.619 59.0923C69.471 59.533 68.841 62.2438 70.4445 62.39C71.8418 62.1916 70.2814 60.4038 71.6899 60.2087C79.1948 59.7433 86.4804 61.2553 93.9058 61.8898C94.5688 62.7819 96.7108 63.0803 97.8535 62.7218C96.0538 69.3574 99.939 73.8718 105.76 75.2241C114.775 77.2955 122.617 69.2287 120.26 60.8381C122.991 59.4791 126.132 59.5374 129.106 60.2533C124.135 78.5541 153.598 77.733 148.997 58.4813C152.059 60.0051 152.724 57.5556 151.117 57.2481"
      fill="var(--color-dark)"
    />
    <path
      id="lenes gesicht"
      fill-rule="evenodd"
      clip-rule="evenodd"
      d="M128.825 91.2157L128.974 91.1941C130.16 91.0164 131.31 90.7363 132.333 91.5475C133.308 92.3201 133.346 93.6026 132.465 94.4624C131.559 95.3465 130.465 95.2019 129.305 95.1186L129.233 95.1135C128.269 95.0467 127.292 94.951 126.341 94.786C125.454 94.6321 124.565 94.4301 123.695 94.1897L123.181 94.0438C122.656 93.8913 120.732 91.7553 120.5 91.2157C119.651 89.2424 125.365 91.3033 125.808 91.2157C126.884 91.0029 127.739 91.3686 128.825 91.2157ZM129.772 73.2634C131.239 74.1246 133.306 77.2721 131.727 79.4071C129.869 81.2897 128.794 78.462 126.839 78.9345C124.883 79.4071 124.727 79.469 125.861 80.3523C135.386 87.1622 137.232 73.0833 129.772 71.8455C128.95 71.7092 129.387 72.9969 129.772 73.2634Z"
      fill="var(--color-dark)"
    />
    <g id="portatil-brauen">
      <path
        id="Path"
        fill-rule="evenodd"
        clip-rule="evenodd"
        d="M114.052 56.3523L114.484 56.4162C115.818 56.6164 117.457 56.927 118.014 58.2364C118.31 58.9308 118.142 59.9837 117.335 60.2872C115.915 60.8213 114.793 60.0604 113.426 59.6924C112.3 59.3893 111.176 59.2199 110.01 59.1711C107.453 59.0638 105.145 59.6506 102.707 60.3264C102.387 60.415 102.23 59.9919 102.436 59.7887C104.335 57.9167 107.181 56.8052 109.791 56.4177C111.184 56.2108 112.656 56.144 114.052 56.3523Z"
        fill="var(--color-dark)"
      />
      <path
        id="Path_2"
        fill-rule="evenodd"
        clip-rule="evenodd"
        d="M134.063 56.8438L134.396 56.7966C138.019 56.2982 142.901 56.1423 145.678 58.8811C145.906 59.3272 145.877 59.4504 145.848 59.5345L145.838 59.5625C145.815 59.6338 145.808 59.7232 145.628 59.8593C145.567 59.8659 145.505 59.872 145.442 59.8775C144.642 59.9469 143.969 59.8895 143.31 59.8155L142.596 59.7331C141.767 59.6392 140.937 59.5601 140.096 59.5833C138.299 59.6329 136.513 59.8538 134.762 60.256C134.382 60.3432 133.987 60.3455 133.636 60.2337C133.302 60.1276 133.002 59.9225 132.78 59.5875C132.492 59.154 132.397 58.7816 132.5 58.2612C132.577 57.8703 132.772 57.5488 133.042 57.3079C133.317 57.0623 133.673 56.9008 134.063 56.8438Z"
        fill="var(--color-dark)"
      />
    </g>
    <g id="portatil-augen">
      <path
        id="Path_3dfgh"
        fill-rule="evenodd"
        clip-rule="evenodd"
        d="M107.64 63.7186C107.831 61.3504 111.442 60.8126 111.801 63.156C112.123 65.2553 111.744 67.1837 110.797 69.0737C109.893 70.8793 107.619 70.0369 107.447 68.3927C107.217 66.1888 107.521 65.1917 107.64 63.7186Z"
        fill="var(--color-dark)"
      />
      <path
        id="Path_4"
        fill-rule="evenodd"
        clip-rule="evenodd"
        d="M135.127 62.6701C135.631 62.0116 136.358 61.562 137.229 61.816C139.95 62.6102 139.148 66.4686 138.192 68.3467C137.673 69.3666 135.994 69.6252 135.236 68.7272C134 67.2628 133.408 64.3383 134.979 62.8958C135.022 62.8213 135.069 62.7461 135.127 62.6701Z"
        fill="var(--color-dark)"
      />
    </g>
  </g>
</svg>
