<svg
  aria-hidden="true"
  class="avatar"
  viewBox="0 0 362 348"
  fill="none"
  xmlns="http://www.w3.org/2000/svg"
>
  <g id="lene">
    <path
      id="Subtract"
      fill-rule="evenodd"
      clip-rule="evenodd"
      d="M311.689 331.585C342.851 297.599 362 251.479 362 200.684C362 96.1952 280.974 11.4905 181.024 11.4905C81.073 11.4905 0.0471191 96.1952 0.0471191 200.684C0.0471191 251.479 19.1956 297.599 50.358 331.585H311.689Z"
      fill="#FF7F5C"
    />
    <g id="body/Device">
      <path
        id="Background"
        fill-rule="evenodd"
        clip-rule="evenodd"
        d="M292.206 216.507C291.284 213.977 292.63 211.453 293.377 209.005C296.029 200.516 298.925 192.027 303.023 184.111C304.575 181.463 302.022 178.214 299.063 178.961C293.997 179.67 288.774 179.105 283.699 178.792C281.844 173.992 276.891 172.001 272.993 169.237C268.569 166.477 264.266 163.307 259.666 160.887C259.41 158.601 256.637 158.034 254.941 159.67C250.283 156.773 244.698 157.311 239.705 155.413C235.911 149.283 235.626 142.837 234.622 136.922C234.184 134.344 234.649 131.857 232.887 129.558C226.968 121.236 203.579 117.627 194.956 122.559C190.314 119.665 190.202 124.906 189.465 128.141C188.646 129.76 188.202 131.593 188.339 133.524C183.353 143.935 171.946 148.642 161.73 152.455C160.449 151.222 158.617 151.378 157.398 152.398C148.543 154.322 139.949 157.705 132.53 162.987C124.102 165.452 118.165 172.305 113.873 179.653C113.4 180.428 113.289 181.218 113.427 181.943C100.227 201.287 93.9272 224.444 93.0424 247.832C84.554 252.925 97.0769 298.675 99.9921 308.174C99.995 308.172 99.998 308.171 100.001 308.17C101.892 311.517 104.04 321.069 108.773 320.33C112.019 324 117.193 323.278 121.599 323.56C120.882 326.312 121.234 329.461 122.089 332.18C123.099 335.417 128.056 335.527 128.759 331.997C172.635 340.519 217.654 333.72 262.023 334.999C274.851 335.09 287.679 335.487 300.477 336.4C302.279 336.529 304.106 334.688 303.983 332.894C301.232 303.63 298.648 265.132 295.571 236.154C294.841 229.545 294.264 222.864 292.206 216.507Z"
        fill="var(--color-light)"
      />
      <path
        id="ink-gracias"
        fill-rule="evenodd"
        clip-rule="evenodd"
        d="M190.189 124.365C190.315 124.022 190.828 124.068 190.837 124.453C191.039 132.681 188.99 142.736 182.404 148.294C179.023 151.148 174.553 152.453 170.448 153.954L169.985 154.124L162.733 156.825C160.81 157.542 158.735 158.644 157.036 157.632C158.411 161.04 159.565 164.542 161.239 167.827C163.324 171.916 165.844 175.657 168.928 179.06C181.147 192.54 200.484 196.652 217.838 192.703C226.774 190.669 235.47 186.814 241.566 179.783C246.2 174.439 248.862 167.266 249.489 160.191C249.305 160.22 249.113 160.219 248.916 160.176C246.72 159.697 244.504 158.52 242.571 157.367L242.385 157.255C240.526 156.136 238.589 154.854 237.255 153.116C235.93 151.39 234.539 145.759 234.539 145.759C234.16 143.643 233.805 139.427 233.866 137.288C233.871 137.086 234.767 136.967 234.863 137.177C235.691 138.993 235.958 142.983 236.597 144.873L236.726 145.25C237.408 147.224 237.993 149.627 239.408 151.223C242.063 154.219 246.07 155.487 249.646 156.99C249.903 153.603 255.313 153.682 255.244 157.214C255.241 157.406 255.232 157.596 255.225 157.787C255.652 158.022 256.062 158.29 256.446 158.549L256.82 158.803C258.237 159.766 259.664 160.681 261.173 161.499C264.093 163.081 267.184 164.336 270.176 165.772C273.203 167.225 276.034 168.957 278.678 171.029C279.919 172.002 281.109 173.038 282.238 174.14L282.545 174.442C283.62 175.512 285.018 176.708 285.63 178.114C285.765 178.424 286.441 179.146 286.808 179.17C292.493 179.542 298.166 180.068 303.815 180.857C305.278 181.061 305.856 181.815 305.315 183.034C303.457 187.222 296.184 203.947 294.25 208.435C294.476 211.733 294.171 215.615 294.375 218.913C294.672 223.726 295.062 228.538 295.53 233.338C297.202 250.507 299.737 267.594 302.028 284.688C303.175 293.244 304.22 301.812 305.252 310.382C305.773 314.712 306.215 319.048 306.556 323.397C306.697 325.209 306.826 327.023 306.939 328.837L307.037 330.446C307.172 332.471 307.482 334.405 306.229 336.143C305.66 336.932 304.362 337.376 303.615 336.48C302.675 335.354 302.326 334.513 302.237 333.034C302.168 331.902 302.151 330.764 302.1 329.631C301.988 327.174 301.848 324.718 301.684 322.264C301.356 317.358 300.982 312.453 300.549 307.555C299.03 290.381 296.143 273.336 294.222 256.203C293.254 247.566 292.566 238.913 292.202 230.229C292.02 225.892 291.954 221.555 291.997 217.214C292.013 215.593 292.09 213.979 292.201 212.369C289.323 218.904 286.298 225.376 283.135 231.763L282.385 233.275C280.381 237.312 278.323 241.363 275.914 245.169L275.5 245.817C274.524 247.363 273.191 249.8 271.411 250.288C270.171 250.628 268.657 250.389 267.386 250.364C266.124 250.34 264.861 250.335 263.601 250.284C262.187 250.227 260.838 250.041 259.472 249.673C259.245 249.612 259.03 249.546 258.834 249.461C257.457 251.713 255.119 253.429 252.727 254.428C250.811 255.228 248.804 255.777 246.793 256.285L246.083 256.463C243.927 257 241.461 257.255 240.245 259.337L239.963 259.819C239.059 261.354 238.191 262.703 236.695 263.803C235.085 264.989 233.177 265.734 231.276 266.314C229.33 266.908 227.338 267.363 225.362 267.849L224.824 267.983C223.519 268.31 222.203 268.609 220.906 268.964C220.353 269.116 219.79 269.272 219.248 269.458C218.612 269.677 218.15 270.017 217.649 270.388C217.198 271.962 215.272 272.817 213.688 272.707C212.857 272.65 212.11 272.367 211.431 271.954C210.246 272.962 208.942 273.866 207.734 274.8C206.042 276.108 204.344 277.407 202.637 278.694C199.116 281.347 195.568 283.965 191.984 286.531C185.622 291.086 179.122 295.433 172.51 299.619C169.754 301.364 166.979 303.106 164.177 304.807L164.476 304.918L165.069 305.142C166.471 305.665 168.033 306.511 168.305 308.146C168.52 309.443 167.796 310.337 166.515 310.495C164.992 310.683 163.808 309.608 162.86 308.582C162.441 308.129 161.973 307.708 161.572 307.242C161.409 307.052 161.283 306.832 161.173 306.603C158.407 308.232 155.612 309.806 152.773 311.278L152.062 311.644C145.022 315.243 138.169 319.187 131.068 322.684C129.216 323.596 126.958 324.582 124.604 325.256C125.228 327.676 125.219 330.334 125.235 332.79C125.249 335.184 121.444 335.173 121.524 332.79L121.563 331.64C121.632 329.705 121.745 327.696 122.205 325.814C115.269 326.964 108.341 324.465 107.051 323.714C105.627 322.887 104.334 321.562 103.259 320.333C100.957 317.703 99.3597 314.551 97.9426 311.379C94.9071 304.587 92.7565 297.327 91.1841 290.066C85.3875 263.296 87.8808 234.645 97.2945 208.984C99.6463 202.572 102.423 196.302 105.605 190.259L106 189.512C109.175 183.536 112.704 177.582 117.187 172.497C121.856 167.2 127.616 163.08 133.887 159.882C136.947 158.322 140.096 156.969 143.315 155.771C143.832 155.578 144.352 155.405 144.874 155.241C148.228 153.103 152.299 151.058 156.371 151.138C156.648 151.143 156.872 151.248 157.039 151.407C157.235 151.441 157.431 151.483 157.628 151.54C158.062 151.666 158.52 152.141 158.458 152.629L158.437 152.792C158.425 152.871 158.411 152.948 158.386 153.023C158.532 153.044 158.675 153.079 158.815 153.127C162.711 152.027 166.544 150.345 170.346 148.988L171.212 148.682C174.396 147.567 177.663 146.473 180.275 144.266C182.873 142.069 184.827 139.224 186.24 136.149C187.98 132.36 188.76 128.255 190.189 124.365ZM268.192 324.207C268.963 323.633 269.875 324.299 270.164 325.009C271.112 327.34 270.643 330.961 269.308 333.021C267.923 335.156 264.61 334.313 264.53 331.728C264.446 329.031 266.014 325.827 268.192 324.207ZM276.16 259.857C276.229 259.554 276.7 259.557 276.77 259.857C277.412 262.592 277.397 265.537 277.586 268.34L277.608 268.651C277.834 271.743 278.024 274.843 278.16 277.94C278.426 284.034 278.744 290.128 279.1 296.217C279.277 299.236 279.467 302.255 279.669 305.274C280.302 304.921 280.954 304.611 281.63 304.338C282.643 303.928 283.629 303.882 284.717 303.893C286.043 303.906 287.041 305.072 286.865 306.369C286.674 307.783 285.429 308.389 284.136 308.187C282.704 307.963 281.267 307.616 279.821 307.472C279.982 309.806 280.148 312.139 280.325 314.47C280.559 317.557 280.863 320.641 281.078 323.729C281.098 324.024 281.12 324.319 281.143 324.615C282.005 324.166 282.92 323.937 283.958 323.655L284.228 323.579C285.734 323.146 287.345 322.548 288.739 323.561C289.677 324.242 289.864 325.362 289.087 326.26C287.91 327.622 286.169 327.358 284.543 327.289L283.668 327.257C282.844 327.224 282.083 327.172 281.321 326.964C281.461 328.976 281.535 330.995 281.288 332.978C281.154 334.049 279.743 334.33 279.37 333.237C278.394 330.38 278.193 327.3 277.836 324.307C277.502 321.513 277.3 318.698 277.081 315.891L277.015 315.049C276.524 308.874 276.131 302.695 275.844 296.507C275.557 290.32 275.384 284.134 275.316 277.94C275.285 275.128 275.331 272.306 275.441 269.494L275.476 268.651C275.603 265.759 275.514 262.691 276.16 259.857ZM147.233 324.663C147.271 324.268 147.587 323.777 148.058 323.838C148.492 323.894 148.939 323.867 149.369 323.939C149.935 324.033 150.391 324.367 150.918 324.578C151.775 324.92 152.708 325.097 153.587 325.377C155.235 325.903 156.134 327.638 155.451 329.258C154.733 330.962 152.929 331.348 151.37 330.634C150.141 330.07 149.226 329.17 148.399 328.128L148.165 327.831C147.809 327.383 147.405 326.883 147.256 326.341C147.111 325.812 147.182 325.2 147.233 324.663ZM227.33 316.655C229.384 316.366 231.138 317.068 233.038 317.73L233.192 317.783C235.126 318.45 237.948 318.912 238.939 320.891C239.537 322.084 239.072 323.669 237.665 324.022C235.437 324.581 233.438 322.952 231.596 321.856L231.499 321.799C229.72 320.757 227.884 319.882 226.749 318.085C226.446 317.606 226.708 316.743 227.33 316.655ZM155.648 153.398C154.825 153.582 154.002 153.745 153.181 153.902C150.054 155.577 147.02 157.315 143.792 158.808C140.368 160.391 136.956 162.027 133.703 163.942C127.131 167.813 121.714 172.845 117.237 179.013C109.504 189.668 103.752 201.955 99.6354 214.422C98.5777 217.625 97.6312 220.864 96.7938 224.131C98.2743 222.762 100.027 221.92 101.993 221.199C102.825 220.894 103.862 221.411 104.285 222.132C104.474 222.456 104.581 222.776 104.562 223.156C104.518 223.994 103.972 224.947 103.072 225.113C100.972 225.499 98.93 226.253 96.9053 226.916C96.5984 227.016 96.3346 226.978 96.124 226.86C94.1139 235.371 92.8564 244.058 92.411 252.797C92.0343 260.196 92.2667 267.653 93.0864 275.041C93.7164 274.758 94.3325 274.492 95.0232 274.332C95.9189 274.123 96.8 273.87 97.6737 273.584C100.195 272.757 101.345 276.918 98.7681 277.553C97.809 277.789 96.844 277.985 95.8667 278.128C95.0149 278.253 94.2615 278.198 93.4585 278.067C94.072 282.677 94.9099 287.253 95.9773 291.763L96.2128 292.751C97.5993 298.512 99.2153 304.327 101.552 309.772C102.698 312.443 104.216 314.979 106.09 317.206C107.011 318.301 108.033 319.24 109.147 320.129C110.075 320.87 113.228 322.476 116.963 322.476C120.698 322.476 121.709 322.122 123.593 321.474C127.32 320.192 130.858 318.145 134.353 316.321L134.714 316.134C136.259 315.334 137.799 314.524 139.334 313.705C139.14 312.14 139.48 310.826 140.295 309.381C141.177 307.817 143.362 308.596 143.524 310.195L143.529 310.256C143.554 310.617 143.614 310.984 143.689 311.35C153.956 305.728 164.005 299.713 173.894 293.444C180.264 289.405 186.566 285.247 192.776 280.967C195.88 278.827 198.958 276.649 202.005 274.428C203.601 273.264 205.19 272.091 206.771 270.908C207.43 270.416 208.076 269.898 208.736 269.403C208.575 269.202 208.419 269.002 208.268 268.804C205.803 265.577 204.203 261.731 203.406 257.764C202.925 255.369 202.693 252.884 202.622 250.443L202.591 249.382C202.542 247.594 202.53 245.722 202.859 243.99C202.411 244.236 201.952 244.478 201.495 244.737C199.856 245.665 198.216 246.591 196.572 247.513C193.281 249.358 189.981 251.182 186.639 252.933C180.669 256.06 174.64 259.034 168.448 261.7L165.435 262.998C160.207 265.246 154.935 267.454 149.499 269.125C146.433 270.068 143.343 270.873 140.233 271.592L141.491 273.065C142.344 274.065 142.359 275.497 141.269 276.338C140.197 277.165 138.759 276.821 138.046 275.723L136.744 273.722C136.466 273.294 136.308 272.894 136.219 272.472C134.786 272.771 133.35 273.059 131.909 273.337L129.186 273.857C125.298 274.607 121.528 276.093 118.053 277.994C116.845 278.655 116.508 277.371 117.788 276.476C121.531 273.86 125.897 272.38 130.402 271.138L130.624 271.077C132.276 270.624 133.926 270.153 135.572 269.664C135.391 269.009 135.287 268.33 135.308 267.581C135.354 265.912 135.502 264.238 135.59 262.57C135.776 259.07 136.014 255.582 136.292 252.088C136.399 250.742 136.518 249.393 136.655 248.045C135.772 247.571 135.011 246.943 134.027 246.634L133.861 246.586C132.808 246.302 133.163 244.946 134.098 244.83C134.945 244.725 135.788 244.773 136.623 244.953C136.753 244.981 136.875 245.012 136.992 245.048C137.145 243.799 137.315 242.553 137.509 241.314C138.02 238.042 138.382 234.593 139.446 231.449C139.525 231.216 139.871 231.133 139.999 231.377C141.548 234.322 141.602 237.934 141.776 241.214L141.798 241.606C142.004 245.184 142.015 248.796 141.949 252.379C141.881 256.071 141.755 259.754 141.589 263.443C141.522 264.929 141.525 266.47 141.272 267.89C150.487 264.896 159.539 261.311 168.216 257.066C174.336 254.072 180.404 250.959 186.402 247.728C189.408 246.109 192.428 244.517 195.43 242.892C196.482 242.323 197.533 241.752 198.584 241.179L200.16 240.32C201.634 239.516 202.865 238.715 204.583 238.659C205.095 238.642 205.554 238.882 205.88 239.245C206.803 238.59 207.87 238.189 208.989 238.198C210.674 235.871 212.386 233.563 214.165 231.305L215.479 229.633C217.754 226.749 220.164 223.821 223.065 221.626C224.36 220.646 225.784 219.912 227.269 219.304C226.92 219.219 226.577 219.047 226.273 218.765C224.854 217.45 224.659 215.007 224.371 213.172C224.072 211.27 224.187 209.567 224.482 207.67C224.597 206.933 225.818 206.78 226.116 207.456C226.744 208.884 227.41 210.252 227.981 211.695L228.15 212.131C228.763 213.756 230.07 215.465 229.984 217.228C229.96 217.711 229.798 218.132 229.548 218.47C230.795 218.057 232.06 217.688 233.305 217.303C237.224 216.092 241.158 214.916 245.152 213.977C246.215 213.727 247.284 213.495 248.357 213.282C248.919 210.614 249.738 207.995 250.704 205.424C249.789 204.955 249.197 204.17 248.41 203.471C247.673 202.817 247.166 202.021 246.538 201.27C245.965 200.587 246.287 199.353 247.315 199.393L247.607 199.405C248.673 199.454 249.705 199.565 250.671 200.062L251.015 200.239C251.488 200.484 252.004 200.765 252.465 201.097C253.066 199.713 253.692 198.342 254.325 196.985L255.145 195.23C257.273 190.662 259.395 185.921 262.066 181.668C263.254 179.777 264.835 178.597 267.103 178.414C269.439 178.226 271.868 178.469 274.207 178.552C276.919 178.649 279.63 178.764 282.339 178.907C281.645 178.18 281.011 177.37 280.314 176.672C279.156 175.515 277.933 174.418 276.647 173.404C274.102 171.397 271.305 169.744 268.399 168.32C265.492 166.896 262.5 165.655 259.771 163.895C258.044 162.782 256.501 161.381 255.093 159.866C254.207 169.425 249.59 178.306 242.653 184.978C235.448 191.908 225.492 195.715 215.753 197.334C205.818 198.986 195.45 198.38 185.946 194.928C181.046 193.148 176.346 190.605 172.155 187.415C172.109 187.692 172.054 187.967 171.945 188.224C171.799 188.571 171.62 188.866 171.415 189.17L171.05 189.704C170.819 190.04 170.585 190.373 170.323 190.684C169.69 191.439 168.792 191.769 167.825 191.765C165.974 191.759 164.572 189.945 165.071 188.15C165.384 187.022 166.053 186.344 167.099 185.902C167.43 185.763 167.766 185.646 168.105 185.531L168.36 185.444C168.702 185.327 169.042 185.216 169.394 185.151C167.41 183.4 165.568 181.495 163.919 179.44C158.748 172.996 153.647 163.97 155.376 155.412C155.405 155.265 155.538 155.172 155.68 155.149C155.781 154.548 156.101 153.967 156.539 153.577C156.244 153.499 155.946 153.439 155.648 153.398ZM209.351 301.374C210.375 300.805 211.433 302.158 210.601 302.994L209.358 304.236C208.205 305.395 207.082 306.566 206.095 307.887L205.856 308.21C204.523 310.022 203.102 312.122 200.918 312.8C198.277 313.619 195.739 310.403 197.269 308.053C198.605 306 201.178 305.225 203.396 304.376C205.494 303.573 207.389 302.464 209.351 301.374ZM124.147 291.899C124.749 291.112 126.318 291.526 125.907 292.641C124.572 296.26 124.028 301.195 120.655 303.599C119.568 304.374 117.858 304.018 116.963 303.123C115.945 302.105 115.904 300.672 116.486 299.431C117.196 297.917 118.942 296.819 120.166 295.665L120.276 295.56C121.593 294.282 123.017 293.379 124.147 291.899ZM265.093 296.064C266.167 295.601 268.966 294.702 269.796 295.767C269.835 295.806 269.868 295.848 269.895 295.895C270.098 296.249 270.128 296.747 269.895 297.098C268.928 298.551 267.921 299.635 266.547 300.668L266.392 300.783C264.896 301.883 263.49 303.174 261.667 303.67C259.14 304.358 257.375 301.195 259.15 299.348C260.58 297.86 262.762 297.087 264.657 296.258L265.093 296.064ZM163.611 275.386C163.188 274.622 164.052 273.685 164.834 274.163C167.065 275.526 169.664 276.549 172.171 277.284C173.185 277.581 174.1 278.609 174.024 279.718L174.013 279.886C173.983 280.278 173.929 280.667 173.68 280.992C172.807 282.134 171.558 282.573 170.225 281.898C167.253 280.393 165.219 278.291 163.611 275.386ZM228.826 273.073C228.772 272.752 229.007 272.504 229.334 272.566C231.219 272.923 232.961 273.833 234.58 274.88C235.449 275.441 236.286 276.058 237.153 276.625C238.223 277.325 238.624 277.903 238.782 279.188C238.887 280.035 238.095 280.81 237.368 281.044C235.389 281.682 233.122 279.588 231.781 278.228L231.721 278.167C230.317 276.736 229.159 275.045 228.826 273.073ZM285.462 270.851C285.032 269.69 286.513 268.728 287.482 269.298C288.394 269.835 289.384 270.28 290.244 270.895C291.035 271.46 291.756 272.129 292.514 272.742L292.889 273.039C294.28 274.156 296.575 276.921 294.587 278.524C292.694 280.05 290.185 278.101 288.915 276.676L288.826 276.575C288.095 275.731 287.194 274.814 286.664 273.829C286.165 272.901 285.827 271.836 285.462 270.851ZM266.798 181.024C264.428 181.484 263.462 184.409 262.464 186.315C260.108 190.815 257.941 195.397 255.766 199.985C255.096 201.396 254.443 202.818 253.785 204.237C253.745 204.348 253.694 204.458 253.633 204.566C252.285 207.468 250.896 210.35 249.273 213.105C250.759 212.827 252.251 212.59 253.75 212.403C253.674 210.993 254.64 209.105 255.118 207.918L255.158 207.818C255.754 206.296 256.378 203.899 257.912 203.109C258.423 202.847 258.97 203.176 259.009 203.739C259.126 205.413 257.487 207.33 256.686 208.752C256.201 209.612 255.729 210.476 255.269 211.349C255.097 211.675 254.953 211.997 254.776 212.285C255.549 212.201 256.322 212.127 257.098 212.072L257.604 212.038C260.48 211.848 263.534 211.794 266.132 213.212C268.543 214.527 269.776 217.334 268.451 219.89C266.801 223.075 263.168 223.497 259.973 223.755C255.982 224.077 251.982 224.658 248.019 225.225C243.92 225.811 240.061 227.321 236.023 228.098C235.647 228.17 235.414 227.679 235.758 227.469C238.943 225.531 242.815 224.464 246.376 223.378L246.664 223.29C248.595 222.697 250.483 222.019 252.481 221.683C254.421 221.356 256.373 221.092 258.329 220.891L258.519 220.873C260.673 220.692 266.168 220.754 265.936 217.566C265.782 215.456 262.351 215.091 260.785 215.066C253.604 214.951 246.372 216.857 239.548 218.898L238.024 219.355C235.23 220.195 232.432 221.06 229.69 222.045C226.583 223.162 224.135 224.903 221.872 227.285C219.363 229.927 216.933 232.628 214.33 235.181C212.689 236.791 211.027 238.371 209.351 239.939C208.973 240.429 208.67 240.962 208.46 241.653C208.106 242.821 208.187 243.907 208.321 245.106C208.658 248.136 208.733 251.197 209.156 254.217C209.548 257.015 210.096 259.916 211.258 262.511C211.718 263.539 212.317 264.549 212.999 265.452L213.549 266.167C213.789 266.478 214.058 266.818 214.34 267.138C214.753 266.633 215.352 266.305 216.048 266.387C217.526 266.561 218.688 266.52 220.138 266.18C221.261 265.917 222.375 265.61 223.492 265.325C225.687 264.765 227.901 264.256 230.073 263.613L230.447 263.501C232.065 263.005 233.685 262.383 235.032 261.338C236.597 260.124 237.079 258.373 238.238 256.858C240.714 253.625 246.064 253.692 249.686 252.806C252.764 252.054 255.727 250.866 257.857 248.633L257.982 248.5C257.887 248.102 258.04 247.652 258.41 247.446L258.491 247.401C258.636 247.32 258.791 247.287 258.944 247.29C259.141 247 259.332 246.7 259.505 246.381C259.648 246.118 260.005 246.311 259.958 246.571C259.93 246.726 259.891 246.878 259.855 247.029C261.918 246.499 264.185 246.6 266.28 246.601L268.999 246.592C269.469 246.586 270.171 246.563 270.233 246.534L270.297 246.506C270.466 246.432 270.226 246.554 270.344 246.397C270.475 246.223 270.603 246.048 270.729 245.871C271.179 245.241 271.606 244.591 272.024 243.936C267.47 245.096 262.754 245.817 258.104 246.419C253.117 247.065 248.063 247.513 243.031 247.518C241.644 247.519 241.656 245.426 243.031 245.373C248.36 245.17 253.66 244.888 258.953 244.205C261.69 243.852 264.416 243.408 267.126 242.89C268.173 242.69 269.217 242.478 270.258 242.254L271.039 242.083C271.528 241.975 272.912 241.819 273.587 241.367C273.719 241.139 273.852 240.911 273.984 240.684C273.919 239.884 271.886 239.992 271.41 239.99C270.059 239.988 268.707 239.999 267.356 240.002C264.653 240.01 261.951 239.987 259.248 239.965C253.849 239.921 248.428 239.733 243.033 239.963C241.723 240.019 241.035 237.919 242.33 237.367C248.045 234.927 254.389 234.397 260.491 233.647C263.7 233.253 266.91 232.798 270.047 232L270.823 231.803C272.794 231.298 274.97 230.682 276.629 229.479C274.135 228.47 271.035 228.586 268.449 228.443L268.251 228.431C264.631 228.209 261.004 228.095 257.377 228.09C249.956 228.08 242.533 228.343 235.12 228.694C234.934 228.703 234.895 228.409 235.076 228.37C242.695 226.708 250.439 225.907 258.236 225.784C261.868 225.727 265.501 225.778 269.129 225.939L270.46 226C273.554 226.133 276.987 226.169 279.575 228.037C279.969 228.321 280.177 228.685 280.21 229.069C283.681 222.152 286.887 215.09 290.106 208.075C292.608 202.621 295.018 197.121 297.611 191.709L298.451 189.958C299.575 187.622 300.727 185.285 302.006 183.034C297.223 182.394 292.414 181.951 287.602 181.611C283.217 181.301 268.909 180.615 266.798 181.024ZM264.681 255.994C265.226 255.691 266.062 255.938 266.196 256.61C266.296 257.111 266.467 257.667 266.467 258.179C266.467 258.792 266.248 259.459 266.13 260.059C265.861 261.44 265.53 262.561 264.828 263.791C264.389 264.56 263.502 265.083 262.611 265.062C261.905 265.046 261.279 264.856 260.795 264.31C260.214 263.656 259.816 262.694 260.134 261.812C260.968 259.504 262.501 257.204 264.681 255.994ZM148.994 253.691C150.271 251.456 153.296 249.459 155.936 249.657C159.9 249.954 160.709 255.29 156.871 256.563C154.577 257.324 151.421 256.542 149.414 255.29C148.873 254.952 148.674 254.251 148.994 253.691ZM108.254 246.056C107.964 245.635 108.443 245.154 108.875 245.248C109.833 245.459 110.865 245.551 111.804 245.836C112.765 246.128 113.695 246.613 114.646 246.946C116.64 247.645 118.77 247.995 120.7 248.838C121.471 249.175 122.078 250.292 122.007 251.115L121.988 251.308C121.946 251.716 121.875 252.073 121.646 252.446C121.032 253.449 119.815 253.967 118.667 253.658C116.537 253.086 114.455 251.616 112.639 250.395L112.303 250.172C111.509 249.65 110.656 249.103 110.017 248.43C109.349 247.728 108.8 246.852 108.254 246.056ZM181.485 237.929C181.239 237.046 182.338 236.462 182.979 237.059C184.258 238.251 185.597 239.356 186.85 240.578L186.934 240.662C187.832 241.563 189.138 243.301 187.97 244.468C186.474 245.963 184.392 243.744 183.589 242.588C182.571 241.122 181.961 239.644 181.485 237.929ZM279.423 230.629C277.524 232.639 274.599 233.564 272.023 234.329C268.97 235.237 265.823 235.779 262.674 236.225C259.63 236.655 256.61 237.04 253.615 237.535C255.881 237.563 258.146 237.579 260.407 237.62C263.013 237.667 265.619 237.723 268.225 237.799C270.123 237.854 272.35 237.594 274.153 238.299C274.478 238.426 274.782 238.602 275.047 238.816C276.563 236.121 278.017 233.388 279.423 230.629ZM162.315 211.829C164.297 211.2 166.16 210.365 168.261 210.582C168.819 210.639 169.219 211.183 168.914 211.719C167.919 213.471 166.3 214.459 164.707 215.631L164.566 215.735C162.822 217.032 160.949 218.214 159.052 219.278C155.786 221.11 152.86 215.866 156.158 214.328C158.142 213.402 160.227 212.493 162.315 211.829ZM197.992 207.277C201.024 207.476 204.054 207.612 207.09 207.734C210.606 207.877 209.424 213.286 206.486 212.191C203.585 211.109 200.683 210.041 197.755 209.032C196.863 208.725 196.935 207.262 197.936 207.275L197.992 207.277ZM120.234 197.654C121.02 197.599 121.812 197.77 122.599 197.847L123.437 197.928C125.163 198.1 126.781 198.311 128.427 199.013C131.464 200.309 129.833 205.19 126.784 205.078C124.53 204.996 122.603 204.028 120.7 202.902C119.037 201.917 118.017 200.685 116.894 199.139C116.522 198.627 117.04 198.053 117.547 198.001C118.439 197.91 119.341 197.716 120.234 197.654ZM272.484 187.686C271.981 190.821 270.734 193.76 268.854 196.318C267.909 197.604 266.251 197.652 265.315 196.318C263.99 194.431 264.807 192.268 265.805 190.455L266.1 189.924C266.547 189.128 267.233 187.967 268.017 187.165L268.03 187.083C268.45 183.801 273.002 184.456 272.484 187.686ZM149.863 167.565C150.618 166.885 152.01 167.089 152.256 168.197C152.599 169.748 152.808 171.495 152.583 173.07C152.461 173.923 152.416 174.881 152.08 175.677C151.719 176.532 151.025 177.189 150.371 177.832C149.065 179.116 146.313 178.691 145.963 176.669L145.919 176.421C145.743 175.464 145.518 174.441 145.778 173.493C145.975 172.777 146.414 172.047 146.778 171.383L146.854 171.242C147.583 169.886 148.718 168.595 149.863 167.565ZM256.1 170.865L256.373 170.868C258.483 170.91 262.339 171.423 262.36 174.029C262.365 174.643 261.91 175.28 261.3 175.421C260.039 175.713 259.224 174.969 258.325 174.216C257.59 173.601 256.733 173.109 255.843 172.755C254.882 172.373 254.945 170.863 256.1 170.865Z"
        fill="var(--color-dark)"
      />
    </g>
    <g id="lenes haare">
      <ellipse
        id="Ellipse 4"
        cx="172.583"
        cy="92.9216"
        rx="14.238"
        ry="13.4886"
        fill="var(--color-light)"
      />
      <path
        id="Background_5"
        fill-rule="evenodd"
        clip-rule="evenodd"
        d="M186.304 11.2561C240.732 8.97405 244.534 22.4616 252.008 31.0604C255.717 35.3276 259.376 41.4064 260.965 56C262.068 66.1303 260.965 78.0476 260.965 87.0999C260.965 91.7205 267.601 101.64 264.512 108.375C257.636 123.364 243.078 140 224.527 140C205.976 140 171.731 131.283 151.233 106.259C144.519 98.0631 131.875 13.5382 186.304 11.2561Z"
        fill="var(--color-light)"
      />
      <path
        id="Ink_2-gracias"
        fill-rule="evenodd"
        clip-rule="evenodd"
        d="M166.754 10.9313C169.54 9.21707 188.453 -0.304709 201.437 0.00750643C208.162 0.169505 215.694 -0.334965 222.045 1.85938C225.222 2.96097 239.007 4.37658 241.948 6.00246C243.008 6.58701 233.277 7.29372 234.218 8.02114L234.452 8.20384H234.455C236.978 9.11103 236.863 9.02561 238.906 10.9313C243.001 10.6044 249.497 12.6868 253.457 13.9504C258.969 15.7117 265.297 18.6578 268.881 23.2379C273.054 28.5701 280.616 44.2877 280.121 50.9646L272.63 43.1282C274.126 56.9595 271.263 56.6127 266.424 60.4882C266.056 60.7827 265.65 61.0066 265.229 61.1421C268.347 66.4851 270.905 72.4172 272.436 78.4082C278.281 101.291 273.788 125.155 266.76 147.211C266.183 149.028 263.436 150.235 262.037 148.459C259.54 145.284 255.913 142.863 251.832 142.409C249.315 142.13 246.809 142.636 244.43 141.493C243.497 141.043 242.596 140.306 241.948 139.411C237.932 140.934 233.607 141.652 229.317 141.476C222.278 141.187 214.752 138.748 209.909 133.399C209.131 132.541 208.934 131.577 209.113 130.708C209.721 130.491 210.344 130.33 210.987 130.229C217.129 133.85 223.899 136.269 231.175 136.421C235.379 136.509 239.479 135.921 242.888 133.295C243.626 132.726 244.304 132.097 244.931 131.421C252.059 126.834 257.084 119.044 259.473 110.699C261.698 102.917 261.425 94.8142 260.659 86.8321L260.255 82.62C259.667 76.4378 259.12 70.2371 258.967 64.0286L259.014 64.0262C260.519 63.929 260.53 61.5718 259.014 61.6699C255.092 61.9238 256.489 63.7458 252.579 64.0262C257.121 64.0106 247.125 57.8712 246.582 56.088C246.272 55.0692 244.499 54.8683 244.311 56.088C244.059 57.7198 243.967 59.3424 243.94 60.9815C231.24 48.67 240.069 61.4675 234.218 61.6699C233.138 60.5182 224.97 57.4199 224.465 55.9993C224.392 55.7902 224.318 55.584 224.241 55.3749C223.798 57.4049 223.169 59.3904 222.341 61.3341L214.27 64.0262C206.128 64.0644 212.517 53.6574 204.566 55.349C204.013 54.9246 192.499 70.163 195.535 61.4749C198.571 52.7868 194.135 52.8399 192.676 48.67L192.467 48.0817C192.45 48.0329 192.432 47.9811 192.413 47.9265C191.338 49.6623 190.056 51.2802 188.657 52.7868C187.833 53.6748 186.968 54.524 186.081 55.349C185.219 56.3063 184.329 57.2491 183.465 58.2093C183.499 58.384 183.529 58.5613 183.553 58.7418C183.817 60.7344 183.844 62.7553 183.651 64.7555C183.301 68.3716 182.28 71.8561 180.641 75.0795L180.589 75.4023C180.34 76.9129 179.986 78.4741 179.159 79.6117C180.191 80.7687 180.986 82.1507 181.447 83.6861C181.858 85.0531 179.967 86.2377 178.987 85.1191C178.208 84.2304 177.343 83.4949 176.392 82.9082C176.332 82.9898 176.224 83.0299 176.102 82.9618C173.456 81.492 168.96 81.9368 166.316 83.3212C163.027 85.0413 161.743 88.5729 162.108 92.1516C162.459 95.5712 163.954 99.5682 166.854 101.321C168.185 102.125 169.222 102.193 170.635 101.807C171.087 101.684 171.647 101.307 171.887 101.12L172.124 100.931C173.051 100.198 173.913 99.6964 175.007 99.6771C176.126 99.3282 177.25 99.8123 177.678 100.986L177.704 101.061C177.904 101.659 178.269 102.41 178.19 103.324C178.107 104.301 177.66 105.191 176.992 105.907C176.877 106.03 176.753 106.154 176.627 106.269C188.139 118.737 189.617 138.165 183.713 153.741C183.457 154.424 183.183 155.098 182.898 155.767C181.911 158.059 178.113 157.349 177.631 155.078C177.486 154.397 177.327 153.72 177.154 153.048C176.834 151.807 176.468 150.578 176.056 149.366L175.899 148.913C175.549 147.912 175.222 146.901 174.869 145.9L174.833 145.785C174.82 145.74 174.805 145.688 174.789 145.629L174.192 146.934L172.375 150.872C171.525 152.709 168.824 151.711 168.724 149.94L168.721 149.879C168.712 149.552 168.701 149.228 168.68 148.907C168.55 146.501 168.135 144.162 167.476 141.873L167.238 142.169C163.695 146.551 159.536 150.659 153.832 151.67C152.401 151.923 150.782 150.427 151.765 148.981C152.171 148.383 152.563 147.77 152.934 147.149C152.613 146.998 152.31 146.842 152.03 146.683C149.866 145.467 148.064 143.735 146.574 141.77C143.415 137.605 142.284 132.363 142.008 127.232C141.713 121.809 142.19 116.092 143.671 110.861C144.313 108.599 145.182 106.428 146.186 104.322C146.115 104.134 146.047 103.945 145.98 103.757C144.896 100.735 144.007 97.6448 143.268 94.5197C141.778 88.2106 140.977 81.7012 140.88 75.2183C140.703 63.6045 139.049 51.3037 143.268 40.4734C147.625 29.3043 163.969 12.6455 166.754 10.9313ZM162.318 108.303C161.518 107.042 159.516 108.178 160.259 109.447L160.287 109.493C161.556 111.492 162.15 113.766 162.881 115.996C163.349 117.431 165.625 116.818 165.151 115.369L164.994 114.885C164.267 112.624 163.604 110.326 162.318 108.303ZM169.287 89.2445L169.818 88.9872C171.495 88.1867 172.964 87.6414 174.946 88.3403C177.598 89.274 180.44 92.2459 178.646 95.1295C177.987 96.1928 176.815 96.617 175.608 96.3666C173.573 95.9444 173.048 94.111 172.015 92.6061L171.837 92.3512C171.208 91.4406 170.411 90.1817 169.363 89.8248C169.125 89.7423 169.025 89.3712 169.287 89.2445ZM170.783 28.0212L170.954 27.8677C172.093 26.8604 170.421 25.1992 169.287 26.2006C164.1 30.7866 162.298 37.9647 159.607 44.0823C159.003 45.4578 161.032 46.6596 161.641 45.2723C164.208 39.4346 165.912 32.4514 170.783 28.0212ZM233.125 26.0151C231.769 25.404 230.583 27.3775 231.887 28.0272L231.935 28.0504C236.517 30.121 238.466 34.8102 240.333 39.1635C240.927 40.5538 242.956 39.355 242.367 37.9765L242.03 37.1954C240.082 32.7091 237.811 28.1362 233.125 26.0151ZM240.305 23.1815C238.868 22.6837 238.253 24.9576 239.678 25.4554C243.562 26.8073 246.226 29.7233 248.473 33.0575C249.315 34.3064 251.355 33.1282 250.504 31.8676C247.896 27.9973 244.798 24.7485 240.305 23.1815Z"
        fill="var(--color-dark)"
      />
      <path
        id="Vector 1"
        d="M140.73 91.2088C125.742 96.4544 130.238 88.9607 143.727 76.9708L164.709 85.9633C161.712 85.9633 152.72 87.0124 140.73 91.2088Z"
        fill="var(--color-dark)"
      />
    </g>
    <path
      id="lenes gesicht"
      fill-rule="evenodd"
      clip-rule="evenodd"
      d="M240.791 95.3147C242.7 96.4351 245.388 100.53 243.335 103.308C240.918 105.757 239.519 102.078 236.975 102.693C234.431 103.308 234.228 103.388 235.703 104.537C248.095 113.397 250.497 95.0804 240.791 93.4701C239.722 93.2927 240.291 94.9681 240.791 95.3147ZM209.998 82.897C210.246 79.816 214.944 79.1164 215.411 82.1652C215.83 84.8962 215.337 87.4051 214.106 89.8639C212.929 92.213 209.971 91.1171 209.747 88.978C209.447 86.1107 209.843 84.8136 209.998 82.897ZM245.759 81.533C246.414 80.6762 247.359 80.0913 248.492 80.4218C252.032 81.4551 250.989 86.4748 249.746 88.9182C249.07 90.245 246.887 90.5815 245.9 89.4132C244.291 87.508 243.521 83.7033 245.566 81.8266C245.621 81.7296 245.683 81.6318 245.759 81.533Z"
      fill="var(--color-dark)"
    />
    <g id="face/Loving Grin 1">
      <g id="blog-grin">
        <path
          id="Ink_3-gracias"
          fill-rule="evenodd"
          clip-rule="evenodd"
          d="M218.133 117.494C218.156 115.06 220.212 114.64 222.165 114.965C225.471 115.513 228.789 115.9 232.14 115.969L232.718 115.98V115.98C232.811 115.84 232.966 115.735 233.177 115.712C235.035 115.506 236.933 115.539 238.8 115.482C240.43 115.433 242.104 115.266 243.733 115.397L243.863 115.409C245.854 115.607 247.955 116.65 247.714 119.048C247.493 121.268 245.425 123.233 243.773 124.467C243.439 124.714 243.098 124.946 242.746 125.157C242.636 125.302 242.475 125.402 242.29 125.423C240.663 126.324 238.868 126.858 237.011 127.035C233.072 127.411 228.493 127.004 224.71 125.253C223.48 124.684 222.333 123.973 221.319 123.099C219.755 121.752 218.116 119.709 218.133 117.494ZM233.145 122.253C231.56 122.202 229.978 122.438 228.469 122.961C227.446 123.313 226.513 123.991 225.533 124.462C228.836 125.808 232.674 126.101 236.062 125.856C237.549 125.749 238.99 125.382 240.333 124.753C240.124 124.591 239.912 124.427 239.691 124.284C239.021 123.851 238.32 123.483 237.589 123.189C236.166 122.619 234.664 122.304 233.145 122.253Z"
          fill="var(--color-dark)"
        />
      </g>
      <g id="blog-brauen">
        <path
          id="Path"
          fill-rule="evenodd"
          clip-rule="evenodd"
          d="M217.259 71.0162L217.807 70.9207C219.502 70.6289 221.61 70.3484 222.809 71.7052C223.445 72.4247 223.663 73.762 222.809 74.4507C221.305 75.6625 219.643 75.1929 217.841 75.2955C216.356 75.3803 214.929 75.625 213.499 76.0321C210.361 76.9251 207.804 78.5553 205.124 80.3454C204.773 80.5802 204.414 80.1324 204.581 79.8049C206.128 76.7877 209.126 74.3092 212.129 72.7984C213.732 71.992 215.486 71.3231 217.259 71.0162Z"
          fill="var(--color-dark)"
        />
        <path
          id="Path_2"
          fill-rule="evenodd"
          clip-rule="evenodd"
          d="M245.161 69.6648L245.58 69.7502C250.143 70.7001 256.072 72.5974 258.234 77.0608C258.316 77.6919 258.229 77.8272 258.158 77.9155L258.135 77.9449C258.076 78.0204 258.03 78.1244 257.755 78.2103C257.679 78.1922 257.602 78.1731 257.524 78.1528C256.533 77.8943 255.75 77.5382 254.991 77.1687L254.168 76.7651C253.214 76.2991 252.251 75.8501 251.23 75.5186C249.053 74.8113 246.813 74.3131 244.538 74.047C244.045 73.9894 243.57 73.8237 243.196 73.5398C242.84 73.2702 242.569 72.8971 242.445 72.401C242.284 71.7591 242.33 71.2731 242.676 70.694C242.936 70.2591 243.309 69.9576 243.736 69.7845C244.172 69.608 244.668 69.5664 245.161 69.6648Z"
          fill="var(--color-dark)"
        />
      </g>
    </g>
  </g>
</svg>
