<svg
  role="img"
  class="transform translate-y-5 md:translate-y-0 -translate-x-10 sm:-translate-x-5 md:translate-x-0 scale-90 md:scale-110"
  width="200"
  height="278"
  viewBox="0 0 200 278"
  fill="none"
  xmlns="http://www.w3.org/2000/svg"
>
  <title>Dibujo representando a Lene escribiendo su blog</title>
  <g id="lene">
    <g id="body/Coffee">
      <path
        id="&#240;&#159;&#142;&#168; Background"
        fill-rule="evenodd"
        clip-rule="evenodd"
        d="M96.5935 100.286C102.6 95.7127 117.678 93.656 124.089 98.0598C130.42 102.482 131.11 109.633 134.061 116.212C136.844 114.9 141.441 116.779 142.249 119.363C143.25 120.581 143.294 124.004 143.985 125.641C174.02 130.422 178.579 153.839 182.195 180.423C186.977 207.399 197.834 234.316 193.121 262.075C193.735 262.964 194.219 263.828 194.667 264.853C195.739 266.679 194.358 269.262 192.194 269.162C189.393 268.916 186.62 268.581 183.806 268.476C176.006 268.205 168.198 268.237 160.395 268.336L159.331 268.35C120.003 268.84 80.6785 269.805 41.3497 270.06C39.9229 270.062 39.2244 268.783 39.4149 267.521C39.7986 264.979 40.1545 262.436 40.5261 259.894C31.2238 262.351 21.3346 262.969 12.0586 260.152C11.4097 259.491 13.5706 259.85 13.9134 259.749C5.37659 253.916 7.926 241.626 8.68222 232.775C13.3844 202.446 15.0421 168.888 33.2099 143.007C41.0696 132.445 52.5926 124.083 65.8334 122.202L66.2007 122.151C70.0723 121.635 74.3871 121.469 77.7722 119.363C81.5793 116.323 83.2017 110.707 87.207 110.655C88.5295 110.637 90.3287 112.311 92.2648 113.447C92.4093 110.948 93.756 108.839 94.0534 106.901L94.0774 106.735C94.3877 104.476 93.9628 102.444 96.5935 100.286ZM161.141 181.224C152.701 175.36 130.897 178.307 130.398 178.635C129.299 179.358 128.825 179.422 128.231 180.36C127.644 180.438 127.058 180.519 126.472 180.602C125.296 180.986 126.167 182.432 127.525 181.916C126.708 185.438 129.112 187.943 130.068 191.424C130.379 192.555 130.08 194.588 130.068 195.743C130.161 197.216 131.789 198.956 131.518 200.433C130.553 205.686 125.318 210.81 127.525 215.905C128.987 218.782 133.385 220.249 136.31 221.227C142.368 223.552 152.924 221.14 156.444 215.905C158.321 213.112 160.496 206.069 161.616 203.884L161.864 200.419C162.476 191.803 163.02 182.529 161.141 181.224Z"
        fill="#FFFDF5"
      />
      <path
        id="&#240;&#159;&#150;&#141; Ink"
        fill-rule="evenodd"
        clip-rule="evenodd"
        d="M85.736 110.147C86.3187 109.631 87.181 110.279 86.8107 110.976C85.9785 112.543 85.125 114.027 84.0082 115.412C83.3311 116.252 82.6058 117.046 81.8707 117.832C83.7571 119.464 85.3749 121.49 86.9026 123.389C88.8562 125.817 90.7032 128.349 92.8961 130.571C95.0589 132.762 97.4502 134.294 100.342 135.316L100.926 135.519C103.83 136.538 106.935 137.916 108.572 140.666C108.895 141.208 108.245 141.878 107.698 141.54C104.853 139.778 101.511 139.424 98.4137 138.26C95.4222 137.136 92.8144 135.405 90.5102 133.197C88.21 130.992 86.2785 128.483 84.2639 126.028C82.2717 123.599 80.1267 121.526 77.7702 119.471C74.1338 121.918 69.9829 122.982 65.7622 124.028L65.3015 124.142C61.0756 125.188 56.8724 126.403 52.9079 128.225C49.4125 129.831 45.9745 131.749 43.1273 134.363C40.1049 137.137 37.7525 140.68 35.5995 144.144C30.7834 151.895 27.3975 160.387 24.4167 168.982C21.3164 177.922 18.7232 187.041 16.6297 196.268C15.565 200.961 14.7003 205.688 13.9896 210.448C13.6475 212.741 13.3436 215.038 13.0766 217.341C12.7917 219.799 12.7263 222.329 11.972 224.693C11.6487 225.706 10.8851 226.127 10.1209 226.091L9.96567 228.032C9.75984 230.621 9.56795 233.21 9.50313 235.814C9.39561 240.145 9.44436 244.463 9.75586 248.784L9.79997 249.373C10.0447 252.527 10.5917 256.071 12.9633 258.38C15.4192 260.772 19.1962 261.524 22.5064 261.567C30.2162 261.668 37.6377 258.025 44.4602 254.829C51.4865 251.538 58.3209 247.884 64.9915 243.922C68.3886 241.904 71.749 239.819 75.0665 237.673C76.6945 236.62 78.3111 235.549 79.9155 234.461C80.8345 233.837 81.7053 233.154 82.6408 232.601C82.1824 232.174 81.9778 231.503 82.3617 230.917C79.6573 228.569 78.5318 224.38 78.4001 220.991C78.2938 218.255 78.6965 215.526 79.0143 212.816C79.1746 211.449 79.3726 210.085 79.5782 208.724C79.6595 208.187 79.7216 207.612 79.8164 207.045C72.5139 211.058 65.0068 214.631 57.3009 217.806C53.351 219.434 49.3505 220.897 45.2947 222.238L44.4727 222.509C40.6298 223.767 36.6951 224.955 32.7223 225.674C32.5099 225.712 32.3374 225.399 32.5642 225.299C36.4357 223.591 40.4414 222.15 44.3711 220.576L45.0168 220.313C44.9426 220.309 44.8657 220.299 44.7855 220.28C42.4808 219.723 40.1942 218.866 37.9338 218.145C35.836 217.475 33.479 217.054 31.5182 216.043C31.3673 215.965 31.4518 215.755 31.5987 215.745C33.8026 215.592 36.1951 216.235 38.356 216.613L39.1677 216.755C40.5276 216.995 41.9176 217.252 43.2708 217.589C43.3198 217.135 43.573 216.68 43.9334 216.413C47.8986 213.477 47.4959 207.546 47.92 203.172L48.2345 199.925C48.7877 194.242 49.3729 188.56 50.2619 182.92C50.3094 182.619 50.7753 182.705 50.7772 182.99C50.8231 189.981 50.2953 196.941 50.0308 203.921L49.9898 205.066C49.8436 209.374 49.7289 213.847 47.0161 217.161C47.3955 216.939 47.9084 216.939 48.2157 217.305C48.5933 217.754 48.8113 218.259 48.8045 218.754C51.2558 217.726 53.6965 216.672 56.1252 215.596C63.9338 212.136 71.5787 208.265 79.0213 204.076C79.8223 203.625 80.5836 203.979 80.9797 204.574L81.0369 204.565C81.0464 204.564 81.0561 204.563 81.0661 204.563L81.1228 204.561C81.125 204.561 81.1272 204.561 81.1291 204.561C82.1768 203.985 83.6041 204.395 84.5031 205.235C84.5296 205.26 84.5523 205.287 84.5759 205.314C85.7141 204.803 86.7768 204.113 87.7413 203.239C89.7151 201.45 91.3869 199.238 92.8443 197.02C95.5283 192.935 97.8081 188.392 101.434 185.029C104.379 182.297 108.032 180.596 111.863 179.528C111.847 179.416 111.89 179.297 111.967 179.218C112.164 179.016 112.304 178.946 112.559 179.068C112.579 179.078 112.591 179.092 112.599 179.107L112.973 178.468C113.177 178.121 113.387 177.772 113.459 177.68C113.894 177.133 114.342 176.589 114.797 176.057C115.567 175.156 116.445 174.267 117.462 173.642C119.688 172.274 122.029 173.048 124.318 173.796C125.701 174.248 127.079 174.714 128.459 175.173L128.602 175.219C129.631 175.55 130.836 175.839 131.296 176.93C131.478 177.362 131.507 177.809 131.422 178.244C141.199 175.758 152.058 176.9 161.599 179.819C161.966 179.931 162.331 180.232 162.408 180.628C163.502 186.234 163.989 191.983 163.494 197.685C163.067 202.607 161.977 207.43 159.922 211.936L159.805 212.19C157.873 216.366 154.812 221.514 150.138 222.823C147.315 223.613 144.193 223.147 141.314 223.002C138.517 222.862 135.657 222.841 132.885 222.401C130.417 222.009 128.255 220.903 126.729 218.896C125.413 217.165 124.721 215.072 124.153 212.991C123.893 213.073 123.635 213.161 123.381 213.261C122.309 213.68 121.4 214.355 120.579 215.151C118.844 216.831 117.499 218.871 115.684 220.474C114.041 221.925 112.169 223.054 110.161 223.921C106 225.719 101.536 226.438 97.1348 227.39L96.8278 227.457C93.5144 228.184 90.1324 229.077 87.2078 230.802C87.1506 231.31 86.9192 231.788 86.5484 232.101C87.0642 232.585 87.2827 233.352 86.8294 234.072C85.5632 236.081 83.3823 237.225 81.4244 238.51L81.297 238.594C79.3709 239.871 77.4281 241.122 75.4695 242.348C71.4877 244.841 67.4227 247.197 63.3002 249.449C56.6698 253.072 49.8969 256.488 43.0015 259.588C43.4154 261.624 43.2641 263.724 43.5752 265.773L43.6229 266.066C43.7558 266.827 43.5763 267.463 43.0523 267.96L42.9969 268.011L42.9978 268.004L42.9487 268.049L42.9323 268.063L42.9378 268.059C42.8773 268.114 42.815 268.165 42.7515 268.21L42.6706 268.262C42.1659 268.568 41.5162 268.565 40.9994 268.294L40.9404 268.262L40.8411 268.205C40.1584 267.812 39.6876 266.839 39.9708 266.066C40.6669 264.166 40.9299 262.139 41.5728 260.226L41.0628 260.454L40.3906 260.747C33.121 263.891 25.0459 266.538 17.1251 264.395C13.6253 263.448 10.3542 261.444 8.60313 258.179C6.87999 254.965 6.63644 251.234 6.54495 247.66C6.43206 243.248 6.66856 238.77 7.25031 234.396C7.64083 231.46 8.1131 228.469 8.84157 225.563C8.46687 225.233 8.19144 224.758 8.11869 224.171C7.77489 221.396 8.3766 218.511 8.74498 215.75C9.10483 213.055 9.5024 210.365 9.95204 207.683C10.8598 202.267 11.9146 196.863 13.1426 191.51C15.328 181.984 18.2139 172.627 21.6884 163.494L21.9927 162.699C25.2033 154.351 28.9207 146.181 34.097 138.847C36.5732 135.339 39.1908 132.158 42.6896 129.629C45.9675 127.26 49.6648 125.555 53.4804 124.251C57.3002 122.946 61.2262 122.072 65.2217 121.528C69.2794 120.976 73.5624 120.637 77.3476 118.973C76.8687 118.115 77.2797 116.956 78.0855 116.423C80.7975 114.632 83.3053 112.301 85.736 110.147ZM172.551 188.062C172.665 187.889 172.934 187.998 172.885 188.202C171.566 193.606 170.327 199.021 169.519 204.528C168.059 214.467 168.328 224.536 168.447 234.549L168.453 235.067C168.514 240.46 168.6 245.854 168.778 251.245C168.868 253.97 169.046 256.721 168.949 259.448C168.896 260.926 168.502 262.325 168.363 263.786C168.24 265.064 168.349 266.361 168.41 267.641C168.451 268.491 167.196 268.455 167.11 267.641L167.001 266.587C166.859 265.254 166.684 263.929 166.247 262.653C165.722 261.119 165.47 259.612 165.287 258.001C165.008 255.532 164.884 253.038 164.776 250.551L164.703 248.832C164.253 238.441 164.269 228.002 164.997 217.622L165.05 216.881C165.771 207.069 167.023 196.468 172.551 188.062ZM144.435 126.224C144.09 126.082 144.211 125.561 144.593 125.652L145.286 125.818C150.37 127.035 155.362 128.355 160.107 130.621C164.855 132.888 168.875 136.273 172.07 140.435C178.279 148.525 180.859 158.358 182.896 168.181C185.16 179.096 187.221 190.051 189.505 200.963L189.929 202.996C192.041 213.159 194.036 223.328 195.506 233.612L195.612 234.357C197.094 244.932 197.986 255.873 196.368 266.476C196.048 268.573 192.558 268.051 192.694 265.979C193.088 259.988 193.371 254.028 193.098 248.023C192.825 242.017 192.262 236.038 191.422 230.085C190.715 225.075 189.662 220.127 188.73 215.157L188.584 214.372C187.803 210.145 186.999 205.922 186.196 201.699L184.996 195.375C183.198 185.907 181.364 176.431 179.292 167.022L179.169 166.468C177.142 157.417 174.153 147.935 168.071 140.747C161.9 133.452 153.065 129.778 144.435 126.224ZM122.01 222.236C122.158 221.905 122.678 221.941 122.837 222.236C123.463 223.39 123.532 224.862 123.65 226.165L123.663 226.299C123.813 227.889 123.946 229.484 124.028 231.078C124.182 234.105 124.256 237.128 124.247 240.158C124.237 243.264 124.174 246.366 124.007 249.467L123.962 250.298C123.809 252.993 123.552 255.999 122.272 258.355C121.806 259.211 120.541 258.959 120.271 258.093C119.388 255.257 119.841 251.895 120.068 248.99L120.244 246.723C120.418 244.457 120.584 242.189 120.716 239.92C120.896 236.815 121.045 233.707 121.188 230.601C121.235 229.592 121.285 228.582 121.339 227.573L121.42 226.06C121.49 224.795 121.484 223.406 122.01 222.236ZM22.7027 226.255L23.0937 225.877C24.2939 224.703 25.8107 222.894 27.5851 223.006C28.2926 223.051 28.7435 223.638 28.5967 224.334C28.2834 225.822 26.7653 226.595 25.6726 227.503C24.4755 228.498 23.3473 229.562 22.2213 230.635C21.2223 231.587 20.2616 232.567 19.3239 233.576L18.9733 233.956C18.6372 234.323 16.2437 236.488 16.5025 237.05L16.5166 237.075C16.5886 237.182 16.4686 237.33 16.3492 237.293C15.3156 236.966 15.3801 236.08 15.7708 235.183C16.5217 233.458 17.8365 231.863 18.9847 230.39C20.1298 228.921 21.3692 227.552 22.7027 226.255ZM125.755 183.005C124.956 181.116 122.011 181.155 120.34 181.268C116.131 181.553 111.576 182.618 107.831 184.585C103.948 186.625 101.333 189.893 98.9923 193.507L98.8828 193.677C96.6017 197.223 94.4049 201.42 90.8331 203.858C89.0138 205.1 86.8895 206.234 84.6821 206.726C84.5306 206.992 84.2851 207.203 83.9632 207.28L83.8135 207.314C83.1849 207.453 82.2082 207.606 81.3646 207.514C81.3702 207.927 81.3658 208.337 81.3763 208.728C81.406 209.848 81.4186 210.973 81.4186 212.095C81.4191 214.444 81.2928 216.798 81.3909 219.147C81.4777 221.224 81.7712 223.395 82.7687 225.252C83.5004 226.615 84.4661 227.517 85.6318 228.377C88.4995 226.63 91.7421 225.564 95.0331 224.763C99.0132 223.795 103.088 223.148 106.978 221.835C108.85 221.203 110.65 220.375 112.28 219.251C114.011 218.058 115.333 216.443 116.693 214.864L116.906 214.618C118.294 213.026 119.808 211.503 121.77 210.64C123.459 209.896 125.686 209.764 127.163 208.614C127.935 208.012 128 207.138 128.081 206.244C127.135 206.379 126.134 206.162 125.191 206.052L124.703 205.994C123.811 205.889 122.94 205.772 122.062 205.545C121.899 205.503 121.899 205.257 122.062 205.215C123.1 204.947 124.128 204.833 125.191 204.709L125.441 204.678C126.403 204.551 127.414 204.361 128.358 204.573C128.527 203.928 128.772 203.313 129.115 202.697C129.596 201.832 130.508 200.85 130.631 199.839C130.668 199.537 130.597 199.182 130.455 198.915L130.406 198.824C130.346 198.716 130.275 198.608 130.171 198.541C130.16 198.554 130.136 198.57 130.083 198.586C129.357 198.815 128.723 198.46 128.387 197.912C126.959 198.089 125.401 198.029 124.063 198.088L122.709 198.154C121.263 198.22 119.751 198.249 118.392 197.957C118.202 197.916 118.145 197.6 118.335 197.519C120.005 196.805 122.032 196.577 123.821 196.302C124.82 196.149 125.826 196.032 126.828 195.897C127.495 195.807 128.203 195.658 128.895 195.622C130.628 193.465 129.694 190.061 127.282 189.132C126.403 189.518 125.613 189.294 124.654 189.211C123.695 189.129 122.735 189.073 121.773 189.078C119.845 189.086 117.802 189.593 115.893 189.375C115.583 189.339 115.294 188.926 115.603 188.674C117.064 187.481 119.158 187.093 121.013 186.838L121.398 186.787C122.02 186.706 122.776 186.587 123.56 186.516C123.738 186.17 124.056 185.908 124.534 185.843C124.676 185.824 124.819 185.812 124.962 185.8L124.959 185.786C126.125 185.73 126.075 183.761 125.755 183.005ZM45.9322 219.849C45.9116 219.881 45.8891 219.911 45.8651 219.94L45.8281 219.983L46.0198 219.905L45.9322 219.849ZM105.288 192.33L105.324 192.332C106.335 192.447 107.029 193.266 107.276 194.236C107.635 195.647 107.459 196.923 108.323 198.196C109.212 199.506 109.759 200.554 109.888 202.172C109.941 202.837 109.917 203.502 110.065 204.153L110.172 204.61C110.286 205.096 110.38 205.565 110.323 206.088C110.271 206.565 110.039 206.936 109.561 207.089C108.003 207.587 106.8 206.439 106.397 204.987C106.05 203.733 106.514 202.239 106.024 201.061C105.752 200.408 105.251 199.862 104.967 199.205C104.687 198.554 104.546 197.873 104.501 197.165C104.415 195.826 105.6 194.217 104.939 193.003C104.798 192.745 104.958 192.322 105.288 192.33ZM84.5943 178.51C85.6493 178.295 86.8461 177.804 87.8865 178.212C88.4213 178.423 88.6855 179.075 88.2337 179.528C87.4492 180.314 86.3091 180.358 85.2525 180.544L85.1595 180.56C83.9101 180.791 82.6585 181.011 81.4052 181.219C79.0472 181.609 76.6837 181.954 74.3119 182.248C71.8759 182.549 69.433 182.818 66.9868 183.02L66.0398 183.097C63.9734 183.262 61.8232 183.387 59.7957 183.071C59.5011 183.025 59.5485 182.596 59.7957 182.52C62.0169 181.848 64.4534 181.668 66.7498 181.383C69.1912 181.081 71.6284 180.761 74.0594 180.381C76.4864 180.002 78.9103 179.595 81.3251 179.145C82.4166 178.943 83.5064 178.731 84.5943 178.51ZM122.661 176.351C121.736 176.023 120.717 175.538 119.714 175.7C117.984 175.98 116.444 177.666 115.075 178.776L115.763 178.642C119.281 177.966 123.94 177.238 126.893 179.474C126.9 179.462 126.906 179.449 126.915 179.436C127.153 179.074 127.429 178.791 127.731 178.481C127.76 178.454 127.787 178.426 127.815 178.398L127.977 178.225L127.605 178.096C126.809 177.814 125.865 177.45 125.716 177.397L125.705 177.394C124.689 177.05 123.672 176.709 122.661 176.351ZM93.7556 102.608C93.6109 100.746 96.509 100.762 96.6525 102.608C96.9656 106.64 96.0583 110.634 94.1055 114.168C94.0912 114.194 94.0754 114.217 94.0603 114.241C95.2817 114.877 96.517 115.487 97.7798 116.032C99.3951 116.729 101.041 117.364 102.716 117.903C104.231 118.39 106.098 118.583 107.372 119.597C110.059 121.737 109.049 126.176 108.533 129.054L108.452 129.508C108.195 130.989 108.009 132.508 108.633 133.929C109.3 135.447 110.648 136.573 111.85 137.66L112.093 137.88C113.159 138.851 114.376 140.03 115.158 141.346C115.871 139.871 116.844 138.665 117.872 137.309C118.606 136.34 118.083 136.021 117.556 135.075C117.049 134.164 116.801 133.194 116.96 132.155C117.253 130.237 118.786 128.851 120.312 127.81C122.114 126.581 124.126 125.67 125.989 124.527C129.817 122.178 133.545 119.492 136.904 116.51C136.997 116.427 137.157 116.535 137.083 116.648C134.43 120.684 131.319 124.171 127.495 127.131C125.944 128.332 124.316 129.327 122.676 130.374L122.205 130.676C121.546 131.103 120.725 131.673 120.428 132.399C120.128 133.129 120.767 133.68 121.111 134.285C122.202 136.206 121.676 137.998 120.381 139.627L120.321 139.702C119.035 141.287 118.06 142.761 117.594 144.786C116.592 149.136 117.988 153.667 119.448 157.75L119.506 157.911C120.296 160.112 121.135 162.297 121.822 164.534L122.011 165.152C122.633 167.209 123.142 169.239 122.444 171.354C122.207 172.074 121.226 172.244 120.818 171.567C119.38 169.179 119.022 166.305 118.121 163.68C117.242 161.121 116.234 158.609 115.386 156.039C114.293 152.732 113.562 149.171 113.959 145.701C113.947 145.681 113.934 145.662 113.924 145.641L113.646 145.032C112.888 143.385 112.156 141.947 110.776 140.634C109.338 139.264 107.777 138.052 106.645 136.394C104.186 132.792 105.707 128.786 106.004 124.848L106.038 124.365C106.092 123.548 106.121 122.437 105.587 121.871C104.986 121.234 103.578 121.071 102.781 120.789C100.721 120.06 98.6907 119.211 96.7574 118.191C94.917 117.22 93.1342 116.148 91.4744 114.891L90.633 114.258C89.3056 113.257 87.9292 112.163 87.0395 110.8C86.9368 110.643 87.1113 110.389 87.2972 110.464C88.7824 111.067 90.1393 112.026 91.5289 112.86C91.5505 112.809 91.5756 112.758 91.604 112.706C93.3233 109.595 94.0303 106.147 93.7556 102.608ZM141.197 123.926C141.789 122.304 144.486 122.429 144.378 124.357C144.296 125.838 143.667 127.175 143.092 128.52L143.031 128.664C142.437 130.066 141.751 131.381 140.931 132.665C139.363 135.12 137.527 137.399 135.566 139.549C133.787 141.498 131.454 142.69 128.764 142.492C127.631 142.409 126.487 142.121 125.494 141.555C124.315 140.882 123.034 138.863 121.53 139.352C121.384 139.399 121.248 139.186 121.374 139.085C123.111 137.686 125.083 139.855 126.746 140.378C129.252 141.165 131.823 140.295 133.436 138.269C135.12 136.154 136.67 133.785 138.085 131.482C138.804 130.313 139.46 129.099 140.026 127.848C140.598 126.586 140.728 125.214 141.197 123.926ZM137.158 113.94C137.085 113.716 137.363 113.503 137.56 113.631C138.702 114.374 139.691 115.356 140.743 116.216C141.912 117.171 143.088 118.107 144.283 119.028C146.025 120.37 144.005 122.842 142.471 121.376C140.373 119.369 138.075 116.745 137.158 113.94ZM146.101 179.784C141.194 179.256 136.279 179.368 131.357 179.509C130.963 180.797 129.593 181.894 128.265 181.935C129.305 183.518 129.412 185.66 128.683 187.339C130.231 187.955 131.565 189.062 132.375 190.639C133.498 192.825 133.351 195.257 132.241 197.277C133.188 198.134 133.747 199.527 133.691 200.839C133.629 202.303 132.756 203.553 132.032 204.765C131.248 206.075 131.222 207.229 130.981 208.697C130.629 210.845 129.181 212.148 127.317 212.961L127.416 213.351C127.896 215.222 128.494 217.195 129.868 218.563C131.635 220.323 134.376 220.307 136.71 220.418L136.823 220.424C138.961 220.531 141.097 220.656 143.234 220.777L144.837 220.866C147.297 221.002 149.66 221.018 151.669 219.392C154.948 216.736 157.196 212.342 158.619 208.453C161.605 200.288 161.641 191.328 160.27 182.824C155.672 181.343 150.902 180.299 146.101 179.784ZM130.891 106.086C131.355 104.298 134.098 105.035 133.698 106.803L133.685 106.856C132.928 109.775 134.006 112.747 136.308 114.639L136.392 114.708C137.848 115.873 135.785 117.91 134.344 116.756C131.197 114.238 129.887 109.959 130.891 106.086Z"
        fill="#122433"
      />
    </g>
    <g id="lenes haare">
      <path
        id="&#240;&#159;&#142;&#168; Background_2"
        fill-rule="evenodd"
        clip-rule="evenodd"
        d="M99.5012 8.20649C142.33 6.36668 145.322 17.2404 151.203 24.1727C154.122 27.613 161.657 32.708 162.908 44.4734C163.775 52.6405 158.251 62.0539 158.251 69.3518C158.251 73.077 163.473 81.0744 161.042 86.5038C155.632 98.5884 144.176 112 129.578 112C114.981 112 88.0343 104.972 71.9044 84.7983C66.6211 78.1904 56.6719 10.0463 99.5012 8.20649Z"
        fill="#FFFDF5"
      />
      <path
        id="&#240;&#159;&#150;&#141; Ink_2"
        fill-rule="evenodd"
        clip-rule="evenodd"
        d="M83.1243 8.68437C85.3371 7.3225 100.363 -0.242005 110.678 0.0060321C116.02 0.134731 122.004 -0.266042 127.049 1.47724C129.573 2.35239 140.525 3.47701 142.862 4.76868C143.704 5.23307 135.973 5.79451 136.72 6.3724L136.906 6.51755H136.909C138.913 7.23826 138.821 7.1704 140.445 8.68437C143.698 8.42463 148.859 10.079 152.005 11.0828C156.384 12.4822 161.411 14.8226 164.258 18.4613C167.574 22.6974 173.581 35.1842 173.188 40.4885L167.236 34.263C168.425 45.2511 166.15 44.9757 162.306 48.0545C162.014 48.2885 161.691 48.4663 161.356 48.574C163.834 52.8187 165.866 57.5314 167.083 62.2909C171.726 80.4702 168.156 99.4287 162.573 116.95C162.114 118.394 159.932 119.354 158.821 117.943C156.837 115.42 153.956 113.497 150.714 113.136C148.714 112.914 146.723 113.316 144.833 112.409C144.092 112.05 143.376 111.466 142.862 110.754C139.671 111.964 136.235 112.535 132.827 112.394C127.234 112.165 121.256 110.228 117.408 105.978C116.79 105.296 116.634 104.53 116.776 103.84C117.259 103.668 117.754 103.54 118.264 103.459C123.144 106.336 128.522 108.258 134.302 108.379C137.642 108.449 140.9 107.982 143.608 105.895C144.194 105.444 144.733 104.944 145.231 104.406C150.894 100.762 154.886 94.5734 156.784 87.9441C158.552 81.7618 158.334 75.3246 157.726 68.9832L157.405 65.6369C156.938 60.7255 156.504 55.7994 156.382 50.8671L156.419 50.8653C157.615 50.788 157.623 48.9154 156.419 48.9933C153.304 49.195 154.413 50.6425 151.307 50.8653C154.915 50.8528 146.974 45.9754 146.543 44.5588C146.296 43.7494 144.888 43.5898 144.738 44.5588C144.539 45.8551 144.466 47.1442 144.444 48.4464C134.354 38.6656 141.369 48.8325 136.72 48.9933C135.863 48.0783 129.373 45.6169 128.972 44.4884C128.914 44.3222 128.855 44.1584 128.794 43.9923C128.442 45.605 127.942 47.1824 127.285 48.7265L120.873 50.8653C114.404 50.8956 119.48 42.6278 113.163 43.9717C112.724 43.6345 103.577 55.7406 105.989 48.8384C108.401 41.9361 104.876 41.9784 103.718 38.6656L103.552 38.1983C103.538 38.1595 103.524 38.1183 103.509 38.0749C102.655 39.4539 101.636 40.7392 100.525 41.9361C99.8698 42.6416 99.1831 43.3163 98.4783 43.9717C97.7937 44.7322 97.0861 45.4812 96.4003 46.244C96.4272 46.3828 96.4506 46.5237 96.4695 46.6671C96.6794 48.2501 96.7011 49.8556 96.5474 51.4446C96.2696 54.3174 95.4588 57.0856 94.1564 59.6465L94.1152 59.9029C93.9175 61.103 93.6361 62.3433 92.979 63.247C93.799 64.1662 94.4308 65.2641 94.7971 66.4839C95.1232 67.5699 93.6213 68.511 92.8424 67.6223C92.2237 66.9163 91.5362 66.332 90.7812 65.8659C90.7335 65.9307 90.6474 65.9625 90.5508 65.9085C88.448 64.7409 84.8762 65.0942 82.7757 66.194C80.163 67.5605 79.1432 70.3662 79.4332 73.2092C79.7116 75.9259 80.8998 79.1013 83.2038 80.4936C84.261 81.1324 85.0844 81.1862 86.2071 80.8797C86.5661 80.7821 87.0112 80.483 87.2022 80.3344L87.3902 80.1836C88.1263 79.6016 88.8118 79.2031 89.6807 79.1879C90.5693 78.9106 91.4624 79.2952 91.8023 80.2274L91.8232 80.2877C91.9823 80.7627 92.2723 81.3594 92.2092 82.0848C92.1437 82.8616 91.7881 83.5683 91.2572 84.1369C91.166 84.2352 91.0677 84.3335 90.9671 84.4247C100.113 94.3298 101.287 109.764 96.5973 122.138C96.3938 122.681 96.1762 123.217 95.9493 123.748C95.1658 125.569 92.1484 125.005 91.7648 123.2C91.6501 122.66 91.5238 122.122 91.3858 121.588C91.1322 120.602 90.8415 119.626 90.514 118.663L90.3894 118.303C90.111 117.507 89.8514 116.705 89.5707 115.909L89.5426 115.818C89.5321 115.782 89.5204 115.741 89.5076 115.694L89.0327 116.73L87.5895 119.859C86.9142 121.319 84.7685 120.525 84.6887 119.119L84.6868 119.07C84.6797 118.811 84.6704 118.553 84.654 118.298C84.5511 116.386 84.2213 114.529 83.6973 112.71L83.5083 112.945C80.6935 116.427 77.39 119.69 72.8581 120.493C71.7213 120.694 70.4349 119.506 71.2161 118.357C71.5389 117.882 71.85 117.395 72.1447 116.901C71.8898 116.782 71.6488 116.658 71.4266 116.532C69.7074 115.565 68.2759 114.189 67.0923 112.628C64.5825 109.32 63.6843 105.155 63.4645 101.078C63.2306 96.7704 63.6095 92.2286 64.786 88.0728C65.2959 86.2757 65.986 84.5511 66.7836 82.878C66.7274 82.7282 66.6736 82.5785 66.6198 82.4287C65.7591 80.0279 65.0527 77.5733 64.4656 75.0906C63.282 70.0783 62.6458 64.907 62.5686 59.7567C62.4283 50.5302 61.1137 40.758 64.4656 32.1539C67.9274 23.2807 80.9115 10.0462 83.1243 8.68437ZM83.6 84.0126C82.9644 83.0113 81.3738 83.9136 81.9641 84.9219L81.9861 84.9579C82.9942 86.5468 83.4667 88.3532 84.0468 90.1246C84.4187 91.2642 86.2268 90.7775 85.8502 89.6262L85.7255 89.2418C85.1483 87.4455 84.6217 85.62 83.6 84.0126ZM85.136 70.8998L85.5583 70.6954C86.8905 70.0594 88.0577 69.6262 89.6317 70.1814C91.7392 70.9232 93.9964 73.2843 92.5719 75.5751C92.0479 76.4198 91.117 76.7568 90.158 76.5579C88.5412 76.2225 88.124 74.766 87.3036 73.5704L87.1624 73.3679C86.6622 72.6445 86.0296 71.6444 85.1968 71.3608C85.0074 71.2953 84.9278 71.0004 85.136 70.8998ZM86.3245 22.2614L86.4605 22.1394C87.3657 21.3392 86.0371 20.0194 85.1366 20.815C81.0152 24.4584 79.5837 30.1609 77.4458 35.021C76.9662 36.1138 78.5779 37.0685 79.062 35.9664C81.1014 31.3286 82.455 25.7809 86.3245 22.2614ZM135.852 20.6676C134.775 20.1821 133.833 21.7499 134.868 22.2661L134.907 22.2845C138.547 23.9295 140.095 27.6548 141.578 31.1133C142.05 32.2177 143.662 31.2654 143.194 30.1703L142.927 29.5497C141.379 25.9856 139.574 22.3527 135.852 20.6676ZM141.556 18.4165C140.415 18.0211 139.926 19.8275 141.058 20.223C144.143 21.297 146.26 23.6136 148.045 26.2625C148.714 27.2546 150.335 26.3186 149.659 25.3171C147.586 22.2424 145.126 19.6614 141.556 18.4165Z"
        fill="#404040"
      />
      <path
        id="Vector 1"
        d="M62.4491 72.4603C50.5425 76.6276 54.1145 70.6743 64.8304 61.149L81.4997 68.293C79.1184 68.293 71.9744 69.1264 62.4491 72.4603Z"
        fill="#404040"
      />
    </g>
    <path
      id="lenes gesicht"
      fill-rule="evenodd"
      clip-rule="evenodd"
      d="M139.561 75.7221C141.077 76.6122 143.213 79.8654 141.582 82.0721C139.662 84.0178 138.55 81.0952 136.529 81.5836C134.508 82.0721 134.347 82.1359 135.519 83.049C145.364 90.0873 147.272 75.536 139.561 74.2567C138.712 74.1157 139.164 75.4467 139.561 75.7221ZM116.686 65.857C116.884 63.4093 120.616 62.8535 120.987 65.2756C121.319 67.4452 120.928 69.4384 119.95 71.3918C119.015 73.258 116.665 72.3873 116.487 70.688C116.249 68.4101 116.563 67.3796 116.686 65.857ZM145.096 64.7733C145.617 64.0927 146.368 63.628 147.268 63.8906C150.08 64.7114 149.251 68.6993 148.264 70.6404C147.727 71.6945 145.992 71.9619 145.208 71.0337C143.931 69.5201 143.319 66.4975 144.943 65.0066C144.987 64.9296 145.036 64.8518 145.096 64.7733Z"
      fill="#404040"
    />
    <g id="face/Loving Grin 1">
      <g id="blog-smile">
        <path
          id="blog-smile_2"
          fill-rule="evenodd"
          clip-rule="evenodd"
          d="M134.122 98.6575C132.532 98.0093 131.112 96.9282 130.075 95.5471C129.714 95.0669 129.621 94.5599 129.696 94.0962C129.781 93.5748 130.09 93.1022 130.511 92.7852C130.934 92.4672 131.462 92.3104 131.973 92.3904C132.417 92.4598 132.859 92.7026 133.209 93.2062L133.282 93.3069C133.899 94.1405 134.703 94.8244 135.619 95.2653C136.502 95.6902 137.489 95.8885 138.511 95.7732C140.457 95.5536 141.798 94.5024 143.223 93.075C143.4 92.8948 143.577 92.7089 143.755 92.52C143.867 92.3488 144.023 92.2388 144.195 92.1811C144.387 92.117 144.605 92.1206 144.803 92.1899C144.995 92.2568 145.167 92.3835 145.282 92.5521C145.391 92.7124 145.453 92.9104 145.433 93.1382C145.302 94.6175 144.528 95.9378 143.428 96.9744C142.207 98.1258 140.587 98.9223 139.063 99.2017C137.383 99.5094 135.672 99.2889 134.122 98.6575Z"
          fill="#404040"
        />
      </g>
      <g id="blog-grin">
        <path
          id="&#240;&#159;&#150;&#141; Ink_3"
          fill-rule="evenodd"
          clip-rule="evenodd"
          d="M123 92.1353C123.018 90.1553 124.685 89.8138 126.269 90.0778C128.95 90.5242 131.64 90.8384 134.357 90.895L134.825 90.9034V90.9034C134.901 90.7902 135.027 90.7043 135.198 90.6854C136.704 90.5179 138.243 90.5451 139.757 90.4991C141.078 90.4592 142.436 90.3231 143.757 90.4299L143.862 90.4394C145.476 90.6003 147.18 91.4484 146.985 93.3987C146.805 95.2045 145.128 96.8032 143.789 97.8067C143.518 98.0078 143.242 98.1963 142.957 98.3681C142.867 98.4855 142.737 98.5672 142.586 98.5839C141.267 99.3172 139.812 99.751 138.306 99.8955C135.112 100.201 131.4 99.8703 128.333 98.4458C127.336 97.9826 126.405 97.4043 125.583 96.6941C124.315 95.5985 122.986 93.9371 123 92.1353ZM135.172 96.0055C133.887 95.964 132.604 96.1566 131.38 96.5813C130.551 96.868 129.795 97.4194 129 97.8025C131.678 98.8969 134.79 99.1355 137.537 98.9363C138.743 98.8488 139.911 98.5511 141 98.0389C140.83 97.9077 140.659 97.7742 140.479 97.658C139.936 97.3056 139.368 97.0058 138.775 96.7672C137.621 96.3033 136.403 96.0472 135.172 96.0055Z"
          fill="#404040"
        />
      </g>
      <g id="blog-brauen">
        <path
          id="Path"
          fill-rule="evenodd"
          clip-rule="evenodd"
          d="M122.291 55.1466L122.736 55.0689C124.11 54.8315 125.819 54.6034 126.791 55.7069C127.306 56.2921 127.484 57.3798 126.791 57.94C125.572 58.9255 124.224 58.5436 122.763 58.627C121.559 58.696 120.402 58.895 119.242 59.2262C116.698 59.9525 114.625 61.2784 112.452 62.7343C112.167 62.9252 111.876 62.561 112.012 62.2947C113.266 59.8407 115.697 57.8249 118.132 56.5961C119.432 55.9402 120.854 55.3961 122.291 55.1466Z"
          fill="#404040"
        />
        <path
          id="Path_2"
          fill-rule="evenodd"
          clip-rule="evenodd"
          d="M144.914 54.0474L145.254 54.1169C148.954 54.8894 153.762 56.4326 155.514 60.0628C155.581 60.5761 155.51 60.6861 155.453 60.758L155.433 60.7819C155.386 60.8433 155.349 60.9279 155.126 60.9977C155.064 60.983 155.002 60.9675 154.938 60.9509C154.135 60.7407 153.5 60.4511 152.885 60.1505L152.218 59.8223C151.444 59.4433 150.663 59.0781 149.836 58.8085C148.07 58.2332 146.254 57.828 144.409 57.6116C144.009 57.5647 143.625 57.43 143.321 57.199C143.033 56.9798 142.812 56.6763 142.712 56.2729C142.582 55.7507 142.619 55.3555 142.9 54.8844C143.111 54.5307 143.412 54.2855 143.759 54.1448C144.112 54.0012 144.514 53.9674 144.914 54.0474Z"
          fill="#404040"
        />
      </g>
    </g>
  </g>
</svg>
