<svg
  aria-hidden="true"
  class="avatar avatar-ball"
  viewBox="0 0 285 399"
  fill="none"
  xmlns="http://www.w3.org/2000/svg"
>
  <g id="lene">
    <g id="lene-ball">
      <path
        id="ball"
        fill-rule="evenodd"
        clip-rule="evenodd"
        d="M181.5 388.357C135.937 388.357 99 351.421 99 305.857C99 260.294 135.937 223.357 181.5 223.357C227.063 223.357 264 260.294 264 305.857C264 351.421 227.063 388.357 181.5 388.357Z"
        fill="none"
        stroke="var(--color-dark)"
        stroke-width="4"
      />
    </g>
    <g id="lene-ball-cuerpo">
      <g id="BODY">
        <path
          id="Background"
          fill-rule="evenodd"
          clip-rule="evenodd"
          d="M3.88434 209.394C5.16324 209.026 6.76102 208.932 8.16017 208.865C13.1055 208.574 18.148 210.932 22.9969 211.995C25.1196 212.52 27.3671 213.138 29.6385 213.598C31.655 213.872 33.7397 214.077 35.8357 214.208C37.5299 214.259 39.5012 214.129 40.0797 215.91C43.485 216.571 46.4994 216.845 49.7455 216.284C49.4415 215.25 49.2683 214.168 49.5827 213.054C49.424 212.79 49.2081 212.433 49.0926 212.192H49.4828C55.1805 209.911 61.3417 208.353 67.0693 205.989C74.545 203.295 85.5551 198.088 94.193 194.532C93.6074 191.325 93.3905 188.066 93.6387 184.897L93.2916 184.617C93.1776 183.994 93.0004 183.249 92.6793 182.685C92.2718 181.603 92.2623 180.127 92.1005 178.905C91.7631 176.514 91.5378 172.915 92.1519 170.076C92.4201 166.227 95.0144 163.259 97.8116 160.879C101.246 157.482 104.685 154.167 108.038 150.638C126.595 131.717 128.062 107.886 157.111 100.643L157.126 100.53C157.355 100.275 157.448 100.072 157.709 100.476C158.668 100.108 159.864 100.139 160.667 99.5174C162.093 98.2164 163.105 96.7146 163.766 94.9322C164.276 91.563 163.915 86.3703 166.867 84.2146C170.144 82.2507 187.56 80.8525 189.062 85.1462C189.994 86.0215 190.417 87.1335 190.709 88.4951C191.679 90.3309 192.291 92.3666 193.269 94.2306C195.347 98.4114 196.694 97.4849 200.363 98.4403C200.761 97.5525 201.97 97.7314 202.851 97.8604C213.521 99.3602 226.53 103.453 231.099 113.484L230.71 113.435C238.595 128.253 233.481 147.099 232.071 162.802C230.93 176.761 232.235 190.787 235.335 203.807C239.141 217.62 239.359 233.071 231.809 245.574C231.041 247.005 230.107 249.028 228.454 248.13C227.548 248.815 226.53 249.288 225.124 249.7C224.736 249.982 224.335 250.454 223.929 250.656C223.91 250.683 223.257 250.306 223.223 250.296C221.988 252.059 154.21 257.947 147.177 258.861C140.98 259.608 132.792 261.517 127.742 257.046C123.568 255.853 119.202 252.748 115.866 249.665C113.843 279.022 112.723 339.143 110.918 339.562C110.127 339.83 109.061 340.151 108.166 340.407C108.161 342.516 108.004 344.913 108.17 346.986C108.447 349.328 109.149 352.093 109.467 354.555C110.833 354.463 111.235 355.834 111.394 356.765C112.573 364.456 112.539 370.656 112.454 379.11C98.587 387.28 82.335 391.772 66.7317 397.052C65.2372 398.176 61.9987 396.961 60.273 396.657C54.2819 395.477 47.4743 391.987 48.9866 385.588C50.0938 380.77 54.7429 377.998 58.6564 375.163C62.9379 372.061 67.4515 368.961 71.3891 365.267C74.548 362.29 76.9071 359.981 79.5415 356.622C80.71 355.06 81.9561 352.493 83.5279 351.342C81.8673 349.372 85.2226 351.218 86.4928 351.332C87.2401 347.814 88.1654 344.436 89.2748 341.061L88.1963 341.11C84.6554 337.803 82.6703 321.924 82.4238 317.213C80.6488 286.504 80.691 251.109 87.8113 225.247C82.4028 228.578 76.4719 231.361 71.0932 234.655C67.7015 236.643 64.2602 239.402 60.4583 240.366C60.2107 241.077 59.3042 241.354 58.8095 240.657C58.129 240.741 57.2522 240.458 57.1773 240.148C56.4814 238.725 55.4729 237.191 55.5942 235.644C55.5944 235.644 56.5281 233.477 56.5281 233.477C54.4361 234.328 52.1616 236.118 49.9284 236.282C45.4178 251.347 36.5306 242.908 27.9787 237.044C22.8177 233.437 17.1721 229.454 11.7406 225.608C7.13237 221.942 -1.86435 218.462 2.54594 211.2"
          fill="var(--color-light)"
        />
        <path
          id="ink-ball"
          fill-rule="evenodd"
          clip-rule="evenodd"
          d="M197.742 97.5201C193.386 96.4612 192.641 86.0142 190.011 87.5019C188.491 88.8248 190.978 91.3204 191.418 92.8135L191.611 93.1927C192.503 94.9317 193.513 96.6649 195.272 97.6675C196.402 98.8582 199.781 97.6892 199.284 99.5855C197.549 105.301 188.341 109.258 182.914 111.038C174.478 114.207 160.832 113.135 158.85 102.51C163.477 101.662 166.898 93.3107 164.047 89.8336C163.949 93.2112 163.027 96.697 160.377 98.9853L160.23 99.1196C159.764 99.5454 159.16 100.054 158.558 99.959C157.971 99.1412 156.832 99.6064 156.496 100.47C130.152 105.025 124.284 133.449 107.693 150.179C104.379 153.669 100.915 157.011 97.4953 160.396C94.0028 163.168 91.5312 167.032 91.359 171.57C91.0468 174.094 91.2015 176.62 91.5354 179.148L91.5586 179.376C91.7133 180.943 91.8052 182.625 92.5506 184.016C92.6792 184.487 92.6272 185.083 93.0348 185.416C92.8567 188.3 93.0262 191.236 93.5139 194.111L92.2428 194.679C78.2563 200.91 64.1084 206.784 49.5246 211.455C48.2782 211.229 48.3799 212.678 48.9833 213.337C48.8242 214.113 48.8069 214.919 48.9936 215.685C46.3231 216.069 43.6105 215.75 40.9743 215.263C40.1404 213.426 37.9247 213.524 36.2115 213.472C34.0832 213.339 31.9586 213.131 29.8456 212.836C24.6394 211.672 19.5269 210.141 14.3708 208.796C10.9205 207.825 7.19965 207.871 3.7384 208.765C3.15039 209.424 2.60738 210.128 2.14908 210.876C-1.01488 215.783 2.10271 220.28 6.51929 222.858C13.605 227.882 20.6927 232.9 27.8101 237.878L28.3271 238.247C36.7951 244.31 46.3216 251.985 50.8441 237.228C52.3641 237.05 53.6961 236.029 55.1123 235.427C54.7313 237.198 55.8689 238.987 56.6532 240.505C56.9909 241.37 57.9141 241.655 58.7665 241.647C59.4963 242.363 60.866 242.081 61.3433 241.232C65.2145 240.123 68.4127 237.535 71.8392 235.524C76.7111 232.564 81.8218 230.041 86.764 227.206C78.5539 261.209 80.562 296.628 82.7467 331.241L82.7622 331.553C83.033 336.606 84.1914 338.997 88.3813 342.095C87.6515 344.322 86.9985 346.558 86.5006 348.849C86.3247 349.381 85.5155 348.88 85.5089 349.61C84.0204 349.262 80.9952 349.635 82.0506 351.694C79.062 354.203 77.0386 357.602 74.4189 360.462C69.805 365.994 63.7738 370.112 57.8603 374.169C44.2661 381.098 43.487 393.106 59.3922 397.208L59.5517 397.245C61.7419 397.773 64.3797 398.978 66.5031 397.963C69.6793 397.352 72.8315 396.113 75.9391 395.17C88.4519 391.028 100.69 386.178 112.548 380.604C112.978 380.402 113.222 379.939 113.233 379.476C113.101 375.651 114.139 354.694 110.174 354.242C109.289 349.961 109.15 345.541 109.311 341.171C110.597 340.766 111.897 340.376 113.229 340.123C114.523 339.716 116.545 339.624 117.411 338.576C117.722 338.464 117.95 338.185 117.904 337.746C117.203 331.178 116.672 324.594 116.285 318C114.958 295.889 115.409 273.708 116.92 251.621C120.033 254.314 123.581 256.672 127.531 257.927C129.712 260.112 133.207 260.581 136.184 260.845C140.011 261.082 143.771 260.318 147.548 259.842C153.961 259.034 160.33 259.749 166.697 260.541L168.873 260.813C184.461 262.523 201.307 262.877 215.835 256.212C218.571 256.455 221.966 253.498 223.673 251.522C224.426 251.987 225.167 251.078 225.767 250.6C226.758 250.299 227.882 249.866 228.781 249.235C231.063 249.982 232.294 247.019 233.16 245.408C246.915 221.847 231.597 198.394 232.749 173.409C232.051 153.821 240.983 133.414 232.351 114.627C230.604 106.677 220.391 101.183 212.703 99.162C210.225 98.7528 200.846 95.3608 199.814 98.2132C199.325 97.5712 198.49 97.5231 197.742 97.5201ZM83.6486 352.612C84.9375 352.75 86.1945 352.83 87.4684 353.063C92.1187 353.827 96.5545 355.628 100.551 358.13C101.845 358.937 103 359.954 104.485 360.404C107.537 361.513 110.537 358.76 110.313 355.784C111.164 363.263 111.018 370.958 110.576 378.474C98.6387 383.876 86.4339 388.692 74.0072 392.876C71.2088 394.049 67.8953 394.425 65.3254 396.011C60.943 395.735 56.5317 394.196 52.8509 391.789C46.7453 387.551 50.7986 380.83 55.86 377.873C67.0018 372.843 76.4857 362.665 83.6486 352.612ZM108.06 341.553C108.293 343.77 106.609 347.223 106.847 351.641C107.029 353.021 107.46 354.466 107.31 355.851C106.625 360.989 101.063 354.46 98.7647 353.744C95.5022 351.949 91.9566 350.727 88.3128 350.059C88.335 348.874 89.1192 348.401 89.2222 347.23C89.37 345.505 89.3626 343.848 89.4404 342.107C94.1796 344.262 103.033 342.738 108.06 341.553ZM82.5249 352.277C82.6075 352.332 82.6947 352.379 82.7842 352.421C82.1256 353.219 81.555 354.104 80.7738 354.79L81.1064 354.274C81.5513 353.584 82.0064 352.898 82.5249 352.277ZM229.717 168.458C229.956 169.429 230.391 170.342 231.042 171.118C227.678 198.405 244.988 221.152 229.073 246.522C228.872 246.616 228.688 246.733 228.511 246.879C228.418 246.816 228.324 246.751 228.232 246.685C220.773 233.482 210.155 222.092 201.694 209.457C200.07 206.286 197.397 203.094 196.373 199.429C213.376 192.714 220.167 182.915 229.717 168.458ZM5.96231 209.847C6.68323 210.105 7.48538 209.892 8.25471 209.878C10.9861 209.82 13.6553 210.533 16.2678 211.253C23.8659 213.332 31.5041 215.172 39.2886 216.403C39.446 216.566 39.5964 216.732 39.7329 216.907C39.5981 217.136 39.5773 217.421 39.7731 217.705C40.9474 219.949 39.9982 222.697 40.8513 225.099C42.0874 229.961 45.3754 235.446 50.2822 237.172C48.6455 238.732 47.473 240.739 45.7872 242.244C41.6443 245.085 37.0816 240.851 33.6994 238.581C27.2599 234.031 20.8035 229.512 14.3294 225.012C11.429 222.607 5.01285 219.577 3.62495 216.391C2.73582 213.949 4.35416 211.569 5.96231 209.847ZM50.3409 216.047C53.1127 221.701 54.7129 227.713 56.3135 233.784C54.6487 234.242 53.1151 234.96 51.4786 235.443C49.1736 235.961 45.9194 231.506 44.7637 229.737C43.5724 227.759 42.7382 225.586 42.3513 223.309C42.0247 221.079 42.3726 218.763 41.4029 216.697C44.4056 217.004 47.4518 217.068 50.3409 216.047ZM215.127 204.38C212.524 203.65 218.445 209.541 218.786 210.169C222.636 214.716 226.164 219.519 229.664 224.336L230.725 225.799C230.827 225.947 231.53 226.986 231.022 226.854C230.975 226.841 230.954 226.902 230.991 226.928C234.228 227.501 216.688 204.78 215.127 204.38ZM151.67 201.599C151.46 200.965 152.459 200.694 152.67 201.325L153.333 203.323C155.837 210.876 158.326 218.438 161.319 225.814C161.569 226.433 160.568 226.702 160.319 226.091C157.064 218.064 154.404 209.816 151.67 201.599ZM122.564 198.955C123.477 203.288 125.783 207.194 127.181 211.336C124.555 210.757 122.532 208.309 121.002 206.204L120.956 206.134C120.234 205.022 119.394 203.285 117.755 204.07C115.265 205.516 117.049 210.646 117.095 213.078C117.411 216.411 118.494 219.529 119.232 222.767C117.335 221.47 116.789 218.912 115.864 216.918L112.305 208.376C109.688 204.79 110.903 215.53 111.038 216.544C111.251 218.77 112.189 221.01 111.821 223.252C110.345 221.664 109.416 219.667 108.635 217.642C107.551 214.825 106.562 211.972 105.531 209.136C105.175 208.228 103.823 208.546 104.019 209.547C104.086 212.765 104.138 215.983 104.19 219.202L104.228 221.615C104.235 222.073 104.461 223.409 103.671 223.04C99.5216 218.683 98.4577 209.971 98.9975 204.118C107.155 204.315 115.477 203.257 122.564 198.955ZM49.9757 215.209C50.0092 215.315 50.0477 215.422 50.0862 215.528C50.0628 215.533 50.0377 215.538 50.0142 215.544C49.9991 215.431 49.9857 215.32 49.9757 215.209ZM231.015 215.209C231.919 214.54 216.711 195.007 217.696 200.646C221.939 205.668 226.887 210.068 231.015 215.209ZM96.7052 172.046C110.928 168.704 123.453 181.19 137.736 179.303C137.571 183.775 137.341 188.277 137.431 192.751C118.463 194.316 120.622 202.392 98.7867 201.579C95.965 199.688 94.8062 188.102 95.0445 184.605C94.8622 180.469 98.4197 178.613 101.963 177.887C103.244 178.661 105.541 176.353 103.64 175.542C101.137 174.788 98.7957 173.604 96.7052 172.046ZM201.631 98.7516C206.691 99.2505 211.703 100.63 216.353 102.762C233.544 107.726 236.023 127.857 233.955 143.112C233.099 154.712 229.792 166.058 222.839 175.491C204.328 203.732 173.668 199.26 144.627 195.525C143.581 194.796 141.807 195.314 140.798 194.351C140.903 194.315 140.998 194.265 141.08 194.202C140.595 193.824 140.22 193.16 140.108 192.455L139.899 192.475C139.694 188.096 139.858 183.802 139.791 179.457C149.334 176.839 159.568 175.501 169.239 172.893C170.338 173.66 171.605 172.777 172.679 172.361C175.463 171.176 178.271 170.051 181.1 168.98L181.808 168.713C183.652 168.022 185.495 167.313 187.322 166.573L188.006 166.295C189.053 165.867 191.696 164.282 192.837 165.271L192.745 165.47C192.068 166.948 189.736 172.415 192.603 171.334C194.931 169.698 196.138 158.295 198.443 158.194C199.236 160.317 199.804 162.521 199.934 164.79C199.981 165.301 200.652 165.731 201.055 165.254C203.79 161.652 199.659 157.727 199.549 153.925C199.288 149.503 201.244 145.366 202.218 141.133L202.278 140.842C202.849 138.096 203.738 134.767 203.502 132.304L202.935 134.442C202.366 136.581 201.783 138.72 201.114 140.829C199.454 146.096 196.456 151.523 198.122 157.159C194.78 157.27 194.215 162.547 192.96 164.956C190.929 162.32 176.639 168.641 173.378 169.655L172.749 168.941C162.536 157.356 155.163 149.516 139.334 158.68C142.068 149.855 142.333 140.482 142.799 131.318C142.639 129.574 143.646 124.976 142.226 124.024C141.979 124.06 141.74 124.134 141.513 124.234L141.514 125.137C141.507 126.887 141.425 129.788 140.692 130.447L140.355 133.912C139.474 142.921 138.474 151.924 135.785 160.605C129.33 164.216 123.439 168.737 117.898 173.614L117.267 173.384C110.42 170.876 102.182 167.661 95.1819 170.791C95.299 169.024 95.9807 167.333 96.9316 165.838C98.5175 165.445 99.5554 163.772 100.69 162.658C104.289 158.791 107.982 155.012 111.498 151.067C126.498 134.923 132.88 108.413 156.436 102.151C157.993 115.197 174.676 117.278 184.728 112.814L185.11 112.667C191.359 110.254 198.421 106.613 200.616 99.9777L200.707 99.7856C200.933 99.3177 201.202 98.8407 201.631 98.7516ZM197.923 172.99C197.905 172.97 197.87 172.997 197.885 173.019C200.814 176.696 203.197 181.711 200.287 186.104C199.748 187.093 201.006 188.043 201.811 187.289C205.851 182.699 201.369 176.477 197.923 172.99ZM96.024 173.821C97.6346 174.971 99.3615 175.926 101.191 176.68C101.185 176.891 101.288 177.117 101.381 177.282C98.9725 177.473 96.4646 178.096 94.7741 179.853C94.692 179.21 94.6117 178.566 94.5501 177.921C94.3945 176.263 94.6784 174.779 96.024 173.821ZM206.773 157.566L206.754 157.477C206.741 157.377 206.589 157.37 206.593 157.477C206.649 158.792 207.605 159.727 208.415 160.663C209.616 162.051 210.818 163.44 212.02 164.828C214.03 167.247 216.99 169.679 216.325 173.183C216.312 174.428 217.871 174.695 218.504 173.779C221.02 168.979 213.1 164.895 210.431 161.798C209.177 160.458 207.202 159.471 206.773 157.566ZM169.065 171.977C169.028 172.037 169.001 172.102 168.987 172.168C168.565 172.213 168.145 172.261 167.725 172.312L169.065 171.977ZM232.059 160.751C231.984 161.252 231.913 161.755 231.846 162.258L231.779 162.761L231.769 162.717C231.735 162.587 231.67 162.473 231.585 162.383L231.556 162.353C231.731 161.822 231.898 161.287 232.059 160.751ZM116.437 155.559C115.427 155.451 120 158.74 120.253 159.147C120.621 159.468 121.052 158.898 120.659 158.62C119.238 157.618 117.838 156.588 116.437 155.559ZM125.333 145.882C124.631 145.595 124.154 146.765 124.82 147.09C127.246 148.278 129.811 149.118 132.046 150.68C132.144 150.748 132.267 150.589 132.174 150.515L131.906 150.303C129.847 148.667 127.79 146.889 125.333 145.882ZM231.221 131.092C230.543 134.286 226.875 135.335 224.028 136.186L223.138 136.525C220.624 137.488 218.019 138.571 216.211 140.605C215.502 142.899 220.56 138.902 221.266 138.7C224.721 136.557 230.962 136.193 231.221 131.092ZM156.332 101.265C156.313 101.428 156.304 101.593 156.299 101.759C156.086 101.759 155.875 101.761 155.662 101.768C155.91 101.622 156.137 101.457 156.332 101.265Z"
          fill="var(--color-dark)"
        />
      </g>
      <g id="lenes haare">
        <ellipse
          id="Ellipse 4"
          rx="9.5"
          ry="9"
          transform="matrix(-1 0 0 1 196.5 62)"
          fill="var(--color-light)"
        />
        <path
          id="Background_3"
          fill-rule="evenodd"
          clip-rule="evenodd"
          d="M188.239 7.16877C151.655 5.66507 149.1 14.5522 144.077 20.2181C141.583 23.0298 135.147 27.194 134.079 36.81C133.338 43.485 138.056 51.1787 138.056 57.1433C138.056 60.1879 133.596 66.7243 135.673 71.1618C140.294 81.0386 150.079 92 162.548 92C175.016 92 198.033 86.2562 211.811 69.7679C216.324 64.3672 224.822 8.67246 188.239 7.16877Z"
          fill="var(--color-light)"
        />
        <path
          id="ink-ball-2"
          fill-rule="evenodd"
          clip-rule="evenodd"
          d="M200.389 7.29374C198.531 6.14995 185.911 -0.20325 177.248 0.00506954C172.761 0.11316 167.735 -0.223437 163.498 1.24069C161.378 1.9757 152.18 2.92024 150.218 4.00507C149.51 4.3951 156.003 4.86664 155.376 5.35199L155.219 5.47389H155.217C153.534 6.0792 153.611 6.0222 152.248 7.29374C149.515 7.07559 145.181 8.46504 142.538 9.30814C138.861 10.4834 134.639 12.449 132.248 15.505C129.463 19.0628 124.417 29.5501 124.748 34.0051L129.746 28.7764C128.748 38.005 130.658 37.7737 133.887 40.3595C134.132 40.556 134.403 40.7054 134.684 40.7958C132.604 44.3608 130.897 48.3188 129.875 52.3162C125.976 67.5844 128.974 83.5071 133.663 98.223C134.048 99.4356 135.881 100.241 136.814 99.0563C138.48 96.9378 140.9 95.3223 143.623 95.0197C145.303 94.833 146.974 95.171 148.562 94.4084C149.184 94.1078 149.786 93.6164 150.218 93.019C152.897 94.035 155.783 94.5146 158.645 94.3967C163.343 94.2041 168.364 92.5768 171.595 89.0079C172.114 88.435 172.246 87.7918 172.126 87.212C171.721 87.0674 171.305 86.9597 170.876 86.8923C166.778 89.3084 162.261 90.9228 157.406 91.0242C154.601 91.0828 151.865 90.6903 149.59 88.9381C149.098 88.5588 148.646 88.1388 148.227 87.6876C143.472 84.6273 140.119 79.4293 138.525 73.8615C137.04 68.6693 137.223 63.2628 137.733 57.9369L138.003 55.1264C138.396 51.0015 138.76 46.8642 138.862 42.7217L138.831 42.7202C137.827 42.6553 137.82 41.0825 138.831 41.1479C141.448 41.3174 140.516 42.5331 143.124 42.7202C140.094 42.7097 146.764 38.6133 147.126 37.4236C147.333 36.7438 148.516 36.6097 148.641 37.4236C148.809 38.5123 148.87 39.595 148.889 40.6887C157.363 32.4741 151.472 41.0129 155.376 41.1479C156.096 40.3795 161.546 38.3123 161.883 37.3644C161.932 37.2249 161.981 37.0873 162.032 36.9478C162.328 38.3022 162.748 39.627 163.3 40.9239L168.685 42.7202C174.118 42.7457 169.855 35.8018 175.16 36.9305C175.529 36.6473 183.212 46.8148 181.186 41.0178C179.16 35.2209 182.12 35.2563 183.094 32.4741L183.233 32.0815C183.244 32.049 183.256 32.0144 183.269 31.978C183.986 33.1361 184.842 34.2156 185.775 35.2209C186.325 35.8134 186.902 36.38 187.494 36.9305C188.069 37.5692 188.663 38.1983 189.239 38.8389C189.216 38.9555 189.197 39.0738 189.181 39.1943C189.005 40.5238 188.986 41.8722 189.116 43.2068C189.349 45.6195 190.03 47.9445 191.124 50.0953L191.158 50.3106C191.324 51.3185 191.561 52.3602 192.113 53.1192C191.424 53.8912 190.893 54.8133 190.586 55.8378C190.312 56.7499 191.573 57.5403 192.227 56.7939C192.747 56.201 193.324 55.7102 193.958 55.3188C193.998 55.3732 194.071 55.3999 194.152 55.3545C195.918 54.3739 198.918 54.6706 200.682 55.5943C202.876 56.742 203.733 59.0984 203.489 61.4862C203.255 63.7679 202.257 66.4347 200.322 67.6041C199.434 68.1406 198.743 68.1858 197.8 67.9283C197.498 67.8464 197.125 67.5952 196.964 67.4704L196.806 67.3437C196.188 66.855 195.612 66.5203 194.883 66.5074C194.136 66.2746 193.386 66.5976 193.101 67.3805L193.083 67.4311C192.95 67.8301 192.706 68.3312 192.759 68.9405C192.814 69.5929 193.113 70.1864 193.559 70.664C193.635 70.7465 193.718 70.8291 193.802 70.9057C186.121 79.2247 185.135 92.1877 189.074 102.58C189.245 103.036 189.427 103.486 189.618 103.932C190.276 105.461 192.81 104.988 193.132 103.472C193.229 103.018 193.335 102.566 193.451 102.118C193.664 101.29 193.908 100.47 194.183 99.6615L194.287 99.359C194.521 98.6908 194.739 98.0167 194.975 97.3485L194.999 97.2721C195.007 97.2419 195.017 97.207 195.028 97.1677L195.427 98.0383L196.639 100.666C197.206 101.892 199.008 101.226 199.075 100.044L199.077 100.004C199.083 99.7854 199.091 99.5693 199.104 99.355C199.191 97.7494 199.468 96.189 199.908 94.662L200.067 94.8593C202.431 97.7832 205.205 100.524 209.011 101.198C209.966 101.367 211.047 100.369 210.391 99.4042C210.119 99.0052 209.858 98.5965 209.611 98.1818C209.825 98.0816 210.027 97.9774 210.214 97.8713C211.658 97.0596 212.86 95.904 213.854 94.5932C215.962 91.8143 216.716 88.3161 216.901 84.8926C217.097 81.2745 216.779 77.4599 215.791 73.9696C215.363 72.4603 214.783 71.0119 214.113 69.6067C214.16 69.4809 214.206 69.3551 214.251 69.2294C214.974 67.213 215.567 65.1514 216.06 63.0663C217.054 58.8566 217.588 54.5134 217.653 50.1878C217.771 42.4387 218.875 34.2314 216.06 27.005C213.153 19.5527 202.248 8.43753 200.389 7.29374ZM203.349 70.5988C203.883 69.7578 205.219 70.5157 204.723 71.3625L204.705 71.3928C203.858 72.7272 203.461 74.2444 202.974 75.7321C202.661 76.6892 201.143 76.2804 201.459 75.3135L201.564 74.9907C202.049 73.482 202.491 71.9488 203.349 70.5988ZM198.7 59.5466L198.345 59.3749C197.226 58.8408 196.246 58.4769 194.924 58.9432C193.154 59.5662 191.258 61.5492 192.454 63.4732C192.894 64.1827 193.676 64.4657 194.482 64.2986C195.84 64.0169 196.19 62.7936 196.879 61.7895L196.998 61.6195C197.418 61.0118 197.949 60.1719 198.649 59.9337C198.808 59.8787 198.874 59.6311 198.7 59.5466ZM197.701 18.6967L197.587 18.5942C196.827 17.9221 197.943 16.8137 198.699 17.4819C202.161 20.5418 203.363 25.3312 205.158 29.4131C205.561 30.3309 204.208 31.1327 203.801 30.2071C202.088 26.312 200.951 21.6526 197.701 18.6967ZM156.105 17.3581C157.009 16.9504 157.801 18.2671 156.931 18.7006L156.899 18.7161C153.842 20.0977 152.541 23.2264 151.296 26.1311C150.899 27.0587 149.545 26.2588 149.938 25.3391L150.163 24.8179C151.463 21.8245 152.978 18.7734 156.105 17.3581ZM151.314 15.4675C152.273 15.1353 152.683 16.6525 151.732 16.9847C149.141 17.8867 147.363 19.8323 145.864 22.057C145.303 22.8903 143.941 22.1042 144.509 21.2631C146.25 18.6807 148.316 16.513 151.314 15.4675Z"
          fill="var(--color-dark)"
        />
        <path
          id="Vector 1"
          d="M217.754 60.8572C227.754 64.3572 224.754 59.3572 215.754 51.3572L201.754 57.3572C203.754 57.3572 209.754 58.0572 217.754 60.8572Z"
          fill="var(--color-dark)"
        />
      </g>
      <path
        id="lenes gesicht"
        fill-rule="evenodd"
        clip-rule="evenodd"
        d="M155.557 82.8594C156.893 82.315 158.085 81.407 158.957 80.2471C159.26 79.8438 159.338 79.418 159.275 79.0285C159.203 78.5906 158.944 78.1937 158.59 77.9275C158.235 77.6604 157.791 77.5287 157.362 77.5958C156.989 77.6542 156.618 77.8581 156.325 78.281L156.263 78.3656C155.745 79.0657 155.07 79.6401 154.301 80.0104C153.559 80.3673 152.73 80.5338 151.872 80.437C150.237 80.2526 149.111 79.3697 147.914 78.1708C147.765 78.0195 147.617 77.8634 147.468 77.7047C147.373 77.561 147.243 77.4685 147.097 77.4201C146.936 77.3662 146.754 77.3693 146.587 77.4275C146.426 77.4836 146.282 77.5901 146.185 77.7317C146.093 77.8663 146.041 78.0326 146.058 78.2239C146.168 79.4664 146.818 80.5752 147.742 81.4459C148.768 82.4128 150.128 83.0818 151.408 83.3164C152.819 83.5749 154.256 83.3897 155.557 82.8594ZM150.99 63.5967C149.716 64.3442 147.922 67.0765 149.292 68.9298C150.905 70.5639 151.838 68.1093 153.536 68.5196C155.233 68.9298 155.369 68.9835 154.384 69.7503C146.116 75.6616 144.514 63.4404 150.99 62.3659C151.703 62.2475 151.323 63.3654 150.99 63.5967ZM170.202 55.3113C170.036 53.2555 166.901 52.7887 166.589 54.823C166.31 56.6452 166.639 58.3192 167.461 59.9598C168.246 61.5271 170.219 60.7959 170.369 59.3687C170.569 57.4555 170.305 56.5901 170.202 55.3113ZM146.341 54.4012C145.904 53.8295 145.273 53.4392 144.517 53.6598C142.155 54.3491 142.851 57.6985 143.681 59.3287C144.131 60.2141 145.588 60.4386 146.247 59.6591C147.32 58.3879 147.834 55.8492 146.469 54.5971C146.432 54.5324 146.391 54.4671 146.341 54.4012ZM165.494 46.3159L165.121 46.2507C163.967 46.0513 162.531 45.8597 161.715 46.7866C161.282 47.2781 161.133 48.1916 161.715 48.662C162.739 49.4898 163.871 49.169 165.098 49.239C166.109 49.297 167.081 49.4641 168.055 49.7422C170.192 50.3522 171.933 51.4658 173.758 52.6886C173.997 52.849 174.242 52.5431 174.127 52.3194C173.074 50.2583 171.032 48.5653 168.987 47.5333C167.896 46.9825 166.701 46.5255 165.494 46.3159ZM146.494 45.3927L146.208 45.4511C143.101 46.0999 139.063 47.396 137.591 50.4449C137.535 50.876 137.595 50.9684 137.643 51.0288L137.659 51.0489C137.699 51.1004 137.73 51.1715 137.917 51.2301C137.969 51.2178 138.022 51.2047 138.075 51.1908C138.749 51.0143 139.283 50.771 139.8 50.5186L140.36 50.2429C141.01 49.9246 141.666 49.6179 142.36 49.3914C143.843 48.9083 145.369 48.5679 146.918 48.3862C147.254 48.3469 147.577 48.2337 147.832 48.0397C148.074 47.8556 148.259 47.6007 148.343 47.2618C148.453 46.8233 148.421 46.4914 148.186 46.0958C148.008 45.7987 147.755 45.5928 147.464 45.4745C147.167 45.354 146.83 45.3256 146.494 45.3927Z"
        fill="var(--color-dark)"
      />
    </g>
  </g>
</svg>
