<svg
  class="avatar avatar-start"
  viewbox="0 0 193 260"
  fill="none"
  xmlns="http://www.w3.org/2000/svg"
  aria-hidden="true"
>
  <g id="lene avatar">
    <g id="body/Explaining">
      <path
        id="Background"
        fill-rule="evenodd"
        clip-rule="evenodd"
        d="M176.755 195.909C175.18 191.218 177.057 185.8 175.83 180.743C175.409 178.742 174.61 171.311 173.808 166.965C173.359 164.534 176.044 163.78 176.457 162.809C179.361 154.094 158.175 133.59 156.882 132.834C154.944 131.749 153.229 130.815 151.336 129.707C145.812 127.827 139.188 122.598 134.181 125.957C125.504 113.444 128.937 98.0281 124.229 96.1959C119.52 94.3637 105.617 90.6605 97.6688 95.3893C92.9045 98.8043 93.2557 104.683 91.0819 109.531C89.8059 111.814 89.179 115.12 87.6936 116.608C82.6466 121.666 76.353 122.538 69.317 123.396C68.7811 123.462 68.2173 122.05 67.6965 122.224C55.8279 126.198 42.0176 127.358 28.5764 149.61C26.6781 152.792 21.5572 157.898 23.2695 161.576C11.9873 186.992 0.885965 244.198 31.8433 258.465C32.8328 259.078 39.5459 255.79 40.6397 255.82C42.4631 255.871 38.9694 260.16 40.6397 259.396C52.9026 260.297 120.379 257.972 146.244 260.297C164.03 260.168 175.295 263.189 179.402 260.168C177.76 256.325 177.837 252.207 178.356 248.144C182.135 245.419 177.463 226.215 177.858 220.592C181.396 216.483 178.579 201.072 176.755 195.909Z"
        fill="var(--color-light)"
      />
      <path
        id="Ink-startcta"
        fill-rule="evenodd"
        clip-rule="evenodd"
        d="M171.116 167.199C169.419 169.589 167.86 172.051 166.451 174.611C165.725 175.931 165.047 177.278 164.437 178.652C164.31 175.681 164.282 172.675 163.923 169.733C163.898 169.52 163.532 169.417 163.494 169.676C163.098 172.344 163.033 175.08 162.883 177.777C162.711 177.726 162.52 177.696 162.31 177.696C160.274 177.696 158.268 177.858 156.239 178.017C155.33 178.088 154.379 178.143 153.451 178.283C154.198 177.485 154.893 176.641 155.535 175.761C156.189 174.863 156.937 173.461 155.797 172.598C154.537 171.646 152.066 172.892 150.848 173.376C150.231 173.621 149.626 173.888 149.03 174.172C148.278 172.131 145.973 171.86 143.996 172.142C142.587 172.343 141.22 172.81 139.847 173.165C138.103 173.617 136.352 174.041 134.595 174.44C131.431 175.157 128.245 175.785 125.044 176.328C124.96 176.233 124.842 176.158 124.686 176.12C123.59 175.855 122.38 176.058 121.256 176.078C120.1 176.099 118.944 176.097 117.788 176.074C115.723 176.033 113.66 176.016 111.596 175.982C111.009 175.637 110.265 175.143 110.083 174.494C109.855 173.684 110.566 172.788 110.895 172.099C112.162 169.453 112.605 166.492 112.108 163.61C112.019 163.096 111.837 162.535 111.573 162.008C113.835 162.243 116.068 162.402 118.342 162.474C122.883 162.617 127.424 162.767 131.967 162.8C141.051 162.865 150.135 162.866 159.219 162.801C164.355 162.765 169.48 162.719 174.61 162.465C174.192 162.978 173.785 163.503 173.388 164.035C173.306 164.012 173.199 164.054 173.211 164.153C173.215 164.187 173.22 164.222 173.224 164.256C172.5 165.236 171.802 166.232 171.116 167.199M161.015 258.183C158.904 258.118 156.794 258.053 154.683 257.988C150.539 257.86 146.396 257.732 142.253 257.605C134.044 257.352 125.836 257.107 117.626 256.888C109.436 256.669 101.242 256.438 93.0499 256.685C84.839 256.933 76.6491 257.575 68.4535 258.091C63.8973 258.377 59.3378 258.625 54.7731 258.744C50.4257 258.856 46.0399 258.686 41.6994 258.986C41.5535 257.946 41.6607 256.91 41.6449 255.874C43.0688 255.078 44.4662 254.231 45.8474 253.399C50.8827 250.364 55.6423 246.932 60.1319 243.18C60.822 242.603 61.4986 242.014 62.1685 241.418C61.7023 242.405 62.0754 243.678 63.4115 244.096C65.0409 244.605 66.7091 244.424 68.4014 244.385C70.1199 244.346 71.8383 244.309 73.557 244.274C76.9159 244.205 80.275 244.143 83.6341 244.088C90.1963 243.982 96.7588 243.903 103.321 243.852C116.525 243.748 129.719 243.923 142.921 244.153C146.633 244.218 150.342 244.299 154.054 244.217C155.911 244.177 157.776 244.164 159.631 244.067C161.117 243.989 162.613 243.785 164.099 243.602C164.286 246.11 164.482 248.616 164.7 251.121C164.845 252.775 164.993 254.43 165.14 256.084C165.2 256.766 165.204 257.462 165.303 258.111C163.877 258.186 162.459 258.228 161.015 258.183M162.467 187.381C162.415 189.301 162.388 191.221 162.373 193.142C162.202 193.047 162.009 192.977 161.792 192.945C159.483 192.604 157.013 192.863 154.677 192.901C152.419 192.938 150.154 192.925 147.898 193.028C145.638 193.132 143.379 193.255 141.119 193.369C140.059 193.422 139.01 193.468 137.959 193.607C137.238 193.703 136.316 193.696 135.546 193.894C138.776 190.864 141.989 187.815 145.21 184.776C145.307 184.685 145.377 184.588 145.425 184.49C147.573 183.222 149.635 181.795 151.503 180.161C152.983 180.714 154.669 180.784 156.239 180.907C158.269 181.067 160.273 181.228 162.31 181.228C162.448 181.228 162.577 181.215 162.698 181.192C162.599 183.254 162.523 185.316 162.467 187.381M78.5961 224.666C83.5276 226.191 88.8705 226.174 94.0009 226.48C99.4702 226.806 104.931 227.076 110.407 227.283C121.343 227.695 132.272 228.254 143.206 228.699C149.452 228.953 155.696 229.233 161.939 229.538C162.382 229.559 162.804 229.449 163.177 229.248C163.387 233.231 163.632 237.212 163.918 241.191C163.954 241.688 163.993 242.185 164.03 242.683C161.091 242.326 158.175 241.984 155.215 241.742C151.891 241.47 148.568 241.241 145.239 241.027C138.752 240.61 132.255 240.052 125.756 239.849C112.508 239.434 99.231 239.575 85.9781 239.667C82.2282 239.692 78.4785 239.728 74.7289 239.771C72.8542 239.794 70.9794 239.818 69.1047 239.844C67.2206 239.871 65.1957 239.681 63.4118 240.318C63.3948 240.324 63.3804 240.333 63.3637 240.339C68.7458 235.399 73.5674 229.939 78.5961 224.666M95.9319 208.871C104.173 210.325 112.544 210.225 120.898 210.369C129.446 210.517 138.006 210.419 146.555 210.436C151.411 210.446 156.31 210.653 161.149 210.234C161.72 210.185 162.163 209.974 162.48 209.676C162.568 214.662 162.729 219.647 162.952 224.628C162.638 224.499 162.295 224.421 161.939 224.4C151.015 223.778 140.09 223.213 129.152 222.868C118.222 222.523 107.28 222.113 96.3449 222.242C91.0085 222.304 85.3655 221.974 80.1024 223.1C82.1026 221.041 84.1456 219.02 86.2826 217.086C89.3982 214.265 92.7229 211.623 95.9319 208.871M102.228 203.002C102.24 202.99 102.245 202.977 102.253 202.964C102.283 202.985 102.319 203 102.367 202.999C110.082 202.83 118.737 205.188 125.952 201.57C129.173 199.954 131.841 197.401 134.43 194.947C134.432 194.965 134.434 194.984 134.435 195.002C134.452 195.201 134.539 195.441 134.747 195.529C135.598 195.891 136.595 195.914 137.509 196.043C138.56 196.192 139.592 196.278 140.652 196.34C142.99 196.476 145.327 196.62 147.665 196.748C149.998 196.876 152.341 196.886 154.677 196.943C157.019 196.999 159.473 197.274 161.792 196.95C162.005 196.92 162.194 196.855 162.362 196.766C162.365 199.671 162.393 202.577 162.421 205.48C162.426 205.954 162.435 206.427 162.441 206.9C162.128 206.622 161.698 206.428 161.149 206.381C156.849 206.014 152.517 206.177 148.202 206.191C143.966 206.205 139.729 206.218 135.492 206.232C126.937 206.26 118.389 206.341 109.835 206.498C105.676 206.575 101.534 206.914 97.4354 207.566C99.0949 206.102 100.708 204.594 102.228 203.002M35.1959 255.831C33.6165 256.299 32.0487 256.096 30.4662 256.417C30.3689 256.436 30.2791 256.473 30.1968 256.521C25.4579 254.56 22.2991 250.624 20.1374 246.213C17.8587 241.564 16.288 236.594 15.2359 231.556C13.0665 221.17 13.0628 210.4 14.1856 199.893C15.2889 189.57 17.4733 179.302 20.5906 169.375C22.7309 162.558 25.4586 155.671 29.246 149.455C33.6193 152.294 37.011 156.381 40.206 160.376C44.0241 165.151 47.4647 170.203 50.5445 175.452C50.2261 176.351 50.1766 177.479 50.0239 178.283C49.7295 179.833 49.4636 181.402 49.2546 182.966C48.8079 186.307 48.3794 189.65 47.9229 192.99C47.02 199.594 45.9419 206.181 44.7509 212.742C44.6545 213.274 44.8087 213.723 45.0922 214.06C42.7301 215.266 40.3988 216.526 38.1274 217.892C33.1338 220.893 28.4668 224.39 24.8027 228.875C24.7075 228.992 24.8567 229.148 24.9745 229.042C32.8321 222.008 42.5941 217.592 52.1786 213.228C57.0766 210.998 61.9505 208.732 66.6498 206.124C71.564 203.398 76.2506 200.316 80.7424 196.977C85.8716 193.165 90.6998 188.996 95.2258 184.524C95.759 183.997 95.6298 183.337 95.2287 182.92C95.3642 182.879 95.4736 182.765 95.4806 182.575C95.5893 179.654 96.4946 177.166 98.267 174.802C99.9112 172.609 102.007 170.802 103.897 168.817C104.737 167.935 105.54 167.017 106.257 166.037C106.995 165.028 107.444 163.915 108.086 162.861C108.836 161.63 109.475 162.259 109.822 163.373C110.217 164.637 110.192 166.116 110.034 167.416C109.866 168.79 109.434 170.13 108.812 171.373C108.227 172.54 107.554 173.727 107.947 175.064C108.593 177.263 111.365 178.535 113.465 179.031C115.803 179.582 118.249 179.475 120.617 179.189C123.582 178.83 126.532 178.306 129.463 177.749C132.858 177.103 136.232 176.358 139.58 175.516C141.153 175.12 142.716 174.6 144.305 174.272C144.872 174.156 145.92 173.98 146.586 174.267C138.027 179.21 128.695 182.503 119.218 185.372C118.04 185.728 118.523 187.451 119.728 187.166C129.91 184.754 139.489 180.278 148.606 175.376C148.745 175.3 148.864 175.184 148.951 175.047C149.868 174.734 150.8 174.462 151.751 174.238C152.176 174.138 154.362 173.44 154.635 173.708C155.022 174.088 153.682 175.323 153.347 175.682C150.965 178.239 148.131 180.325 145.064 182.05C141.953 183.8 138.642 185.195 135.316 186.511C131.59 187.986 127.652 189.145 124.03 190.84C122.591 191.513 123.601 193.8 125.117 193.337C127.07 192.739 128.968 191.86 130.866 191.113C132.479 190.479 134.092 189.846 135.695 189.19C136.813 188.733 137.924 188.261 139.023 187.767C137.376 189.268 135.729 190.77 134.082 192.272C131.23 194.873 128.52 197.837 125.034 199.661C121.589 201.463 117.66 201.673 113.826 201.634C111.901 201.615 109.985 201.555 108.06 201.631C106.034 201.71 104.235 202.011 102.315 202.629C102.28 202.64 102.254 202.661 102.232 202.684C102.165 202.605 102.051 202.565 101.934 202.633C96.7171 205.621 91.9619 209.497 87.3888 213.328C82.6754 217.276 78.2403 221.475 74.0145 225.911C69.9698 230.156 65.9573 234.417 61.5559 238.323C57.2585 242.137 52.666 245.6 47.8706 248.805C45.2577 250.551 42.5802 252.233 39.8098 253.736C38.3294 254.539 36.8259 255.349 35.1959 255.831M35.6347 140.887C37.5028 138.854 39.5135 136.97 41.6412 135.227C42.5799 135.496 43.5654 135.571 44.5584 135.581C46.0736 135.596 47.5922 135.657 49.1075 135.642C52.0252 135.613 54.9416 135.524 57.86 135.508C63.8271 135.477 69.7961 135.475 75.7631 135.526C76.5449 135.532 77.109 135.208 77.4571 134.738C78.665 136.065 79.9099 137.361 81.1653 138.636C83.2047 140.709 85.379 142.686 87.6935 144.488C87.2429 144.49 86.7925 144.494 86.3444 144.491C84.2804 144.478 82.2162 144.465 80.1525 144.455C76.0106 144.432 71.8688 144.416 67.7269 144.405C59.4927 144.384 51.2328 144.451 43.0091 144.859C40.7267 144.973 38.4263 145.018 36.1518 145.234C34.9182 145.351 33.686 145.487 32.4536 145.614C32.2014 145.64 31.9595 145.673 31.7222 145.71C32.9292 144.03 34.2293 142.416 35.6347 140.887M68.6136 122.767C68.558 122.804 68.4979 122.836 68.4446 122.875C68.3235 122.963 68.3425 123.123 68.4854 123.176C68.6753 123.248 68.875 123.302 69.0805 123.345C69.7046 124.222 70.1923 125.307 70.5329 125.856C71.5112 127.435 72.6362 128.938 73.7807 130.407C74.0108 130.701 74.2453 130.993 74.4807 131.284C68.9384 131.271 63.3988 131.299 57.8598 131.502C54.9435 131.609 52.0174 131.698 49.1073 131.91C47.9106 131.998 46.7147 132.144 45.5219 132.289C51.7301 127.941 58.7118 124.621 65.9446 122.157C65.9347 122.167 65.9246 122.175 65.9147 122.186C65.7553 122.357 65.9931 122.579 66.1725 122.436C67.1134 121.682 67.9301 122.036 68.6136 122.767M96.6178 173.868C96.4604 174.099 96.3055 174.338 96.1545 174.583C95.791 174.232 95.2833 173.997 94.6293 173.977C87.3687 173.758 80.1117 173.566 72.8471 173.561C69.2646 173.559 65.6495 173.442 62.0714 173.614C60.2747 173.7 58.4787 173.803 56.683 173.901C55.4274 173.97 54.0936 174.056 52.8675 174.408C50.0418 169.62 46.9049 165.017 43.4794 160.615C51.2516 161.539 59.157 161.44 66.9734 161.697C75.8291 161.987 84.6898 162.05 93.5486 162.253C95.9786 162.309 98.4086 162.37 100.838 162.436C102.092 162.47 103.346 162.505 104.6 162.542C104.992 162.553 105.398 162.564 105.804 162.553C105.773 162.615 105.742 162.676 105.712 162.737C105.028 164.105 104.168 165.364 103.166 166.533C101.036 169.018 98.4631 171.158 96.6178 173.868M87.0928 188.617C86.8239 187.893 86.1686 187.336 85.1247 187.382C79.1758 187.644 73.2158 187.825 67.2737 188.205C64.3791 188.39 61.4728 188.514 58.5829 188.759C57.0924 188.886 55.6045 189.121 54.1203 189.309C53.1028 189.437 52.0375 189.586 51.0614 189.937C51.2507 187.912 51.4176 185.887 51.5625 183.858C51.6787 182.228 51.7141 180.583 51.7051 178.949C51.7007 178.122 51.6717 177.29 51.6304 176.464C51.7181 176.481 51.806 176.489 51.8923 176.479C52.0445 176.461 52.1867 176.443 52.3186 176.409C53.6864 176.928 55.2344 177.042 56.683 177.142C58.4012 177.261 60.119 177.387 61.8372 177.506C65.493 177.758 69.1833 177.742 72.8472 177.858C80.0597 178.085 87.2736 178.218 94.4875 178.405C94.1528 179.796 94.141 181.225 94.6767 182.572C94.3036 182.452 93.874 182.508 93.5072 182.859C91.4293 184.847 89.2895 186.765 87.0928 188.617M66.108 203.41C65.9612 203.017 65.684 202.655 65.3559 202.41C64.0945 201.469 61.7918 202.011 60.2777 202.083C58.4852 202.168 56.6925 202.253 54.9001 202.338C54.3561 202.363 51.5796 202.5 49.5404 202.921C49.9618 199.839 50.3441 196.751 50.6858 193.657C50.7575 193.008 50.824 192.358 50.8897 191.709C51.8504 192.008 52.8945 192.118 53.8854 192.164C55.3703 192.232 56.862 192.348 58.3483 192.371C61.3178 192.416 64.3038 192.274 67.2738 192.226C72.6222 192.14 77.9713 191.892 83.3173 191.688C77.9498 195.909 72.2783 199.76 66.3624 203.263C66.278 203.313 66.1924 203.361 66.108 203.41M49.2154 205.24C49.6672 205.298 50.1153 205.317 50.458 205.351C52.1786 205.519 53.8723 205.671 55.6016 205.696C57.3162 205.72 59.0307 205.744 60.7454 205.769C61.11 205.773 61.4746 205.779 61.8392 205.784C57.3243 208.173 52.6707 210.313 48.0829 212.566C48.4871 210.128 48.8645 207.685 49.2154 205.24M98.4127 150.835C108.702 155.071 121.9 155.455 130.742 148.419C131.621 148.652 132.593 148.729 133.369 148.805C135.112 148.974 136.839 149.13 138.591 149.184C142.005 149.287 145.422 149.441 148.837 149.482C155.747 149.565 162.657 149.603 169.566 149.663C170.154 149.668 170.625 149.495 170.982 149.216C171.681 150.365 172.332 151.543 172.927 152.751C173.793 154.514 174.528 156.335 175.131 158.196C175.002 158.175 174.867 158.16 174.723 158.157C165.643 158.005 156.555 158.258 147.473 158.295C138.389 158.332 129.306 158.294 120.221 158.356C117.708 158.374 115.212 158.375 112.705 158.555C111.4 158.649 110.079 158.69 108.787 158.894C108.642 158.917 108.495 158.937 108.347 158.957C106.615 157.977 104.464 158.181 102.485 158.145C100.211 158.104 97.9382 158.067 95.6652 158.034C91.1973 157.97 86.729 157.923 82.2608 157.893C73.3927 157.834 64.5464 158.054 55.6841 158.353C51.2747 158.502 46.8821 158.755 42.5295 159.412C42.2372 159.046 41.9478 158.677 41.6518 158.314C38.5677 154.527 34.9116 149.679 29.8367 148.506C30.0313 148.198 30.2288 147.893 30.4294 147.589C33.9455 148.488 37.8243 148.442 41.4168 148.63C45.5577 148.847 49.6899 148.997 53.8358 149.096C62.0768 149.292 70.3162 149.415 78.5589 149.536C80.8466 149.57 83.1342 149.605 85.4219 149.642C86.6557 149.662 87.8898 149.685 89.1239 149.703C89.8133 149.714 90.4297 149.712 91.0866 149.49C91.6949 149.285 92.2879 148.977 92.8762 148.722C93.0815 148.633 93.2484 148.501 93.3846 148.346C95 149.281 96.6739 150.119 98.4127 150.835M138.619 136.75C139.914 137.098 141.249 137.155 142.618 137.255C144.413 137.387 146.205 137.409 148.006 137.421C150.877 137.438 153.749 137.419 156.619 137.342C157.852 137.31 158.572 136.51 158.786 135.595C158.815 135.618 158.846 135.641 158.876 135.664C162.369 138.453 165.534 141.642 168.216 145.171C161.757 145.191 155.297 145.195 148.837 145.237C145.422 145.26 142.005 145.395 138.591 145.481C136.916 145.522 135.265 145.657 133.598 145.81C133.565 145.813 133.53 145.816 133.496 145.819C133.673 145.621 133.848 145.421 134.02 145.215C136.013 142.822 137.653 139.873 138.619 136.75M180.617 262.377C181.187 260.858 180.966 259.229 180.933 257.632C180.9 255.993 180.882 254.355 180.877 252.715C180.866 249.511 180.843 246.307 180.807 243.103C180.733 236.621 180.655 230.134 180.392 223.656C179.872 210.849 178.869 198.074 177.233 185.354C176.438 179.17 175.451 172.999 174.111 166.903C174.13 166.878 174.148 166.853 174.167 166.828C175.501 165.102 177.018 163.506 178.328 161.767C178.445 161.613 178.493 161.415 178.492 161.215C178.54 161.193 178.588 161.169 178.637 161.142C179.724 160.543 178.742 158.908 177.655 159.516C177.781 159.446 175.976 154.958 175.785 154.506C175.098 152.883 174.325 151.296 173.454 149.758C172.928 148.83 172.366 147.922 171.776 147.03C171.673 146.364 171.302 145.747 170.664 145.417C169.545 143.864 168.336 142.371 167.048 140.949C161.773 135.126 155.184 130.426 147.986 127.078C146.946 126.594 145.875 126.191 144.807 125.769C143.671 125.319 142.618 124.731 141.498 124.258C139.676 123.49 137.878 123.534 136.088 124.347C135.936 124.417 136.045 124.645 136.201 124.606C137.353 124.315 138.533 124.266 139.688 124.582C140.819 124.891 141.68 125.576 142.668 126.146C144.429 127.164 146.397 127.827 148.202 128.776C150.588 130.032 152.92 131.412 155.151 132.926C152.84 133.045 150.527 133.13 148.213 133.19C146.494 133.234 144.777 133.242 143.061 133.338C141.839 133.407 140.569 133.388 139.348 133.579C139.643 131.619 139.643 129.641 139.275 127.731C139.275 127.73 139.275 127.73 139.275 127.729C139.186 127.269 139.079 126.812 138.946 126.361C138.664 125.4 137.76 125.256 137.104 125.62C137.039 125.573 136.973 125.528 136.91 125.478C136.124 124.86 135.417 124.12 134.801 123.342C133.523 121.727 132.49 119.857 131.708 117.972C130.915 116.063 130.354 114.066 129.804 112.081C129.528 111.086 129.23 110.097 128.949 109.103C128.705 108.238 128.527 107.284 128.079 106.496C127.995 106.349 127.741 106.377 127.701 106.544C127.463 107.531 127.589 108.656 127.633 109.661C127.681 110.778 127.747 111.884 127.9 112.992C128.218 115.291 128.731 117.55 129.553 119.733C130.341 121.827 131.381 123.78 132.793 125.544C133.732 126.715 135.064 128.266 136.608 128.898C136.809 131.097 136.786 133.299 136.25 135.476C135.549 138.327 134.206 141.036 132.36 143.357C128.49 148.224 122.504 150.973 116.258 151.54C109.796 152.126 103.184 150.726 97.3773 147.973C90.919 144.911 85.5615 140.186 80.7493 135.086C77.9752 132.147 75.0988 129.254 72.5278 126.144C72.0722 125.593 71.343 124.474 70.478 123.466C71.3583 123.458 72.2617 123.33 73.0409 123.234C74.6531 123.033 76.2287 122.723 77.8041 122.335C80.7495 121.609 83.8555 120.599 86.4293 119.002C91.8755 115.622 94.0015 111.334 94.7276 105.428C94.9572 103.56 91.6242 103.107 91.3138 104.98C90.837 107.859 90.1156 109.26 89.1669 112.026C88.2545 114.685 86.933 115.675 84.407 117.14C82.0357 118.516 79.3408 119.316 76.7283 120.141C75.2807 120.599 73.8159 121.016 72.356 121.437C71.4266 121.705 70.3233 121.938 69.3806 122.352C68.8887 121.934 68.3756 121.619 67.8589 121.499C67.8969 121.437 67.8476 121.341 67.7524 121.359C67.6006 121.389 67.4493 121.421 67.2975 121.452C67.145 121.462 66.9932 121.491 66.8417 121.544C57.7424 123.453 49.0043 127.518 41.5945 133.056C41.221 133.207 40.8596 133.392 40.5158 133.626C40.3388 133.746 40.2214 133.938 40.1877 134.135C39.0738 135.016 37.9929 135.931 36.9485 136.877C28.5375 144.498 23.2082 154.636 19.4774 165.064C15.8022 175.337 13.3145 186.11 11.9465 196.896C10.5519 207.89 10.3912 219.113 12.4139 230.045C13.5 235.915 15.2583 241.684 17.8535 247.098C20.184 251.961 23.9775 257.5 29.9359 258.092C29.955 258.111 29.9729 258.13 29.9944 258.148C32.3322 260.013 35.8129 258.725 38.2571 257.61C38.6446 257.434 39.029 257.248 39.4118 257.057C39.2095 257.811 39.1183 258.601 39.0761 259.341C38.9882 260.878 41.2252 260.965 41.6487 259.69C45.2749 260.307 49.0194 260.316 52.687 260.296C56.7851 260.274 60.8817 260.137 64.975 259.95C73.0965 259.579 81.2084 259.012 89.3354 258.754C105.791 258.232 122.292 259.348 138.734 259.909C143.347 260.067 147.959 260.224 152.572 260.382C157.285 260.543 161.993 260.574 166.668 261.191C168.386 261.418 169.045 259.787 168.56 258.77C168.681 258.087 168.561 257.338 168.494 256.534C168.371 255.03 168.254 253.527 168.145 252.023C167.931 249.09 167.725 246.156 167.529 243.222C167.133 237.276 166.792 231.326 166.46 225.377C165.8 213.548 165.295 201.71 164.924 189.869C164.833 186.983 164.715 184.096 164.565 181.212C164.743 180.939 164.921 180.665 165.092 180.388C165.664 179.465 166.224 178.536 166.803 177.617C167.963 175.774 169.131 173.944 170.352 172.138C171.406 170.579 172.493 169.043 173.629 167.539C175.039 179.078 176.293 190.628 176.869 202.241C177.502 215.031 177.839 227.84 178.022 240.643C178.073 244.22 178.107 247.797 178.147 251.374C178.167 253.237 178.188 255.099 178.172 256.961C178.156 258.743 177.879 260.691 178.531 262.377C178.911 263.361 180.242 263.378 180.617 262.377Z"
        fill="var(--color-dark)"
      />
    </g>
    <g id="kopf">
      <path
        id="Background_8"
        fill-rule="evenodd"
        clip-rule="evenodd"
        d="M90.5168 6.20847C134.685 4.35097 137.769 15.3292 143.834 22.3282C146.844 25.8016 154.615 30.9456 155.905 42.8241C156.8 51.0697 151.103 60.5737 151.103 67.9418C151.103 71.7027 156.487 79.777 153.981 85.2586C148.401 97.4594 136.588 111 121.534 111C106.48 111 78.6916 103.905 62.0577 83.5368C56.6093 76.8653 46.3491 8.06598 90.5168 6.20847Z"
        fill="var(--color-light)"
      />
      <path
        id="Ink_2-startcta"
        fill-rule="evenodd"
        clip-rule="evenodd"
        d="M74.4772 8.99659C76.7499 7.63972 92.1828 0.102992 102.778 0.350119C108.265 0.478345 114.411 0.0790437 119.593 1.81593C122.185 2.68786 133.433 3.80835 135.833 5.09528C136.698 5.55797 128.758 6.11734 129.525 6.69311L129.717 6.83773H129.719C131.778 7.55579 131.683 7.48818 133.351 8.99659C136.692 8.73781 141.993 10.3861 145.224 11.3863C149.722 12.7804 154.885 15.1123 157.809 18.7376C161.215 22.9581 167.385 35.3991 166.981 40.6839L160.868 34.4813C162.089 45.4291 159.753 45.1546 155.805 48.2221C155.504 48.4553 158.171 51.2603 156 50.5C158.544 54.7291 159.461 57.6642 160.71 62.4063C165.479 80.5188 161.813 99.4077 156.079 116.865C155.608 118.304 153.366 119.259 152.225 117.854C150.188 115.34 147.228 113.424 143.898 113.065C141.844 112.843 139.8 113.244 137.858 112.34C137.097 111.983 136.362 111.4 135.833 110.692C132.556 111.897 129.027 112.466 125.527 112.326C119.782 112.097 113.642 110.167 109.69 105.933C109.056 105.254 108.895 104.491 109.041 103.803C109.537 103.631 110.045 103.503 110.57 103.423C115.581 106.29 121.105 108.205 127.042 108.325C130.473 108.395 133.819 107.929 136.6 105.85C137.202 105.4 137.756 104.902 138.267 104.367C144.083 100.737 148.183 94.5703 150.133 87.9652C151.949 81.8057 151.725 75.3921 151.101 69.074L150.771 65.74C150.291 60.8467 149.845 55.9387 149.72 51.0245L149.758 51.0226C150.986 50.9457 150.995 49.0799 149.758 49.1575C146.558 49.3585 147.698 50.8006 144.508 51.0226C148.213 51.0102 140.057 46.1507 139.614 44.7393C139.361 43.9329 137.914 43.7739 137.761 44.7393C137.556 46.0309 137.481 47.3152 137.458 48.6126C127.095 38.8678 134.3 48.9973 129.525 49.1575C128.645 48.2459 121.979 45.7935 121.567 44.6691C121.507 44.5036 121.447 44.3404 121.385 44.1749C121.023 45.7816 120.51 47.3532 119.835 48.8917L113.249 51.0226C106.605 51.0528 111.818 42.8154 105.33 44.1543C104.879 43.8184 95.4837 55.88 97.961 49.0031C100.438 42.1263 96.8188 42.1683 95.6285 38.8678L95.4582 38.4021C95.4443 38.3635 95.4296 38.3224 95.4142 38.2792C94.5371 39.6531 93.4906 40.9338 92.3492 42.1263C91.6765 42.8292 90.9711 43.5013 90.2473 44.1543C89.5441 44.912 88.8173 45.6583 88.1129 46.4183C88.1406 46.5566 88.1646 46.6969 88.1841 46.8399C88.3996 48.417 88.4219 50.0166 88.2641 51.5998C87.9786 54.4621 87.146 57.2201 85.8083 59.7716L85.766 60.0271C85.5628 61.2228 85.2738 62.4585 84.5989 63.3589C85.4412 64.2747 86.0901 65.3685 86.4663 66.5839C86.8012 67.6659 85.2586 68.6036 84.4586 67.7181C83.8231 67.0147 83.1171 66.4326 82.3416 65.9682C82.2925 66.0327 82.2041 66.0645 82.1049 66.0106C79.9451 64.8472 76.2766 65.1993 74.1192 66.295C71.4357 67.6566 70.3882 70.4519 70.6861 73.2845C70.972 75.9913 72.1924 79.1549 74.5588 80.5421C75.6447 81.1786 76.4904 81.2322 77.6436 80.9268C78.0123 80.8296 78.4694 80.5316 78.6656 80.3835L78.8587 80.2333C79.6147 79.6535 80.3188 79.2564 81.2112 79.2412C82.1239 78.965 83.0413 79.3482 83.3903 80.2769L83.4118 80.337C83.5752 80.8102 83.8731 81.4047 83.8082 82.1275C83.741 82.9015 83.3758 83.6055 82.8305 84.1721C82.7368 84.27 82.6359 84.3679 82.5325 84.4588C91.9261 94.3276 93.1321 109.705 88.3152 122.034C88.1062 122.575 87.8828 123.109 87.6498 123.638C86.8449 125.452 83.7458 124.89 83.3518 123.092C83.2341 122.554 83.1043 122.017 82.9626 121.486C82.7021 120.504 82.4036 119.531 82.0671 118.572L81.9391 118.213C81.6533 117.42 81.3866 116.62 81.0983 115.828L81.0695 115.737C81.0586 115.701 81.0466 115.66 81.0334 115.613L80.5457 116.646L79.0634 119.763C78.3698 121.218 76.1659 120.427 76.084 119.025L76.082 118.977C76.0748 118.719 76.0652 118.462 76.0483 118.208C75.9426 116.303 75.6039 114.452 75.0658 112.641L74.8716 112.875C71.9805 116.343 68.5875 119.594 63.9328 120.395C62.7652 120.595 61.4439 119.411 62.2463 118.266C62.5778 117.793 62.8974 117.308 63.2001 116.816C62.9382 116.697 62.6908 116.574 62.4625 116.448C60.6967 115.485 59.2264 114.114 58.0108 112.559C55.433 109.262 54.5104 105.113 54.2846 101.051C54.0444 96.7592 54.4336 92.234 55.642 88.0935C56.1657 86.303 56.8744 84.5847 57.6937 82.9178C57.636 82.7686 57.5808 82.6194 57.5255 82.4702C56.6414 80.0782 55.9159 77.6325 55.3129 75.1589C54.0972 70.1651 53.4437 65.0128 53.3645 59.8814C53.2203 50.6887 51.8702 40.9524 55.3129 32.3799C58.8685 23.5393 72.2044 10.3535 74.4772 8.99659ZM77.8456 90.0259C77.1927 89.0283 75.559 89.9273 76.1653 90.9319L76.1879 90.9678C77.2233 92.5509 77.7086 94.3507 78.3044 96.1156C78.6864 97.2511 80.5435 96.7661 80.1567 95.619L80.0287 95.2361C79.4358 93.4463 78.895 91.6275 77.8456 90.0259ZM76.5433 70.9836L76.9771 70.7799C78.3454 70.1462 79.5442 69.7146 81.1609 70.2678C83.3255 71.0069 85.6438 73.3592 84.1808 75.6416C83.6426 76.4832 82.6864 76.819 81.7014 76.6208C80.0408 76.2866 79.6123 74.8355 78.7696 73.6443L78.6246 73.4426C78.1109 72.7218 77.4612 71.7254 76.6058 71.4428C76.4112 71.3776 76.3295 71.0838 76.5433 70.9836ZM77.7639 22.5237L77.9036 22.4022C78.8334 21.6049 77.4688 20.29 76.5438 21.0826C72.3107 24.7126 70.8404 30.3942 68.6446 35.2365C68.1521 36.3252 69.8074 37.2765 70.3047 36.1784C72.3993 31.5577 73.7896 26.0303 77.7639 22.5237V22.5237ZM128.634 20.9358C127.528 20.4521 126.56 22.0141 127.623 22.5284L127.663 22.5468C131.401 24.1857 132.992 27.8973 134.515 31.343C135 32.4435 136.655 31.4946 136.175 30.4035L135.9 29.7852C134.311 26.2342 132.457 22.6147 128.634 20.9358ZM134.492 18.693C133.32 18.299 132.818 20.0988 133.981 20.4928C137.15 21.5629 139.324 23.871 141.157 26.51C141.844 27.4985 143.509 26.566 142.814 25.5682C140.686 22.5048 138.159 19.9333 134.492 18.693Z"
        fill="var(--color-dark)"
      />
      <path
        id="Vector 1"
        d="M53.2419 106.871C40.992 111.158 44.667 105.034 55.6919 95.2336L72.8419 102.584C70.3919 102.584 63.0419 103.441 53.2419 106.871Z"
        fill="var(--color-dark)"
      />
      <path
        id="gesicht"
        fill-rule="evenodd"
        clip-rule="evenodd"
        d="M124.09 95.3118C121.951 94.923 120.043 94.2744 118.647 93.4459C118.162 93.1579 118.037 92.8538 118.138 92.5756C118.253 92.2628 118.668 91.9793 119.234 91.7891C119.802 91.5984 120.513 91.5043 121.2 91.5522C121.797 91.5939 122.391 91.7396 122.862 92.0417L122.96 92.1021C123.789 92.6021 124.87 93.0124 126.102 93.2769C127.289 93.5318 128.616 93.6508 129.99 93.5816C132.606 93.4499 134.41 92.8193 136.327 91.9629C136.564 91.8548 136.802 91.7433 137.041 91.63C137.192 91.5273 137.401 91.4613 137.633 91.4267C137.892 91.3882 138.184 91.3904 138.451 91.432C138.709 91.4721 138.939 91.5481 139.094 91.6493C139.241 91.7454 139.324 91.8642 139.297 92.0009C139.122 92.8883 138.081 93.6803 136.602 94.3022C134.959 94.9929 132.782 95.4707 130.732 95.6383C128.474 95.8229 126.173 95.6906 124.09 95.3118ZM133.794 74.6017C135.354 75.4885 137.551 78.7298 135.873 80.9284C133.897 82.867 132.754 79.9551 130.675 80.4417C128.596 80.9284 128.429 80.9921 129.635 81.9018C139.764 88.9143 141.727 74.4163 133.794 73.1417C132.92 73.0012 133.385 74.3273 133.794 74.6017Z"
        fill="var(--color-dark)"
      />
    </g>
    <g id="home-augen">
      <path
        id="Path"
        fill-rule="evenodd"
        clip-rule="evenodd"
        d="M108.472 64.0857C108.753 61.964 114.065 61.4822 114.593 63.5817C115.067 65.4625 114.51 67.1902 113.117 68.8835C111.786 70.5011 108.442 69.7464 108.189 68.2734C107.85 66.2988 108.297 65.4056 108.472 64.0857Z"
        fill="var(--color-dark)"
      />
      <path
        id="Path_2"
        fill-rule="evenodd"
        clip-rule="evenodd"
        d="M139.489 63.6932C140.024 63.015 140.797 62.5521 141.723 62.8137C144.617 63.6315 143.764 67.6048 142.748 69.5388C142.195 70.589 140.411 70.8553 139.604 69.9306C138.29 68.4226 137.66 65.411 139.331 63.9256C139.377 63.8489 139.427 63.7714 139.489 63.6932Z"
        fill="var(--color-dark)"
      />
    </g>
    <g id="home-brauen">
      <path
        id="Path_3df"
        fill-rule="evenodd"
        clip-rule="evenodd"
        d="M116.578 53.5574L117.042 53.5492C118.476 53.5267 120.249 53.5647 121.063 54.8004C121.494 55.4557 121.502 56.5537 120.708 56.9986C119.313 57.7815 118.003 57.1984 116.505 57.0561C115.27 56.939 114.062 56.9572 112.831 57.1049C110.129 57.429 107.812 58.4157 105.372 59.5151C105.052 59.6592 104.814 59.256 104.994 59.0147C106.659 56.7917 109.45 55.1808 112.12 54.3453C113.545 53.8993 115.077 53.5822 116.578 53.5574Z"
        fill="var(--color-dark)"
      />
      <path
        id="Path_4"
        fill-rule="evenodd"
        clip-rule="evenodd"
        d="M138.659 53.94L139.016 53.9376C142.905 53.9281 148.071 54.4416 150.604 57.6197C150.78 58.1064 150.733 58.2282 150.69 58.3101L150.676 58.3374C150.641 58.4069 150.621 58.4972 150.412 58.6112C150.347 58.6096 150.28 58.6073 150.213 58.6042C149.36 58.5648 148.659 58.4134 147.976 58.2473L147.235 58.0647C146.376 57.8547 145.513 57.6596 144.623 57.5673C142.723 57.3704 140.809 57.3498 138.907 57.519C138.495 57.5557 138.079 57.5037 137.724 57.3411C137.387 57.1868 137.101 56.9363 136.915 56.5636C136.673 56.0814 136.627 55.6883 136.809 55.1713C136.947 54.783 137.198 54.4817 137.517 54.273C137.842 54.0603 138.24 53.9444 138.659 53.94Z"
        fill="var(--color-dark)"
      />
    </g>
  </g>
</svg>
