<svg role="img" class="transform translate-y-5 sm:translate-y-2 lg:translate-y-10 -translate-x-5 sm:-translate-x-5 lg:-translate-x-10 scale-90 sm:scale-100" width="285" height="399" viewBox="0 0 285 399" fill="none" xmlns="http://www.w3.org/2000/svg">
<title>Dibujo representando a Lene presentando los proyectos</title>
<g id="lene">
<g id="lene-ball">
<path id="ball" fill-rule="evenodd" clip-rule="evenodd" d="M103.5 388.357C149.063 388.357 186 351.421 186 305.857C186 260.294 149.063 223.357 103.5 223.357C57.9365 223.357 21 260.294 21 305.857C21 351.421 57.9365 388.357 103.5 388.357Z" fill="#FF7F5C" stroke="#122433" stroke-width="4"/>
</g>
<g id="lene-ball-cuerpo">
<g id="BODY">
<path id="&#240;&#159;&#142;&#168; Background" fill-rule="evenodd" clip-rule="evenodd" d="M281.116 209.394C279.837 209.026 278.239 208.932 276.84 208.865C271.895 208.574 266.852 210.932 262.003 211.995C259.88 212.52 257.633 213.138 255.362 213.598C253.345 213.872 251.26 214.077 249.164 214.208C247.47 214.259 245.499 214.129 244.92 215.91C241.515 216.571 238.501 216.845 235.255 216.284C235.559 215.25 235.732 214.168 235.417 213.054C235.576 212.79 235.792 212.433 235.907 212.192H235.517C229.82 209.911 223.658 208.353 217.931 205.989C210.455 203.295 199.445 198.088 190.807 194.532C191.393 191.325 191.61 188.066 191.361 184.897L191.708 184.617C191.822 183.994 192 183.249 192.321 182.685C192.728 181.603 192.738 180.127 192.9 178.905C193.237 176.514 193.462 172.915 192.848 170.076C192.58 166.227 189.986 163.259 187.188 160.879C183.754 157.482 180.315 154.167 176.962 150.638C158.405 131.717 156.938 107.886 127.889 100.643L127.874 100.53C127.645 100.275 127.552 100.072 127.291 100.476C126.332 100.108 125.136 100.139 124.333 99.5174C122.907 98.2164 121.895 96.7146 121.234 94.9322C120.724 91.563 121.085 86.3703 118.133 84.2146C114.856 82.2507 97.4402 80.8525 95.9383 85.1462C95.0065 86.0215 94.5825 87.1335 94.2913 88.4951C93.321 90.3309 92.7088 92.3666 91.7313 94.2306C89.6532 98.4114 88.3061 97.4849 84.6371 98.4403C84.2388 97.5525 83.0298 97.7314 82.1487 97.8604C71.4788 99.3602 58.4699 103.453 53.9015 113.484L54.2903 113.435C46.4046 128.253 51.5186 147.099 52.929 162.802C54.0698 176.761 52.7652 190.787 49.6648 203.807C45.8592 217.62 45.6409 233.071 53.1914 245.574C53.9588 247.005 54.8931 249.028 56.5465 248.13C57.4525 248.815 58.4703 249.288 59.876 249.7C60.2636 249.982 60.6648 250.454 61.0706 250.656C61.0896 250.683 61.7428 250.306 61.7771 250.296C63.0117 252.059 130.79 257.947 137.823 258.861C144.02 259.608 152.208 261.517 157.258 257.046C161.432 255.853 165.798 252.748 169.134 249.665C171.157 279.022 172.277 339.143 174.082 339.562C174.873 339.83 175.939 340.151 176.834 340.407C176.839 342.516 176.996 344.913 176.83 346.986C176.553 349.328 175.851 352.093 175.533 354.555C174.167 354.463 173.765 355.834 173.606 356.765C172.427 364.456 172.461 370.656 172.546 379.11C186.413 387.28 202.665 391.772 218.268 397.052C219.763 398.176 223.001 396.961 224.727 396.657C230.718 395.477 237.526 391.987 236.013 385.588C234.906 380.77 230.257 377.998 226.344 375.163C222.062 372.061 217.548 368.961 213.611 365.267C210.452 362.29 208.093 359.981 205.458 356.622C204.29 355.06 203.044 352.493 201.472 351.342C203.133 349.372 199.777 351.218 198.507 351.332C197.76 347.814 196.835 344.436 195.725 341.061L196.804 341.11C200.345 337.803 202.33 321.924 202.576 317.213C204.351 286.504 204.309 251.109 197.189 225.247C202.597 228.578 208.528 231.361 213.907 234.655C217.298 236.643 220.74 239.402 224.542 240.366C224.789 241.077 225.696 241.354 226.19 240.657C226.871 240.741 227.748 240.458 227.823 240.148C228.519 238.725 229.527 237.191 229.406 235.644C229.406 235.644 228.472 233.477 228.472 233.477C230.564 234.328 232.838 236.118 235.072 236.282C239.582 251.347 248.469 242.908 257.021 237.044C262.182 233.437 267.828 229.454 273.259 225.608C277.868 221.942 286.864 218.462 282.454 211.2" fill="#FFFDF5"/>
<path id="&#240;&#159;&#150;&#141; Ink" fill-rule="evenodd" clip-rule="evenodd" d="M87.258 97.5201C91.6142 96.4612 92.3586 86.0142 94.989 87.5019C96.5095 88.8248 94.0222 91.3204 93.5821 92.8135L93.389 93.1927C92.4966 94.9317 91.4873 96.6649 89.7285 97.6675C88.5979 98.8582 85.2187 97.6892 85.7155 99.5855C87.4507 105.301 96.6591 109.258 102.086 111.038C110.522 114.207 124.168 113.135 126.15 102.51C121.523 101.662 118.102 93.3107 120.953 89.8336C121.051 93.2112 121.973 96.697 124.623 98.9853L124.77 99.1196C125.236 99.5454 125.84 100.054 126.442 99.959C127.029 99.1412 128.168 99.6064 128.504 100.47C154.848 105.025 160.716 133.449 177.307 150.179C180.621 153.669 184.085 157.011 187.505 160.396C190.997 163.168 193.469 167.032 193.641 171.57C193.953 174.094 193.799 176.62 193.465 179.148L193.441 179.376C193.287 180.943 193.195 182.625 192.449 184.016C192.321 184.487 192.373 185.083 191.965 185.416C192.143 188.3 191.974 191.236 191.486 194.111L192.757 194.679C206.744 200.91 220.892 206.784 235.475 211.455C236.722 211.229 236.62 212.678 236.017 213.337C236.176 214.113 236.193 214.919 236.006 215.685C238.677 216.069 241.39 215.75 244.026 215.263C244.86 213.426 247.075 213.524 248.788 213.472C250.917 213.339 253.041 213.131 255.154 212.836C260.361 211.672 265.473 210.141 270.629 208.796C274.08 207.825 277.8 207.871 281.262 208.765C281.85 209.424 282.393 210.128 282.851 210.876C286.015 215.783 282.897 220.28 278.481 222.858C271.395 227.882 264.307 232.9 257.19 237.878L256.673 238.247C248.205 244.31 238.678 251.985 234.156 237.228C232.636 237.05 231.304 236.029 229.888 235.427C230.269 237.198 229.131 238.987 228.347 240.505C228.009 241.37 227.086 241.655 226.233 241.647C225.504 242.363 224.134 242.081 223.657 241.232C219.786 240.123 216.587 237.535 213.161 235.524C208.289 232.564 203.178 230.041 198.236 227.206C206.446 261.209 204.438 296.628 202.253 331.241L202.238 331.553C201.967 336.606 200.809 338.997 196.619 342.095C197.348 344.322 198.002 346.558 198.499 348.849C198.675 349.381 199.484 348.88 199.491 349.61C200.98 349.262 204.005 349.635 202.949 351.694C205.938 354.203 207.961 357.602 210.581 360.462C215.195 365.994 221.226 370.112 227.14 374.169C240.734 381.098 241.513 393.106 225.608 397.208L225.448 397.245C223.258 397.773 220.62 398.978 218.497 397.963C215.321 397.352 212.169 396.113 209.061 395.17C196.548 391.028 184.31 386.178 172.452 380.604C172.022 380.402 171.778 379.939 171.767 379.476C171.899 375.651 170.861 354.694 174.826 354.242C175.711 349.961 175.85 345.541 175.689 341.171C174.403 340.766 173.103 340.376 171.771 340.123C170.477 339.716 168.455 339.624 167.589 338.576C167.278 338.464 167.05 338.185 167.096 337.746C167.797 331.178 168.328 324.594 168.715 318C170.042 295.889 169.591 273.708 168.08 251.621C164.967 254.314 161.419 256.672 157.469 257.927C155.288 260.112 151.793 260.581 148.816 260.845C144.989 261.082 141.229 260.318 137.452 259.842C131.039 259.034 124.67 259.749 118.303 260.541L116.127 260.813C100.539 262.523 83.6932 262.877 69.1649 256.212C66.4295 256.455 63.0336 253.498 61.3272 251.522C60.5737 251.987 59.8333 251.078 59.2329 250.6C58.2419 250.299 57.1178 249.866 56.2185 249.235C53.9371 249.982 52.7064 247.019 51.8398 245.408C38.0853 221.847 53.4032 198.394 52.2511 173.409C52.9487 153.821 44.0168 133.414 52.6494 114.627C54.3957 106.677 64.6095 101.183 72.2974 99.162C74.7748 98.7528 84.1535 95.3608 85.1863 98.2132C85.6751 97.5712 86.5095 97.5231 87.258 97.5201ZM201.351 352.612C200.062 352.75 198.806 352.83 197.532 353.063C192.881 353.827 188.445 355.628 184.449 358.13C183.155 358.937 182 359.954 180.515 360.404C177.463 361.513 174.463 358.76 174.687 355.784C173.836 363.263 173.982 370.958 174.424 378.474C186.361 383.876 198.566 388.692 210.993 392.876C213.791 394.049 217.105 394.425 219.675 396.011C224.057 395.735 228.468 394.196 232.149 391.789C238.255 387.551 234.201 380.83 229.14 377.873C217.998 372.843 208.514 362.665 201.351 352.612ZM176.94 341.553C176.707 343.77 178.391 347.223 178.153 351.641C177.971 353.021 177.54 354.466 177.69 355.851C178.375 360.989 183.937 354.46 186.235 353.744C189.498 351.949 193.043 350.727 196.687 350.059C196.665 348.874 195.881 348.401 195.778 347.23C195.63 345.505 195.637 343.848 195.56 342.107C190.82 344.262 181.967 342.738 176.94 341.553ZM202.475 352.277C202.393 352.332 202.305 352.379 202.216 352.421C202.874 353.219 203.445 354.104 204.226 354.79L203.894 354.274C203.449 353.584 202.994 352.898 202.475 352.277ZM55.2829 168.458C55.0441 169.429 54.6092 170.342 53.9577 171.118C57.3222 198.405 40.0125 221.152 55.9271 246.522C56.1283 246.616 56.3118 246.733 56.4885 246.879C56.5821 246.816 56.6757 246.751 56.7675 246.685C64.2269 233.482 74.8453 222.092 83.3059 209.457C84.9298 206.286 87.603 203.094 88.6265 199.429C71.6242 192.714 64.8326 182.915 55.2829 168.458ZM279.038 209.847C278.317 210.105 277.515 209.892 276.745 209.878C274.014 209.82 271.345 210.533 268.732 211.253C261.134 213.332 253.496 215.172 245.711 216.403C245.554 216.566 245.404 216.732 245.267 216.907C245.402 217.136 245.423 217.421 245.227 217.705C244.053 219.949 245.002 222.697 244.149 225.099C242.913 229.961 239.625 235.446 234.718 237.172C236.355 238.732 237.527 240.739 239.213 242.244C243.356 245.085 247.918 240.851 251.301 238.581C257.74 234.031 264.197 229.512 270.671 225.012C273.571 222.607 279.987 219.577 281.375 216.391C282.264 213.949 280.646 211.569 279.038 209.847ZM234.659 216.047C231.887 221.701 230.287 227.713 228.686 233.784C230.351 234.242 231.885 234.96 233.521 235.443C235.826 235.961 239.081 231.506 240.236 229.737C241.428 227.759 242.262 225.586 242.649 223.309C242.975 221.079 242.627 218.763 243.597 216.697C240.594 217.004 237.548 217.068 234.659 216.047ZM69.8734 204.38C72.4763 203.65 66.555 209.541 66.214 210.169C62.3639 214.716 58.8363 219.519 55.3358 224.336L54.2746 225.799C54.1727 225.947 53.4699 226.986 53.9781 226.854C54.0246 226.841 54.0463 226.902 54.0093 226.928C50.772 227.501 68.3123 204.78 69.8734 204.38ZM133.33 201.599C133.54 200.965 132.541 200.694 132.33 201.325L131.667 203.323C129.163 210.876 126.674 218.438 123.681 225.814C123.431 226.433 124.432 226.702 124.681 226.091C127.936 218.064 130.596 209.816 133.33 201.599ZM162.436 198.955C161.523 203.288 159.217 207.194 157.819 211.336C160.445 210.757 162.468 208.309 163.998 206.204L164.044 206.134C164.766 205.022 165.606 203.285 167.245 204.07C169.735 205.516 167.951 210.646 167.905 213.078C167.589 216.411 166.506 219.529 165.768 222.767C167.665 221.47 168.211 218.912 169.136 216.918L172.695 208.376C175.312 204.79 174.097 215.53 173.962 216.544C173.749 218.77 172.811 221.01 173.179 223.252C174.655 221.664 175.584 219.667 176.365 217.642C177.449 214.825 178.438 211.972 179.469 209.136C179.825 208.228 181.177 208.546 180.981 209.547C180.914 212.765 180.862 215.983 180.81 219.202L180.772 221.615C180.765 222.073 180.539 223.409 181.329 223.04C185.478 218.683 186.542 209.971 186.003 204.118C177.845 204.315 169.523 203.257 162.436 198.955ZM235.024 215.209C234.991 215.315 234.952 215.422 234.914 215.528C234.937 215.533 234.962 215.538 234.986 215.544C235.001 215.431 235.014 215.32 235.024 215.209ZM53.9855 215.209C53.0806 214.54 68.2888 195.007 67.3036 200.646C63.0607 205.668 58.1129 210.068 53.9855 215.209ZM188.295 172.046C174.072 168.704 161.547 181.19 147.264 179.303C147.429 183.775 147.659 188.277 147.569 192.751C166.537 194.316 164.378 202.392 186.213 201.579C189.035 199.688 190.194 188.102 189.955 184.605C190.138 180.469 186.58 178.613 183.037 177.887C181.756 178.661 179.459 176.353 181.36 175.542C183.863 174.788 186.204 173.604 188.295 172.046ZM83.3689 98.7516C78.3091 99.2505 73.2974 100.63 68.647 102.762C51.4562 107.726 48.9775 127.857 51.0446 143.112C51.9011 154.712 55.2082 166.058 62.1612 175.491C80.6722 203.732 111.332 199.26 140.373 195.525C141.419 194.796 143.193 195.314 144.202 194.351C144.097 194.315 144.002 194.265 143.92 194.202C144.405 193.824 144.78 193.16 144.892 192.455L145.101 192.475C145.306 188.096 145.142 183.802 145.209 179.457C135.666 176.839 125.432 175.501 115.761 172.893C114.662 173.66 113.395 172.777 112.321 172.361C109.537 171.176 106.729 170.051 103.9 168.98L103.192 168.713C101.348 168.022 99.5049 167.313 97.6781 166.573L96.9938 166.295C95.9472 165.867 93.3044 164.282 92.1628 165.271L92.2549 165.47C92.9318 166.948 95.2638 172.415 92.3971 171.334C90.0692 169.698 88.8623 158.295 86.5566 158.194C85.7637 160.317 85.1956 162.521 85.0657 164.79C85.019 165.301 84.348 165.731 83.9449 165.254C81.2102 161.652 85.341 157.727 85.4513 153.925C85.7118 149.503 83.7562 145.366 82.782 141.133L82.7221 140.842C82.1508 138.096 81.2619 134.767 81.4977 132.304L82.0651 134.442C82.6343 136.581 83.2173 138.72 83.8862 140.829C85.5464 146.096 88.5438 151.523 86.8781 157.159C90.2196 157.27 90.7847 162.547 92.0399 164.956C94.0707 162.32 108.361 168.641 111.622 169.655L112.251 168.941C122.464 157.356 129.837 149.516 145.666 158.68C142.932 149.855 142.667 140.482 142.201 131.318C142.361 129.574 141.354 124.976 142.774 124.024C143.021 124.06 143.26 124.134 143.487 124.234L143.486 125.137C143.493 126.887 143.575 129.788 144.308 130.447L144.645 133.912C145.526 142.921 146.526 151.924 149.215 160.605C155.67 164.216 161.561 168.737 167.102 173.614L167.733 173.384C174.58 170.876 182.818 167.661 189.818 170.791C189.701 169.024 189.019 167.333 188.068 165.838C186.482 165.445 185.445 163.772 184.31 162.658C180.711 158.791 177.018 155.012 173.502 151.067C158.502 134.923 152.12 108.413 128.564 102.151C127.007 115.197 110.324 117.278 100.272 112.814L99.8901 112.667C93.6409 110.254 86.5787 106.613 84.384 99.9777L84.2928 99.7856C84.0671 99.3177 83.798 98.8407 83.3689 98.7516ZM87.0767 172.99C87.095 172.97 87.1305 172.997 87.1149 173.019C84.1859 176.696 81.8027 181.711 84.7135 186.104C85.2515 187.093 83.9941 188.043 83.1891 187.289C79.149 182.699 83.6315 176.477 87.0767 172.99ZM188.976 173.821C187.365 174.971 185.639 175.926 183.809 176.68C183.815 176.891 183.712 177.117 183.619 177.282C186.028 177.473 188.535 178.096 190.226 179.853C190.308 179.21 190.388 178.566 190.45 177.921C190.605 176.263 190.322 174.779 188.976 173.821ZM78.2269 157.566L78.2456 157.477C78.2587 157.377 78.4113 157.37 78.4067 157.477C78.3508 158.792 77.3948 159.727 76.5851 160.663C75.3836 162.051 74.182 163.44 72.9799 164.828C70.9703 167.247 68.0097 169.679 68.6754 173.183C68.6879 174.428 67.1287 174.695 66.4961 173.779C63.9802 168.979 71.8998 164.895 74.5693 161.798C75.8228 160.458 77.7982 159.471 78.2269 157.566ZM115.935 171.977C115.972 172.037 115.999 172.102 116.013 172.168C116.435 172.213 116.855 172.261 117.275 172.312L115.935 171.977ZM52.9413 160.751C53.0165 161.252 53.0868 161.755 53.1542 162.258L53.2206 162.761L53.2309 162.717C53.2653 162.587 53.3301 162.473 53.4149 162.383L53.4439 162.353C53.2693 161.822 53.1018 161.287 52.9413 160.751ZM168.563 155.559C169.573 155.451 165 158.74 164.747 159.147C164.379 159.468 163.948 158.898 164.341 158.62C165.762 157.618 167.162 156.588 168.563 155.559ZM159.667 145.882C160.369 145.595 160.846 146.765 160.18 147.09C157.754 148.278 155.189 149.118 152.954 150.68C152.856 150.748 152.733 150.589 152.826 150.515L153.094 150.303C155.153 148.667 157.21 146.889 159.667 145.882ZM53.779 131.092C54.457 134.286 58.1255 135.335 60.9725 136.186L61.862 136.525C64.3761 137.488 66.9806 138.571 68.7893 140.605C69.4983 142.899 64.4397 138.902 63.7336 138.7C60.2793 136.557 54.0377 136.193 53.779 131.092ZM128.668 101.265C128.687 101.428 128.696 101.593 128.701 101.759C128.914 101.759 129.125 101.761 129.338 101.768C129.09 101.622 128.863 101.457 128.668 101.265Z" fill="#122433"/>
</g>
<g id="lenes haare">
<ellipse id="Ellipse 4" cx="88.5" cy="62" rx="9.5" ry="9" fill="#FFFDF5"/>
<path id="&#240;&#159;&#142;&#168; Background_2" fill-rule="evenodd" clip-rule="evenodd" d="M96.7614 7.16877C133.345 5.66507 135.9 14.5522 140.923 20.2181C143.417 23.0298 149.853 27.194 150.921 36.81C151.662 43.485 146.944 51.1787 146.944 57.1433C146.944 60.1879 151.404 66.7243 149.327 71.1617C144.706 81.0386 134.921 92 122.452 92C109.984 92 86.9668 86.2562 73.1892 69.7679C68.6764 64.3672 60.1781 8.67246 96.7614 7.16877Z" fill="#FFFDF5"/>
<path id="&#240;&#159;&#150;&#141; Ink_2" fill-rule="evenodd" clip-rule="evenodd" d="M84.6108 7.29374C86.4692 6.14995 99.0889 -0.20325 107.752 0.00506954C112.239 0.11316 117.265 -0.223437 121.502 1.24069C123.622 1.9757 132.82 2.92024 134.782 4.00507C135.489 4.3951 128.997 4.86664 129.624 5.35199L129.781 5.47389H129.783C131.466 6.0792 131.389 6.0222 132.752 7.29374C135.485 7.07559 139.819 8.46504 142.462 9.30814C146.139 10.4834 150.361 12.449 152.752 15.505C155.537 19.0628 160.583 29.5501 160.252 34.0051L155.254 28.7764C156.252 38.005 154.342 37.7737 151.113 40.3595C150.868 40.556 150.597 40.7054 150.316 40.7958C152.396 44.3608 154.103 48.3188 155.125 52.3162C159.024 67.5844 156.026 83.5071 151.337 98.223C150.952 99.4356 149.119 100.241 148.186 99.0563C146.52 96.9378 144.1 95.3223 141.377 95.0197C139.697 94.833 138.026 95.171 136.438 94.4085C135.816 94.1078 135.214 93.6164 134.782 93.019C132.103 94.035 129.217 94.5146 126.355 94.3967C121.657 94.2041 116.636 92.5768 113.405 89.0079C112.886 88.435 112.754 87.7918 112.874 87.212C113.279 87.0674 113.695 86.9597 114.124 86.8923C118.222 89.3084 122.739 90.9228 127.594 91.0242C130.399 91.0828 133.135 90.6903 135.41 88.9381C135.902 88.5588 136.354 88.1388 136.773 87.6876C141.528 84.6273 144.881 79.4293 146.475 73.8615C147.96 68.6693 147.777 63.2628 147.267 57.9369L146.997 55.1264C146.604 51.0015 146.24 46.8642 146.138 42.7217L146.169 42.7202C147.173 42.6553 147.18 41.0825 146.169 41.1479C143.552 41.3174 144.484 42.5331 141.876 42.7202C144.906 42.7097 138.236 38.6133 137.874 37.4236C137.667 36.7438 136.484 36.6097 136.359 37.4236C136.191 38.5123 136.13 39.595 136.111 40.6887C127.637 32.4741 133.528 41.0129 129.624 41.1479C128.904 40.3795 123.454 38.3123 123.117 37.3644C123.068 37.2249 123.019 37.0873 122.968 36.9478C122.672 38.3022 122.252 39.627 121.7 40.9239L116.315 42.7202C110.882 42.7457 115.145 35.8018 109.84 36.9305C109.471 36.6473 101.788 46.8148 103.814 41.0178C105.84 35.2209 102.88 35.2563 101.906 32.4741L101.767 32.0815C101.756 32.049 101.744 32.0144 101.731 31.978C101.014 33.1361 100.158 34.2156 99.2249 35.2209C98.6749 35.8134 98.0981 36.38 97.5062 36.9305C96.9312 37.5692 96.3369 38.1983 95.7609 38.8389C95.7835 38.9555 95.8032 39.0738 95.8191 39.1943C95.9953 40.5238 96.0136 41.8722 95.8845 43.2068C95.6511 45.6195 94.9702 47.9445 93.8764 50.0953L93.8418 50.3106C93.6757 51.3185 93.4393 52.3602 92.8874 53.1192C93.5762 53.8912 94.1068 54.8133 94.4144 55.8378C94.6883 56.7499 93.4269 57.5403 92.7727 56.7939C92.2531 56.201 91.6757 55.7102 91.0416 55.3188C91.0015 55.3732 90.9292 55.3999 90.8481 55.3545C89.082 54.3739 86.0822 54.6706 84.3181 55.5943C82.1237 56.742 81.2672 59.0984 81.5108 61.4862C81.7446 63.7679 82.7425 66.4347 84.6776 67.6041C85.5655 68.1406 86.257 68.1858 87.2 67.9283C87.5015 67.8464 87.8753 67.5952 88.0357 67.4704L88.1936 67.3437C88.8118 66.855 89.3875 66.5203 90.1173 66.5074C90.8636 66.2746 91.6138 66.5976 91.8992 67.3805L91.9168 67.4311C92.0504 67.8301 92.294 68.3312 92.2409 68.9405C92.1859 69.5929 91.8873 70.1864 91.4414 70.664C91.3647 70.7465 91.2822 70.8291 91.1978 70.9057C98.879 79.2247 99.8652 92.1877 95.9263 102.58C95.7554 103.036 95.5727 103.486 95.3822 103.932C94.7241 105.461 92.1898 104.988 91.8677 103.472C91.7714 103.018 91.6653 102.566 91.5494 102.118C91.3364 101.29 91.0923 100.47 90.8172 99.6615L90.7125 99.359C90.4788 98.6908 90.2607 98.0167 90.025 97.3485L90.0014 97.2721C89.9925 97.2419 89.9827 97.207 89.9719 97.1677L89.5731 98.0383L88.361 100.666C87.7938 101.892 85.9917 101.226 85.9247 100.044L85.9231 100.004C85.9172 99.7854 85.9093 99.5693 85.8956 99.3551C85.8091 97.7494 85.5321 96.189 85.0921 94.662L84.9333 94.8593C82.5692 97.7832 79.7947 100.524 75.9886 101.198C75.0338 101.367 73.9533 100.369 74.6095 99.4042C74.8806 99.0052 75.1419 98.5965 75.3894 98.1818C75.1753 98.0816 74.9729 97.9774 74.7863 97.8713C73.3424 97.0596 72.1401 95.904 71.1461 94.5932C69.0381 91.8143 68.2838 88.3161 68.0991 84.8926C67.9027 81.2745 68.2209 77.4599 69.2091 73.9696C69.6373 72.4603 70.2168 71.0119 70.8867 69.6067C70.8396 69.4809 70.7944 69.3551 70.7492 69.2294C70.0263 67.213 69.433 65.1514 68.9399 63.0663C67.9459 58.8566 67.4115 54.5134 67.3467 50.1878C67.2288 42.4387 66.1248 34.2314 68.9399 27.005C71.8474 19.5527 82.7523 8.43753 84.6108 7.29374ZM81.6509 70.5988C81.117 69.7578 79.7812 70.5157 80.2769 71.3625L80.2954 71.3928C81.1421 72.7272 81.5389 74.2444 82.0261 75.7321C82.3385 76.6892 83.8571 76.2804 83.5408 75.3135L83.4361 74.9907C82.9513 73.482 82.509 71.9488 81.6509 70.5988ZM86.3004 59.5466L86.6551 59.3749C87.7739 58.8408 88.7542 58.4769 90.0762 58.9432C91.8462 59.5662 93.7419 61.5492 92.5456 63.4732C92.1055 64.1827 91.3236 64.4657 90.5182 64.2986C89.1603 64.0169 88.8099 62.7936 88.1208 61.7895L88.0023 61.6195C87.5822 61.0118 87.0509 60.1719 86.3515 59.9337C86.1923 59.8787 86.1256 59.6311 86.3004 59.5466ZM87.2986 18.6967L87.4128 18.5942C88.173 17.9221 87.0572 16.8137 86.3009 17.4819C82.8394 20.5418 81.6371 25.3312 79.8416 29.4131C79.4389 30.3309 80.7924 31.1327 81.1991 30.2071C82.9118 26.312 84.0487 21.6526 87.2986 18.6967ZM128.895 17.3581C127.991 16.9504 127.199 18.2671 128.069 18.7006L128.101 18.7161C131.158 20.0977 132.459 23.2264 133.704 26.1311C134.101 27.0587 135.455 26.2588 135.062 25.3391L134.837 24.8179C133.537 21.8245 132.022 18.7734 128.895 17.3581ZM133.686 15.4675C132.727 15.1353 132.317 16.6525 133.268 16.9847C135.859 17.8867 137.637 19.8323 139.136 22.057C139.697 22.8903 141.059 22.1042 140.491 21.2631C138.75 18.6807 136.684 16.513 133.686 15.4675Z" fill="#122433"/>
<path id="Vector 1" d="M67.2464 60.8572C57.2464 64.3572 60.2464 59.3572 69.2464 51.3572L83.2464 57.3572C81.2464 57.3572 75.2464 58.0572 67.2464 60.8572Z" fill="#122433"/>
</g>
<path id="lenes gesicht" fill-rule="evenodd" clip-rule="evenodd" d="M129.443 82.8594C128.107 82.315 126.915 81.407 126.043 80.2471C125.74 79.8438 125.662 79.418 125.725 79.0285C125.797 78.5906 126.056 78.1937 126.41 77.9275C126.765 77.6604 127.209 77.5287 127.638 77.5958C128.011 77.6542 128.382 77.8581 128.675 78.281L128.737 78.3656C129.255 79.0657 129.93 79.6401 130.699 80.0104C131.441 80.3673 132.27 80.5338 133.128 80.437C134.763 80.2526 135.889 79.3697 137.086 78.1708C137.235 78.0195 137.383 77.8634 137.532 77.7047C137.627 77.561 137.757 77.4685 137.903 77.4201C138.064 77.3662 138.246 77.3693 138.413 77.4275C138.574 77.4836 138.718 77.5901 138.815 77.7317C138.907 77.8663 138.959 78.0326 138.942 78.2239C138.832 79.4664 138.182 80.5752 137.258 81.4459C136.232 82.4128 134.872 83.0818 133.592 83.3164C132.181 83.5749 130.744 83.3897 129.443 82.8594ZM134.01 63.5967C135.284 64.3442 137.078 67.0765 135.708 68.9298C134.095 70.5639 133.162 68.1093 131.464 68.5196C129.767 68.9298 129.631 68.9835 130.616 69.7503C138.884 75.6616 140.486 63.4404 134.01 62.3659C133.297 62.2475 133.677 63.3654 134.01 63.5967ZM114.798 55.3113C114.964 53.2555 118.099 52.7887 118.411 54.823C118.69 56.6452 118.361 58.3192 117.539 59.9598C116.754 61.5271 114.781 60.7959 114.631 59.3687C114.431 57.4555 114.695 56.5901 114.798 55.3113ZM138.659 54.4012C139.096 53.8295 139.727 53.4392 140.483 53.6598C142.845 54.3491 142.149 57.6985 141.319 59.3287C140.869 60.2141 139.412 60.4386 138.753 59.6591C137.68 58.3879 137.166 55.8492 138.531 54.5971C138.568 54.5324 138.609 54.4671 138.659 54.4012ZM119.506 46.3159L119.879 46.2507C121.033 46.0513 122.469 45.8597 123.285 46.7866C123.718 47.2781 123.867 48.1916 123.285 48.662C122.261 49.4898 121.129 49.169 119.902 49.239C118.891 49.297 117.919 49.4641 116.945 49.7422C114.808 50.3522 113.067 51.4658 111.242 52.6886C111.003 52.849 110.758 52.5431 110.873 52.3194C111.926 50.2583 113.968 48.5653 116.013 47.5333C117.104 46.9825 118.299 46.5255 119.506 46.3159ZM138.506 45.3927L138.792 45.4511C141.899 46.0999 145.937 47.396 147.409 50.4449C147.465 50.876 147.405 50.9684 147.357 51.0288L147.341 51.0489C147.301 51.1004 147.27 51.1715 147.083 51.2301C147.031 51.2178 146.978 51.2047 146.925 51.1908C146.251 51.0143 145.717 50.771 145.2 50.5186L144.64 50.2429C143.99 49.9246 143.334 49.6179 142.64 49.3914C141.157 48.9083 139.631 48.5679 138.082 48.3862C137.746 48.3469 137.423 48.2337 137.168 48.0397C136.926 47.8556 136.741 47.6007 136.657 47.2618C136.547 46.8233 136.579 46.4914 136.814 46.0958C136.992 45.7987 137.245 45.5928 137.536 45.4745C137.833 45.354 138.17 45.3256 138.506 45.3927Z" fill="black"/>
</g>
</g>
</svg>
