<svg
  aria-hidden="true"
  class="avatar avatar-404"
  viewBox="0 0 410 383"
  fill="none"
  xmlns="http://www.w3.org/2000/svg"
>
  <g id="lene 404">
    <path
      id="Subtract"
      d="M382.953 193.747C382.953 297.718 301.927 382.003 201.976 382.003C102.026 382.003 21 297.718 21 193.747C21 89.7758 102.026 5.49054 201.976 5.49054C301.927 5.49054 382.953 89.7758 382.953 193.747Z"
      fill="var(--color-light)"
    />
    <mask
      id="mask0"
      mask-type="alpha"
      maskUnits="userSpaceOnUse"
      x="41"
      y="0"
      width="369"
      height="369"
    >
      <circle id="Ellipse 5" cx="225.5" cy="184.5" r="184.5" fill="var(--color-light)" />
    </mask>
    <g mask="url(#mask0)"></g>
    <mask
      id="mask1"
      mask-type="alpha"
      maskUnits="userSpaceOnUse"
      x="0"
      y="0"
      width="403"
      height="382"
    >
      <ellipse
        id="Ellipse 6"
        cx="201.5"
        cy="191"
        rx="201.5"
        ry="191"
        fill="var(--color-light)"
      />
    </mask>
    <g mask="url(#mask1)">
      <g id="Group 2">
        <g id="body/Whatever">
          <path
            id="&#240;&#159;&#142;&#168; Background"
            fill-rule="evenodd"
            clip-rule="evenodd"
            d="M372.944 255.606C376.293 253.854 379.562 251.949 382.779 249.967C385.045 248.608 383.039 245.184 380.715 246.421C379.527 247.054 378.343 247.693 377.155 248.322C378.09 247.515 378.957 246.636 379.734 245.677L379.68 245.624C382.676 242.932 378.828 237.854 375.421 240.065C372.417 242.249 369.385 244.477 365.937 245.915C358.794 248.953 350.916 249.455 343.25 249.543C340.444 249.332 337.764 249.819 335.042 250.362C336.109 246.069 338.78 242.826 340.197 238.668C341.242 234.469 335.199 231.61 333.057 235.645C332.532 236.636 332.031 237.639 331.541 238.646C326.912 242.869 319.182 242.497 314.513 247.03C311.854 249.397 310.553 252.609 310.039 255.832C309.69 258.021 310.232 260.216 308.912 262.154C302.532 271.204 292.451 285.509 287.331 295.468C283.707 271.802 274.028 242.529 264.028 220.889C260.722 213.968 256.939 207.205 251.973 201.339C252.536 199.382 250.549 195.91 249.286 196.979C245.397 192.215 238.523 190.981 232.996 188.613C225.535 185.413 219.344 178.763 216.301 171.204C212.391 156.809 202.766 154.981 189.417 155.617C176.641 155.601 167.189 161.081 164.402 174.123C158.739 184.022 145.368 182.385 135.749 185.005C128.699 186.62 121.857 189.117 115.355 192.287C108.122 185.407 82.216 214.284 79.8613 221.716C81.2475 221.985 82.6253 222.31 83.9906 222.705C85.2066 223.058 84.696 224.899 83.4696 224.605C81.9434 224.237 80.4075 223.984 78.8643 223.808C78.8173 223.956 78.7761 224.103 78.7454 224.249C78.5721 224.237 78.3992 224.222 78.226 224.21C78.61 224.411 78.9797 224.644 79.3399 224.944C80.2107 225.669 79.0771 227.068 78.1518 226.491C77.28 225.836 76.1383 225.94 75.0926 225.72C75.0305 227.876 67.358 225.464 66.1662 224.749C60.8693 224.085 55.4201 224.798 50.4753 222.236C43.8958 220.847 37.2669 219.31 30.7613 217.54C29.039 218.214 27.4204 220.623 28.7883 222.391C29.5578 223.196 28.5687 224.509 27.5998 223.938C24.3504 222.02 21.8375 219.025 19.707 215.8C18.7041 214.785 16.924 215.004 15.5767 214.582C15.3966 214.907 15.2903 215.269 15.292 215.64C9.57669 216.583 13.6537 222.843 16.5269 224.794C15.0027 225.789 14.9448 227.738 15.0782 229.365C14.7552 229.945 14.6474 230.664 14.9285 231.313C16.0032 233.797 18.3276 235.889 20.0949 237.901C22.0463 240.123 23.7863 242.358 26.1606 244.159C35.2109 251.078 46.1325 254.946 57.3369 256.458C61.3152 257.071 67.0376 258.009 69.5009 261.383C68.8965 265.387 67.7868 269.226 66.7801 273.131C65.3723 278.313 65.468 283.739 65.4494 289.022C65.2526 288.863 64.8748 288.896 64.8185 289.198C64.491 291.389 64.2475 293.628 62.9201 295.468C61.7565 298.89 60.9821 302.54 60.547 306.135C58.8042 323.18 58.3881 340.726 62.3177 357.505C63.834 363.73 66.3002 369.645 69.6604 375.092C70.6623 376.717 72.2731 377.193 73.7195 376.874C78.5604 379.396 84.6587 380.204 89.8765 379.564C107.665 374.514 101.467 386.674 126.408 382.95C169.459 377.451 212.966 388.258 255.925 381.913C256.983 390.109 270.834 387.758 275.645 384.293C290.071 373.538 297.234 339.488 304.474 322.214C309.45 308.599 317.783 284.485 328.696 275.349C331.969 272.782 335.924 271.431 339.882 270.34C354.652 266.523 369.48 262.913 384.278 259.202C386.788 258.583 386.337 254.29 383.653 254.566C380.092 254.931 376.518 255.262 372.944 255.606Z"
            fill="var(--color-light)"
          />
          <path
            id="&#240;&#159;&#150;&#141; Ink"
            fill-rule="evenodd"
            clip-rule="evenodd"
            d="M44.1335 253.053C43.1332 252.929 42.1526 252.572 41.1786 252.29C39.6913 251.854 38.2335 251.346 36.7986 250.765C33.8371 249.576 30.964 248.169 28.2706 246.448C23.92 243.665 20.076 240.099 17.1767 235.805L16.9777 235.505C15.3225 232.977 12.2693 227.362 15.6927 225.443C13.4863 223.594 11.4009 220.273 11.5185 217.71C11.6853 214.084 16.1176 214.134 18.4089 215.671C19.9092 216.677 21.0337 218.087 22.1613 219.474C23.41 221.014 24.7436 222.483 26.1295 223.895C26.4972 224.269 26.8686 224.635 27.2465 224.996L27.6265 225.354C27.5677 225.213 27.5154 225.069 27.4697 224.921C26.7048 222.532 27.6168 219.421 29.9996 218.326C31.4578 217.656 32.9723 218.065 34.3853 218.634L34.6019 218.723C36.5043 219.513 38.4295 220.211 40.4103 220.772C48.484 223.056 56.9106 223.437 65.1836 224.577C68.3706 225.02 71.6163 225.577 74.787 226.396C75.9963 221.247 78.961 216.31 82.1774 212.249C97.5793 192.82 122.98 186.398 146.217 182.242C148.335 181.865 150.091 184.677 151.323 184.012C153.66 182.753 155.716 180.97 157.52 179.033C161.368 174.899 164.097 170.038 167.304 165.432C168.889 163.157 172.537 165.193 171.066 167.635L170.345 168.828C167.378 173.717 164.093 178.755 159.838 182.547C157.576 184.559 155.066 186.149 152.196 187.142C150.022 187.893 146.972 188.526 144.593 187.798L144.307 187.381C144.402 187.52 144.497 187.659 144.593 187.798C150.803 196.822 158.596 204.46 166.807 211.668C175.094 218.94 184.035 225.452 193.03 231.819L193.78 232.349C208.433 221.631 220.811 207.65 229.496 191.676C227.676 191.456 225.875 190.286 224.319 189.414C222.446 188.359 220.684 187.1 219.311 185.421C216.32 181.766 216.709 177.056 216.17 172.621C216.137 172.345 216.5 172.277 216.667 172.414C218.288 173.765 218.857 175.977 219.534 177.889C220.279 179.99 221.122 181.721 222.832 183.199C224.424 184.576 226.365 185.589 228.251 186.49C229.224 186.953 234.052 188.141 234.602 189.126C242.944 187.162 251.07 190.555 257.251 196.278C263.223 201.808 267.606 208.997 271.476 216.094C275.604 223.666 278.987 231.559 281.903 239.672C284.858 247.907 287.123 256.322 288.369 264.989C289.42 272.296 290.064 279.718 290.481 287.106L290.532 288.03C296.704 278.317 303.028 268.706 309.484 259.18C308.016 255.25 309.641 251.237 312.39 248.202C315.436 244.842 319.65 243.282 323.68 241.466L324.21 241.225C326.152 240.337 328.088 239.358 329.766 238.027C331.381 236.742 332.567 234.972 334.267 233.789C336.738 232.064 341.223 232.431 341.337 236.198C341.396 238.267 340.51 240.535 339.7 242.393C338.781 244.495 337.542 246.399 336.071 248.149C336.003 248.231 335.929 248.295 335.854 248.346L335.797 248.382C337.83 248.72 339.879 248.992 341.968 249.087C346.181 249.28 350.441 248.969 354.566 248.077C358.789 247.166 362.881 245.685 366.679 243.619C369.925 241.856 372.932 239.574 376.619 239.037C376.959 238.984 377.302 238.951 377.655 238.932C378.244 238.899 378.832 239.594 378.6 240.177C378.473 240.499 378.339 240.817 378.192 241.138C376.917 243.954 374.962 246.685 372.523 248.758L372.334 248.917C373.194 248.618 374.04 248.284 374.874 247.907C379.774 245.694 384.219 242.351 389.472 241.007C389.72 240.941 389.972 240.882 390.224 240.826C391.848 240.476 392.705 242.246 391.75 243.459C391.596 243.655 391.443 243.849 391.283 244.042C388.939 246.959 386.354 249.667 383.503 252.099C382.526 252.932 381.519 253.738 380.493 254.509C380.06 254.836 379.625 255.155 379.186 255.469L378.97 255.623C379.483 255.26 379.989 254.889 380.493 254.509C383.709 253.532 386.88 252.375 389.982 251.093C391.214 250.585 392.172 251.837 392.302 252.866C392.74 256.315 388.923 258.81 386.438 260.468C383.948 262.134 381.205 263.399 378.397 264.415C372.999 266.371 367.329 267.26 361.668 268.056L358.918 268.44C348.034 269.966 336.667 271.791 328.857 280.284C324.481 285.043 321.519 290.957 318.81 296.775C316.103 302.588 313.727 308.554 311.471 314.552C309.134 320.761 307.098 327.084 304.934 333.355C302.947 339.113 300.573 344.797 298.222 350.424L297.851 351.312C292.86 363.27 286.898 374.533 278.589 384.518C277.219 386.167 275.006 383.827 276.271 382.194C284.963 370.957 291.01 357.698 296.001 344.471C298.273 338.452 300.175 332.289 302.358 326.238L303.658 322.643C305.392 317.851 307.142 313.066 308.968 308.311C311.279 302.296 313.818 296.353 316.724 290.603L317.032 289.998C319.877 284.451 323.257 278.984 327.91 274.787C336.283 267.228 347.425 265.415 358.198 263.978L361.587 263.53C366.142 262.924 370.71 262.253 375.139 261.032C377.695 260.331 380.192 259.432 382.539 258.193C383.474 257.702 384.386 257.161 385.268 256.571C382.751 257.312 380.199 257.918 377.6 258.393C376.328 258.626 375.07 258.8 373.815 258.921C370.582 259.242 367.376 259.229 364.064 259.056C363.783 259.039 363.692 258.597 363.993 258.541C366.298 258.13 368.607 257.616 370.906 257.057L371.595 256.889C371.609 256.505 371.759 256.099 372.073 255.712C373.217 254.316 375.39 253.601 376.897 252.614C378.476 251.581 380.006 250.467 381.464 249.274C382.797 248.183 384.079 247.028 385.311 245.822L385.68 245.458C385.558 245.58 385.434 245.701 385.311 245.822C381.983 247.363 378.829 249.339 375.354 250.559C372.592 251.532 369.696 252.188 366.774 252.421L366.593 252.435L366.411 252.447C363.362 252.667 360.292 252.578 357.288 253.24C356.952 253.316 356.847 252.863 357.148 252.736C359.773 251.641 362.502 251.218 365.261 250.706C365.32 250.49 365.47 250.297 365.731 250.172L366.437 249.834C368.539 248.822 370.498 247.8 372.246 246.156C373.789 244.704 375.073 243.007 376.038 241.125C372.177 241.974 368.788 244.908 365.277 246.556C361.453 248.356 357.406 249.648 353.248 250.382L352.775 250.464C345.005 251.763 335.661 251.598 328.701 247.546C328.478 247.415 328.639 247.117 328.867 247.153C330.842 247.478 332.796 247.861 334.751 248.202C334.368 247.851 334.199 247.222 334.64 246.717C336.395 244.699 337.784 242.393 338.671 239.87L338.841 239.376C339.25 238.206 339.94 236.388 339.236 235.332C338.562 234.326 336.977 234.464 336.029 234.89C334.058 235.782 332.747 238.008 331.087 239.351C329.276 240.82 327.217 241.908 325.108 242.882L324.663 243.085C321.017 244.73 317.12 246.114 314.253 249.018C312.71 250.579 311.383 252.529 310.939 254.715C310.736 255.718 310.736 256.751 311.004 257.744C311.216 258.521 311.661 259 311.406 259.79C311.073 260.809 309.893 262.029 309.285 262.937C308.579 263.986 307.876 265.038 307.173 266.09C305.771 268.195 304.375 270.306 302.979 272.413C300.188 276.635 297.426 280.877 294.687 285.132C293.796 286.518 292.907 287.905 292.022 289.293L290.696 291.377L289.995 292.475L288.8 294.359C288.842 294.533 288.839 294.717 288.784 294.877C288.58 295.459 288.198 295.857 287.724 296.146L287.64 296.195C280.664 307.252 273.8 318.381 266.867 329.464C266.498 332.847 266.151 336.233 265.851 339.619C265.167 347.283 264.7 354.967 264.55 362.66C264.478 366.384 264.775 370.131 264.935 373.851C265.014 375.627 265.121 377.401 265.261 379.174L265.364 380.43C265.503 382.158 265.581 383.872 264.962 385.518C264.412 386.963 262.739 387.288 261.748 386.187C248.827 385.665 235.897 385.269 222.966 385.023C199.82 384.577 176.665 384.646 153.516 385.095C141.89 385.321 130.26 385.639 118.636 386.033C112.909 386.223 107.179 386.491 101.45 386.57C98.3624 386.612 93.5036 385.485 93.2545 382.002L93.2484 381.896C92.8627 382.001 92.4639 382.086 92.0553 382.148C91.8734 382.176 91.6987 382.168 91.5374 382.13L91.4572 382.109C86.8553 383.515 81.0342 381.508 76.6614 380.339L76.3004 380.243C72.1263 379.152 68.7727 377.592 66.0368 374.123C61.2482 368.05 59.6138 359.894 58.764 352.377C57.9664 345.303 57.9207 338.098 58.8915 331.038C58.3194 325.285 58.8784 319.348 59.5288 313.628C59.8492 310.799 60.2251 307.973 60.6761 305.161C60.9278 303.59 61.258 302.037 61.5946 300.486C61.7291 299.867 61.841 299.2 62.0114 298.555L62.0882 298.28C61.5652 298.349 60.9932 298.234 60.4408 297.93C59.1267 297.205 58.7443 295.74 58.7214 294.337C58.6495 290.108 59.1529 285.758 59.5974 281.556C60.0452 277.36 60.6598 273.148 61.4639 269.004L61.6719 267.936C62.2812 264.836 62.9784 261.637 64.2063 258.724C59.5943 257.938 54.9952 257.102 50.5204 255.679C48.337 254.981 46.1862 254.112 44.1335 253.053ZM284.858 297.061C284.786 297.077 284.717 297.097 284.649 297.117C282.805 297.635 280.942 298.074 279.085 298.546C275.876 299.355 272.738 300.26 269.753 301.666C269.128 309.58 268.201 317.467 267.32 325.358L267.145 326.937C268.498 324.419 269.884 321.921 271.332 319.453C275.742 311.93 280.252 304.466 284.858 297.061ZM63.2124 297.844C63.2222 298.785 63.0261 299.762 62.9215 300.667C62.7515 302.135 62.6143 303.611 62.441 305.079C62.088 308.029 61.7873 310.982 61.5683 313.946C61.4277 315.837 61.3362 317.735 61.2545 319.633C63.1079 312.687 65.5626 305.892 67.8965 299.086C67.5064 299.045 67.1076 298.95 66.6962 298.84L66.0037 298.653C65.5953 298.548 64.2707 298.221 63.2124 297.844ZM290.696 291.377L290.709 291.688C290.758 292.793 290.098 293.416 289.297 293.576C289.761 292.842 290.228 292.108 290.696 291.377ZM78.624 239.02C80.5754 239.194 82.4875 239.61 84.3114 240.332L84.4874 240.4C85.8365 240.923 87.8089 241.579 88.2502 243.023C88.3744 243.433 88.041 243.77 87.6586 243.803C86.1942 243.921 84.4683 242.347 83.1118 241.816C81.6017 241.226 80.0197 240.787 78.418 240.554C74.8192 240.026 71.0668 240.427 67.6804 241.741C67.4811 241.82 67.3568 241.501 67.5366 241.406C70.9491 239.544 74.744 238.676 78.624 239.02ZM37.2727 248.395C37.047 248.195 36.8215 247.986 36.5992 247.776C34.8468 246.113 33.2949 244.173 32.1458 242.041L31.8434 241.464C30.9076 239.647 29.7583 237.058 31.9577 235.749C33.2717 234.966 34.8538 235.162 36.3181 235.637C36.4129 235.667 36.5077 235.7 36.6025 235.732C37.2562 235.962 37.8871 236.237 38.4493 236.499C40.891 237.624 43.0451 239.259 45.3004 240.702C47.7442 242.266 50.1573 243.266 52.9777 243.851L53.2433 243.904C55.8909 244.429 58.7608 244.767 60.6076 246.95C61.0718 247.501 60.6469 248.533 59.846 248.261C54.7404 246.534 49.3373 246.153 44.65 243.318C42.7084 242.144 40.8714 240.797 38.8873 239.686C37.8348 239.095 36.7481 238.579 35.5901 238.225L34.9574 238.038C34.5868 237.929 34.1445 237.822 33.847 237.929C33.2808 238.126 33.4615 238.429 33.6367 238.96L33.6542 239.014C35.0303 243.282 38.9527 246.855 42.5874 249.218C43.421 249.762 44.2741 250.261 45.1435 250.723C51.0289 253.869 57.6142 255.333 64.082 257.071C64.082 257.071 67.8217 258.118 69.0605 258.511C70.4399 258.396 72.0121 258.885 73.0516 259.469C74.0616 260.035 74.8755 260.796 75.49 261.691C75.49 261.691 76.0816 262.186 76.1895 262.953C76.5 263.664 76.7092 264.431 76.8138 265.231C76.8726 265.7 76.755 266.06 76.5327 266.316C77.2013 276.607 74.4296 286.839 71.3048 296.619L70.9952 297.583L70.7962 298.195C67.4262 308.563 63.5593 318.856 61.8335 329.667C60.6796 336.888 60.7156 344.362 61.5622 351.617L61.6219 352.117C62.456 358.976 64.0609 366.67 68.41 372.19C70.6284 375.007 73.2566 376.259 76.6167 377.166L76.8007 377.215C79.8406 378.018 82.9785 379.155 86.1132 379.5C89.0223 379.817 91.4607 378.733 94.0789 377.716L94.0821 377.713C99.5964 372.819 102.1 365.693 103.95 358.5C108.745 339.888 108.151 320.567 105.431 301.683C104.012 291.816 102.084 282.034 100.162 272.256C99.2009 267.369 98.1647 262.491 97.3051 257.587L96.7945 254.701C96.5128 253.097 96.2403 251.493 96.0074 249.88C95.6936 247.714 95.5988 245.583 95.491 243.403C92.8499 239.014 89.0157 235.398 84.5736 232.805C81.3932 230.947 78.0264 229.658 74.5518 228.724C64.6183 226.039 53.7892 226.229 43.7936 224.164C40.4357 223.471 37.2482 222.443 34.0625 221.21L33.628 221.04C32.167 220.47 30.6764 220.152 29.9508 221.88C29.4343 223.109 29.7416 224.387 30.5163 225.42C32.4154 227.95 36.2332 229.124 39.1063 230.035C40.8355 230.586 42.6006 231.022 44.3852 231.346C46.1699 231.671 47.9612 231.753 49.674 232.386C50.3342 232.628 50.465 233.68 49.674 233.867C47.5036 234.375 45.3201 233.939 43.1628 233.517C40.793 233.047 38.4591 232.382 36.1907 231.54C35.7723 231.385 35.3393 231.222 34.8983 231.049L34.5662 230.917C34.9094 231.166 35.2526 231.412 35.5991 231.658C35.6906 231.723 35.635 231.897 35.5141 231.854C30.1802 229.859 25.3271 226.258 21.5674 221.998L21.3803 221.785C20.0565 220.263 17.0395 215.661 14.4965 216.943C12.1086 218.145 16.1792 222.779 17.7262 224.673L17.9058 224.895C19.6644 224.941 21.3673 226.039 22.7925 226.924C25.2669 228.462 27.8524 229.786 30.4869 231.025C35.7233 233.493 41.2833 235.234 46.4642 237.827C46.5328 237.863 46.4805 237.951 46.4152 237.942C43.1171 237.414 39.8549 236.571 36.668 235.526L36.5258 235.481L36.3836 235.434C34.393 234.778 32.4285 234.038 30.4967 233.248C28.3492 232.369 26.2507 231.383 24.2143 230.265C22.3708 229.255 20.3246 227.436 18.1869 227.167C17.9581 227.138 17.7554 227.134 17.5789 227.151C15.1242 227.357 17.154 231.435 17.8405 232.654C18.9616 234.657 20.3148 236.506 21.8675 238.194C25.0152 241.623 28.8297 244.34 32.9581 246.455C34.3669 247.176 35.8084 247.812 37.2727 248.395Z"
            fill="var(--color-dark)"
          />
        </g>
        <g id="lenes haare">
          <ellipse
            id="Ellipse 4"
            cx="152.728"
            cy="122.267"
            rx="15.67"
            ry="14.8453"
            fill="var(--color-light)"
          />
          <path
            id="&#240;&#159;&#142;&#168; Background_2"
            fill-rule="evenodd"
            clip-rule="evenodd"
            d="M167.828 32.3882C227.732 29.8766 231.915 44.7207 240.141 54.1843C244.224 58.8807 248.251 65.5708 249.999 81.6322C251.213 92.7813 249.999 105.897 249.999 115.86C249.999 120.945 257.302 131.863 253.902 139.275C246.335 155.772 230.313 174.08 209.896 174.08C189.479 174.08 151.79 164.487 129.23 136.947C121.841 127.926 107.925 34.8998 167.828 32.3882Z"
            fill="var(--color-light)"
          />
          <path
            id="&#240;&#159;&#150;&#141; Ink_2"
            fill-rule="evenodd"
            clip-rule="evenodd"
            d="M146.313 32.0307C149.379 30.1441 170.194 19.6646 184.484 20.0083C191.886 20.1866 200.175 19.6313 207.165 22.0464C210.661 23.2588 225.832 24.8168 229.07 26.6062C230.236 27.2495 219.526 28.0273 220.562 28.8279L220.82 29.0289H220.823C223.6 30.0274 223.472 29.9334 225.721 32.0307C230.229 31.6709 237.378 33.9628 241.736 35.3534C247.802 37.2919 254.767 40.5343 258.711 45.5751C263.304 51.4435 271.627 68.742 271.082 76.0903L262.837 67.4659C264.484 82.6882 261.333 82.3065 256.007 86.5718C255.602 86.8959 255.155 87.1423 254.691 87.2914C258.123 93.1718 260.939 99.7005 262.624 106.294C269.056 131.479 264.111 157.743 256.376 182.016C255.741 184.016 252.718 185.345 251.179 183.391C248.431 179.896 244.439 177.231 239.948 176.732C237.177 176.424 234.42 176.982 231.801 175.724C230.774 175.228 229.783 174.418 229.07 173.432C224.65 175.108 219.89 175.899 215.168 175.705C207.421 175.387 199.138 172.703 193.808 166.816C192.952 165.871 192.735 164.81 192.932 163.854C193.601 163.615 194.287 163.438 194.994 163.326C201.754 167.312 209.205 169.975 217.212 170.142C221.839 170.239 226.353 169.591 230.104 166.701C230.916 166.075 231.663 165.383 232.353 164.638C240.197 159.59 245.727 151.016 248.356 141.832C250.806 133.268 250.505 124.35 249.662 115.565L249.218 110.929C248.57 104.125 247.969 97.3012 247.8 90.4682L247.851 90.4657C249.508 90.3587 249.52 87.7644 247.851 87.8723C243.535 88.1518 245.073 90.1571 240.77 90.4657C245.768 90.4484 234.767 83.6915 234.169 81.729C233.828 80.6077 231.876 80.3867 231.67 81.729C231.393 83.5249 231.292 85.3108 231.262 87.1148C217.284 73.565 227.002 87.6496 220.562 87.8723C219.374 86.6048 210.384 83.1949 209.828 81.6315C209.747 81.4013 209.666 81.1744 209.582 80.9442C209.094 83.1784 208.401 85.3636 207.491 87.5028L198.608 90.4657C189.647 90.5077 196.678 79.054 187.927 80.9157C187.319 80.4486 174.647 97.2197 177.988 87.6577C181.329 78.0958 176.447 78.1543 174.842 73.565L174.612 72.9175C174.593 72.8638 174.574 72.8067 174.553 72.7467C173.37 74.657 171.958 76.4377 170.419 78.0958C169.511 79.0731 168.56 80.0077 167.584 80.9157C166.635 81.9692 165.655 83.0069 164.705 84.0637C164.742 84.2559 164.775 84.4511 164.801 84.6498C165.092 86.8428 165.122 89.0669 164.909 91.2683C164.524 95.2481 163.401 99.083 161.596 102.631L161.539 102.986C161.265 104.648 160.876 106.367 159.965 107.619C161.101 108.892 161.977 110.413 162.484 112.103C162.936 113.607 160.855 114.911 159.776 113.68C158.919 112.702 157.967 111.892 156.921 111.247C156.854 111.336 156.735 111.381 156.601 111.306C153.688 109.688 148.74 110.178 145.83 111.701C142.211 113.594 140.798 117.481 141.2 121.42C141.585 125.183 143.231 129.582 146.423 131.511C147.888 132.396 149.029 132.471 150.584 132.046C151.081 131.911 151.698 131.496 151.962 131.29L152.223 131.082C153.243 130.275 154.192 129.723 155.396 129.702C156.627 129.318 157.864 129.851 158.335 131.142L158.364 131.226C158.584 131.884 158.986 132.71 158.899 133.715C158.808 134.792 158.316 135.771 157.58 136.558C157.454 136.694 157.318 136.831 157.178 136.957C169.848 150.679 171.475 172.061 164.978 189.203C164.696 189.955 164.395 190.697 164.08 191.433C162.995 193.955 158.815 193.174 158.283 190.675C158.124 189.926 157.949 189.18 157.758 188.441C157.407 187.075 157.004 185.722 156.55 184.389L156.378 183.89C155.992 182.788 155.632 181.676 155.244 180.574L155.205 180.448C155.19 180.398 155.174 180.34 155.156 180.275L154.498 181.711L152.499 186.046C151.563 188.068 148.591 186.969 148.48 185.02L148.478 184.953C148.468 184.593 148.455 184.237 148.432 183.883C148.29 181.235 147.833 178.661 147.107 176.142L146.845 176.468C142.946 181.291 138.369 185.811 132.091 186.924C130.516 187.203 128.734 185.556 129.816 183.964C130.263 183.306 130.694 182.632 131.103 181.948C130.749 181.783 130.416 181.611 130.108 181.436C127.726 180.097 125.743 178.191 124.103 176.029C120.626 171.445 119.382 165.675 119.078 160.028C118.754 154.06 119.278 147.768 120.908 142.011C121.615 139.521 122.571 137.132 123.676 134.814C123.598 134.607 123.523 134.399 123.449 134.192C122.256 130.866 121.278 127.465 120.464 124.026C118.825 117.082 117.943 109.918 117.836 102.783C117.642 90.0015 115.821 76.4636 120.464 64.544C125.26 52.2516 143.248 33.9174 146.313 32.0307ZM141.431 139.195C140.55 137.808 138.347 139.058 139.164 140.455L139.195 140.505C140.592 142.706 141.246 145.208 142.05 147.662C142.565 149.241 145.07 148.567 144.548 146.972L144.375 146.439C143.576 143.951 142.846 141.422 141.431 139.195ZM149.1 118.22L149.685 117.937C151.531 117.056 153.148 116.456 155.328 117.225C158.248 118.253 161.375 121.524 159.401 124.697C158.675 125.867 157.386 126.334 156.057 126.059C153.817 125.594 153.239 123.576 152.103 121.92L151.907 121.639C151.214 120.637 150.338 119.252 149.184 118.859C148.922 118.768 148.812 118.36 149.1 118.22ZM150.747 50.8394L150.935 50.6705C152.189 49.5618 150.348 47.7335 149.101 48.8357C143.391 53.883 141.408 61.7829 138.446 68.5159C137.782 70.0297 140.015 71.3523 140.686 69.8255C143.511 63.4007 145.386 55.7151 150.747 50.8394ZM219.359 48.6315C217.867 47.959 216.562 50.1309 217.996 50.846L218.05 50.8715C223.092 53.1504 225.237 58.3112 227.291 63.1023C227.946 64.6324 230.179 63.3131 229.531 61.796L229.16 60.9363C227.016 55.9987 224.516 50.966 219.359 48.6315ZM227.261 45.513C225.68 44.9651 225.003 47.4677 226.571 48.0156C230.845 49.5035 233.778 52.7127 236.25 56.3823C237.177 57.7568 239.423 56.4601 238.486 55.0727C235.615 50.8131 232.206 47.2376 227.261 45.513Z"
            fill="var(--color-dark)"
          />
          <path
            id="Vector 1"
            d="M117.671 120.382C101.176 126.155 106.125 117.908 120.97 104.712L144.063 114.609C140.764 114.609 130.867 115.764 117.671 120.382Z"
            fill="var(--color-dark)"
          />
        </g>
        <path
          id="lenes gesicht"
          fill-rule="evenodd"
          clip-rule="evenodd"
          d="M219.161 156.674C216.958 155.776 214.992 154.279 213.554 152.365C213.054 151.7 212.925 150.998 213.03 150.355C213.147 149.633 213.575 148.978 214.159 148.539C214.744 148.099 215.476 147.881 216.184 147.992C216.799 148.088 217.411 148.425 217.896 149.122L217.997 149.262C218.852 150.417 219.965 151.364 221.234 151.975C222.457 152.564 223.825 152.838 225.241 152.678C227.936 152.374 229.794 150.918 231.769 148.941C232.014 148.691 232.259 148.433 232.505 148.172C232.661 147.935 232.877 147.782 233.116 147.702C233.382 147.613 233.683 147.618 233.958 147.714C234.224 147.807 234.462 147.983 234.621 148.216C234.772 148.438 234.858 148.713 234.83 149.028C234.65 151.078 233.577 152.907 232.053 154.343C230.361 155.938 228.118 157.041 226.006 157.428C223.679 157.854 221.308 157.549 219.161 156.674V156.674ZM227.796 124.901C229.897 126.134 232.856 130.641 230.596 133.698C227.936 136.393 226.396 132.344 223.597 133.021C220.797 133.698 220.573 133.786 222.197 135.051C235.835 144.802 238.478 124.643 227.796 122.871C226.62 122.676 227.246 124.519 227.796 124.901ZM193.906 111.234C194.179 107.843 199.349 107.073 199.864 110.429C200.324 113.435 199.782 116.196 198.427 118.902C197.132 121.487 193.876 120.281 193.63 117.927C193.3 114.771 193.735 113.344 193.906 111.234ZM233.263 109.733C233.984 108.79 235.025 108.146 236.272 108.51C240.168 109.647 239.02 115.172 237.651 117.861C236.908 119.321 234.505 119.692 233.419 118.406C231.648 116.309 230.801 112.122 233.051 110.056C233.112 109.95 233.18 109.842 233.263 109.733ZM203.872 96.3968L204.487 96.2892C206.391 95.9603 208.758 95.6443 210.105 97.1731C210.82 97.9838 211.065 99.4906 210.105 100.267C208.416 101.632 206.549 101.103 204.525 101.218C202.857 101.314 201.254 101.59 199.648 102.048C196.123 103.055 193.251 104.891 190.241 106.908C189.846 107.173 189.443 106.668 189.631 106.299C191.369 102.9 194.737 100.107 198.11 98.4049C199.91 97.4963 201.88 96.7426 203.872 96.3968ZM235.212 94.874L235.683 94.9703C240.809 96.0405 247.469 98.1784 249.896 103.207C249.989 103.919 249.891 104.071 249.812 104.171L249.785 104.204C249.72 104.289 249.667 104.406 249.359 104.503C249.273 104.482 249.187 104.461 249.099 104.438C247.987 104.147 247.106 103.745 246.254 103.329L245.33 102.874C244.258 102.349 243.176 101.843 242.03 101.47C239.584 100.673 237.068 100.111 234.513 99.8117C233.959 99.7468 233.426 99.5601 233.005 99.2401C232.606 98.9364 232.301 98.516 232.162 97.9571C231.981 97.2338 232.033 96.6862 232.422 96.0337C232.714 95.5436 233.132 95.204 233.612 95.0089C234.101 94.8101 234.658 94.7632 235.212 94.874Z"
          fill="var(--color-dark)"
        />
      </g>
    </g>
  </g>
</svg>
