<svg
  class="skyline"
  width="1318"
  height="800"
  viewBox="0 0 1318 800"
  fill="currentColor"
  xmlns="http://www.w3.org/2000/svg"
>
  <path
    d="M.9 799.4c0-26.2-.1-51.8.1-77.4 0-3.2 1.6-6.4 2.8-9.5 10.1-24.8 33.8-39.5 60.5-38 5.6.3 11.3-.7 16.8-1.4 4-.5 6-3.3 6.6-7.1.6-3.8.8-7.6 1.5-11.4 2.5-14.9 11-25.4 24.2-32.2 14.7-7.7 30.9-10.5 47-12.6 20.9-2.7 42-4.3 63.1-5.9 17.7-1.3 26.7-10.5 26.3-28.3-.5-23.5-1.4-47-2-70.4-.3-9.9 1.6-11.7 11.4-11.7 43.5.2 87 .3 130.4.5 8.7 0 12.3 2.8 14.6 11.2.7 2.6 1.1 5.2 1.6 7.8.5 2.6.9 5.2 1.5 8.3 7.8-1.7 15.4-3.4 22.9-5 1.6-.3 3.3-.7 4.9-.9 7.6-1.2 11.1 1.4 12.5 9.1 1.6 8.2 3.3 16.3 4.7 24.5.5 2.8 1.7 3.5 4.3 3.4 12.5-.1 25-.1 37.5 0 2.6 0 4-.7 4.5-3.3.4-2.3 1.3-4.5 2.1-6.7 1.5-4.3 4.4-7 9.2-7.2 10.5-.5 21-1 31.4-1.6 12.1-.7 24.2-1.5 37.1-2.2 0-6.6-.1-12.8 0-19.1.2-13.1 4-17 17.1-17 20.8 0 41.6.3 62.5.3 9.8 0 11.4-1.4 11.2-11.3-.3-21 5.4-39.8 19.7-55.5 12.7-13.9 29.1-20.6 47.2-24.1 6.4-1.2 12.7-2.9 19.1-3.8 3.8-.5 4.4-2.2 4.4-5.6-.2-11.8-.1-23.7-.1-35.5.1-10.2 7.8-15.2 17.3-11.2 3.9 1.6 4.6 5 4.5 8.6-.1 11.7-.1 23.3-.3 35-.1 8.9 1.3 11.3 9.5 14.9 18.6 8.1 37.3 16 55.7 24.6 26.6 12.6 41 33.9 43.3 63.4.3 3.5 1.9 7.4 4.2 10.1 5.6 6.6 8.5 14.1 10.5 22.3 3.6 15 7.2 30 11.1 44.9 3.7 14.3 7.8 28.5 11.7 42.8 1.3 4.7 3.7 7.6 9.1 7.4 3.7-.1 5.2-1.2 5.1-5.3-.2-17.5.6-35-.2-52.5-1-20.1 9.6-30.3 31.2-31.2 36.3-1.5 72.6-.8 108.9-1 10.3 0 20.7 0 31 .5 19.6 1 28.8 11 28.8 30.8-.1 25.8-.3 51.6-.4 77.4-.1 15.6 1.8 17.1 17.2 14 7.2-1.5 14.4-2.8 21.6-4.1 14.9-2.6 27.8.5 38 14.7.7-8.2 1.4-15 1.8-21.8 3.8-60.2 7.3-120.3 11.3-180.5 1.8-27.7 4.5-55.4 6.5-83.2.4-6.1-.3-12.3-.4-18.4-.1-5.9-3.2-9.9-7.8-13.2-10.9-7.8-19.4-17.7-25.6-29.5-5.9-11.2-5.7-22.3 1.9-32.4 8.4-11.2 17.1-22.2 26.5-32.5 6.6-7.2 9.2-14.9 8.4-24.5-1.5-17.2-2.7-34.5-3.6-51.8-.5-9.7 1.1-11.3 10.3-14.8 1.1-.4 2-3.1 2-4.7.3-27.6.4-55.3.6-83 .1-21.5 0-43 .6-64.5.1-3.7 3.5-7.3 5.5-11.1 5.7 3.1 8.1 6.6 8.2 12.1.9 46.1 2.1 92.2 2.9 138.3.1 7.8 1.2 14.2 10.4 16 3.9.8 4.6 4.5 4.4 8-.4 9.3-1 18.6-1.3 27.9-.4 10.8-.5 21.6-.8 32.5-.2 6.8 2.8 11.8 7.4 16.8 8.5 9.1 17 18.3 24 28.6 12.4 18.1 8.8 43.4-8.4 56.8-14.8 11.5-18.7 25.5-16.8 43.5 3.4 33.1 5.4 66.4 8 99.6 2.6 33.4 4.8 66.8 7.7 100.1 2.5 29.2 7 58.3 8.1 87.5 1.4 38.2.4 76.5.4 115.2-.2 0-1 .3-1.7.3-69.3.8-138.6 1.9-207.8 2.4-171.4 1.2-342.8 1.9-514.2 3.3-80.4.7-160.9 2.3-241.3 3.8-112.1 2.1-224.2 4.5-336.2 6.7-2 .1-3.9 0-7.4 0Zm498.5-229.3h-4.6c-12.7 0-25.3 0-38-.1-15.5-.2-19.4-3.8-21-19.1-.4-3.3-.8-6.6-1.3-9.9-.2-1.1-.7-2-1.1-3.2-10.5 3.7-20.7 7.5-30.9 10.9-9.4 3.2-12.7.8-12.8-9.1v-31.8H270.8v7.3c0 25.6.1 51.3.1 76.9 0 8.3-1.9 11-9.9 13.3-3.7 1.1-7.4 2-11.1 2.6-5.4.9-8.2 4-8.8 9.3-.2 2.3-.3 4.7-.3 7 0 45.1 0 90.3.1 135.4 0 4.4.6 8.9.9 13.6 86.2-1.1 171.8-2.3 257.6-3.4V570.1Zm218 198.7c0-3 .3-5.2 0-7.3-3.1-19.4-5.9-38.8-9.5-58.1-7.3-39.7-14.9-79.4-22.4-119.1-4-21.2-8.1-42.5-12.2-63.7-1.7-8.7-4.2-10.4-12.9-10.4-17.6.1-35.3.1-52.9.1-7.1 0-8.4 1.1-8.7 8.3-.2 5.8-.1 11.7-.2 17.5-.2 9.7-2.4 11.9-12.3 12-1.7 0-3.3-.1-5-.1-18.6-.1-37.3-.2-55.9-.2-2.1 0-4.2.3-6.3.4-.1 2.2-.3 3.9-.3 5.6 0 69.6 0 139.2-.1 208.8 0 4.5 1.1 6.2 6.1 6.2 62.4-.2 124.9-.1 187.3-.1 1.6.1 3.2.1 5.3.1Zm172.5-215.7h-1.1c-.5 1.9-1 3.8-1.4 5.7-3.2 15.6-6.4 31.3-9.5 46.9-3.2 15.7-2.8 31.4 1 47 8.4 34 16.7 68.1 25 102.2 3.1 12.7 3 12.7 16.1 12.7 85.8-.6 171.5-1.2 257.3-1.7 18-.1 36-.2 53.9-.4 2.5 0 5.1.4 5.1-3.6-.1-18.1.1-36.3-.3-54.4-.2-8.7-4.1-11.4-12.7-13.1-4.1-.8-8.5-3.2-11.4-6.2-5.5-5.5-10.1-11.9-14.8-18.2-4.3-5.7-6.2-6.5-12.6-3.6-14.2 6.2-28.8 7-44 4.8-5.9-.8-12.4-.6-18.2.8-14.4 3.7-21.5 1.9-30.8-9.4-12.1-14.9-26.6-22.8-46.9-22.5-40.3.6-80.6-.9-120.8-1.6-9.9-.2-12.1-2-14.5-11.6-2.6-10.3-5.2-20.6-7.9-30.9-3.8-14.4-7.7-28.6-11.5-42.9Zm-668.3 64.3c-2.2.2-4 .2-5.8.5-20.2 3.3-40.4 6.7-60.5 10-9.4 1.5-18.8 2.8-28 4.7-11.4 2.3-15.7 7.8-16.4 19.3-.2 3.5-.5 7-.8 10.5-1 14.5-7.4 22-21.9 24-9.4 1.3-18.9 1.5-28.3 2.1-11.7.7-22.8 3.3-29.3 14.1-12.5 20.8-16.1 43.5-11.4 67.3 1.2 6.3 5.2 9.3 11.7 9.5 3.5.1 7-.1 10.5-.2 58.6-1.3 117.2-2.5 175.8-3.8 1.4 0 2.9-.2 4.5-.2-.1-52.6-.1-104.8-.1-157.8Zm1040.1-435.5c-.9 0-1.8.1-2.6.1-.6 4.5-1.6 9-1.6 13.5-.2 14.5-.4 29-.1 43.5.3 12.3-4.2 21.5-13.9 29.3-7 5.6-12.8 12.9-18.5 20-4.8 6-4.9 13.2-2.9 20.5 3.6 12.9 11.3 22 24.6 25.8 6.8 2 12.5 5.5 13.1 13.3.5 6.9.6 14-.1 20.9-2.2 21.3-5.3 42.6-7.1 64-2.3 25.9-3.8 51.8-5.4 77.7-1.7 27.1-3.3 54.2-4.7 81.3-1 19.3-2 38.6-2.6 57.9-.4 10.6-.1 21.2-.1 32 8.2.1 12.6 5.3 14.6 12.9 1.3 4.9 2.3 10.1 2.4 15.2.4 15.8.3 31.6.3 47.5v8.6h19.4c11.2 0 14-2.5 13.9-13.7-.1-15-.4-30-1-45-1.1-27.6-2.2-55.2-3.9-82.8-1-15.4-3.7-30.7-4.9-46.1-2.7-35.5-4.5-71.1-7.4-106.6-3.6-43.2-5.7-86.4-4.8-129.7.1-3 1.1-4.3 3.6-5.6 4.3-2.4 8.8-4.8 12.3-8.2 15.1-14.7 17.5-45.9-6.3-59.3-9.5-5.3-14.8-14.3-15.4-25.4-.3-6 .3-12 .4-18 .2-11.3.5-22.6.5-33.9-.3-3.5-1.3-6.6-1.8-9.7ZM962.6 626.7c2.3.1 3.4.2 4.5.2 29.1-.1 58.3-.1 87.4-.2 17 0 31.6 5.4 43.1 18.4 3.5 4 7.3 7.9 11.6 11 2.3 1.7 6.3 2.7 8.7 1.8 1.9-.7 3.6-4.8 3.6-7.4.1-31.6-.1-63.2-.4-94.9-.1-6.1-2-7.4-8.7-7.4l-77.4-.3-59.9-.3c-9.1 0-11.7 1.9-11.9 10.7-.5 16.5-.4 32.9-.5 49.4-.1 6.3-.1 12.4-.1 19ZM738.1 757.4c.4 0 .8 0 1.2-.1.2-1 .5-2 .5-3-.4-9.3-1.2-18.6-1.1-27.9.2-39.8.5-79.6.9-119.4.2-21.8.6-43.6 1-65.4.1-5.9 2.8-10.8 7.8-13.7 9.1-5.3 12.3-13.5 12.3-23.5-.1-26.3 0-52.6-.1-79v-7c-1.1-.4-1.3-.7-1.6-.7-38.9-3.3-69.7 24.4-68.8 63.2.4 18.4 2.7 36.9 6 55 12.9 70.2 26.5 140.2 39.8 210.3.5 3.7 1.3 7.5 2.1 11.2Zm43.1-338.6v9.8c.1 27.1.4 54.3.2 81.4-.1 6.8 2.6 11 8.2 14 2.1 1.1 4 2.4 6.2 3.2 16.1 6 28.6 16.7 39.1 29.9 3.2 4 6.6 7.9 9.9 11.9 5.4 6.5 10.7 12.9 16.5 20 .5-2.1.9-3.2.9-4.3 1.8-31.5 3.6-63.1 5.2-94.6.7-13.9-4.9-25.4-15.5-34.2-20.5-17.2-44.8-27.5-70.7-37.1Zm-9.1 166c-.6.2-1.1.3-1.7.5v181.8c13.4 3.2 18.6 1.1 25.8-9.9 3.2-4.9 6.4-9.7 9.8-14.4 6.4-8.8 9-18.7 8.9-29.5-.1-12.4-5.4-23.2-9.3-34.5-10.3-29.7-20.7-59.3-31.1-89-.6-1.8-1.6-3.4-2.4-5Zm10.6-40.4c14.7 49.4 30.6 97.5 46.1 145.9 3.1-6.6 5.8-13 8.1-19.6 6.7-19.2 13.4-38.3 12.6-59.2-.3-6.4-1.9-12.1-6.1-16.9-9.3-10.7-19.2-20.9-27.6-32.2-8-10.8-18.3-16-33.1-18ZM864 663.7c-1.3 2.8-2.1 4.4-2.8 6-12.2 28.1-24.4 56.1-36.4 84.2-1.8 4.1-2.7 8.7-4.1 13.3h66.8c-7.8-34.4-15.5-68.3-23.5-103.5Z"
  />
</svg>
