<svg aria-hidden="true" width="1em" height="1em" viewBox="0 0 64 64" fill="none" xmlns="http://www.w3.org/2000/svg">
<path d="M58.7629 25.6372C58.4536 25.8986 57.7709 26.4159 57.2483 26.7999C55.0189 28.4159 54.0109 29.1999 53.2003 29.9466C50.5443 32.3892 48.4963 33.8399 44.6669 35.9626C40.4536 38.3039 38.6616 39.0292 36.1869 39.3972C35.2643 39.5306 32.5976 39.5306 31.5469 39.3972C29.1256 39.0772 27.0189 38.5386 24.1709 37.4986C21.5843 36.5492 19.6803 35.6959 17.4669 34.4799C15.7549 33.5412 12.7203 31.6852 12.5709 31.4879C12.5176 31.4186 12.4269 31.3599 12.3736 31.3599C12.3256 31.3599 12.2509 31.3226 12.2136 31.2799C12.1763 31.2372 12.1176 31.1999 12.0856 31.1999C12.0109 31.1999 10.8963 30.4479 10.1069 29.8666C9.36025 29.3172 8.42692 28.5546 6.52292 26.9279C6.22959 26.6719 5.93092 26.4479 5.86692 26.4266C5.66959 26.3626 5.28559 26.4479 5.22159 26.5706C5.04025 26.9119 6.50692 28.8372 8.46425 30.8266L9.43492 31.8186L9.28559 31.9092C9.07759 32.0319 8.31492 32.8372 7.86692 33.4132C6.85892 34.7039 5.83492 36.4799 5.44559 37.6106C5.12025 38.5492 5.03492 39.2959 5.22159 39.5252L5.32825 39.6532L5.50425 39.4879C6.49625 38.5759 6.94959 38.2346 8.88025 36.9332C9.61625 36.4372 10.3949 35.8986 10.6136 35.7332C11.1523 35.3226 11.6696 34.7626 11.8829 34.3572C12.0003 34.1439 12.0856 34.0372 12.1229 34.0639C12.1603 34.0852 12.5016 34.3412 12.8803 34.6346C15.2003 36.4159 17.5203 37.8772 20.0429 39.1412C20.5176 39.3812 20.9069 39.5839 20.9069 39.5999C20.9069 39.6106 20.8216 39.7599 20.7096 39.9306C20.0163 41.0186 19.0829 43.7706 18.7949 45.5839C18.6776 46.3412 18.6349 47.7012 18.7309 47.9732C18.8589 48.3572 18.9549 48.3039 19.5363 47.4719C20.0856 46.6986 20.8803 45.6692 22.0429 44.2346C22.9069 43.1626 23.2803 42.6079 23.7176 41.7332C23.9096 41.3546 24.0696 41.0346 24.0749 41.0292C24.0803 41.0186 24.4483 41.1626 24.8856 41.3386C26.6723 42.0639 28.6776 42.6452 30.4749 42.9652C31.2483 43.1039 31.3016 43.1199 31.2803 43.2266C31.2163 43.4932 31.1416 44.3946 31.0829 45.6052C30.9869 47.6426 31.0723 48.7732 31.6536 53.1252C31.9203 55.0986 32.2723 57.3599 32.4269 58.0639C32.5016 58.3892 32.6403 58.5919 32.7629 58.5439C32.9389 58.4799 33.5523 56.9759 33.9149 55.7332C34.1389 54.9546 34.4269 53.6906 34.6136 52.6559C35.1896 49.4772 35.2323 47.1839 34.7843 44.0639L34.6883 43.4132H35.2536C37.9576 43.4079 40.4216 42.8906 42.8483 41.8079C43.1683 41.6639 43.4349 41.5519 43.4403 41.5626C43.4509 41.5679 43.5629 41.8399 43.7016 42.1599C43.9789 42.8266 44.8429 44.4372 45.5576 45.6266C46.8963 47.8399 48.6936 50.3466 48.9496 50.3466C49.1043 50.3466 49.1363 50.1012 49.0723 49.3759C48.9443 47.9039 48.6189 46.0532 48.1816 44.3092C47.6963 42.3786 47.3389 41.3652 46.8323 40.5066L46.5176 39.9732L46.8483 39.7919C49.4563 38.3519 50.8749 37.4452 52.5389 36.1279C52.9283 35.8239 53.2589 35.5732 53.2749 35.5732C53.2909 35.5732 53.5683 36.0586 53.8883 36.6452C54.5336 37.8292 54.7576 38.1652 55.4456 38.9919C56.0803 39.7439 57.2323 41.0132 57.3389 41.0719C57.4616 41.1359 57.5149 41.0559 57.6376 40.6666C57.7816 40.1812 57.7709 38.4692 57.6109 37.5252C57.4563 36.6452 57.2589 35.8666 57.0616 35.3652C56.8909 34.9386 56.4003 34.1599 55.9523 33.6052L55.6749 33.2586L55.9096 33.0186C56.9069 31.9839 58.6509 28.8959 59.2589 27.0826C59.5789 26.1226 59.6589 25.1732 59.4136 25.1732C59.3656 25.1732 59.0723 25.3812 58.7629 25.6372Z" fill="gray"/>
</svg>
