<svg aria-hidden="true" width="1em" height="1em" viewBox="0 0 64 64" fill="none" xmlns="http://www.w3.org/2000/svg">
<path d="M30.2931 6.06401C30.0744 6.30934 29.9198 6.65601 29.7118 7.36534C29.3438 8.60801 29.0131 10.7947 29.0131 11.9893C29.0131 12.7893 29.3224 15.168 29.5571 16.176C29.6158 16.4373 29.6531 16.656 29.6424 16.672C29.6264 16.6827 29.2211 16.7307 28.7411 16.7733C26.6078 16.976 24.5651 17.344 22.5171 17.8933C20.9278 18.32 20.3891 18.4907 19.4558 18.8587C19.0558 19.0187 18.7144 19.1467 18.6984 19.1467C18.6824 19.1467 18.5331 18.88 18.3678 18.56C17.7491 17.3387 16.4904 15.8187 14.1651 13.4507C13.2904 12.5653 12.9651 12.2667 12.8851 12.2773C12.6184 12.3147 12.8424 12.976 13.6478 14.5333C14.6558 16.48 15.9944 18.8053 16.5598 19.5947C16.7198 19.824 16.8531 20.0213 16.8531 20.0427C16.8531 20.064 16.5598 20.2453 16.1971 20.448C14.3251 21.5147 12.3518 22.8587 11.1144 23.92L10.6398 24.3253L10.4904 24.1387C10.2398 23.824 9.46109 23.2053 8.36242 22.4373C7.10376 21.5573 6.77309 21.3013 6.77309 21.2C6.77309 21.0827 6.54376 21.104 6.40509 21.232C6.21842 21.408 6.27709 21.7173 6.63442 22.4267C7.12509 23.3867 8.20776 24.7893 8.92776 25.3867L9.26909 25.6747L8.89042 26.08C7.66376 27.3653 6.71442 28.56 6.08509 29.6107C5.86642 29.968 5.50909 30.5547 5.29042 30.9013C5.07709 31.248 4.88509 31.6107 4.86909 31.7013C4.82642 31.984 5.25842 32.688 5.48242 32.6933C5.59442 32.6933 6.90109 31.7867 7.70642 31.1467C9.40776 29.792 13.0291 27.2907 14.9064 26.176C16.0104 25.5253 19.0664 23.7867 19.1144 23.7867C19.1251 23.7867 19.0664 23.9627 18.9811 24.1813C18.4531 25.5413 18.1918 27.52 18.3411 29.0667C18.5651 31.4027 19.3651 33.6 20.8691 36.0267C22.2184 38.1973 24.5918 40.3467 27.1198 41.6853C29.4184 42.9013 31.4398 43.376 34.3998 43.3813C35.8664 43.3867 36.4798 43.3173 37.4718 43.0347C38.6824 42.6987 39.8718 41.9893 40.9704 40.96C41.7598 40.2293 42.7731 38.9493 43.4024 37.8987C43.7971 37.2427 44.7251 35.4027 44.9491 34.8267C45.5251 33.3653 46.0158 31.5787 46.2504 30.1067C46.3571 29.4453 46.3678 29.1627 46.3678 27.6C46.3624 26.1333 46.3464 25.7333 46.2611 25.1947L46.1598 24.544L46.4798 24.704C47.7171 25.328 49.8504 26.5707 50.9864 27.3227C52.5864 28.3947 54.6024 29.9573 56.5064 31.6C56.8584 31.904 57.2478 32.2133 57.7011 32.544C57.8131 32.6187 57.9838 32.704 58.0851 32.7307L58.2664 32.7787L57.7011 33.1573C57.3864 33.3707 56.6931 33.872 56.1544 34.2773C53.4451 36.3147 50.4371 38.1013 45.7598 40.448C43.0931 41.7867 42.5064 42.064 41.2264 42.5867C38.5758 43.664 36.7251 44.1173 34.1384 44.32C32.6131 44.4373 30.1491 44.3733 28.6131 44.1813C25.7918 43.8293 23.1144 42.9173 20.5064 41.4133C18.2238 40.1013 16.8584 39.088 13.4931 36.192C12.9491 35.728 12.3411 35.2267 12.1331 35.0827C11.6584 34.7413 9.81842 33.8347 8.98642 33.5253C8.23442 33.248 6.72509 32.7947 6.44242 32.7573C6.18109 32.7307 6.11176 32.8587 6.14909 33.3013C6.18109 33.7227 6.31442 34.0587 6.76242 34.88C7.79709 36.7733 8.92242 38.256 10.1118 39.2747C11.5678 40.5333 12.0158 40.9067 12.7464 41.4987C13.9678 42.4853 15.5571 43.7067 16.3464 44.256C19.0344 46.1387 23.0504 48.016 25.8344 48.6933C27.4078 49.0827 28.5598 49.2213 30.4531 49.264C32.9331 49.3173 34.7518 49.1093 37.2264 48.5013C40.2878 47.744 42.8744 46.5973 47.4558 43.9627C50.4691 42.2293 52.2718 41.0187 53.9998 39.5573C55.5731 38.224 56.6184 37.1573 57.9358 35.5253C58.3518 35.0133 58.9171 34.3253 59.1944 34.0053C59.7384 33.3653 59.9998 32.896 59.9998 32.5387C59.9998 32.3573 59.9784 32.3147 59.8291 32.2453C59.7384 32.1973 59.6318 32.16 59.5891 32.16C59.5038 32.16 59.5038 32.1333 59.5998 31.8667C59.7011 31.584 59.7011 30.5387 59.6051 30.0693C59.5198 29.68 59.4131 29.4453 59.2104 29.2C59.0664 29.024 57.8504 27.9093 57.0024 27.1733L56.4531 26.6987L56.7838 26.0267C57.3651 24.848 57.8558 23.3227 58.0798 21.9947C58.1971 21.3067 58.2291 19.9253 58.1278 19.8667C57.9944 19.7813 57.8131 19.9253 57.4398 20.4107C57.2211 20.6933 56.6078 21.4667 56.0798 22.128C54.8851 23.632 54.4904 24.1547 54.3091 24.4693C54.2291 24.608 54.1598 24.7307 54.1491 24.7413C54.1384 24.7573 54.0798 24.7147 54.0104 24.656C53.7758 24.4373 52.6558 23.6587 51.8184 23.1253C50.4744 22.2773 49.4984 21.728 47.8664 20.9013C47.3384 20.6347 46.8851 20.3947 46.8584 20.3733C46.8318 20.3467 46.8584 20.2613 46.9224 20.176C47.1464 19.856 47.7491 18.608 47.9678 18C48.2344 17.2587 48.5491 16.0053 48.6611 15.2C48.8424 13.9627 48.8904 12.576 48.7678 12.1173C48.7198 11.9467 48.5224 11.968 48.1544 12.192C47.5304 12.5707 46.6398 13.5093 45.7491 14.7307C44.9171 15.872 44.6184 16.464 44.0798 18.0587L43.7704 18.9653L43.2318 18.7573C40.1651 17.5573 36.9491 16.896 33.1464 16.6933C32.5331 16.656 32.0211 16.624 32.0158 16.6187C32.0051 16.6133 32.0318 16.3947 32.0638 16.128C32.1491 15.4293 32.1491 12.096 32.0638 11.4667C31.9038 10.336 31.4024 8.19201 30.9224 6.59734C30.7251 5.94134 30.6931 5.86668 30.5864 5.86668C30.5118 5.86668 30.3944 5.94668 30.2931 6.06401ZM33.6264 20.5867C34.5758 20.6613 36.0158 20.864 36.9811 21.0667C37.9464 21.2747 39.5144 21.6907 39.6584 21.7867C39.7811 21.8667 40.4478 22.7307 41.1891 23.7653C41.7064 24.496 41.7971 24.736 41.9571 25.8133C42.0691 26.5653 42.0798 28.624 41.9784 29.4133C41.7171 31.52 41.1038 33.1627 39.9251 34.96C38.4904 37.136 36.6558 38.7467 35.0131 39.2693C34.6291 39.392 33.7598 39.5093 32.7571 39.5733C30.3731 39.7227 28.2664 39.1947 26.5171 38.0107C24.5704 36.6933 23.1998 35.1147 22.1864 33.04C20.8478 30.304 20.4424 27.2747 21.0984 24.96C21.2638 24.3787 21.5091 23.8827 21.9838 23.1627C22.6238 22.1867 22.7304 22.08 23.3118 21.8827C25.3064 21.1947 27.4184 20.784 30.0531 20.5707C30.5811 20.528 32.9491 20.5387 33.6264 20.5867Z" fill="gray"/>
</svg>
