<svg aria-hidden="true" width="1em" height="1em" viewBox="0 0 64 64" fill="none" xmlns="http://www.w3.org/2000/svg">
<path d="M30.3732 7.024C28.4959 7.136 25.9999 7.47733 24.3999 7.84533C23.3439 8.08533 21.2426 8.672 20.3519 8.96533C17.6586 9.86133 15.3439 11.1253 13.1199 12.912C9.63725 15.7067 7.15191 19.1307 5.47191 23.456C3.98925 27.2533 3.16258 31.888 3.35991 35.264C3.55191 38.5387 4.45858 41.4293 6.37325 44.88C6.57058 45.232 6.86391 45.76 7.02391 46.0533C8.28258 48.32 9.98391 50.224 12.0266 51.6533C12.3412 51.872 12.6452 52.0533 12.6986 52.0533C12.8106 52.0533 12.9599 51.8027 12.9599 51.6107C12.9599 51.536 12.7679 51.0133 12.5279 50.448C11.2639 47.408 10.5919 45.1147 9.97858 41.76C9.81325 40.848 9.17858 36.6987 9.06125 35.76C8.95458 34.9333 8.97058 32.1707 9.08791 31.12C9.42391 28.064 10.0479 25.6533 10.9972 23.76C12.1919 21.376 14.4852 18.688 16.8266 16.928C19.5572 14.8693 22.7732 13.6107 26.6666 13.072C28.9759 12.752 31.6106 12.7627 33.8932 13.0987C37.2692 13.5893 40.3839 14.8053 43.3066 16.768C44.2079 17.376 44.8692 17.9413 45.9199 19.0187C47.4719 20.608 48.7732 22.3893 49.3492 23.696C51.0239 27.5253 51.4772 31.232 50.7199 34.9867C50.2506 37.3227 49.2586 39.4933 47.7279 41.5253C46.6452 42.96 45.1626 44.4587 43.5466 45.7387C41.8079 47.1147 39.5199 48.3787 37.6266 49.008C36.0799 49.52 33.1039 49.5627 30.7199 49.1147C29.1892 48.8267 27.0826 48.1333 26.1332 47.6107C25.5999 47.3173 24.6399 46.672 24.1172 46.256C23.4719 45.7493 22.1652 44.4427 21.6959 43.8347C19.7119 41.2693 18.5119 37.6907 18.7626 35.0987C18.9332 33.3493 19.3172 32.2027 20.1599 30.9067C22.2506 27.7067 25.3812 25.7867 29.4399 25.216C29.7599 25.1733 30.4372 25.1467 31.2799 25.152C32.3786 25.152 32.7359 25.1733 33.3172 25.2693C35.0026 25.5413 36.4639 26.0587 37.7492 26.8373C38.2612 27.1413 39.0292 27.872 39.3759 28.384C39.7759 28.96 39.9839 30.032 39.9306 31.2267C39.8399 33.1307 39.0826 34.9333 37.7759 36.32C36.9172 37.2267 35.8719 37.8773 35.0932 37.9787C33.8186 38.144 31.4399 37.6 30.1599 36.8427C28.3146 35.7547 27.2426 34.304 27.1626 32.784C27.1306 32.2827 27.1359 32.2613 27.2852 32.048C27.6692 31.488 28.6079 30.8533 29.3546 30.64C30.2239 30.3893 31.0132 30.7307 31.8132 31.7013C31.9999 31.9307 32.0479 31.9573 32.1706 31.9307C32.2772 31.904 32.3359 31.824 32.4479 31.5467C32.7466 30.8 32.6026 30.3573 31.7866 29.536C31.3439 29.0827 31.2159 28.992 30.7626 28.768C30.1546 28.48 29.7652 28.4213 29.0772 28.528C27.0399 28.848 25.8239 29.616 25.1412 31.0133C24.7572 31.7973 24.6719 32.176 24.6719 33.04C24.6719 34.128 24.9012 34.8853 25.6319 36.2027C26.3039 37.4187 26.7092 37.9093 27.7226 38.7093C28.4159 39.264 28.7359 39.4773 29.4666 39.8827C31.3759 40.9493 33.7439 41.584 35.3599 41.4667C37.6212 41.3067 39.4239 40.3413 40.9172 38.4907C41.5359 37.7173 41.8986 37.136 42.4479 36.032C43.3866 34.1333 43.8559 32.4427 43.9306 30.6933C44.0319 28.1067 43.2906 25.8933 41.7066 24.064C40.8052 23.024 39.7919 22.2987 38.0532 21.44C36.7732 20.8107 36.1546 20.576 35.1412 20.3253C33.9252 20.032 33.3972 19.9733 31.8399 19.9787C30.3946 19.9787 29.6106 20.0587 28.0799 20.352C27.6372 20.4373 25.9626 20.8693 25.1732 21.104C23.5732 21.5787 21.7279 22.5387 20.3786 23.5893C17.5199 25.8293 15.3652 29.696 14.7466 33.7067C14.6239 34.4907 14.5812 36.192 14.6612 36.9867C14.8319 38.64 15.3172 40.56 15.9199 41.92C16.2826 42.752 16.3999 42.9813 16.8639 43.84C18.0639 46.0373 18.6559 46.8907 19.8826 48.1653C21.0506 49.3867 22.8692 50.8213 24.4052 51.7333C26.5066 52.9867 29.1626 53.9947 31.5252 54.448C33.4719 54.8213 36.1866 54.8213 38.3146 54.4533C41.3439 53.9253 44.5172 52.528 47.0612 50.5973C49.3492 48.8587 51.4772 46.4267 52.9492 43.8667C53.2532 43.3387 54.4159 41.024 54.6506 40.48C55.4719 38.576 56.2186 35.9733 56.5332 33.9253C56.7679 32.3893 56.8052 29.7973 56.6132 28.2133C56.2826 25.4827 55.4719 22.8533 54.1972 20.3627C53.7492 19.4773 53.6372 19.2747 53.0719 18.3467C51.7972 16.2613 49.7972 14.016 47.8666 12.5067C47.0932 11.8987 45.7866 11.0347 44.9599 10.5707C44.2666 10.1867 42.2826 9.2 41.6106 8.912C39.5519 8.016 37.3812 7.44 35.0932 7.17866C33.6692 7.01866 31.6159 6.94933 30.3732 7.024Z" fill="gray"/>
</svg>
