<svg width="20" height="20" viewBox="0 0 20 20" fill="none" xmlns="http://www.w3.org/2000/svg">
<path d="M9.28632 10.1932C9.50206 10.5038 9.7773 10.7608 10.0934 10.9468C10.4095 11.1327 10.759 11.2433 11.1183 11.271C11.4775 11.2988 11.8381 11.2429 12.1756 11.1074C12.513 10.9718 12.8195 10.7596 13.0741 10.4853L14.5812 8.86227C15.0388 8.35209 15.2919 7.66878 15.2862 6.95952C15.2805 6.25026 15.0163 5.57179 14.5506 5.07025C14.0849 4.56871 13.4549 4.28422 12.7963 4.27806C12.1377 4.27189 11.5032 4.54455 11.0295 5.0373L10.1655 5.96243" stroke="#808080" stroke-width="1.25" stroke-linecap="round" stroke-linejoin="round"/>
<path d="M11.2863 9.36275C11.0346 9.05213 10.7135 8.79512 10.3447 8.60915C9.97597 8.42317 9.56819 8.31257 9.14905 8.28487C8.72991 8.25716 8.30922 8.31298 7.91551 8.44855C7.5218 8.58412 7.16428 8.79627 6.8672 9.0706L5.10893 10.6936C4.57512 11.2038 4.27975 11.8871 4.28643 12.5964C4.2931 13.3057 4.6013 13.9841 5.14462 14.4857C5.68795 14.9872 6.42295 15.2717 7.1913 15.2779C7.95966 15.284 8.69989 15.0114 9.25258 14.5186L10.2548 13.5935" stroke="#808080" stroke-width="1.25" stroke-linecap="round" stroke-linejoin="round"/>
</svg>
