<svg xmlns="http://www.w3.org/2000/svg" width="64" height="64" fill="none" viewBox="0 0 64 64"><path fill="#999" d="M34.907 6.032c-.624.048-1.84.235-2.272.347-.219.053-.635.074-1.467.074-2.923 0-5.37.374-8.635 1.307-4.41 1.27-7.717 2.955-9.952 5.077-1.136 1.083-2.442 2.763-3.434 4.411-1.419 2.363-2.912 6.25-3.467 9.019-.325 1.642-.373 2.154-.373 4.106 0 1.808.026 2.235.272 4.134.522 4.112 1.333 6.88 2.832 9.706 1.957 3.675 3.482 5.952 5.477 8.16 3.045 3.36 7.456 6.443 11.483 8.022 3.04 1.194 7.221 1.808 10.709 1.578 2.379-.16 5.03-.688 6.853-1.37 4.102-1.536 7.563-4.31 10.39-8.336a43.916 43.916 0 0 0 1.813-2.864c1.21-2.096 2.81-5.35 3.413-6.95.736-1.941 1.046-2.933 1.451-4.656.603-2.586.773-4.149.768-7.21 0-2.059-.064-3.04-.293-4.64-.496-3.446-1.723-6.523-3.851-9.675-1.941-2.87-4.352-5.2-7.035-6.795-1.509-.901-4.341-2.218-5.482-2.56-1.376-.41-3.44-.746-5.451-.89-.89-.059-2.955-.059-3.75.005Zm1.818 3.43c1.11.549 2.811 1.413 3.782 1.92.965.511 2.458 1.274 3.306 1.7 3.136 1.58 4.134 2.262 5.867 4.043a23.12 23.12 0 0 1 2.853 3.568c.523.795.736 1.206 1.163 2.267 1.03 2.56 1.397 4.763 1.397 8.373 0 4.379-.688 7.76-2.357 11.574-1.157 2.64-2.512 4.88-4.15 6.853-2.858 3.445-6.725 6.053-9.887 6.661-1.856.363-4.539.39-7.072.08-3.712-.453-6.8-1.445-9.558-3.066-3.765-2.214-6.81-5.11-9.242-8.795-2.187-3.312-3.291-6.24-4.054-10.736-.245-1.477-.336-2.208-.4-3.355-.165-2.821.464-6.133 1.83-9.616 1.034-2.634 3.05-5.45 5.066-7.072 2.144-1.728 5.563-3.349 9.371-4.448 1.664-.48 2.805-.698 4.4-.853 1.253-.117 1.365-.123 3.605-.112l2.064.01 2.016 1.003Z"/><path fill="#999" d="M20.139 25.2c-.059.043-.086.096-.064.117.016.022.085-.016.154-.08.128-.133.064-.154-.09-.037ZM42.507 25.44c-.16.021-.47.07-.683.101-.379.059-.763.155-1.643.411-1.562.459-2.064 1.91-1.226 3.552.469.923.805 1.493 1.045 1.792.347.427 1.381 1.232 1.936 1.499 1.184.57 2.187.634 2.96.181.41-.24.773-.667 1.093-1.28.886-1.712 1.11-3.339.598-4.373-.304-.614-.683-.955-1.536-1.371-.39-.192-.838-.384-1.003-.427-.39-.096-1.163-.144-1.541-.085ZM20.933 25.552c-.784.144-1.552.352-1.866.507-.726.362-1.2 1.173-1.2 2.042 0 .459.144 1.131.33 1.526.352.752.896 1.664 1.168 1.968.4.437 1.211 1.05 1.675 1.264.299.138.453.181.81.197.449.027.609-.01 1.643-.341.704-.23 1.142-.774 1.664-2.075.427-1.061.454-2.416.064-3.19a3.243 3.243 0 0 0-.821-.97c-.352-.261-1.461-.805-1.867-.907-.346-.085-1.168-.096-1.6-.021ZM21.445 40.635c-.24.064-.245.165-.048.624.587 1.349 1.472 2.394 2.987 3.525 2.512 1.877 4.512 2.757 7.195 3.168 1.386.213 3.413.144 4.885-.165 1.957-.411 4.421-1.702 5.44-2.864.97-1.104 1.835-2.55 1.925-3.227.022-.187.016-.203-.106-.203-.278 0-2 .624-2.992 1.088-.272.123-.779.41-1.131.63-1.077.677-2.352 1.264-3.221 1.488-.603.154-1.974.229-2.891.16-2.544-.198-5.125-.864-8.304-2.134a10.438 10.438 0 0 1-2.875-1.706c-.341-.288-.592-.443-.698-.427-.022.005-.096.021-.166.043Z"/></svg>