<svg
  aria-hidden="true"
  viewBox="0 0 64 64"
  fill="none"
  xmlns="http://www.w3.org/2000/svg"
>
  <path
    d="M35.2427 3.70655C35.2214 3.73322 35.04 3.76522 34.8427 3.79189C34.5067 3.82922 33.5894 4.04255 33.376 4.13322C33.3227 4.15455 33.2267 4.29322 33.1574 4.43722C33.0827 4.59722 33.0134 4.68255 32.992 4.64522C32.9707 4.61322 32.9174 4.58655 32.8694 4.58655C32.8214 4.58655 32.7414 4.55455 32.6987 4.51189C32.608 4.43189 32.6347 4.43189 29.5734 4.58655C24.3147 4.85855 19.6107 6.30922 15.6267 8.89589C12.9867 10.6079 10.7574 12.8319 8.98672 15.5199C6.71472 18.9599 5.34405 23.0399 4.95472 27.4932C4.86938 28.4692 4.86938 30.8692 4.95472 31.7865C5.21605 34.6452 5.86672 37.4079 6.86405 39.9465C7.61605 41.8612 9.22138 44.8852 10.4694 46.7412C12.5654 49.8612 15.328 52.5705 18.6934 54.7999C24.9974 58.9865 32.0534 60.2719 39.4667 58.5865C44.0214 57.5465 47.8774 55.4025 51.328 51.9785C52.9547 50.3625 54.256 48.7039 55.408 46.7785C55.8134 46.1012 56.9707 43.8025 57.28 43.0665C58.3947 40.3892 59.2534 37.2212 59.5734 34.5919C60.2454 29.0132 59.3334 23.8292 56.7734 18.7092C55.5734 16.3146 54.2934 14.4586 52.496 12.5066C51.4294 11.3492 50.4107 10.4266 48.72 9.09322C48.304 8.76255 46.8427 7.79189 46.1867 7.41322C45.4134 6.96522 43.6107 6.05855 42.72 5.66389C40.8534 4.84789 38.1707 4.02655 36.6934 3.81855C35.9147 3.70655 35.2854 3.66389 35.2427 3.70655ZM33.68 6.42655C33.856 6.74655 34.0854 7.09322 34.192 7.19455C34.544 7.54122 34.992 7.89322 35.088 7.89322C35.3067 7.89322 38.4427 8.71989 39.2374 8.98655C41.824 9.85589 44.944 11.5466 47.0134 13.2106C48.2614 14.2079 50.048 16.0906 51.1787 17.5839C52.464 19.2852 53.2694 20.7092 53.9147 22.4319C54.9227 25.1306 55.3707 27.7172 55.376 30.8799C55.3814 32.8692 55.248 34.2399 54.8747 36.0799C54.192 39.4345 52.5974 42.9279 50.4374 45.7865C48.3627 48.5332 45.5414 50.8265 42.1547 52.5225C40.7894 53.2052 39.3067 53.7919 38.2187 54.0799C34.1867 55.1412 28.5974 54.5705 23.7867 52.6025C20.0427 51.0719 15.9307 47.7919 13.1307 44.1012C10.6987 40.8852 8.99205 36.9385 8.32005 32.9545C8.05338 31.3705 7.98405 30.3732 8.01605 28.5865C8.04272 26.9652 8.09072 26.4799 8.34672 25.0399C8.92272 21.8559 10.2027 19.0132 12.336 16.1599C14.8107 12.8586 18.032 10.1759 21.5734 8.45322C24.3147 7.12522 27.0774 6.35722 29.7494 6.18122C30.6827 6.11722 31.9254 6.17589 32.2347 6.28789C32.3147 6.31989 32.4 6.31455 32.4854 6.27722C32.624 6.20789 32.88 5.73855 33.04 5.25322C33.0667 5.16789 33.104 5.22122 33.216 5.49322C33.296 5.68522 33.504 6.10655 33.68 6.42655Z"
    fill="#999"
  />
  <path
    d="M31.8134 14.464C31.6374 14.496 31.3387 14.56 31.1467 14.6133C30.9547 14.6666 30.6667 14.736 30.5067 14.7733C29.7334 14.944 29.1734 15.3813 28.864 16.0533C28.704 16.3946 28.6774 16.5066 28.6774 16.8533C28.6827 17.4986 28.816 17.936 29.3174 18.9226C29.824 19.92 29.9787 20.144 30.4374 20.544C31.2694 21.2693 31.5947 21.4613 32.1814 21.5573C32.4694 21.6053 32.6027 21.5946 33.072 21.4986C33.7653 21.36 34.1173 21.1893 34.416 20.8533C34.8427 20.3786 35.312 19.3333 35.52 18.3946C35.6533 17.808 35.664 16.9066 35.5467 16.4533C35.3493 15.696 34.9333 15.2373 34.0533 14.8C33.7333 14.64 33.36 14.4853 33.2267 14.4586C32.9387 14.3893 32.256 14.3946 31.8134 14.464ZM33.2267 17.8986C33.2693 17.9413 33.2693 18.0533 33.2267 18.3146C33.1893 18.5066 33.1573 18.6666 33.1467 18.6666C33.136 18.6666 32.9387 18.4746 32.6987 18.2346L32.272 17.8026L32.72 17.8186C32.9653 17.8293 33.1947 17.8666 33.2267 17.8986Z"
    fill="#999"
  />
  <path
    d="M32.0802 26.1866C31.5896 26.2666 30.9816 26.4373 30.8749 26.5386C30.6082 26.7786 30.4269 27.936 30.3469 29.8666C30.2402 32.544 30.1709 38.3626 30.2349 39.6C30.3096 41.072 30.4429 42.9653 30.5122 43.6266C30.6776 45.168 30.9709 46.0853 31.7122 47.36C31.8562 47.6106 32.0482 47.952 32.1336 48.1226C32.3362 48.5173 32.5549 48.7733 32.9282 49.0613C33.2109 49.28 33.2322 49.2853 33.4082 49.2266C33.5096 49.1946 33.6642 49.088 33.7496 48.9866C33.9096 48.8106 34.6669 47.3333 34.6669 47.2106C34.6669 47.1733 34.7256 47.0026 34.8002 46.832C34.8696 46.6613 35.0029 46.2133 35.0989 45.8346C35.4029 44.6026 35.3816 43.4666 34.9602 38.3466C34.5976 33.9573 34.4642 32.736 34.0802 30.3466C33.9682 29.6266 33.8082 28.5813 33.7336 28.0213C33.6589 27.4613 33.5736 26.9226 33.5416 26.8213C33.4562 26.5653 33.2856 26.4 33.1202 26.4C33.0402 26.4 32.9122 26.3413 32.8322 26.2666C32.6776 26.1226 32.5709 26.112 32.0802 26.1866Z"
    fill="#999"
  />
</svg>
