<svg viewBox="0 0 64 64" fill="none" xmlns="http://www.w3.org/2000/svg">
  <path
    d="M34.2825 2.96C34.2665 2.976 34.1012 3.008 33.9145 3.03466C33.7278 3.06133 33.3332 3.14666 33.0398 3.216C32.6398 3.31733 32.4852 3.38133 32.3998 3.48266C32.2985 3.60533 32.2505 3.616 31.6532 3.648C27.4558 3.87733 23.2158 5.08266 19.7865 7.02933C17.8398 8.13333 16.1492 9.43466 14.4265 11.168C11.3545 14.256 9.21582 17.7813 7.81848 22.0587C5.87715 28.0107 6.10115 34.5067 8.46382 40.5333C9.06115 42.0693 10.5118 44.8693 11.5412 46.496C13.0025 48.8 14.9812 51.0293 17.0932 52.752C17.9732 53.472 19.4878 54.5867 20.1438 55.0027C23.4932 57.1253 26.8372 58.2667 30.5278 58.5653C31.5305 58.6453 33.6852 58.6027 34.6665 58.48C39.2959 57.9147 43.4772 56.1067 47.1465 53.072C48.3305 52.0907 49.9039 50.4747 50.9652 49.1467C52.9545 46.656 54.7412 43.4613 55.9199 40.2933C57.7599 35.3387 58.3785 30.5013 57.8079 25.472C56.9172 17.5787 52.2452 10.24 45.7599 6.54933C42.7999 4.864 40.3839 4.04266 36.3678 3.36C35.3812 3.19466 35.1358 3.136 35.0452 3.04533C34.9545 2.95466 34.8692 2.93333 34.6238 2.93333C34.4532 2.93333 34.2985 2.944 34.2825 2.96ZM33.1038 6.04266C33.1358 6.112 33.2318 6.224 33.3172 6.288C33.3972 6.352 33.5998 6.50666 33.7598 6.63466C34.1652 6.94933 34.3305 6.98133 34.6985 6.8C34.9812 6.66133 35.0185 6.656 35.5358 6.69333C37.1518 6.8 38.9065 7.25333 40.8319 8.064L41.5039 8.34666L41.4772 8.672C41.4399 9.152 41.1519 9.66933 40.6132 10.2133C40.0959 10.7467 39.6692 11.0613 38.4425 11.8507C37.0292 12.752 36.4745 13.1787 35.7012 13.9467C34.1865 15.456 33.3705 17.2107 33.2958 19.1253C33.2372 20.6613 33.5998 21.9413 34.6132 23.776C35.1145 24.672 35.6425 25.3973 36.1225 25.8453C36.5652 26.2613 37.4505 26.9227 37.9252 27.2C38.8052 27.7173 40.0372 28.1387 41.5305 28.4267C41.9945 28.5173 42.6825 28.6507 43.0559 28.7253C43.4345 28.8 43.9465 28.9227 44.1972 29.0027L44.6505 29.1413L44.6239 29.392C44.6079 29.5253 44.4372 30.1173 44.2452 30.6987C43.7172 32.3253 43.6532 32.8 43.8345 33.6853C43.9519 34.256 44.1492 34.7467 44.5652 35.4827C45.2745 36.7573 45.3865 36.9173 46.2932 37.92C47.0452 38.752 47.5359 39.3973 47.7332 39.8133C47.8185 39.9893 47.9732 40.4267 48.0799 40.7893C48.3305 41.632 48.6025 42.384 49.3225 44.192L49.4292 44.464L48.8852 45.152C47.2105 47.264 45.1625 49.0987 42.7999 50.5973C40.2452 52.2133 37.4665 53.344 35.3065 53.648C33.1572 53.952 30.4852 53.84 28.1332 53.3547C26.2292 52.9653 24.0532 52.224 22.7305 51.5147C19.4078 49.7387 16.4798 46.912 14.4052 43.472L14.1332 43.024L14.6025 42.704C15.2318 42.2667 15.9198 41.568 16.3198 40.9547C16.7678 40.2827 17.4665 38.848 17.7865 37.968C18.3465 36.4 18.5385 35.2853 18.4905 33.8933C18.4478 32.704 18.2772 31.8667 17.6318 29.616C17.2852 28.4107 17.0878 27.6427 17.0398 27.2907C17.0025 27.0453 17.0078 27.0293 17.3012 26.6453C18.0158 25.712 19.0452 24.9867 21.4932 23.6907C23.9785 22.3787 24.5812 21.8773 25.2372 20.5707C25.8345 19.376 26.0852 18.4213 26.0852 17.3333C26.0852 15.712 25.5732 14.4587 24.2078 12.7413C23.4292 11.7653 21.8665 10.304 21.1892 9.93066C21.0718 9.86133 21.0345 9.89866 21.6798 9.48266C24.6558 7.55733 28.0745 6.34133 31.4505 6.00533C31.8558 5.96266 32.3785 5.93066 32.6185 5.92533C33.0238 5.92 33.0505 5.92533 33.1038 6.04266ZM43.7865 9.56266C45.4025 10.5173 46.6879 11.504 47.9625 12.7733C49.1519 13.9627 50.0212 15.0187 50.9599 16.4267C51.6105 17.3973 51.9465 18.0213 52.3892 19.0667C54.6772 24.4747 55.0132 30.4747 53.3599 36.352C53.0132 37.584 52.5119 38.9653 52.0372 40L51.8559 40.4L51.8185 40.1333C51.7545 39.6853 51.4239 38.7787 51.1039 38.16C50.4639 36.9387 49.9145 36.2453 48.7039 35.1253C47.6212 34.1333 47.2959 33.7813 47.1092 33.392C46.8799 32.9333 46.8905 32.672 47.1465 31.8667C47.6532 30.272 47.8239 29.2747 47.7279 28.3573C47.6532 27.6 47.4025 27.0827 46.8639 26.5547C46.5919 26.288 46.3945 26.1653 45.7332 25.8453C44.7519 25.3653 44.5065 25.296 42.6559 24.96C39.5305 24.3947 38.5705 24.0213 37.5465 22.9867C36.4532 21.8827 35.7172 20.1013 35.8025 18.7733C35.8612 17.936 35.9945 17.5467 36.4852 16.816C37.1145 15.888 37.8132 15.2373 39.6745 13.8507C41.3279 12.6133 41.9839 11.9307 42.5012 10.896C42.7999 10.2933 42.9119 9.984 43.0612 9.31733C43.0985 9.14666 43.0505 9.13066 43.7865 9.56266ZM19.6478 11.6107C20.4745 12.1973 21.8452 13.6853 22.7358 14.96C23.4025 15.92 23.6638 17.0667 23.4238 18.0107C23.2852 18.5547 23.1038 18.8693 22.7038 19.264C22.2345 19.728 21.8772 19.936 19.9732 20.8747C18.1012 21.7973 17.3012 22.2507 16.6132 22.7627C14.8852 24.0587 13.8932 25.8347 13.9945 27.4507C14.0425 28.1227 14.1278 28.56 14.5865 30.4C15.2158 32.9333 15.3332 33.728 15.2052 34.688C15.0558 35.7867 14.4852 36.992 13.6798 37.904C13.4238 38.1973 12.6612 38.832 12.4158 38.9653L12.2718 39.04L11.9518 38.0587C11.3652 36.272 10.9172 34.2027 10.6932 32.2933C10.5758 31.2907 10.5278 28.7733 10.6078 27.7493C10.9812 22.9867 12.3892 19.2213 15.1892 15.4933C16.1332 14.2347 17.4292 12.8373 18.6078 11.7973C18.9172 11.5253 19.1785 11.3067 19.1892 11.3067C19.2052 11.3067 19.4078 11.4453 19.6478 11.6107Z"
    fill="var(--color-text)"
  />
</svg>
