<svg
  width="64"
  height="64"
  viewBox="0 0 64 64"
  fill="none"
  xmlns="http://www.w3.org/2000/svg"
>
  <path
    d="M33.2107 3.63199C33.1627 3.65866 33.0987 3.67466 33.072 3.65866C33.008 3.61599 31.9414 3.88266 31.8507 3.96266C31.7067 4.07999 31.632 4.34666 31.312 5.93599C30.8267 8.33599 30.6614 9.60532 30.2934 13.84C30.2027 14.864 30.0587 16.4373 29.9734 17.3333C29.888 18.2293 29.6854 20.4 29.52 22.16C29.36 23.92 29.1414 26.1707 29.0294 27.1573L28.8374 28.96H27.712C26.0427 28.96 22.9707 29.0507 19.6054 29.2C17.9574 29.2747 15.2961 29.3547 13.6801 29.3867C8.96007 29.472 8.0534 29.5467 6.53874 29.952C5.70141 30.176 5.48274 30.2933 5.35474 30.5653C5.23741 30.832 5.29074 31.04 5.66407 31.7067C6.03741 32.3787 6.30407 32.5813 6.9014 32.6453C7.34407 32.6933 9.47207 32.9067 10.8001 33.04C12.8267 33.2427 15.0027 33.36 18.8801 33.4667C20.4801 33.5093 22.4481 33.5733 23.2534 33.6C24.0587 33.6267 25.4294 33.68 26.2934 33.7067C27.1574 33.7387 27.9627 33.776 28.08 33.792L28.2987 33.8187L28.1814 35.0827C27.8454 38.7253 27.7067 41.1733 27.5467 45.9467C27.456 48.6187 27.376 50.1013 27.1947 52.4107C27.072 53.888 27.072 53.9307 27.1627 54.9387C27.2534 55.952 27.4774 57.584 27.6747 58.6827C27.84 59.584 28.2294 60.2187 28.7574 60.4373C29.0347 60.5493 29.5627 60.16 30.0214 59.4987C30.4267 58.912 31.2534 57.1733 31.568 56.24C32.3734 53.856 32.5494 51.9947 32.6134 45.1733C32.6507 41.1627 32.72 39.2853 32.9654 35.6267C33.024 34.736 33.0774 33.9947 33.088 33.9893C33.0934 33.9787 34.2667 34.016 35.6854 34.064C40.48 34.2347 50.7574 34.16 52.16 33.9467C53.2427 33.7867 55.0293 33.1467 56.416 32.4267C57.3813 31.9253 57.7707 31.6427 57.9147 31.3387C58.192 30.7467 57.9733 30.4587 56.8373 29.904C55.824 29.408 54.9333 29.104 53.7653 28.848C53.0294 28.688 51.584 28.6613 48.96 28.768C47.7707 28.816 46.0427 28.88 45.12 28.9067C43.2107 28.9653 35.328 28.976 34.2134 28.9227L33.4774 28.8907L33.5147 28.3787C33.952 21.76 34.1814 16.5333 34.2934 10.4C34.3254 8.83199 34.3734 7.11466 34.4054 6.58666C34.48 5.38666 34.4427 4.34666 34.32 4.08532C34.2454 3.92532 34.192 3.88799 34.0214 3.86132C33.9094 3.83999 33.7654 3.77066 33.7014 3.70132C33.5734 3.56799 33.3707 3.53599 33.2107 3.63199Z"
    fill="currentColor"
  />
</svg>
