<svg
  xmlns="http://www.w3.org/2000/svg"
  fill="none"
  stroke="currentColor"
  stroke-linecap="round"
  stroke-linejoin="round"
  stroke-width="2"
  aria-hidden="true"
  viewBox="0 0 24 24"
>
  <path
    d="M21.887 5.996c-.308-2.314-2.298-4.14-4.655-4.492-.399-.059-1.906-.278-5.398-.278h-.026c-3.495 0-4.243.219-4.642.278-2.295.345-4.387 1.982-4.897 4.326-.242 1.153-.268 2.433-.222 3.606.065 1.684.078 3.361.228 5.039a24.11 24.11 0 0 0 .543 3.304c.484 2.009 2.439 3.68 4.355 4.359 2.049.71 4.256.829 6.368.342.232-.057.461-.12.69-.193.513-.165 1.114-.351 1.559-.676.006-.003.01-.01.013-.016.003-.007.007-.014.007-.024v-1.624s0-.013-.007-.02c0-.006-.007-.013-.013-.016a.186.186 0 0 0-.02-.01h-.019a17.351 17.351 0 0 1-4.132.49c-2.397 0-3.041-1.153-3.224-1.63a5.26 5.26 0 0 1-.281-1.287c0-.006 0-.013.003-.019 0-.007.007-.014.013-.017l.02-.01h.023c1.33.325 2.697.491 4.067.491.33 0 .657 0 .987-.01 1.376-.04 2.828-.11 4.184-.378.033-.007.069-.013.098-.02 2.138-.418 4.172-1.724 4.378-5.032.006-.129.026-1.365.026-1.498 0-.461.147-3.258-.023-4.979l-.003-.006Z"
  />
  <path
    fill="currentColor"
    stroke-width="1"
    d="M6.061 7.288c0-.676.533-1.219 1.193-1.219.661 0 1.193.547 1.193 1.219 0 .673-.532 1.22-1.193 1.22-.66 0-1.193-.547-1.193-1.22Z"
  />
</svg>
