<svg viewBox="0 0 64 64" fill="none" xmlns="http://www.w3.org/2000/svg">
  <path
    d="M9.75997 8.57602C9.42397 8.66668 9.4133 8.67202 9.3493 8.89602C9.29597 9.07735 9.3013 9.30135 9.35997 10.0427C9.40263 10.5494 9.4613 11.776 9.4933 12.7733C9.7813 22.3093 9.78663 22.256 9.46663 27.0933C9.19997 31.1467 9.1413 32.384 9.06663 35.3867C8.9493 40.0053 8.84797 42.48 8.63997 45.6C8.47463 48.0747 8.42663 49.7013 8.47997 51.0133C8.5653 52.9973 8.75197 53.7067 9.5573 55.104C9.71197 55.376 9.91463 55.744 9.99997 55.9147C10.1813 56.272 10.688 56.848 10.976 57.024C11.088 57.088 11.2853 57.2427 11.4293 57.3707C11.568 57.504 11.84 57.68 12.0373 57.7707C12.3893 57.936 12.3893 57.936 13.8613 58.0053C16.784 58.1387 19.7546 58.2027 21.8666 58.1653C25.7226 58.1013 30.3039 58.0853 31.5199 58.1333C33.1413 58.1973 34.6133 58.272 37.0933 58.4267C42.3359 58.7573 45.2533 58.848 46.3466 58.7253C48.7253 58.4533 52.6772 57.0987 54.0959 56.0693C54.7252 55.6107 55.0932 55.1787 55.0932 54.896C55.0932 54.7413 55.0879 54.736 53.9359 54.3573C51.7972 53.648 48.9333 52.96 47.1466 52.72C46.3306 52.608 39.0133 52.4693 33.7333 52.464C29.8293 52.4587 29.4293 52.4693 25.5466 52.6933C22.1333 52.8907 21.1893 52.928 19.12 52.928C17.3226 52.9333 15.3493 52.8747 13.7813 52.768C13.2906 52.736 13.296 52.7413 13.1466 52.1707C12.9973 51.5733 12.9546 50.416 12.9066 45.1467C12.88 42.24 12.832 39.264 12.8053 38.5333C12.7093 36.16 12.6293 32.1547 12.6666 31.3067C12.6826 30.8533 12.704 28.7627 12.704 26.6667C12.7146 22.1493 12.6773 21.4133 12.1546 16.16C11.744 12.0267 11.5466 10.768 11.056 9.18402C10.912 8.71468 10.8266 8.58668 10.6666 8.58668C10.6133 8.58668 10.5493 8.56002 10.5333 8.53335C10.4853 8.45868 10.16 8.47468 9.75997 8.57602Z"
    fill="var(--color-text)"
  />
  <path
    d="M55.9199 8.96536C55.7759 8.99202 55.0079 9.10936 54.2132 9.23202C52.5759 9.47736 51.8025 9.62669 50.7732 9.89869C50.3732 10 49.5999 10.144 49.0399 10.2187C46.7625 10.5174 44.0105 10.9867 43.4665 11.168C43.3332 11.2107 43.0345 11.2854 42.7999 11.3387C42.3145 11.44 42.1439 11.5734 42.0319 11.9467C41.8985 12.3894 42.0532 12.944 42.5332 13.7547C42.6932 14.0267 42.8692 14.352 42.9279 14.4747C43.0452 14.7467 43.3225 15.072 43.5252 15.1787C43.6105 15.2214 43.8025 15.3654 43.9519 15.4987C44.1492 15.6747 44.2559 15.7334 44.3412 15.712C44.5759 15.6587 45.8559 15.4027 47.7332 15.04C48.8052 14.832 49.7119 14.6507 49.7545 14.6347C49.8399 14.608 49.9359 14.464 48.8425 15.9894C48.3839 16.6294 47.7012 17.6267 47.3225 18.2027C46.9492 18.7787 46.2932 19.7867 45.8665 20.4374C44.8265 22.032 43.8879 23.3387 42.8852 24.5814C42.4265 25.1467 41.7705 25.9627 41.4239 26.3947C40.4265 27.6267 39.0185 29.4774 38.1865 30.656C37.5465 31.552 37.4079 31.7174 37.3652 31.6427C37.3385 31.5894 36.8639 30.8 36.3199 29.8934C35.7705 28.9814 35.0025 27.6747 34.6132 26.9867C33.2372 24.5494 32.4532 23.552 31.7652 23.3814C31.6799 23.36 31.5092 23.28 31.3919 23.2C31.0239 22.96 30.8692 22.9174 30.4159 22.9547C29.8025 22.9974 29.2532 23.072 29.1785 23.1147C29.1412 23.136 28.8425 23.2267 28.5065 23.3067C27.7812 23.488 27.4772 23.648 26.8745 24.176C25.9519 24.9867 25.1892 25.9254 24.4265 27.1947C23.2159 29.216 20.6239 34.992 19.0665 39.152C18.8532 39.7227 18.4319 40.8267 18.1332 41.6054C16.7732 45.1307 16.2025 47.216 16.3732 48.0107C16.4959 48.5974 17.0719 49.3867 17.3705 49.3867C17.5305 49.3867 17.6692 49.2 17.9732 48.5867C18.1279 48.2774 18.4852 47.632 18.7732 47.1467C19.9039 45.232 20.6772 43.7707 22.4425 40.2134C24.4585 36.144 25.4932 34.0374 26.0532 32.8534C27.2852 30.256 28.0105 29.1147 29.1465 27.9734C29.9945 27.12 30.3572 27.0187 30.7625 27.5147C31.0985 27.92 31.5252 28.56 32.0799 29.4934C32.3679 29.9787 32.8959 30.864 33.2585 31.4667C33.6159 32.0694 34.2239 33.12 34.6132 33.808C35.7652 35.856 36.0319 36.2454 36.4745 36.5494C36.6079 36.64 36.8105 36.7947 36.9279 36.896C37.1892 37.1307 37.5199 37.28 37.7759 37.28C38.0532 37.28 38.5705 37.0987 38.9279 36.8694C39.7865 36.3254 40.3519 35.7227 41.8132 33.792C43.0719 32.1387 43.8185 31.2 44.9545 29.8454C47.0132 27.4027 48.2665 25.8134 49.7972 23.6907C50.2132 23.1147 51.3652 21.5574 52.3572 20.2347L54.1599 17.824L54.1972 18.688C54.2399 19.7814 54.5119 21.3867 54.9865 23.3334C55.1039 23.8027 55.2105 24.288 55.2319 24.4107C55.2799 24.7094 55.4345 24.8747 55.6212 24.8267C55.8612 24.768 56.0959 24.48 56.4105 23.872C57.0932 22.5334 57.7332 20.448 57.8772 19.0934C57.9199 18.6774 57.9199 17.9307 57.8719 16.2134C57.8399 14.9387 57.8132 12.992 57.8132 11.8934C57.8132 10.7467 57.7919 9.81336 57.7599 9.71202C57.6852 9.45602 57.5145 9.29069 57.2745 9.25336C57.1465 9.23202 57.0025 9.15736 56.9119 9.06136C56.7732 8.92802 56.7199 8.90669 56.4692 8.91202C56.3145 8.91736 56.0692 8.93869 55.9199 8.96536Z"
    fill="var(--color-text)"
  />
</svg>
