<svg viewBox="0 0 64 64" fill="none" xmlns="http://www.w3.org/2000/svg">
  <path
    d="M25.3067 0.730896C24.3467 0.810896 22.944 1.10956 22.064 1.4189C21.0934 1.76556 20.24 2.4109 19.6747 3.23223C19.248 3.85623 18.8267 4.92823 18.64 5.8669C18.432 6.91756 18.48 9.00823 18.7467 10.5869C19.1947 13.2536 20.0107 15.5149 21.8774 19.2696C22.4 20.3202 22.8107 21.1682 22.784 21.1576C22.7627 21.1416 22.5814 21.0296 22.3787 20.9069C21.8614 20.5922 20.5494 19.9469 19.9734 19.7176C18.464 19.1256 16.5174 18.7736 14.7627 18.7736C13.7387 18.7736 13.0454 18.8589 12.0747 19.0936C10.672 19.4402 9.97336 19.8936 9.52536 20.7416C9.04536 21.6589 9.1787 22.6616 9.95736 24.0802C11.0454 26.0589 12.464 27.6376 14.8267 29.4989C15.7974 30.2669 17.4187 31.4936 17.9574 31.8722C18.4907 32.2456 18.5014 32.2562 18.336 32.2882C18.2454 32.3042 18.016 32.3202 17.8187 32.3202C16.8267 32.3202 14.1494 32.5656 12.4534 32.8056C10.9334 33.0189 10.512 33.1309 10.2987 33.3549C10.0427 33.6269 10.1067 34.0216 10.5334 34.8802C10.88 35.5736 11.5254 37.0882 11.9787 38.2722C12.8747 40.6242 13.4347 42.2936 14.96 47.1736C15.8507 50.0269 16.4 51.6376 16.7094 52.2882C17.3067 53.5416 18.592 55.6216 19.1414 56.2242C19.456 56.5709 20.368 57.2749 20.752 57.4669C21.552 57.8722 21.9627 57.9522 23.952 58.0642C25.8934 58.1709 30.5974 58.1816 35.2 58.0802C38.4054 58.0162 39.536 58.0429 42.2667 58.2456C44.8374 58.4376 45.4507 58.3416 46.1174 57.6429C46.3627 57.3869 46.8 56.5122 47.104 55.6536C47.5467 54.4162 49.952 47.1149 50.1547 46.4002C50.4054 45.4989 50.7414 44.1442 51.2 42.1602C51.664 40.1656 51.984 38.9869 52.4427 37.5736C52.6347 36.9869 52.8587 36.2189 52.9387 35.8669C53.0774 35.2696 53.088 35.1522 53.0934 34.0002C53.0934 32.8376 53.088 32.7576 52.9707 32.4696C52.8374 32.1389 52.5654 31.8669 52.3147 31.8136C52.176 31.7816 52.1067 31.8402 51.4987 32.4642L50.832 33.1522L50.2027 33.0829C49.3654 32.9869 44.1814 32.4802 44.032 32.4802C43.952 32.4802 44.1814 32.2189 44.9387 31.4509C46.0054 30.3736 46.3467 30.0056 47.4187 28.7416C51.0934 24.4269 52.0214 23.1736 53.0774 21.0936C53.792 19.6856 54.2134 18.5069 54.5174 17.0669C54.672 16.3149 54.688 14.7202 54.544 14.1976C54.2934 13.3016 53.7707 12.5709 53.0134 12.0536C52.5814 11.7602 51.472 11.2162 50.9334 11.0349C49.3067 10.4909 46.88 10.6776 44.1867 11.5576C42.864 11.9842 41.5254 12.6936 40.368 13.5789C39.7654 14.0429 38.8054 14.9709 38.3467 15.5362C38.0054 15.9629 38.0267 15.9789 37.8934 15.1202C37.5734 13.0349 36.6507 10.3469 35.408 7.89356C34.528 6.14423 33.632 4.8749 32.4854 3.73356C31.6107 2.86423 31.0187 2.43756 29.9094 1.8669C28.512 1.1469 27.6054 0.858896 26.4267 0.746896C25.8507 0.693563 25.744 0.693563 25.3067 0.730896ZM25.8347 4.08023C26.8 4.2509 28.112 4.80023 29.0934 5.44556C29.8614 5.95756 30.9387 7.15223 31.68 8.33623C32.4694 9.5949 33.7974 13.0456 34.3414 15.2589C34.816 17.1842 34.9547 18.4376 34.9547 20.8802C34.9494 22.8322 34.912 23.6429 34.6667 26.3736C34.5814 27.3389 34.4854 28.4589 34.4534 28.8536C34.4214 29.2482 34.3467 30.0269 34.288 30.5869C34.2294 31.1416 34.1867 31.6856 34.1974 31.7922L34.2134 31.9842L31.8987 32.0162C30.624 32.0376 29.5734 32.0429 29.5627 32.0376C29.5574 32.0269 29.5254 31.7229 29.4934 31.3549C29.4187 30.4589 29.248 29.3176 29.0934 28.6562C28.7574 27.2322 27.472 24.4056 25.36 20.4269C23.1147 16.1922 22.2134 14.1816 21.5734 11.9736C21.1094 10.3629 20.9067 9.09356 20.9014 7.77623C20.9014 6.6669 21.0027 6.0909 21.2747 5.66423C21.808 4.84823 22.8054 4.24556 23.9307 4.05356C24.3627 3.98423 25.3494 3.9949 25.8347 4.08023ZM50.0534 14.5869C50.9174 14.7682 51.7067 15.1096 51.7654 15.3282C51.8134 15.5202 51.6907 16.4109 51.5414 16.9709C51.1947 18.2562 50.4 19.5256 48.9227 21.1469C48.0427 22.1122 44.3414 25.7069 41.92 27.9522C41.5254 28.3202 41.0614 28.7896 40.8854 28.9922C40.4587 29.4989 39.8774 30.3842 39.36 31.3176L38.928 32.0962L38.3307 32.0749C38 32.0642 37.36 32.0376 36.9014 32.0216L36.0694 31.9896L36.2507 31.5309C36.6507 30.5176 36.9654 29.1896 37.3814 26.7202C37.712 24.7736 38.08 21.8829 38.08 21.2216C38.08 20.9549 39.1734 19.5522 40.096 18.6296C42.5654 16.1709 44.9974 14.8482 47.696 14.5069C48.256 14.4376 49.552 14.4802 50.0534 14.5869ZM16.9067 21.2962C18.88 21.5949 20.0267 21.9522 21.6 22.7522C22.6667 23.2962 23.856 24.1282 24.4854 24.7842C24.8107 25.1256 24.9654 25.4349 26 27.8402C26.2827 28.5016 26.8587 29.7282 27.28 30.5656L28.0427 32.0909L26.192 32.1282C25.1734 32.1442 24.256 32.1869 24.1547 32.2136C24.0587 32.2456 23.456 32.2669 22.816 32.2669H21.6587L20.7094 31.3176C19.4294 30.0376 19.0454 29.7122 17.3067 28.4482C14.7947 26.6189 13.9307 25.8882 12.992 24.7842C12.2294 23.8936 11.8667 23.3922 11.6 22.8642C11.2747 22.2242 11.2534 22.0696 11.4454 21.8936C11.6587 21.7069 12.2774 21.4136 12.6827 21.3069C13.3014 21.1522 13.616 21.1256 14.8267 21.1469C15.76 21.1629 16.224 21.1949 16.9067 21.2962ZM49.744 34.4642C49.4347 34.9016 49.2214 35.3282 48.88 36.2136C48.16 38.0536 47.664 39.8989 47.0347 43.0669C46.4907 45.7976 46.3734 46.3096 45.888 48.2136C45.664 49.0776 45.3174 50.4269 45.12 51.2056C44.9174 51.9842 44.6294 53.1629 44.48 53.8189C44.3254 54.4749 44.176 55.0456 44.1494 55.0776C44.0747 55.1736 42.56 55.1682 40 55.0669C38.64 55.0136 36.4 54.9869 32.9867 54.9869C27.8187 54.9869 27.3547 54.9709 24.56 54.7416C22.032 54.5389 21.536 54.4322 20.9707 53.9736C20.528 53.6109 19.8614 52.8482 19.4294 52.2029C18.8427 51.3282 18.6134 50.7202 17.1947 46.3736C15.3387 40.6616 13.952 37.2002 12.7307 35.2002L12.4854 34.8002L13.9894 34.7629C14.816 34.7469 16.5014 34.7042 17.7334 34.6722C18.9654 34.6402 20.6614 34.6136 21.504 34.6136C22.912 34.6136 23.0507 34.6242 23.28 34.7202C23.52 34.8216 23.5307 34.8216 23.5574 34.7309C23.5787 34.6349 23.7494 34.6296 27.616 34.5922C29.8347 34.5709 32.768 34.5336 34.1334 34.5016C35.4987 34.4696 37.3334 34.4376 38.2134 34.4269C39.0934 34.4162 39.872 34.3949 39.9467 34.3789C40.0214 34.3682 41.0774 34.3416 42.2934 34.3202C44.64 34.2882 48.896 34.1922 49.12 34.1656C49.1947 34.1549 49.4187 34.1442 49.616 34.1389L49.9787 34.1336L49.744 34.4642Z"
    fill="var(--color-text)"
  />
</svg>
