<svg viewBox="0 0 64 64" fill="none" xmlns="http://www.w3.org/2000/svg">
  <path
    d="M20.7998 15.9947C20.1118 16.2187 19.1038 16.832 18.1598 17.6C17.8665 17.84 16.9918 18.688 16.2131 19.4827C13.6745 22.0907 12.2718 23.4667 10.2665 25.3387C9.18381 26.352 7.86115 27.6373 7.33315 28.192C5.85048 29.7493 4.95448 30.6187 4.30915 31.1307C2.81048 32.32 2.69315 32.4693 2.82115 33.088C2.85848 33.264 2.98648 33.5947 3.10381 33.8133C3.22648 34.032 3.40781 34.3627 3.50381 34.5493C3.60515 34.7307 3.74381 34.9227 3.81848 34.976C4.76781 35.648 4.83181 35.7173 6.44248 37.6107C8.95448 40.5813 10.8425 42.7147 12.5865 44.56C14.9385 47.0453 16.2611 48.368 16.9598 48.9387C18.4798 50.1813 20.0691 51.264 20.5811 51.4133C20.8105 51.4773 20.8745 51.3387 20.8371 50.912C20.7571 50.0853 19.9251 48.3627 18.7571 46.6133C18.5491 46.304 18.2985 45.9467 18.1918 45.8133C18.0051 45.5787 16.6825 44.0533 16.5278 43.8933C16.4851 43.8507 16.2238 43.5627 15.9465 43.2533C15.6691 42.944 15.1678 42.3947 14.8265 42.0267C14.0958 41.2373 13.2158 40.2773 12.1865 39.1467C11.7758 38.6933 11.1998 38.0587 10.9065 37.7333C10.6131 37.4133 9.97315 36.704 9.49315 36.16C9.01315 35.616 8.60248 35.1627 8.58648 35.1467C8.46915 35.04 7.03981 33.392 7.03981 33.36C7.03981 33.3387 7.20515 33.136 7.40248 32.912C7.60515 32.688 8.03181 32.1813 8.34648 31.7867C9.45581 30.416 10.2078 29.552 11.2798 28.4267C12.4211 27.232 12.7785 26.8533 13.4185 26.16C14.8585 24.5973 15.5678 23.7653 16.9598 22C18.6985 19.7973 19.5251 18.8747 20.7785 17.76C21.2585 17.328 21.4451 17.1253 21.5145 16.9493C21.5678 16.8267 21.6318 16.6773 21.6585 16.6293C21.7278 16.4907 21.7705 16.1387 21.7225 16.08C21.5625 15.8773 21.2478 15.8507 20.7998 15.9947Z"
    fill="var(--color-text)"
  />
  <path
    d="M42.48 16.24C42.304 16.2827 42.128 16.3147 42.096 16.3147C41.9627 16.3253 41.8134 16.5333 41.8134 16.7093C41.8134 16.896 42.0907 17.4827 42.3307 17.7973C42.4 17.8933 42.992 18.4693 43.6374 19.0773C49.1627 24.2507 52.96 27.8613 54.8853 29.76C55.3867 30.256 56.208 31.1253 56.9973 31.9947L57.6 32.6507L57.264 33.056C56.6987 33.744 56.2773 34.176 55.28 35.0613C53.9893 36.208 51.8027 38.1813 50.72 39.1733C50.2347 39.616 49.36 40.3946 48.7734 40.9066C46.4854 42.896 44.6774 44.928 44.0534 46.2133C43.552 47.2533 43.2534 48.7626 43.2534 50.288V50.784L43.456 50.9866C43.9254 51.456 44.7574 51.3973 45.9467 50.8C46.6667 50.4426 46.896 50.24 47.856 49.152C48.5974 48.304 49.76 47.1253 52.3253 44.6133C53.7067 43.2586 55.1947 41.664 57.072 39.52C58.64 37.728 58.8 37.5307 59.4613 36.5867C59.7813 36.1333 60.1013 35.712 60.1707 35.648C60.2347 35.5893 60.4 35.5093 60.5333 35.472C60.8267 35.3867 61.168 35.0507 61.2747 34.7467C61.312 34.6293 61.4027 34.4427 61.472 34.336C61.5413 34.224 61.6 34.0587 61.6 33.9627C61.6 33.872 61.6427 33.744 61.7013 33.6853C61.8347 33.5307 61.9893 32.8533 61.9893 32.368C61.9947 31.888 61.9307 31.76 61.5627 31.504C60.8907 31.04 60.1653 30.4213 59.04 29.36C58.4853 28.8373 57.7333 28.1707 57.28 27.8027C57.0293 27.6 56.3733 27.0667 55.8133 26.6133C54.592 25.6213 53.744 24.912 51.2267 22.7733C47.3067 19.4453 44.8214 17.4027 43.8667 16.7147C43.52 16.4693 42.9494 16.16 42.8534 16.1653C42.8267 16.1653 42.656 16.2027 42.48 16.24Z"
    fill="var(--color-text)"
  />
</svg>
