<svg viewBox="0 0 64 64" fill="none" xmlns="http://www.w3.org/2000/svg">
  <path
    d="M32.0266 5.21066C31.8506 5.22133 31.3013 5.26399 30.7999 5.30666C25.9946 5.73866 21.9466 7.02399 17.2479 9.59999C13.8239 11.4827 11.6586 13.4987 9.21592 17.0933C7.69059 19.3387 6.45859 21.5573 5.76525 23.3333C5.17859 24.8267 4.87992 26.0213 4.37859 28.8533C3.84525 31.8507 3.76525 32.6347 3.80259 34.3627C3.82925 35.776 3.93059 36.5387 4.26659 37.872C4.70925 39.6213 5.26392 40.96 6.38392 42.944C7.28525 44.5493 7.91459 45.296 9.27459 46.368C10.9226 47.664 12.5013 48.5973 14.6399 49.5467C15.8826 50.096 16.4106 50.3787 16.4426 50.5173C16.4959 50.736 16.6399 51.8453 16.7253 52.7467C16.7839 53.3333 16.8159 54.3147 16.8319 55.7067C16.8533 58.4053 16.8799 58.5867 17.5039 59.7067C17.6799 60.0267 17.8879 60.3947 17.9573 60.5173C18.0319 60.656 18.2026 60.8267 18.3893 60.9547C18.5599 61.0667 18.7306 61.2053 18.7733 61.2587C19.1946 61.7653 20.8746 61.5893 22.2613 60.896C23.0399 60.5067 23.5839 60.0907 25.6319 58.32C28.2826 56.0267 30.5653 54.608 32.3519 54.1547C32.9546 54.0053 34.6186 53.7707 36.4799 53.5733C39.3226 53.2747 40.2186 53.136 41.8933 52.72C45.4613 51.8347 49.0826 50.3253 51.2213 48.8267C52.8639 47.68 54.8373 45.744 55.9679 44.1707C56.5279 43.392 57.0133 42.5547 57.6533 41.2533C59.2426 38.0213 60.3253 34.2027 60.5386 31.0773C60.6133 29.952 60.5706 27.7387 60.4533 26.672C60.0693 23.2053 58.9386 19.76 57.2426 16.896C55.3973 13.7707 52.9013 10.8907 50.7146 9.37599C49.3599 8.43199 46.5119 7.02933 45.0666 6.59199C44.0426 6.28266 42.8373 6.07999 42.0319 6.07999C41.5573 6.07999 41.4399 6.14399 41.5466 6.35199C41.6053 6.45866 41.5999 6.46399 41.5146 6.43199C40.9706 6.21866 38.9813 5.72799 37.9413 5.55199C36.1173 5.24266 33.8773 5.11466 32.0266 5.21066ZM37.3866 7.35999C39.3173 7.49866 41.2586 7.82933 43.0453 8.32533L43.8293 8.54399L44.6506 9.42933C45.1039 9.91999 46.0053 10.9173 46.6453 11.6533C47.2853 12.384 48.1439 13.3387 48.5493 13.7707C50.1226 15.44 51.3386 17.0613 52.6133 19.1733C53.8773 21.264 55.1359 24.64 55.7333 27.552C56.1546 29.584 56.2079 31.8933 55.8933 33.9893C55.5199 36.432 54.5653 39.04 53.3439 40.9333C52.0373 42.96 49.8879 45.072 47.9199 46.256C46.6986 46.992 44.5439 47.9307 42.4106 48.6613C40.3253 49.376 39.8399 49.472 36.2399 49.8933C30.7093 50.544 29.0346 51.152 25.0079 53.9947C24.3893 54.4267 23.2799 55.264 22.5439 55.8507C21.8026 56.4427 21.0239 57.04 20.8053 57.1893L20.4106 57.456L20.4426 57.1947C20.7146 55.024 20.5279 50.8053 20.0799 49.04C19.8026 47.9413 19.2426 47.056 18.5546 46.6347C17.9786 46.288 16.5333 45.6 15.0133 44.9493C13.3866 44.256 12.8906 44.0107 12.0799 43.4827C10.6506 42.5493 9.66392 41.488 8.75725 39.9093C7.56792 37.824 7.01325 35.2747 7.18925 32.704C7.30125 31.12 7.62125 28.8213 7.95192 27.2267C8.30925 25.488 8.92259 24.0907 10.6293 21.1147C12.1333 18.4907 13.2426 16.9653 14.7626 15.4293C15.8826 14.2933 16.8853 13.472 18.3733 12.4693C20.7466 10.864 22.8106 9.79199 25.2533 8.90666C28.7359 7.64799 33.2586 7.07199 37.3866 7.35999Z"
    fill="var(--color-text)"
  />
</svg>
