<svg viewBox="0 0 64 64" fill="none" xmlns="http://www.w3.org/2000/svg">
  <path
    d="M32.0534 3.63781C30.88 3.87781 30.8267 3.89915 30.72 4.10181C30.6667 4.20848 30.5974 4.48581 30.56 4.72048C30.528 4.95515 30.416 5.60048 30.3147 6.16048C29.8614 8.64581 29.4774 11.6378 29.4774 12.6938C29.4774 14.8805 30.1654 19.0245 30.6454 19.7605C30.7734 19.9578 30.944 19.9311 31.1094 19.6911C31.5467 19.0565 32.4374 16.6725 32.928 14.8218C33.2533 13.5845 33.3867 12.8805 33.4453 12.0325C33.52 10.9658 33.4773 4.98715 33.392 4.62448C33.2747 4.10181 33.0613 3.84048 32.7467 3.84048C32.688 3.84048 32.64 3.81915 32.64 3.78715C32.64 3.74448 32.352 3.56315 32.3094 3.57915C32.2987 3.58448 32.1867 3.61115 32.0534 3.63781Z"
    fill="var(--color-text)"
  />
  <path
    d="M51.6533 11.787C50.72 11.9257 50.3414 12.123 49.4134 12.9337C48.6987 13.5577 46.4001 15.8404 46.0801 16.2404C44.8054 17.8404 43.3014 20.8377 42.9068 22.5817C42.8321 22.9124 42.8321 22.955 42.9068 23.0724C42.9494 23.1417 43.0294 23.2004 43.0828 23.2004C43.3121 23.2004 45.5201 21.899 46.7307 21.051C48.64 19.707 48.8587 19.4617 51.4507 15.6804C52.1653 14.6404 52.64 13.8084 52.64 13.6057C52.64 13.5577 52.6667 13.4884 52.6933 13.4617C52.7893 13.3657 52.9067 12.8057 52.9067 12.459C52.9067 12.0857 52.864 12.0217 52.5973 11.9684C52.5067 11.947 52.3893 11.8884 52.3413 11.835C52.2453 11.7284 52.1173 11.7177 51.6533 11.787Z"
    fill="var(--color-text)"
  />
  <path
    d="M12.8001 12.3044C12.6347 12.3258 12.2454 12.4218 12.0214 12.4858C11.8027 12.5551 11.7067 12.7684 11.7547 13.1044C11.8134 13.5364 12.464 14.6831 13.3281 15.8671C15.0881 18.2831 15.7974 19.0511 18.4001 21.3605C19.0614 21.9418 19.9147 22.7311 20.2987 23.1045C21.0347 23.8245 21.1201 23.8671 21.1201 23.4831C21.1201 23.2698 20.9547 22.5178 20.7947 22.0005C20.5121 21.0778 19.8934 19.7871 19.0614 18.4004C18.0854 16.7738 17.5254 16.0484 16.1334 14.6244C14.8907 13.3498 13.8934 12.4911 13.6641 12.4804C13.6214 12.4804 13.5307 12.4324 13.4561 12.3738C13.3227 12.2724 13.1361 12.2511 12.8001 12.3044Z"
    fill="var(--color-text)"
  />
  <path
    d="M50.7735 29.6321C47.3814 30.0001 44.0001 30.7841 42.4374 31.5681C41.7974 31.8881 41.7174 31.9787 41.9041 32.2027C41.9841 32.2987 42.3948 32.4214 44.1334 32.8534C47.8401 33.776 49.7921 34.1974 51.1468 34.3787C52.4428 34.5494 54.3148 34.352 56.8428 33.7867C58.2668 33.472 58.3628 33.4347 58.7681 33.024C59.0135 32.7734 59.1415 32.5974 59.1948 32.4267C59.2375 32.2934 59.2908 32.1601 59.3175 32.1281C59.3388 32.0961 59.3815 31.9467 59.4135 31.7974C59.4562 31.5734 59.4455 31.4774 59.3548 31.2161C59.2215 30.8481 59.0935 30.6934 58.8321 30.6081C58.7255 30.5708 58.5815 30.5014 58.5121 30.4481C58.2241 30.2188 57.2641 29.9948 55.9201 29.8401C53.4241 29.5521 52.0268 29.4934 50.7735 29.6321Z"
    fill="var(--color-text)"
  />
  <path
    d="M10.4 30.363C10.384 30.3737 9.73864 30.4163 8.95998 30.4483C5.83464 30.587 5.56264 30.6083 5.24798 30.6937C5.07731 30.7417 4.80531 30.8163 4.65598 30.859C4.43198 30.9177 4.35731 30.971 4.28798 31.1043C4.17064 31.3337 4.21331 31.7923 4.38398 32.107C4.45864 32.2403 4.61864 32.5337 4.74131 32.7577C4.86931 32.987 5.03998 33.227 5.12531 33.291C5.21598 33.3603 5.37598 33.4883 5.48264 33.579C5.74398 33.7977 5.90931 33.8777 6.44264 34.0483C7.51998 34.3843 9.89331 34.635 10.9066 34.507C12.3146 34.3363 14.7306 33.723 17.0826 32.939C18.4746 32.4697 19.0986 32.2083 19.1946 32.043C19.3546 31.771 19.2693 31.7283 17.7386 31.3283C16.4373 30.9923 14.768 30.6937 12.9333 30.4803C12.2186 30.395 10.448 30.3097 10.4 30.363Z"
    fill="var(--color-text)"
  />
  <path
    d="M43.216 41.4454C43.1253 41.536 43.1626 41.616 44.0906 43.28C44.5333 44.0747 45.344 45.536 45.8933 46.5334C47.0453 48.6187 48.0106 50.3147 48.3626 50.8534C48.7093 51.3974 49.728 52.7307 50.048 53.056C50.1973 53.216 50.384 53.376 50.464 53.4187C50.544 53.4614 50.7306 53.6054 50.88 53.7334C51.1893 54.0107 51.3813 54.0427 51.68 53.8614C51.92 53.712 51.9626 53.6587 52.2186 53.12C52.3413 52.8694 52.4746 52.624 52.5226 52.576C52.576 52.512 52.592 52.4214 52.5706 52.2934C52.544 52.1387 52.5653 52.0747 52.688 51.9307C52.896 51.696 53.0346 51.0614 53.0293 50.3734C53.0293 49.856 53.024 49.824 52.784 49.2907C52.4373 48.5174 51.8613 47.568 51.4453 47.0827C51.008 46.5707 49.8453 45.5147 48.8586 44.72C47.4026 43.5574 46.1173 42.704 44.6506 41.92C43.7173 41.4187 43.3546 41.3014 43.216 41.4454Z"
    fill="var(--color-text)"
  />
  <path
    d="M21.3332 42.2507C20.6932 42.4427 19.9839 42.704 19.4666 42.9387C18.0692 43.568 15.7812 44.9067 14.5599 45.8027C14.0586 46.1707 13.7172 46.528 13.0986 47.3067C11.8506 48.8747 11.5039 49.3654 11.3546 49.76C11.2479 50.0427 11.2479 50.064 11.3332 50.4267C11.4346 50.8373 11.5786 51.168 11.8772 51.6533C11.9839 51.8293 12.1332 52.1067 12.2132 52.2667C12.3572 52.56 12.4532 52.656 13.1092 53.1787C13.4239 53.4293 13.4612 53.4453 13.6586 53.4133C13.9519 53.3653 14.5119 53.072 14.9386 52.752C15.4292 52.3787 16.7359 51.1093 17.1252 50.624C17.9626 49.584 18.9012 48.0427 20.3199 45.3867C20.7519 44.5814 21.2746 43.6054 21.4879 43.216C21.9252 42.4214 21.9626 42.2187 21.6799 42.2027C21.5946 42.1974 21.4346 42.2187 21.3332 42.2507Z"
    fill="var(--color-text)"
  />
  <path
    d="M32.0532 43.2324C31.9359 43.3444 31.7546 43.5791 31.6532 43.7604C31.0986 44.7524 30.2666 47.1364 29.7386 49.2538C29.3599 50.7684 29.3599 50.7951 29.3706 52.6404C29.3812 55.4298 29.5092 56.9711 29.7919 57.8671C29.8612 58.0858 30.0746 58.5444 30.2719 58.8804C30.4692 59.2164 30.7252 59.6858 30.8372 59.9204C31.0559 60.3631 31.3332 60.6991 31.5892 60.8324C31.6692 60.8751 31.8932 61.0404 32.0799 61.2004C32.4852 61.5471 32.6772 61.5791 33.0452 61.3604C33.3226 61.2004 33.5252 60.9124 33.7546 60.3738C33.8506 60.1551 33.9839 59.8831 34.0586 59.7658C34.1386 59.6484 34.2186 59.4138 34.2506 59.2218C34.2826 59.0351 34.3306 58.8804 34.3519 58.8804C34.4373 58.8804 34.5226 58.6404 34.6773 58.0058C34.9973 56.6724 35.2213 54.1604 35.2213 51.8938C35.2266 50.4538 35.2159 50.2724 35.1039 49.7604C34.5279 47.1151 33.4826 44.1764 32.8052 43.3178C32.5279 42.9658 32.3679 42.9498 32.0532 43.2324Z"
    fill="var(--color-text)"
  />
</svg>
