<svg viewBox="0 0 64 64" fill="none" xmlns="http://www.w3.org/2000/svg">
  <path
    d="M52.3467 2.91212C51.632 3.02412 50.3093 3.38145 49.632 3.64812C49.3067 3.77612 48.32 4.21878 47.44 4.62945C46.56 5.03478 45.5893 5.48812 45.28 5.62678C44.9707 5.76545 43.5947 6.43745 42.2133 7.12012C40.8373 7.79745 39.3013 8.54412 38.8 8.77345C36.992 9.61078 34.96 10.6614 34.32 11.0828C33.6053 11.5574 32.704 12.3361 32.2987 12.8374C32.1493 13.0188 32.0107 13.1681 31.9893 13.1681C31.968 13.1734 31.776 13.0401 31.5627 12.8748C31.2853 12.6614 30.6293 12.3094 29.2533 11.6374C28.1973 11.1148 26.064 10.0534 24.5067 9.26945C20.7573 7.38678 18.1867 6.20278 14.6133 4.73078C12.336 3.79212 11.6267 3.58412 10.9013 3.64812C10.432 3.68545 9.78134 3.85612 9.6 3.98945C9.38667 4.14412 9.23734 4.51212 9.17334 5.04012C9.14134 5.30145 9.03467 5.84545 8.93334 6.24012C8.704 7.15212 8.58667 7.78678 8.32 9.52012C7.97334 11.7921 7.904 12.4588 7.73334 15.1735C7.456 19.6001 7.37067 22.8108 7.36534 29.3601C7.35467 36.8481 7.50934 41.8615 7.84534 44.5228C8.00534 45.8241 8.144 46.2881 8.58134 47.0135C8.688 47.1895 8.84267 47.4668 8.92267 47.6321C9.10934 48.0215 9.408 48.3521 9.87734 48.7041C10.0853 48.8588 10.3787 49.0775 10.528 49.1895C10.944 49.5041 11.6213 49.8241 12.6187 50.1761C13.7707 50.5868 14.3093 50.8001 16.1067 51.5735C17.424 52.1388 20.1227 53.2535 24.2933 54.9441C25.728 55.5254 27.9787 56.3094 29.2 56.6454C29.8133 56.8161 29.8773 56.8268 30.8 56.8268C31.328 56.8268 31.8613 56.8108 31.984 56.7895C32.176 56.7521 32.224 56.7628 32.3787 56.8908C32.4747 56.9708 32.624 57.0668 32.7147 57.0988C32.8053 57.1361 33.072 57.2428 33.3067 57.3335C34.592 57.8508 36.2027 58.1175 37.216 57.9735C38.1013 57.8508 41.2533 56.8748 44.16 55.8241C45.9467 55.1735 46.7467 54.8695 48.928 53.9948C52.1013 52.7201 53.52 52.2775 55.8667 51.8401C56.512 51.7228 57.1733 51.5841 57.3333 51.5415C58.144 51.3068 58.6507 50.8588 58.9653 50.0695C59.04 49.8935 59.1573 49.6641 59.2267 49.5575C59.296 49.4455 59.3813 49.2428 59.4133 49.1041C59.4453 48.9601 59.504 48.7948 59.5467 48.7308C59.5893 48.6668 59.7013 48.2988 59.7973 47.9201L59.9733 47.2268L59.968 45.0135C59.968 43.7975 59.936 42.3095 59.8987 41.7068C59.8187 40.2935 59.5627 36.5601 59.36 33.8135C59.2693 32.6241 59.1413 30.5495 59.0667 29.2001C58.8 24.2561 58.6507 22.5975 58.1067 18.5068C57.9467 17.3175 57.744 15.7601 57.6533 15.0401C57.3387 12.5388 57.0667 10.9014 56.608 8.79478C56.208 6.93345 55.7973 5.66412 55.2213 4.51212C54.8107 3.68012 54.4853 3.30145 54.08 3.17345C54.0053 3.15212 53.888 3.08812 53.808 3.02945C53.5253 2.82145 53.1413 2.78945 52.3467 2.91212ZM53.12 5.87745C53.5467 7.04012 53.744 7.82412 54 9.30678C54.3893 11.6161 54.6347 14.1335 54.9013 18.6135C55.0933 21.8028 55.1147 22.9441 55.12 31.6268C55.12 39.8721 55.1307 40.3948 55.2427 42.4001C55.3067 43.5575 55.3867 44.8535 55.4133 45.2801C55.4453 45.7068 55.488 46.2935 55.504 46.5921L55.536 47.1308L55.3013 47.2428C55.1733 47.3068 54.432 47.4881 53.6533 47.6588C52.0373 48.0001 50.24 48.4481 47.8667 49.0988C46.96 49.3495 45.0133 49.8508 43.5467 50.2135C38.9013 51.3601 35.4773 52.3521 34.6453 52.7895C34.496 52.8695 34.3573 52.9388 34.3413 52.9495C34.32 52.9601 34.288 52.7788 34.272 52.5495C34.2507 52.3201 34.1387 51.4615 34.0267 50.6401C33.4613 46.6135 33.3707 45.5948 33.2533 41.8668C33.2107 40.4428 33.12 38.1175 33.056 36.6935C32.9227 33.8135 32.8907 28.8801 32.9813 25.0668C33.0293 22.8855 32.9973 21.7121 32.7947 18.8268C32.7413 17.9895 32.6773 16.8961 32.656 16.3948L32.624 15.4881L32.8853 15.3868C33.264 15.2481 34.272 14.7361 35.04 14.2934C35.408 14.0854 36.832 13.3494 38.2133 12.6561C41.184 11.1681 41.8667 10.8054 43.28 9.97345C45.2267 8.83212 46.624 8.11745 49.9733 6.56012C51.1253 6.02678 52.1227 5.72278 52.7573 5.71212C53.0453 5.70678 53.056 5.71212 53.12 5.87745ZM11.184 5.92012C11.664 6.07478 12.208 6.32012 13.7067 7.05612C15.056 7.71745 18.112 9.08812 20.56 10.1334C21.264 10.4374 22.5013 10.9814 23.3067 11.3441C26.5227 12.8001 27.36 13.1574 29.84 14.1334C30.4587 14.3734 30.9813 14.5868 31.0027 14.6081C31.024 14.6295 31.008 14.8641 30.96 15.1255C30.7947 16.1281 30.768 16.6615 30.72 20.0801C30.6933 22.0161 30.6347 24.2241 30.592 24.9868C30.448 27.4028 30.4 28.9388 30.3467 32.9601C30.32 35.1148 30.256 38.0215 30.2027 39.4135C30.0747 43.1415 30.08 46.3041 30.2293 48.5335C30.2933 49.5148 30.3627 50.7735 30.3787 51.3281C30.416 52.3095 30.416 52.3361 30.3147 52.2988C29.9253 52.1388 28.7253 51.7121 28.2133 51.5521C27.8773 51.4401 26.6293 51.0348 25.44 50.6401C24.2507 50.2508 22.3947 49.6535 21.3067 49.3121C18.4053 48.4108 17.5733 48.1175 15.5467 47.3068C15.0187 47.0935 14.144 46.7575 13.6 46.5495C12.5067 46.1388 12.3093 46.0375 11.8347 45.6428C11.456 45.3281 11.3653 45.1575 11.1733 44.3681C10.9013 43.2428 10.7627 41.9948 10.5067 38.3201C10.272 34.9335 10.2347 34.0268 10.08 28.4535C10.048 27.3655 9.98934 25.9148 9.94667 25.2268C9.76 22.2988 9.744 13.6001 9.92 11.4668C10.1067 9.21078 10.304 7.63212 10.544 6.49612C10.704 5.72278 10.672 5.74945 11.184 5.92012Z"
    fill="var(--color-text)"
  />
</svg>
