<svg width="1em" height="1em" viewBox="0 0 64 64" fill="none">
  <path
    fill="var(--color-text)"
    d="M47.093 17.845c-1.445.128-2.629.336-3.936.688-1.632.448-2.661.89-3.776 1.632-.73.49-1.797 1.52-2.373 2.288-.427.57-1.008 1.627-1.227 2.23-.117.336-.122.34-.282.304-.854-.187-1.728-.102-3.28.325-.48.128-.88.23-.886.224a5.35 5.35 0 0 1-.181-.347c-.96-1.92-2.368-3.43-4.256-4.565-.832-.501-2.619-1.37-3.355-1.632-1.248-.443-2.426-.672-3.84-.736-.752-.032-.773-.032-.8.075-.032.106-.058.112-.544.085-.634-.037-1.914.059-2.757.197-1.915.326-3.184.827-5.008 1.984-.976.619-1.621 1.142-2.459 1.984-2.074 2.086-3.386 4.39-4.042 7.126-.24.986-.315 1.653-.315 2.746 0 1.947.41 3.862 1.2 5.574.272.586 1.157 2.16 1.525 2.714 1.27 1.888 3.536 3.76 5.755 4.752 1.45.65 3.675 1.232 5.499 1.446.709.08 2.368.037 3.018-.086.736-.133 1.84-.432 2.39-.645 2.33-.917 4.501-2.65 5.914-4.715 1.27-1.85 2.379-4.298 2.928-6.437.496-1.952.592-3.125.459-5.59-.01-.143.037-.191.565-.543.603-.4 1.216-.672 1.664-.736l.267-.032.005 1.269c0 1.056.022 1.387.118 1.963.309 1.818.869 3.312 2.01 5.392.886 1.616 1.318 2.288 2.059 3.226 1.061 1.339 2.96 2.992 4.432 3.856 2.256 1.323 4.88 1.728 7.6 1.179.939-.192 1.445-.363 2.283-.773 1.546-.763 2.89-2.038 3.952-3.75.384-.618 1.109-2.026 1.424-2.757.826-1.947 1.552-4.704 1.834-6.987.112-.928.128-3.525.027-4.266-.213-1.52-.672-2.896-1.243-3.74-.469-.698-1.408-1.562-2.33-2.148-.534-.342-1.984-1.056-2.438-1.206a23.045 23.045 0 0 1-1.093-.4c-1.232-.485-2.485-.816-3.947-1.045-.64-.096-2.064-.165-2.56-.123ZM20.24 20.88c.773.101 1.787.299 2.496.49l.517.14.603.533a68.508 68.508 0 0 1 1.984 1.925c1.963 1.968 2.405 2.576 2.87 3.979.415 1.242.49 1.733.49 3.253 0 1.413-.043 1.77-.347 2.987-.421 1.696-1.269 3.429-2.389 4.917-.976 1.29-2.565 2.576-4.144 3.35-1.253.607-1.765.72-3.2.677-1.093-.027-2.027-.171-3.387-.518-2.533-.64-4.069-1.45-5.621-2.976-1.803-1.765-2.768-3.658-3.264-6.384-.15-.816-.139-2.458.021-3.296.24-1.264.576-2.07 1.328-3.21 1.302-1.963 2.608-3.19 4.843-4.54 1.163-.698 2.027-1.028 3.259-1.252a13.343 13.343 0 0 1 3.941-.075Zm30.528.261c.89.118 1.925.32 2.688.528l.63.17.282.374c1.045 1.382 1.755 2.827 2.027 4.134.389 1.904.138 4.869-.64 7.589-.902 3.147-2.806 5.552-5.088 6.427-.326.122-.406.133-1.414.133-1.242 0-1.909-.085-2.837-.368-.79-.24-1.168-.416-1.755-.81-2.453-1.66-4.506-4.625-5.274-7.611-.283-1.11-.363-1.803-.331-3.014.032-1.317.197-2.31.496-2.917.208-.432.875-1.339 1.36-1.85 1.403-1.483 3.52-2.46 6.128-2.827.73-.107 2.795-.08 3.728.042Z"
  />
</svg>
