<svg
  width="1.8em" height="2em"
  viewBox="0 0 410 383"
  fill="none"
>
  <path
    d="M382.953 193.747C382.953 297.718 301.927 382.003 201.976 382.003C102.026 382.003 21 297.718 21 193.747C21 89.7758 102.026 5.49054 201.976 5.49054C301.927 5.49054 382.953 89.7758 382.953 193.747Z"
    fill="var(--color-light)"
  />
  <mask
    mask-type="alpha"
    maskUnits="userSpaceOnUse"
    x="41"
    y="0"
    width="369"
    height="369"
  >
    <circle cx="225.5" cy="184.5" r="184.5" fill="var(--color-light)" />
  </mask>
  <mask
    mask-type="alpha"
    maskUnits="userSpaceOnUse"
    x="0"
    y="0"
    width="403"
    height="382"
  >
    <ellipse
      cx="201.5"
      cy="191"
      rx="201.5"
      ry="191"
      fill="var(--color-light)"
    />
  </mask>
  <path
    d="M372.944 255.606C376.293 253.854 379.562 251.949 382.779 249.967C385.045 248.608 383.039 245.184 380.715 246.421C379.527 247.054 378.343 247.693 377.155 248.322C378.09 247.515 378.957 246.636 379.734 245.677L379.68 245.624C382.676 242.932 378.828 237.854 375.421 240.065C372.417 242.249 369.385 244.477 365.937 245.915C358.794 248.953 350.916 249.455 343.25 249.543C340.444 249.332 337.764 249.819 335.042 250.362C336.109 246.069 338.78 242.826 340.197 238.668C341.242 234.469 335.199 231.61 333.057 235.645C332.532 236.636 332.031 237.639 331.541 238.646C326.912 242.869 319.182 242.497 314.513 247.03C311.854 249.397 310.553 252.609 310.039 255.832C309.69 258.021 310.232 260.216 308.912 262.154C302.532 271.204 292.451 285.509 287.331 295.468C283.707 271.802 274.028 242.529 264.028 220.889C260.722 213.968 256.939 207.205 251.973 201.339C252.536 199.382 250.549 195.91 249.286 196.979C245.397 192.215 238.523 190.981 232.996 188.613C225.535 185.413 219.344 178.763 216.301 171.204C212.391 156.809 202.766 154.981 189.417 155.617C176.641 155.601 167.189 161.081 164.402 174.123C158.739 184.022 145.368 182.385 135.749 185.005C128.699 186.62 121.857 189.117 115.355 192.287C108.122 185.407 82.216 214.284 79.8613 221.716C81.2475 221.985 82.6253 222.31 83.9906 222.705C85.2066 223.058 84.696 224.899 83.4696 224.605C81.9434 224.237 80.4075 223.984 78.8643 223.808C78.8173 223.956 78.7761 224.103 78.7454 224.249C78.5721 224.237 78.3992 224.222 78.226 224.21C78.61 224.411 78.9797 224.644 79.3399 224.944C80.2107 225.669 79.0771 227.068 78.1518 226.491C77.28 225.836 76.1383 225.94 75.0926 225.72C75.0305 227.876 67.358 225.464 66.1662 224.749C60.8693 224.085 55.4201 224.798 50.4753 222.236C43.8958 220.847 37.2669 219.31 30.7613 217.54C29.039 218.214 27.4204 220.623 28.7883 222.391C29.5578 223.196 28.5687 224.509 27.5998 223.938C24.3504 222.02 21.8375 219.025 19.707 215.8C18.7041 214.785 16.924 215.004 15.5767 214.582C15.3966 214.907 15.2903 215.269 15.292 215.64C9.57669 216.583 13.6537 222.843 16.5269 224.794C15.0027 225.789 14.9448 227.738 15.0782 229.365C14.7552 229.945 14.6474 230.664 14.9285 231.313C16.0032 233.797 18.3276 235.889 20.0949 237.901C22.0463 240.123 23.7863 242.358 26.1606 244.159C35.2109 251.078 46.1325 254.946 57.3369 256.458C61.3152 257.071 67.0376 258.009 69.5009 261.383C68.8965 265.387 67.7868 269.226 66.7801 273.131C65.3723 278.313 65.468 283.739 65.4494 289.022C65.2526 288.863 64.8748 288.896 64.8185 289.198C64.491 291.389 64.2475 293.628 62.9201 295.468C61.7565 298.89 60.9821 302.54 60.547 306.135C58.8042 323.18 58.3881 340.726 62.3177 357.505C63.834 363.73 66.3002 369.645 69.6604 375.092C70.6623 376.717 72.2731 377.193 73.7195 376.874C78.5604 379.396 84.6587 380.204 89.8765 379.564C107.665 374.514 101.467 386.674 126.408 382.95C169.459 377.451 212.966 388.258 255.925 381.913C256.983 390.109 270.834 387.758 275.645 384.293C290.071 373.538 297.234 339.488 304.474 322.214C309.45 308.599 317.783 284.485 328.696 275.349C331.969 272.782 335.924 271.431 339.882 270.34C354.652 266.523 369.48 262.913 384.278 259.202C386.788 258.583 386.337 254.29 383.653 254.566C380.092 254.931 376.518 255.262 372.944 255.606Z"
    fill="var(--color-light)"
  />
  <ellipse
    cx="152.728"
    cy="122.267"
    rx="15.67"
    ry="14.8453"
    fill="var(--color-light)"
  />
  <path
    d="M167.828 32.3882C227.732 29.8766 231.915 44.7207 240.141 54.1843C244.224 58.8807 248.251 65.5708 249.999 81.6322C251.213 92.7813 249.999 105.897 249.999 115.86C249.999 120.945 257.302 131.863 253.902 139.275C246.335 155.772 230.313 174.08 209.896 174.08C189.479 174.08 151.79 164.487 129.23 136.947C121.841 127.926 107.925 34.8998 167.828 32.3882Z"
    fill="var(--color-light)"
  />
  <path
    d="M219.161 156.674C216.958 155.776 214.992 154.279 213.554 152.365C213.054 151.7 212.925 150.998 213.03 150.355C213.147 149.633 213.575 148.978 214.159 148.539C214.744 148.099 215.476 147.881 216.184 147.992C216.799 148.088 217.411 148.425 217.896 149.122L217.997 149.262C218.852 150.417 219.965 151.364 221.234 151.975C222.457 152.564 223.825 152.838 225.241 152.678C227.936 152.374 229.794 150.918 231.769 148.941C232.014 148.691 232.259 148.433 232.505 148.172C232.661 147.935 232.877 147.782 233.116 147.702C233.382 147.613 233.683 147.618 233.958 147.714C234.224 147.807 234.462 147.983 234.621 148.216C234.772 148.438 234.858 148.713 234.83 149.028C234.65 151.078 233.577 152.907 232.053 154.343C230.361 155.938 228.118 157.041 226.006 157.428C223.679 157.854 221.308 157.549 219.161 156.674V156.674Z"
    fill="var(--color-dark)"
  />
</svg>
