
<svg width="1.5em" height="2em" viewBox="0 0 12 18" fill="none" xmlns="http://www.w3.org/2000/svg">
<g id="body">
<path id="background" fill-rule="evenodd" clip-rule="evenodd" d="M10.9899 13.0979C10.892 12.8062 11.0087 12.4693 10.9324 12.1549C10.9062 12.0305 10.8566 11.5685 10.8067 11.2982C10.7788 11.1471 10.9457 11.1002 10.9714 11.0398C11.152 10.498 9.8347 9.22311 9.7543 9.17611C9.63381 9.10864 9.52717 9.05057 9.40947 8.98168C9.06601 8.86479 8.65416 8.53967 8.34284 8.74852C7.80334 7.97051 8.01679 7.01201 7.72406 6.89809C7.43128 6.78417 6.56684 6.55392 6.07265 6.84794C5.77643 7.06027 5.79826 7.42578 5.6631 7.72721C5.58377 7.86916 5.54479 8.07472 5.45243 8.16724C5.13863 8.48172 4.74732 8.53594 4.30985 8.58929C4.27653 8.59339 4.24147 8.5056 4.20909 8.51642C3.47115 8.76351 2.61247 8.83563 1.77675 10.2192C1.65872 10.417 1.34033 10.7345 1.44679 10.9632C0.745306 12.5434 0.0550674 16.1003 1.97988 16.9874C2.0414 17.0255 2.45879 16.821 2.5268 16.8229C2.64017 16.8261 2.42295 17.0927 2.5268 17.0452C3.28926 17.1013 7.48469 16.9567 9.09287 17.1013C10.1987 17.0932 10.8992 17.2811 11.1545 17.0932C11.0524 16.8543 11.0572 16.5983 11.0895 16.3456C11.3244 16.1762 11.034 14.9822 11.0585 14.6326C11.2785 14.3771 11.1033 13.4189 10.9899 13.0979Z"  fill="var(--color-light)"/>
<path fill-rule="evenodd" clip-rule="evenodd" d="M10.6393 11.3127C10.5338 11.4613 10.4369 11.6144 10.3493 11.7736C10.3042 11.8556 10.262 11.9394 10.2241 12.0248C10.2162 11.8401 10.2144 11.6532 10.1921 11.4703C10.1906 11.457 10.1678 11.4506 10.1654 11.4667C10.1408 11.6326 10.1368 11.8027 10.1275 11.9704C10.1168 11.9672 10.1049 11.9654 10.0918 11.9654C9.96523 11.9654 9.84051 11.9755 9.71435 11.9853C9.65784 11.9898 9.59871 11.9932 9.54101 12.0019C9.58745 11.9523 9.63066 11.8998 9.67058 11.8451C9.71125 11.7892 9.75775 11.7021 9.68687 11.6484C9.60853 11.5892 9.45489 11.6667 9.37916 11.6968C9.3408 11.712 9.30318 11.7286 9.26613 11.7463C9.21937 11.6194 9.07605 11.6025 8.95313 11.6201C8.86552 11.6326 8.78053 11.6616 8.69516 11.6837C8.58673 11.7118 8.47786 11.7381 8.36861 11.7629C8.17189 11.8075 7.97379 11.8466 7.77477 11.8803C7.76955 11.8744 7.76221 11.8698 7.75251 11.8674C7.68436 11.8509 7.60913 11.8635 7.53924 11.8648C7.46737 11.8661 7.39549 11.866 7.32362 11.8645C7.19522 11.862 7.06695 11.8609 6.93862 11.8588C6.90213 11.8374 6.85587 11.8066 6.84455 11.7663C6.83037 11.7159 6.87458 11.6602 6.89504 11.6174C6.97381 11.4529 7.00136 11.2688 6.97046 11.0896C6.96492 11.0576 6.95361 11.0227 6.93719 10.99C7.07784 11.0046 7.21668 11.0145 7.35806 11.0189C7.64041 11.0278 7.92275 11.0372 8.20521 11.0392C8.77002 11.0432 9.33483 11.0433 9.89964 11.0393C10.219 11.037 10.5376 11.0342 10.8566 11.0184C10.8306 11.0503 10.8053 11.0829 10.7806 11.116C10.7755 11.1146 10.7689 11.1172 10.7696 11.1233C10.7699 11.1254 10.7702 11.1276 10.7704 11.1297C10.7254 11.1907 10.682 11.2526 10.6393 11.3127ZM10.0113 16.9698C9.88005 16.9657 9.74886 16.9617 9.61761 16.9576C9.35995 16.9497 9.10235 16.9417 8.84476 16.9338C8.33435 16.9181 7.82401 16.9029 7.31355 16.8892C6.80432 16.8756 6.29485 16.8613 5.7855 16.8766C5.27498 16.892 4.76576 16.932 4.25619 16.964C3.9729 16.9818 3.68941 16.9972 3.40559 17.0046C3.13529 17.0116 2.8626 17.001 2.59272 17.0197C2.58365 16.955 2.59031 16.8906 2.58933 16.8262C2.67786 16.7767 2.76475 16.724 2.85063 16.6723C3.1637 16.4836 3.45964 16.2702 3.73878 16.0369C3.78169 16.001 3.82376 15.9644 3.86541 15.9274C3.83642 15.9887 3.85962 16.0679 3.9427 16.0939C4.044 16.1255 4.14773 16.1143 4.25295 16.1118C4.3598 16.1094 4.46664 16.1071 4.5735 16.1049C4.78235 16.1007 4.9912 16.0968 5.20006 16.0934C5.60807 16.0868 6.0161 16.0819 6.42412 16.0787C7.24509 16.0722 8.06544 16.0831 8.88629 16.0974C9.11709 16.1015 9.3477 16.1065 9.5785 16.1014C9.69396 16.0989 9.80992 16.0981 9.92526 16.0921C10.0176 16.0872 10.1107 16.0745 10.2031 16.0632C10.2147 16.2191 10.2269 16.3749 10.2404 16.5307C10.2494 16.6335 10.2586 16.7364 10.2678 16.8392C10.2715 16.8817 10.2718 16.9249 10.2779 16.9653C10.1893 16.9699 10.1011 16.9726 10.0113 16.9698ZM10.1016 12.5676C10.0984 12.6869 10.0967 12.8063 10.0957 12.9258C10.0851 12.9198 10.0731 12.9155 10.0596 12.9135C9.91605 12.8923 9.76248 12.9084 9.61723 12.9108C9.47684 12.9131 9.33601 12.9123 9.19574 12.9187C9.05522 12.9251 8.91477 12.9328 8.77425 12.9399C8.70834 12.9432 8.64312 12.946 8.57777 12.9547C8.53294 12.9606 8.47562 12.9602 8.42774 12.9725C8.62857 12.7841 8.82834 12.5945 9.02861 12.4056C9.03464 12.3999 9.039 12.3939 9.04198 12.3878C9.17554 12.309 9.30374 12.2202 9.41989 12.1186C9.51191 12.153 9.61674 12.1574 9.71435 12.165C9.84057 12.175 9.96517 12.185 10.0918 12.185C10.1004 12.185 10.1084 12.1842 10.1159 12.1827C10.1098 12.311 10.1051 12.4392 10.1016 12.5676ZM4.88682 14.8858C5.19344 14.9806 5.52564 14.9796 5.84463 14.9986C6.18469 15.0189 6.52422 15.0356 6.8647 15.0485C7.54465 15.0741 8.22418 15.1089 8.90401 15.1366C9.29236 15.1523 9.68059 15.1698 10.0688 15.1887C10.0963 15.19 10.1225 15.1832 10.1457 15.1707C10.1588 15.4183 10.174 15.6659 10.1918 15.9133C10.194 15.9442 10.1965 15.9751 10.1988 16.006C10.016 15.9838 9.83473 15.9626 9.65069 15.9475C9.44401 15.9306 9.2374 15.9164 9.03042 15.9031C8.62708 15.8771 8.22312 15.8424 7.81904 15.8298C6.99533 15.804 6.16981 15.8128 5.3458 15.8185C5.11265 15.8201 4.8795 15.8223 4.64637 15.825C4.52981 15.8264 4.41324 15.8279 4.29668 15.8295C4.17953 15.8312 4.05363 15.8194 3.94271 15.859C3.94166 15.8593 3.94076 15.8599 3.93972 15.8603C4.27436 15.5531 4.57415 15.2137 4.88682 14.8858ZM5.96469 13.9037C6.47709 13.9941 6.99757 13.9879 7.51699 13.9969C8.04847 14.0061 8.5807 14 9.11224 14.001C9.41417 14.0017 9.71877 14.0145 10.0196 13.9885C10.0551 13.9854 10.0827 13.9723 10.1024 13.9538C10.1079 14.2638 10.1179 14.5737 10.1317 14.8834C10.1122 14.8754 10.0909 14.8706 10.0688 14.8693C9.38955 14.8306 8.71027 14.7955 8.03019 14.774C7.3506 14.7526 6.67027 14.7271 5.99037 14.7351C5.65857 14.7389 5.30771 14.7184 4.98047 14.7884C5.10484 14.6604 5.23186 14.5347 5.36473 14.4145C5.55845 14.2391 5.76517 14.0748 5.96469 13.9037ZM6.35616 13.5388C6.3569 13.5381 6.35721 13.5373 6.35771 13.5364C6.35958 13.5378 6.36181 13.5387 6.3648 13.5386C6.84449 13.5281 7.38262 13.6747 7.83122 13.4498C8.03149 13.3493 8.19738 13.1906 8.35835 13.038C8.35848 13.0391 8.3586 13.0403 8.35866 13.0414C8.35972 13.0538 8.36513 13.0687 8.37806 13.0742C8.43098 13.0967 8.49297 13.0981 8.54979 13.1061C8.61514 13.1154 8.67931 13.1207 8.74521 13.1246C8.89058 13.133 9.03589 13.142 9.18125 13.15C9.32631 13.1579 9.47199 13.1585 9.61723 13.1621C9.76285 13.1656 9.91543 13.1827 10.0596 13.1625C10.0729 13.1607 10.0846 13.1566 10.0951 13.1511C10.0952 13.3317 10.097 13.5124 10.0987 13.6929C10.099 13.7224 10.0996 13.7518 10.1 13.7812C10.0805 13.7639 10.0538 13.7518 10.0196 13.7489C9.75228 13.7261 9.48293 13.7362 9.21464 13.7371C8.95127 13.738 8.68783 13.7388 8.42438 13.7396C7.89247 13.7414 7.36099 13.7464 6.82913 13.7562C6.57054 13.761 6.31301 13.782 6.05817 13.8226C6.16135 13.7316 6.26165 13.6378 6.35616 13.5388ZM2.18836 16.8235C2.09016 16.8526 1.99268 16.84 1.89428 16.86C1.88823 16.8611 1.88265 16.8634 1.87753 16.8664C1.58289 16.7445 1.38648 16.4998 1.25208 16.2255C1.1104 15.9364 1.01274 15.6274 0.947321 15.3142C0.812436 14.6684 0.812206 13.9988 0.882017 13.3455C0.950616 12.7037 1.08643 12.0652 1.28026 11.448C1.41333 11.0242 1.58293 10.596 1.81842 10.2095C2.09033 10.386 2.30121 10.6401 2.49987 10.8885C2.73726 11.1854 2.95118 11.4995 3.14267 11.8259C3.12288 11.8818 3.1198 11.9519 3.11031 12.0019C3.092 12.0983 3.07547 12.1958 3.06247 12.293C3.0347 12.5008 3.00806 12.7086 2.97967 12.9163C2.92353 13.3269 2.8565 13.7365 2.78245 14.1444C2.77646 14.1775 2.78604 14.2054 2.80367 14.2264C2.65681 14.3013 2.51185 14.3797 2.37063 14.4646C2.06014 14.6512 1.76997 14.8686 1.54215 15.1475C1.53623 15.1548 1.54551 15.1645 1.55283 15.1579C2.04139 14.7205 2.64835 14.446 3.24428 14.1746C3.54882 14.036 3.85186 13.8951 4.14404 13.7329C4.44959 13.5634 4.74098 13.3718 5.02026 13.1642C5.33918 12.9272 5.63938 12.668 5.92079 12.3899C5.95394 12.3572 5.94591 12.3161 5.92097 12.2902C5.92939 12.2876 5.93619 12.2806 5.93663 12.2687C5.94339 12.0871 5.99968 11.9324 6.10988 11.7854C6.21211 11.6491 6.34242 11.5367 6.45993 11.4133C6.51216 11.3585 6.56208 11.3014 6.60666 11.2405C6.65255 11.1777 6.68047 11.1085 6.72038 11.043C6.76702 10.9665 6.80675 11.0056 6.82832 11.0748C6.85288 11.1534 6.85133 11.2454 6.8415 11.3262C6.83106 11.4116 6.8042 11.495 6.76552 11.5722C6.72915 11.6448 6.68731 11.7186 6.71174 11.8017C6.75191 11.9385 6.92426 12.0175 7.05483 12.0484C7.2002 12.0826 7.35228 12.076 7.49951 12.0582C7.68387 12.0359 7.86729 12.0033 8.04952 11.9687C8.26061 11.9285 8.4704 11.8822 8.67856 11.8298C8.77636 11.8052 8.87354 11.7729 8.97234 11.7525C9.0076 11.7453 9.07276 11.7343 9.11417 11.7522C8.582 12.0595 8.00177 12.2643 7.41253 12.4426C7.33929 12.4648 7.36932 12.5719 7.44424 12.5542C8.07732 12.4042 8.6729 12.1259 9.23976 11.8211C9.24841 11.8164 9.2558 11.8092 9.26121 11.8007C9.31823 11.7812 9.37618 11.7643 9.43531 11.7504C9.46173 11.7442 9.59765 11.7008 9.61462 11.7174C9.63868 11.741 9.55537 11.8178 9.53454 11.8402C9.38644 11.9991 9.21023 12.1288 9.01953 12.2361C8.8261 12.3449 8.62024 12.4316 8.41344 12.5135C8.18177 12.6052 7.93692 12.6772 7.71172 12.7826C7.62225 12.8245 7.68505 12.9667 7.77931 12.9379C7.90074 12.9007 8.01875 12.846 8.13676 12.7996C8.23705 12.7602 8.33734 12.7208 8.43701 12.68C8.50652 12.6516 8.5756 12.6223 8.64393 12.5916C8.54152 12.6849 8.43912 12.7783 8.33672 12.8717C8.15939 13.0334 7.99089 13.2177 7.77415 13.3311C7.55995 13.4431 7.31566 13.4562 7.07728 13.4538C6.95759 13.4526 6.83846 13.4488 6.71877 13.4536C6.5928 13.4585 6.48094 13.4772 6.36157 13.5156C6.35939 13.5163 6.35777 13.5176 6.35641 13.519C6.35224 13.5141 6.34515 13.5116 6.33788 13.5159C6.01351 13.7017 5.71785 13.9426 5.43351 14.1808C5.14045 14.4263 4.86469 14.6874 4.60195 14.9632C4.35047 15.2271 4.10098 15.4921 3.82732 15.7349C3.56013 15.9721 3.27458 16.1874 2.97642 16.3867C2.81396 16.4952 2.64748 16.5998 2.47523 16.6933C2.38319 16.7432 2.2897 16.7935 2.18836 16.8235ZM2.21564 9.67674C2.33179 9.55033 2.45681 9.4332 2.5891 9.32482C2.64747 9.34155 2.70874 9.34621 2.77048 9.34683C2.86469 9.34776 2.95911 9.35156 3.05333 9.35062C3.23474 9.34882 3.41607 9.34329 3.59752 9.34229C3.96854 9.34037 4.33967 9.34024 4.71067 9.34341C4.75928 9.34379 4.79435 9.32364 4.816 9.29442C4.8911 9.37693 4.9685 9.45751 5.04656 9.53678C5.17336 9.66567 5.30855 9.78859 5.45246 9.90064C5.42444 9.90076 5.39644 9.90101 5.36858 9.90082C5.24024 9.90001 5.1119 9.89921 4.98359 9.89858C4.72606 9.89715 4.46854 9.89616 4.21101 9.89547C3.69904 9.89417 3.18547 9.89833 2.67415 9.9237C2.53224 9.93079 2.38921 9.93359 2.24779 9.94702C2.17109 9.95429 2.09448 9.96275 2.01785 9.97065C2.00217 9.97226 1.98713 9.97431 1.97238 9.97661C2.04742 9.87216 2.12826 9.77181 2.21564 9.67674ZM4.26614 8.55011C4.26268 8.55241 4.25895 8.5544 4.25563 8.55682C4.2481 8.56229 4.24929 8.57224 4.25817 8.57554C4.26998 8.58001 4.28239 8.58337 4.29517 8.58604C4.33398 8.64057 4.3643 8.70803 4.38548 8.74217C4.4463 8.84035 4.51625 8.9338 4.58741 9.02513C4.60172 9.04341 4.6163 9.06157 4.63094 9.07966C4.28634 9.07885 3.94191 9.08059 3.59751 9.09322C3.41619 9.09987 3.23425 9.1054 3.05331 9.11858C2.97891 9.12406 2.90455 9.13313 2.83039 9.14215C3.21639 8.87181 3.65049 8.66538 4.10019 8.51218C4.09958 8.5128 4.09895 8.5133 4.09833 8.51398C4.08842 8.52461 4.10321 8.53842 4.11436 8.52953C4.17287 8.48265 4.22364 8.50466 4.26614 8.55011ZM6.00734 11.7274C5.99755 11.7417 5.98792 11.7566 5.97853 11.7718C5.95593 11.75 5.92436 11.7354 5.8837 11.7341C5.43226 11.7205 4.98105 11.7086 4.52936 11.7083C4.30662 11.7082 4.08185 11.7009 3.85937 11.7116C3.74766 11.7169 3.63599 11.7233 3.52434 11.7294C3.44627 11.7337 3.36334 11.7391 3.28711 11.7609C3.11142 11.4632 2.91638 11.177 2.70339 10.9034C3.18664 10.9608 3.67817 10.9546 4.16416 10.9706C4.71477 10.9887 5.2657 10.9926 5.8165 11.0052C5.96759 11.0087 6.11868 11.0125 6.26973 11.0166C6.3477 11.0187 6.42567 11.0209 6.50364 11.0232C6.52801 11.0238 6.55326 11.0245 6.5785 11.0238C6.57657 11.0277 6.57464 11.0315 6.57278 11.0353C6.53025 11.1203 6.47678 11.1986 6.41448 11.2713C6.28204 11.4258 6.12207 11.5589 6.00734 11.7274ZM5.41511 12.6444C5.39839 12.5994 5.35764 12.5648 5.29274 12.5676C4.92286 12.5839 4.55229 12.5952 4.18283 12.6188C4.00286 12.6303 3.82215 12.638 3.64247 12.6532C3.5498 12.6611 3.45729 12.6757 3.365 12.6874C3.30174 12.6954 3.2355 12.7047 3.17481 12.7265C3.18658 12.6006 3.19696 12.4747 3.20597 12.3485C3.21319 12.2472 3.2154 12.1449 3.21484 12.0433C3.21456 11.9919 3.21276 11.9401 3.21019 11.8888C3.21564 11.8898 3.22111 11.8903 3.22648 11.8897C3.23594 11.8886 3.24478 11.8875 3.25298 11.8854C3.33803 11.9176 3.43427 11.9247 3.52434 11.9309C3.63117 11.9383 3.73798 11.9462 3.84481 11.9536C4.07211 11.9692 4.30156 11.9682 4.52937 11.9755C4.97782 11.9896 5.42635 11.9978 5.87488 12.0095C5.85407 12.096 5.85334 12.1848 5.88665 12.2686C5.86345 12.2611 5.83674 12.2646 5.81393 12.2864C5.68474 12.41 5.55169 12.5293 5.41511 12.6444ZM4.11035 13.5642C4.10123 13.5397 4.08399 13.5172 4.06359 13.502C3.98516 13.4435 3.84199 13.4772 3.74785 13.4817C3.6364 13.487 3.52493 13.4922 3.41349 13.4975C3.37967 13.4991 3.20703 13.5076 3.08024 13.5338C3.10644 13.3421 3.13021 13.1501 3.15146 12.9578C3.15592 12.9174 3.16005 12.877 3.16414 12.8367C3.22387 12.8552 3.28879 12.8621 3.3504 12.8649C3.44272 12.8692 3.53547 12.8764 3.62788 12.8778C3.81252 12.8806 3.99818 12.8718 4.18284 12.8688C4.51538 12.8635 4.84797 12.848 5.18036 12.8354C4.84663 13.0978 4.494 13.3372 4.12617 13.555C4.12092 13.5581 4.1156 13.5611 4.11035 13.5642ZM3.06004 13.678C3.08813 13.6816 3.11599 13.6827 3.1373 13.6849C3.24428 13.6953 3.34958 13.7048 3.45711 13.7063C3.56371 13.7078 3.67031 13.7093 3.77693 13.7109C3.7996 13.7111 3.82227 13.7115 3.84494 13.7118C3.56422 13.8603 3.27487 13.9934 2.98962 14.1335C3.01475 13.9819 3.03822 13.83 3.06004 13.678ZM6.11894 10.2953C6.75868 10.5586 7.57929 10.5825 8.12905 10.1451C8.1837 10.1595 8.24414 10.1643 8.29238 10.169C8.40076 10.1796 8.50814 10.1893 8.61707 10.1926C8.82934 10.199 9.04179 10.2086 9.25413 10.2111C9.68376 10.2163 10.1134 10.2187 10.543 10.2224C10.5795 10.2227 10.6088 10.212 10.631 10.1946C10.6745 10.266 10.715 10.3393 10.7519 10.4144C10.8058 10.524 10.8515 10.6372 10.889 10.7529C10.881 10.7516 10.8726 10.7507 10.8636 10.7505C10.2991 10.7411 9.734 10.7568 9.16932 10.7591C8.60451 10.7614 8.03976 10.759 7.47489 10.7629C7.31864 10.764 7.16345 10.7641 7.00758 10.7753C6.92644 10.7811 6.8443 10.7837 6.76397 10.7963C6.75495 10.7978 6.74581 10.799 6.73661 10.8003C6.62892 10.7393 6.49518 10.752 6.37214 10.7498C6.23075 10.7472 6.08943 10.7449 5.94811 10.7429C5.67031 10.7389 5.39249 10.736 5.11467 10.7341C4.56329 10.7304 4.01326 10.7441 3.46224 10.7627C3.18808 10.772 2.91496 10.7877 2.64433 10.8286C2.62616 10.8058 2.60816 10.7829 2.58976 10.7603C2.398 10.5248 2.17068 10.2234 1.85514 10.1505C1.86724 10.1313 1.87952 10.1123 1.89199 10.0934C2.11061 10.1493 2.35178 10.1465 2.57515 10.1582C2.83261 10.1717 3.08954 10.181 3.34731 10.1871C3.85971 10.1993 4.372 10.207 4.8845 10.2145C5.02674 10.2166 5.16898 10.2188 5.31122 10.2211C5.38793 10.2223 5.46466 10.2238 5.54139 10.2249C5.58426 10.2256 5.62258 10.2254 5.66343 10.2116C5.70125 10.1989 5.73812 10.1797 5.7747 10.1639C5.78746 10.1584 5.79784 10.1501 5.80631 10.1405C5.90675 10.1986 6.01082 10.2507 6.11894 10.2953ZM8.61881 9.41952C8.69933 9.44115 8.78233 9.4447 8.86745 9.45092C8.97906 9.45912 9.09048 9.46049 9.20246 9.46124C9.38096 9.46229 9.55954 9.46111 9.73798 9.45632C9.81464 9.45433 9.85941 9.40459 9.87272 9.3477C9.87452 9.34913 9.87645 9.35056 9.87831 9.35199C10.0955 9.5254 10.2923 9.72368 10.459 9.9431C10.0574 9.94435 9.65578 9.94459 9.25413 9.94721C9.04179 9.94864 8.82934 9.95703 8.61707 9.96238C8.51292 9.96493 8.41027 9.97332 8.30662 9.98283C8.30457 9.98302 8.3024 9.98321 8.30028 9.98339C8.31129 9.97108 8.32217 9.95865 8.33286 9.94584C8.45678 9.79705 8.55875 9.61369 8.61881 9.41952ZM11.2301 17.2305C11.2655 17.1361 11.2518 17.0348 11.2497 16.9355C11.2477 16.8336 11.2466 16.7317 11.2463 16.6298C11.2456 16.4306 11.2441 16.2313 11.2419 16.0321C11.2373 15.6291 11.2324 15.2258 11.2161 14.823C11.1838 14.0267 11.1214 13.2324 11.0197 12.4415C10.9703 12.057 10.9089 11.6733 10.8256 11.2943C10.8267 11.2928 10.8279 11.2912 10.829 11.2897C10.912 11.1823 11.0063 11.0831 11.0878 10.975C11.095 10.9654 11.098 10.9531 11.098 10.9407C11.1009 10.9393 11.1039 10.9378 11.107 10.9361C11.1746 10.8989 11.1135 10.7972 11.0459 10.835C11.0538 10.8307 10.9415 10.5516 10.9296 10.5235C10.8869 10.4226 10.8389 10.3239 10.7847 10.2283C10.752 10.1706 10.7171 10.1141 10.6804 10.0587C10.674 10.0173 10.6509 9.97892 10.6112 9.9584C10.5417 9.86184 10.4665 9.76901 10.3864 9.68059C10.0584 9.31854 9.64876 9.02631 9.20121 8.81815C9.13655 8.78806 9.06996 8.763 9.00356 8.73676C8.93292 8.70878 8.86745 8.67222 8.79781 8.64281C8.68453 8.59506 8.57274 8.5978 8.46144 8.64835C8.45199 8.6527 8.45877 8.66687 8.46847 8.66445C8.54009 8.64636 8.61346 8.64331 8.68528 8.66296C8.7556 8.68217 8.80913 8.72476 8.87056 8.7602C8.98005 8.8235 9.10242 8.86472 9.21464 8.92372C9.363 9.00182 9.50799 9.08762 9.64671 9.18175C9.50302 9.18915 9.3592 9.19444 9.21533 9.19817C9.10845 9.2009 9.00169 9.2014 8.895 9.20737C8.81902 9.21166 8.74005 9.21048 8.66414 9.22236C8.68248 9.10049 8.68248 8.97751 8.6596 8.85875V8.85862C8.65406 8.83002 8.64741 8.80161 8.63914 8.77357C8.62161 8.71382 8.5654 8.70486 8.52461 8.7275C8.52057 8.72457 8.51647 8.72177 8.51255 8.71867C8.46368 8.68024 8.41972 8.63423 8.38142 8.58586C8.30196 8.48544 8.23773 8.36917 8.18911 8.25197C8.1398 8.13328 8.10492 8.00911 8.07073 7.88569C8.05357 7.82383 8.03504 7.76233 8.01757 7.70053C8.0024 7.64675 7.99133 7.58743 7.96347 7.53844C7.95825 7.5293 7.94246 7.53104 7.93997 7.54142C7.92517 7.60279 7.93301 7.67274 7.93574 7.73523C7.93873 7.80468 7.94283 7.87344 7.95234 7.94233C7.97212 8.08528 8.00401 8.22573 8.05512 8.36146C8.10411 8.49166 8.16878 8.61309 8.25657 8.72277C8.31495 8.79558 8.39777 8.89201 8.49377 8.93131C8.50627 9.06803 8.50484 9.20495 8.47151 9.3403C8.42793 9.51757 8.34443 9.686 8.22965 9.83031C7.98903 10.1329 7.61684 10.3038 7.22849 10.3391C6.82671 10.3755 6.4156 10.2885 6.05456 10.1173C5.65301 9.92694 5.3199 9.63315 5.02069 9.31605C4.84821 9.13332 4.66937 8.95344 4.50951 8.76008C4.48118 8.72582 4.43585 8.65624 4.38206 8.59357C4.4368 8.59307 4.49297 8.58511 4.54141 8.57914C4.64165 8.56665 4.73962 8.54737 4.83757 8.52325C5.02071 8.47811 5.21382 8.41531 5.37385 8.31601C5.71248 8.10586 5.84466 7.83925 5.88981 7.47203C5.90409 7.35589 5.69685 7.32772 5.67755 7.44418C5.64791 7.62318 5.60305 7.71029 5.54407 7.88227C5.48734 8.0476 5.40517 8.10915 5.24812 8.20024C5.10068 8.2858 4.93312 8.33554 4.77068 8.38683C4.68068 8.41531 4.5896 8.44124 4.49883 8.46741C4.44104 8.48408 4.37244 8.49856 4.31383 8.5243C4.28325 8.49831 4.25134 8.47873 4.21922 8.47127C4.22158 8.46741 4.21852 8.46144 4.2126 8.46256C4.20316 8.46443 4.19375 8.46642 4.18431 8.46835C4.17483 8.46897 4.16539 8.47077 4.15597 8.47407C3.59021 8.59276 3.04691 8.84551 2.5862 9.18984C2.56298 9.19923 2.5405 9.21073 2.51913 9.22528C2.50812 9.23274 2.50082 9.24468 2.49873 9.25693C2.42947 9.3117 2.36226 9.36859 2.29733 9.42741C1.77436 9.90126 1.44301 10.5316 1.21104 11.18C0.982531 11.8187 0.827856 12.4885 0.742799 13.1592C0.656088 13.8427 0.646096 14.5405 0.77186 15.2202C0.839389 15.5852 0.948714 15.9439 1.11007 16.2805C1.25497 16.5829 1.49084 16.9273 1.86131 16.9641C1.8625 16.9653 1.86361 16.9665 1.86495 16.9676C2.0103 17.0835 2.22672 17.0035 2.37869 16.9341C2.40278 16.9232 2.42668 16.9116 2.45049 16.8997C2.43791 16.9466 2.43224 16.9957 2.42961 17.0418C2.42415 17.1373 2.56324 17.1427 2.58957 17.0635C2.81503 17.1018 3.04785 17.1024 3.27589 17.1011C3.53069 17.0998 3.7854 17.0912 4.03991 17.0796C4.54487 17.0566 5.04924 17.0213 5.55454 17.0053C6.57769 16.9728 7.60366 17.0422 8.62596 17.0771C8.91278 17.0869 9.19954 17.0967 9.48635 17.1065C9.77939 17.1165 10.0721 17.1184 10.3628 17.1568C10.4696 17.1709 10.5106 17.0695 10.4804 17.0063C10.4879 16.9638 10.4805 16.9172 10.4763 16.8672C10.4687 16.7737 10.4614 16.6803 10.4546 16.5867C10.4413 16.4044 10.4285 16.222 10.4163 16.0395C10.3917 15.6698 10.3705 15.2999 10.3499 14.93C10.3088 14.1945 10.2774 13.4585 10.2544 12.7223C10.2487 12.5428 10.2414 12.3633 10.232 12.184C10.2431 12.167 10.2542 12.15 10.2648 12.1328C10.3004 12.0754 10.3352 12.0176 10.3712 11.9605C10.4433 11.8459 10.5159 11.7321 10.5918 11.6198C10.6574 11.5229 10.725 11.4274 10.7956 11.3339C10.8833 12.0513 10.9612 12.7694 10.997 13.4915C11.0364 14.2867 11.0574 15.0831 11.0687 15.8792C11.0719 16.1016 11.074 16.324 11.0765 16.5464C11.0778 16.6622 11.0791 16.778 11.0781 16.8938C11.0771 17.0046 11.0598 17.1257 11.1004 17.2305C11.124 17.2917 11.2068 17.2928 11.2301 17.2305Z" fill="var(--color-dark)"/>
</g>
<g id="head">
<path fill-rule="evenodd" clip-rule="evenodd" d="M5.62801 1.303C8.37422 1.18751 8.56597 1.87009 8.94307 2.30526C9.13022 2.52123 9.61339 2.84106 9.6936 3.57962C9.74925 4.0923 9.39503 4.68322 9.39503 5.14134C9.39503 5.37518 9.72979 5.87721 9.57397 6.21804C9.22703 6.97663 8.49254 7.81854 7.55654 7.81854C6.62054 7.81854 4.89277 7.3774 3.85854 6.11098C3.51978 5.69617 2.88184 1.41849 5.62801 1.303Z" fill="var(--color-light)"/>
<path fill-rule="evenodd" clip-rule="evenodd" d="M4.63075 1.47645C4.77206 1.39209 5.73162 0.923481 6.39039 0.938846C6.73155 0.946819 7.11368 0.921992 7.43588 1.02998C7.59704 1.0842 8.2964 1.15387 8.44562 1.23388C8.4994 1.26265 8.00572 1.29743 8.05341 1.33323L8.06535 1.34222H8.06547C8.1935 1.38687 8.18759 1.38266 8.2913 1.47645C8.49903 1.46036 8.82863 1.56284 9.02952 1.62503C9.30918 1.71171 9.6302 1.8567 9.812 2.08211C10.0238 2.34452 10.4074 3.11806 10.3823 3.44665L10.0022 3.06099C10.0781 3.74168 9.93287 3.72462 9.6874 3.91534C9.66869 3.92984 9.83451 4.10425 9.69953 4.05697C9.8577 4.31992 9.91472 4.50242 9.99238 4.79726C10.2889 5.92343 10.061 7.09787 9.70444 8.18329C9.67515 8.27277 9.53576 8.33214 9.46481 8.24479C9.33816 8.08848 9.15412 7.96935 8.94707 7.94703C8.81936 7.93322 8.69227 7.95815 8.57153 7.90195C8.52421 7.87975 8.47851 7.8435 8.44562 7.79948C8.24187 7.8744 8.02245 7.90978 7.80483 7.90108C7.44763 7.88684 7.06587 7.76684 6.82015 7.50358C6.78073 7.46137 6.77072 7.41393 6.7798 7.37115C6.81064 7.36046 6.84222 7.3525 6.87486 7.34752C7.18643 7.52578 7.52989 7.64485 7.89903 7.65231C8.11236 7.65666 8.3204 7.62769 8.49331 7.49842C8.53074 7.47044 8.56518 7.43948 8.59696 7.40622C8.95857 7.18052 9.2135 6.7971 9.33474 6.38642C9.44765 6.00344 9.43372 5.60467 9.39493 5.21183L9.37441 5.00454C9.34456 4.70029 9.31683 4.39513 9.30906 4.08958L9.31142 4.08947C9.38778 4.08469 9.38833 3.96868 9.31142 3.9735C9.11246 3.986 9.18334 4.07566 8.985 4.08947C9.21536 4.0887 8.70825 3.78655 8.68071 3.69879C8.66498 3.64866 8.57501 3.63877 8.5655 3.69879C8.55275 3.7791 8.54809 3.85895 8.54666 3.93962C7.90232 3.33373 8.3503 3.96354 8.05341 3.9735C7.9987 3.91682 7.58423 3.76434 7.55862 3.69443C7.55488 3.68414 7.55115 3.67399 7.5473 3.6637C7.52479 3.7636 7.49289 3.86132 7.45093 3.95698L7.04143 4.08947C6.62834 4.09134 6.95246 3.57917 6.54906 3.66242C6.52102 3.64154 5.93686 4.39148 6.09088 3.9639C6.24489 3.53633 6.01987 3.53894 5.94586 3.33373L5.93527 3.30477C5.93441 3.30237 5.93349 3.29982 5.93253 3.29713C5.878 3.38255 5.81293 3.46218 5.74196 3.53633C5.70014 3.58003 5.65628 3.62182 5.61128 3.66242C5.56755 3.70953 5.52236 3.75593 5.47857 3.80319C5.48029 3.81179 5.48178 3.82051 5.48299 3.8294C5.49639 3.92746 5.49778 4.02692 5.48797 4.12535C5.47022 4.30332 5.41845 4.4748 5.33528 4.63345L5.33265 4.64933C5.32001 4.72368 5.30204 4.80051 5.26008 4.85649C5.31245 4.91343 5.3528 4.98144 5.37619 5.05701C5.39701 5.12428 5.3011 5.18259 5.25136 5.12753C5.21184 5.08379 5.16795 5.0476 5.11973 5.01873C5.11668 5.02274 5.11118 5.02471 5.10501 5.02136C4.97072 4.94903 4.74263 4.97092 4.60849 5.03905C4.44164 5.1237 4.37651 5.29751 4.39504 5.47363C4.41281 5.64192 4.48869 5.83862 4.63583 5.92488C4.70334 5.96445 4.75592 5.96778 4.82763 5.9488C4.85055 5.94275 4.87897 5.92422 4.89117 5.91501L4.90318 5.90568C4.95018 5.86963 4.99396 5.84494 5.04945 5.84399C5.10619 5.82682 5.16323 5.85064 5.18493 5.90839L5.18627 5.91212C5.19643 5.94155 5.21495 5.97851 5.21092 6.02345C5.20674 6.07157 5.18403 6.11535 5.15013 6.15058C5.1443 6.15666 5.13803 6.16275 5.1316 6.1684C5.71566 6.78201 5.79064 7.73811 5.49115 8.50468C5.47815 8.53832 5.46426 8.57152 5.44977 8.60441C5.39973 8.7172 5.20704 8.68226 5.18254 8.57047C5.17522 8.53701 5.16715 8.50363 5.15834 8.47061C5.14214 8.40955 5.12358 8.34906 5.10266 8.28943L5.0947 8.26711C5.07693 8.2178 5.06035 8.16806 5.04243 8.11882L5.04064 8.11316C5.03996 8.11092 5.03921 8.10837 5.03839 8.10545L5.00807 8.16968L4.9159 8.36348C4.87278 8.45395 4.73575 8.40477 4.73066 8.31759L4.73053 8.31461C4.73008 8.29857 4.72949 8.28259 4.72844 8.2668C4.72186 8.14835 4.70081 8.03326 4.66735 7.92066L4.65527 7.93521C4.47552 8.15084 4.26455 8.35297 3.97514 8.40278C3.90254 8.41521 3.82039 8.34159 3.87028 8.2704C3.89089 8.24099 3.91076 8.21084 3.92958 8.18025C3.9133 8.17285 3.89792 8.1652 3.88372 8.15737C3.77393 8.09749 3.68252 8.01225 3.60693 7.91556C3.44666 7.71057 3.38929 7.4526 3.37525 7.20004C3.36032 6.93319 3.38452 6.65183 3.45965 6.39439C3.49221 6.28307 3.53628 6.17623 3.58722 6.07259C3.58363 6.06331 3.5802 6.05403 3.57676 6.04476C3.52179 5.89603 3.47668 5.74397 3.43919 5.59017C3.3636 5.27967 3.32297 4.95932 3.31804 4.64027C3.30908 4.06871 3.22514 3.46334 3.43919 2.93034C3.66026 2.38066 4.48944 1.56082 4.63075 1.47645ZM4.84019 6.51454C4.79959 6.45252 4.69801 6.50841 4.73571 6.57087L4.73712 6.57311C4.80149 6.67154 4.83167 6.78344 4.86871 6.89318C4.89246 6.96378 5.00793 6.93362 4.98388 6.8623L4.97592 6.83849C4.93906 6.72721 4.90543 6.61412 4.84019 6.51454ZM4.75921 5.33056L4.78619 5.3179C4.87126 5.2785 4.9458 5.25166 5.04632 5.28606C5.1809 5.33201 5.32505 5.47827 5.23408 5.62018C5.20062 5.67251 5.14117 5.69339 5.07992 5.68106C4.97668 5.66028 4.95003 5.57006 4.89764 5.496L4.88862 5.48346C4.85668 5.43864 4.81629 5.37669 4.7631 5.35912C4.751 5.35506 4.74592 5.33679 4.75921 5.33056ZM4.83511 2.31751L4.84379 2.30996C4.9016 2.26039 4.81676 2.17863 4.75924 2.22791C4.49605 2.45361 4.40463 2.80687 4.2681 3.10795C4.23748 3.17564 4.3404 3.23479 4.37132 3.16651C4.50156 2.87921 4.588 2.53554 4.83511 2.31751ZM7.99801 2.21878C7.92925 2.18871 7.86906 2.28583 7.93515 2.31781L7.93764 2.31895C8.17006 2.42085 8.26898 2.65162 8.36367 2.86586C8.39383 2.93429 8.49673 2.87529 8.46688 2.80745L8.44979 2.76901C8.35099 2.54822 8.23571 2.32317 7.99801 2.21878ZM8.36224 2.07934C8.28937 2.05484 8.25816 2.16674 8.33047 2.19124C8.52751 2.25778 8.66268 2.40128 8.77665 2.56537C8.81936 2.62683 8.92288 2.56885 8.87967 2.50681C8.74736 2.31634 8.59024 2.15645 8.36224 2.07934Z" fill="var(--color-dark)"/>
<path d="M3.31042 7.56195C2.54876 7.8285 2.77726 7.44773 3.46275 6.83838L4.52907 7.2954C4.37674 7.2954 3.91974 7.34868 3.31042 7.56195Z" fill="var(--color-dark)"/>
<path fill-rule="evenodd" clip-rule="evenodd" d="M7.71548 6.84321C7.58248 6.81903 7.46385 6.77871 7.37705 6.72719C7.3469 6.70929 7.33912 6.69038 7.3454 6.67308C7.35255 6.65363 7.37836 6.63601 7.41355 6.62418C7.44887 6.61232 7.49307 6.60647 7.53579 6.60945C7.57291 6.61204 7.60984 6.6211 7.63912 6.63989L7.64522 6.64364C7.69676 6.67473 7.76397 6.70024 7.84057 6.71669C7.91438 6.73254 7.99689 6.73993 8.08232 6.73563C8.24497 6.72744 8.35713 6.68823 8.47633 6.63499C8.49106 6.62827 8.50586 6.62133 8.52072 6.61429C8.53011 6.6079 8.5431 6.6038 8.55753 6.60165C8.57363 6.59925 8.59179 6.59939 8.60839 6.60198C8.62443 6.60447 8.63873 6.6092 8.64837 6.61549C8.65751 6.62146 8.66267 6.62885 8.66099 6.63735C8.65011 6.69253 8.58538 6.74177 8.49342 6.78044C8.39127 6.82338 8.25591 6.85309 8.12845 6.86351C7.98806 6.87499 7.84499 6.86676 7.71548 6.84321ZM8.31883 5.55553C8.41583 5.61067 8.55243 5.8122 8.4481 5.9489C8.32524 6.06944 8.25417 5.88839 8.12491 5.91864C7.99564 5.9489 7.98526 5.95287 8.06024 6.00943C8.69003 6.44544 8.81208 5.54401 8.31883 5.46476C8.26449 5.45602 8.2934 5.53847 8.31883 5.55553Z" fill="var(--color-dark)"/>
</g>
<g class="eyes">
<path fill-rule="evenodd" clip-rule="evenodd" d="M6.7444 4.9018C6.76187 4.76988 7.09215 4.73992 7.12498 4.87046C7.15445 4.9874 7.11982 5.09482 7.03321 5.20011C6.95045 5.30068 6.74253 5.25376 6.7268 5.16217C6.70572 5.0394 6.73352 4.98386 6.7444 4.9018Z" fill="var(--color-dark)"/>
<path fill-rule="evenodd" clip-rule="evenodd" d="M8.67289 4.87741C8.70615 4.83524 8.75422 4.80646 8.81179 4.82273C8.99173 4.87357 8.93869 5.12062 8.87552 5.24087C8.84114 5.30617 8.73022 5.32272 8.68004 5.26523C8.59834 5.17147 8.55917 4.98422 8.66307 4.89186C8.66593 4.88709 8.66903 4.88227 8.67289 4.87741Z" fill="var(--color-dark)"/>
</g>
<g>
<path fill-rule="evenodd" clip-rule="evenodd" d="M7.2484 4.24708L7.27725 4.24657C7.36641 4.24518 7.47665 4.24754 7.52726 4.32437C7.55405 4.36511 7.55455 4.43338 7.50518 4.46104C7.41845 4.50972 7.337 4.47347 7.24386 4.46462C7.16707 4.45734 7.09196 4.45847 7.01542 4.46765C6.84742 4.48781 6.70336 4.54915 6.55165 4.61751C6.53175 4.62647 6.51696 4.6014 6.52815 4.5864C6.63167 4.44818 6.8052 4.34802 6.97122 4.29607C7.05982 4.26834 7.15507 4.24863 7.2484 4.24708Z" fill="var(--color-dark)"/>
<path fill-rule="evenodd" clip-rule="evenodd" d="M8.62132 4.27091L8.64352 4.27076C8.88532 4.27017 9.20652 4.3021 9.36402 4.4997C9.37496 4.52996 9.37204 4.53753 9.36936 4.54263L9.36849 4.54432C9.36632 4.54864 9.36507 4.55426 9.35208 4.56135C9.34804 4.56125 9.34387 4.5611 9.33971 4.56091C9.28667 4.55846 9.24308 4.54905 9.20062 4.53872L9.15455 4.52737C9.10114 4.51431 9.04748 4.50218 8.99214 4.49644C8.87401 4.4842 8.755 4.48292 8.63674 4.49344C8.61113 4.49572 8.58526 4.49249 8.56319 4.48238C8.54223 4.47278 8.52445 4.45721 8.51289 4.43403C8.49784 4.40405 8.49498 4.37961 8.5063 4.34747C8.51488 4.32332 8.53048 4.30459 8.55032 4.29161C8.57052 4.27839 8.59527 4.27118 8.62132 4.27091Z" fill="var(--color-dark)"/>
</g>
</svg>