<svg width="5em" height="1em" viewBox="0 0 101 13" fill="none" >
<path d="M3.9 0.69V9.51H7.425V12H0.96V0.69H3.9ZM14.8218 3.18H11.3268V5.07H14.6418V7.56H11.3268V9.51H14.8218V12H8.38676V0.69H14.8218V3.18ZM16.6338 12V0.69H19.5738L24.9588 7.605H24.9888V0.69H27.9288V12H24.9888L19.6038 5.07H19.5738V12H16.6338ZM36.2817 3.18H32.7867V5.07H36.1017V7.56H32.7867V9.51H36.2817V12H29.8467V0.69H36.2817V3.18ZM48.7404 9.195L46.9554 7.275C46.4754 7.575 45.8904 7.995 45.8904 8.625C45.8904 9.3 46.5654 9.66 47.1654 9.66C47.7204 9.66 48.2754 9.465 48.7404 9.195ZM48.1704 4.815C48.6804 4.53 49.2204 4.05 49.2204 3.435C49.2204 2.865 48.8304 2.385 48.2304 2.385C47.7054 2.385 47.2854 2.76 47.2854 3.315C47.2854 3.87 47.8104 4.41 48.1704 4.815ZM51.3204 12L50.3454 10.95C49.2204 11.715 47.8404 12.3 46.4754 12.3C44.5254 12.3 42.8454 11.13 42.8454 9.06C42.8454 7.365 43.8504 6.54 45.2754 5.91L45.5454 5.79L45.3054 5.46C44.9454 4.965 44.4954 4.425 44.4954 3.495C44.4954 1.545 46.1904 0.389999 48.0054 0.389999C49.8054 0.389999 51.5454 1.53 51.5454 3.465C51.5454 4.875 50.6154 5.595 49.4454 6.18L50.8704 7.68C51.4254 7.185 51.9354 6.675 52.3554 6.075L54.0204 7.665L52.5954 9.195L52.4604 9.33L54.9954 12H51.3204ZM61.0918 12V0.69H65.2618C68.4118 0.69 71.0068 3.165 71.0068 6.345C71.0068 9.525 68.3968 12 65.2618 12H61.0918ZM64.0318 3.18V9.51H64.6918C66.4468 9.51 67.9468 8.55 67.9468 6.345C67.9468 4.32 66.6118 3.18 64.7218 3.18H64.0318ZM79.3011 10.035H75.2511L74.4711 12H71.3511L75.7011 0.69H78.9111L83.1711 12H80.0361L79.3011 10.035ZM78.5061 7.785L77.3061 4.185H77.2761L76.0611 7.785H78.5061ZM84.0899 12V0.69H87.0299L92.4149 7.605H92.4449V0.69H95.3849V12H92.4449L87.0599 5.07H87.0299V12H84.0899ZM100.243 0.69V12H97.3028V0.69H100.243Z" fill="currentColor"/>
</svg>
