<svg
  class="arrow whimsical-hi"
  viewBox="0 0 64 64"
  fill="none"
  xmlns="http://www.w3.org/2000/svg"
>
  <path
    d="M37.2051 3.77078C37.1838 3.79211 37.0184 3.82945 36.8371 3.84545C36.4904 3.88811 35.6851 4.06945 35.4771 4.16011C35.4078 4.19211 35.3064 4.32011 35.2424 4.45878C35.0558 4.89078 35.1571 5.28545 35.7224 6.32011C36.0958 7.00811 36.2451 7.20011 36.5811 7.42411C36.7144 7.52011 36.9331 7.68011 37.0664 7.79211C37.3278 8.00545 38.1171 8.50145 39.7598 9.46678C42.4531 11.0561 45.3598 12.8481 45.3171 12.8854C45.3011 12.9014 44.8904 12.8268 44.3944 12.7254C42.7464 12.3894 41.5518 12.2081 39.6798 12.0161C38.5118 11.8988 35.1678 11.8828 34.1331 11.9894C33.1624 12.0908 30.9918 12.4054 29.9838 12.5921C27.6051 13.0294 23.7011 14.0801 21.9198 14.7574C18.3891 16.1014 15.8238 18.1921 13.2425 21.8401C11.6211 24.1281 10.5491 26.6081 9.73313 29.9414C8.8158 33.7014 8.35714 36.5974 8.05314 40.5601C7.81847 43.6534 7.81847 45.5841 8.05314 47.3441C8.2078 48.4961 8.33047 49.1254 8.69314 50.5334C8.86914 51.2054 9.0558 51.9894 9.11447 52.2721C9.2318 52.8641 9.41847 53.2694 9.6638 53.4614C9.81847 53.5788 9.85047 53.5894 9.94647 53.5254C10.0905 53.4294 10.2185 53.1894 10.3518 52.7414C10.4585 52.3948 10.4638 52.2828 10.4371 51.3921C10.4211 50.8641 10.3571 50.0534 10.2985 49.6001C9.95713 46.9654 10.0158 44.9708 10.5331 41.8401C11.0025 39.0028 11.4451 37.1254 12.5065 33.4934C13.6051 29.7334 13.8665 28.9708 14.4265 27.9094C15.1465 26.5441 16.3785 24.8641 17.8558 23.2374C19.4878 21.4401 21.4718 20.0694 23.7651 19.1574C25.2478 18.5654 28.5438 17.6428 30.7464 17.2001C33.1411 16.7201 34.6078 16.5708 36.8798 16.5654C40.0584 16.5601 43.0824 16.8801 46.7998 17.6001C47.8718 17.8081 49.5038 18.1868 49.5624 18.2348C49.5838 18.2561 48.8264 18.5121 47.8824 18.8001C43.6158 20.0908 42.2931 20.5921 41.2318 21.3014C39.7758 22.2721 38.1864 23.9414 37.5678 25.1468C37.2158 25.8294 37.1464 26.0481 37.2264 26.2401C37.3278 26.4854 37.5731 26.5334 38.6931 26.5281C39.7438 26.5228 40.5224 26.4321 41.7864 26.1814C43.2851 25.8881 43.9358 25.6748 45.2691 25.0721C45.5944 24.9228 46.9651 24.3308 48.3091 23.7601C50.9384 22.6348 52.9438 21.6694 53.9198 21.0614C54.6611 20.5974 55.3651 20.0588 55.5357 19.8241C55.7117 19.5894 56.1597 18.6721 56.1597 18.5494C56.1597 18.4961 56.1917 18.3948 56.2344 18.3308C56.4104 18.0588 56.5544 17.1254 56.4851 16.7574C56.4211 16.4428 56.2504 16.2828 55.4397 15.7708C54.0211 14.8854 52.9278 14.1068 52.2131 13.4668C50.9971 12.3841 50.6398 12.0854 49.0718 10.8268C46.9864 9.15744 42.4691 6.18145 40.2078 4.99211C38.6238 4.16011 37.6958 3.73345 37.4664 3.73345C37.3438 3.73345 37.2264 3.74945 37.2051 3.77078Z"
  />
</svg>
