<svg width="2em" height="2em" viewBox="0 0 31 31" fill="none" xmlns="http://www.w3.org/2000/svg">
<g clip-path="url(#clip0_2007_140)">
<path d="M0 0H26.04C27.3555 0 28.6171 0.52257 29.5472 1.45275C30.4774 2.38293 31 3.64453 31 4.96V26.04C31 27.3555 30.4774 28.6171 29.5472 29.5472C28.6171 30.4774 27.3555 31 26.04 31H4.96C3.64453 31 2.38293 30.4774 1.45275 29.5472C0.52257 28.6171 0 27.3555 0 26.04L0 0Z" fill="var(--color-text, white)"/>
<path d="M3.21313 27.9167V17.5602H5.05884V21.8229H7.00708V17.5602H8.85278V27.9167H7.00708V23.4782H5.05884V27.9167H3.21313ZM11.4602 27.9167V19.2301H9.65845V17.5602H15.0784V19.2301H13.2913V27.9167H11.4602ZM15.884 27.9167V17.5602H17.7297L19.5315 23.0241L21.3479 17.5602H23.1936V27.9167H21.3479V21.8522L20.0295 25.9098H19.0334L17.7297 21.8961V27.9167H15.884ZM24.4387 27.9167V17.5602H26.2844V26.2614H29.053V27.9167H24.4387Z" fill="var(--color-bg, black)"/>
</g>
<defs>
<clipPath id="clip0_2007_140">
<rect width="31" height="31" fill="var(--color-text, white)"/>
</clipPath>
</defs>
</svg>
