<svg width="2em" height="2em" viewBox="0 0 31 31" fill="none" xmlns="http://www.w3.org/2000/svg">
<g clip-path="url(#clip0_2007_136)">
<path d="M0 0H26.04C27.3555 0 28.6171 0.52257 29.5472 1.45275C30.4774 2.38293 31 3.64453 31 4.96V26.04C31 27.3555 30.4774 28.6171 29.5472 29.5472C28.6171 30.4774 27.3555 31 26.04 31H4.96C3.64453 31 2.38293 30.4774 1.45275 29.5472C0.52257 28.6171 0 27.3555 0 26.04L0 0Z" fill="var(--color-text, white)"/>
<path d="M17.3577 27.3333V25.4927H17.6322C18.3265 25.4927 18.6817 25.1214 18.6817 24.3948V15.9182H20.7161V24.6208C20.7161 26.4292 19.7312 27.3333 17.7614 27.3333H17.3577ZM24.8978 27.4625C22.8958 27.4625 21.814 26.2516 21.7817 24.0719V23.8297H23.703V24.0719C23.7353 25.1859 24.139 25.7188 24.9463 25.7188C25.7536 25.7188 26.0926 25.2505 26.0926 24.1849C26.0926 23.313 25.7213 22.8448 24.7525 22.425L23.9775 22.0698C22.5083 21.3917 21.8947 20.5682 21.8947 18.9052C21.8947 17.0323 23.0411 15.7406 24.9786 15.7406C26.8353 15.7406 27.901 16.9031 27.9655 19.0344V19.4542H26.1088V19.0344C26.0765 18.0172 25.7859 17.5005 24.9786 17.5005C24.2359 17.5005 23.8645 17.9365 23.8645 18.8083C23.8645 19.6156 24.1874 20.0354 25.0593 20.3906L25.802 20.7136C27.3681 21.424 28.0786 22.3604 28.0786 24.1526C28.0786 26.2839 26.8999 27.4625 24.8978 27.4625Z" fill="var(--color-bg, black)"/>
</g>
<defs>
<clipPath id="clip0_2007_136">
<rect width="31" height="31" fill="white"/>
</clipPath>
</defs>
</svg>
